<?xml version="1.0" encoding="utf-8"?>
<!-- Generator: Adobe Illustrator 18.1.1, SVG Export Plug-In . SVG Version: 6.00 Build 0)  -->
<svg version="1.1" id="图层_1" xmlns="http://www.w3.org/2000/svg" xmlns:xlink="http://www.w3.org/1999/xlink" x="0px" y="0px"
	 viewBox="0 0 170 170" enable-background="new 0 0 170 170" xml:space="preserve">
<g>
	
		<line fill="none" stroke="#006EC3" stroke-width="6" stroke-linecap="round" stroke-linejoin="round" stroke-miterlimit="10" x1="67.6" y1="65.1" x2="122.3" y2="65.1"/>
	
		<line fill="none" stroke="#006EC3" stroke-width="6" stroke-linecap="round" stroke-linejoin="round" stroke-miterlimit="10" x1="67.6" y1="90" x2="122.3" y2="90"/>
	
		<line fill="none" stroke="#006EC3" stroke-width="6" stroke-linecap="round" stroke-linejoin="round" stroke-miterlimit="10" x1="67.6" y1="114.8" x2="122.3" y2="114.8"/>
	
		<line fill="none" stroke="#006EC3" stroke-width="6" stroke-linecap="round" stroke-linejoin="round" stroke-miterlimit="10" x1="67.6" y1="139.7" x2="122.3" y2="139.7"/>
	
		<line fill="none" stroke="#006EC3" stroke-width="6" stroke-linecap="round" stroke-linejoin="round" stroke-miterlimit="10" x1="54.4" y1="65.1" x2="50.9" y2="65.1"/>
	
		<line fill="none" stroke="#006EC3" stroke-width="6" stroke-linecap="round" stroke-linejoin="round" stroke-miterlimit="10" x1="54.4" y1="90" x2="50.9" y2="90"/>
	
		<line fill="none" stroke="#006EC3" stroke-width="6" stroke-linecap="round" stroke-linejoin="round" stroke-miterlimit="10" x1="54.4" y1="114.8" x2="50.9" y2="114.8"/>
	
		<line fill="none" stroke="#006EC3" stroke-width="6" stroke-linecap="round" stroke-linejoin="round" stroke-miterlimit="10" x1="54.4" y1="139.7" x2="50.9" y2="139.7"/>
	<path fill="none" stroke="#10AAE2" stroke-width="6" stroke-miterlimit="10" d="M62.6,25.3H40.3c-5.5,0-9.9,4.5-9.9,9.9v116.8
		c0,5.5,4.5,9.9,9.9,9.9h89.5c5.5,0,9.9-4.5,9.9-9.9V35.3c0-5.5-4.5-9.9-9.9-9.9h-22.4"/>
	<path fill="none" stroke="#006EC3" stroke-width="6" stroke-linecap="round" stroke-linejoin="round" stroke-miterlimit="10" d="
		M94.9,17.9L94.9,17.9c0-5.5-4.5-9.9-9.9-9.9h0c-5.5,0-9.9,4.5-9.9,9.9v0h-2.2c-4.6,0-8.5,3.1-9.6,7.5l0,0
		c-1.6,6.3,3.2,12.4,9.6,12.4h24.2c6.5,0,11.2-6.1,9.6-12.4l0,0c-1.1-4.4-5.1-7.5-9.6-7.5H94.9z"/>
</g>
</svg>
