<?xml version="1.0" encoding="utf-8"?>
<!-- Generator: Adobe Illustrator 18.1.1, SVG Export Plug-In . SVG Version: 6.00 Build 0)  -->
<svg version="1.1" id="图层_1" xmlns="http://www.w3.org/2000/svg" xmlns:xlink="http://www.w3.org/1999/xlink" x="0px" y="0px"
	 viewBox="0 0 170 170" enable-background="new 0 0 170 170" xml:space="preserve">
<g>
	
		<line fill="none" stroke="#10AAE2" stroke-width="6" stroke-linecap="round" stroke-linejoin="round" stroke-miterlimit="10" x1="27.1" y1="68" x2="142.9" y2="68.1"/>
	<path fill="none" stroke="#10AAE2" stroke-width="6" stroke-linecap="round" stroke-linejoin="round" stroke-miterlimit="10" d="
		M81.1,122.1L60.9,70.1C60,67.7,60,65.1,61,62.8l10.3-25"/>
	<path fill="none" stroke="#10AAE2" stroke-width="6" stroke-linecap="round" stroke-linejoin="round" stroke-miterlimit="10" d="
		M98.7,37.9l10.3,25c1,2.3,1,4.9,0.1,7.2l-20.3,52.2"/>
	<path fill="none" stroke="#006EC3" stroke-width="6" stroke-linecap="round" stroke-linejoin="round" stroke-miterlimit="10" d="
		M126.8,31.9c-2.4-2.4-5.8-3.8-9.2-3.8H85H52.4c-3.4,0-6.7,1.4-9.2,3.8L19,55.7c-4.9,4.9-5.2,12.8-0.6,18l56.8,63.8
		c5.2,5.8,14.3,5.8,19.5,0l56.8-63.7c4.6-5.2,4.4-13.1-0.6-18L126.8,31.9z"/>
</g>
</svg>
