<?xml version="1.0" encoding="utf-8"?>
<!-- Generator: Adobe Illustrator 18.1.1, SVG Export Plug-In . SVG Version: 6.00 Build 0)  -->
<svg version="1.1" id="图层_1" xmlns="http://www.w3.org/2000/svg" xmlns:xlink="http://www.w3.org/1999/xlink" x="0px" y="0px"
	 viewBox="0 0 195.9 186.2" enable-background="new 0 0 195.9 186.2" xml:space="preserve">
<g>
	<g>
		<path fill="#00A03F" d="M97.6,75.8l-2.4,9.8c6.9,2.6,14.6,3.6,23.1,2.8l-3.1-12.7H97.6z M106.4,43.1c-0.8,0-1,0.3-1.2,1.2
			l-5.5,22.8h13.5l-5.5-22.8C107.4,43.4,107.1,43.1,106.4,43.1z M170.8,30.2C167.4,17.7,160,9,148.4,4.2c-11.5-4.9-24.2-5.5-38-1.8
			c-15.8,4.3-27.3,11-34.6,20.3C68.5,32,66.6,43.1,70,55.9c2.9,10.9,8.1,19.1,15.6,24.6L95.7,42c1.8-7.1,7.4-7.8,10.7-7.8
			c3.3,0,8.8,0.7,10.7,7.8l11.7,44.9c1.2-0.3,2.5-0.6,3.8-0.9V51.2c0-0.8,0.7-1.5,1.5-1.5h7.1c0.8,0,1.5,0.7,1.5,1.5v31.4
			c10.5-4.2,18.4-10,23.6-17.4C172.9,55.6,174.4,43.9,170.8,30.2z M142.9,42.4c0,0.8-0.7,1.5-1.5,1.5h-7.4c-0.8,0-1.6-0.7-1.6-1.5
			v-6.7c0-0.8,0.8-1.5,1.6-1.5h7.4c0.8,0,1.5,0.7,1.5,1.5V42.4z"/>
	</g>
	<g>
		<path fill="#00A03F" d="M25.2,134.9h-4.5c-0.4,0-0.7-0.3-0.8-0.7l-2-8.1H8.1l-2,8.1c-0.1,0.4-0.4,0.7-0.8,0.7H0.8
			c-0.4,0-0.8-0.3-0.8-0.7c0,0,0-0.1,0-0.2l7-26.8c1-4,4.1-4.4,5.9-4.4c1.8,0,4.9,0.4,5.9,4.4l7,26.8c0,0.1,0,0.2,0,0.2
			C26,134.6,25.7,134.9,25.2,134.9z M13.7,108.5c-0.1-0.5-0.3-0.7-0.7-0.7c-0.4,0-0.6,0.2-0.7,0.7l-3.1,12.7h7.5L13.7,108.5z"/>
		<path fill="#00A03F" d="M37.2,135.3c-1,0-2.5-0.1-4.1-0.3v7.6c0,0.5-0.4,0.9-0.9,0.9h-3.9c-0.5,0-0.9-0.4-0.9-0.9v-29.8
			c0-0.6,0.2-0.9,1.2-1.2c2.7-0.7,5.9-1.1,8.6-1.1c6.9,0,10.2,4.1,10.2,10.7v3.3C47.4,131.2,44.1,135.3,37.2,135.3z M41.8,121.2
			c0-3.5-0.9-6.1-4.6-6.1c-1.5,0-3.3,0.1-4.1,0.3v14.9c1.2,0.2,3.1,0.3,4.1,0.3c3.7,0,4.6-2.6,4.6-6.1V121.2z"/>
		<path fill="#00A03F" d="M59.7,135.3c-1,0-2.5-0.1-4.1-0.3v7.6c0,0.5-0.4,0.9-0.9,0.9h-3.9c-0.5,0-0.9-0.4-0.9-0.9v-29.8
			c0-0.6,0.2-0.9,1.2-1.2c2.6-0.7,5.9-1.1,8.6-1.1c6.9,0,10.2,4.1,10.2,10.7v3.3C69.9,131.2,66.6,135.3,59.7,135.3z M64.3,121.2
			c0-3.5-0.9-6.1-4.6-6.1c-1.5,0-3.3,0.1-4.1,0.3v14.9c1.2,0.2,3.1,0.3,4.1,0.3c3.7,0,4.6-2.6,4.6-6.1V121.2z"/>
		<path fill="#00A03F" d="M77.5,134.9h-4c-0.5,0-0.9-0.4-0.9-0.9v-30.8c0-0.5,0.4-0.9,0.9-0.9h4c0.5,0,0.8,0.4,0.8,0.9V134
			C78.4,134.5,78,134.9,77.5,134.9z"/>
		<path fill="#00A03F" d="M87,107.6h-4.1c-0.5,0-0.9-0.4-0.9-0.9V103c0-0.5,0.4-0.9,0.9-0.9H87c0.5,0,0.9,0.4,0.9,0.9v3.8
			C87.9,107.2,87.5,107.6,87,107.6z M86.9,134.9H83c-0.5,0-0.9-0.4-0.9-0.9v-22.4c0-0.5,0.4-0.9,0.9-0.9h3.9c0.5,0,0.9,0.4,0.9,0.9
			V134C87.8,134.5,87.4,134.9,86.9,134.9z"/>
		<path fill="#00A03F" d="M105.7,134.7c-1,0.3-2.9,0.6-5.5,0.6c-5.6,0-9.7-3.4-9.7-10.4v-4c0-7,4.2-10.4,9.7-10.4
			c2.6,0,4.5,0.3,5.5,0.6c0.7,0.2,0.9,0.4,0.9,1.1v2.8c0,0.4-0.3,0.6-0.8,0.6c0,0-0.1,0-0.1,0c-1.7-0.2-2.7-0.3-5.5-0.3
			c-2,0-4.1,1.2-4.1,5.6v4c0,4.4,2.1,5.6,4.1,5.6c2.8,0,3.8-0.1,5.5-0.3c0,0,0.1,0,0.1,0c0.4,0,0.8,0.2,0.8,0.6v2.8
			C106.6,134.3,106.4,134.5,105.7,134.7z"/>
		<path fill="#00A03F" d="M126.2,134.9h-3.6c-0.5,0-0.9-0.4-0.9-0.9v-0.7c-2,1.2-4,1.9-6,1.9c-3.5,0-7.4-1.4-7.4-7.1v-0.2
			c0-4.9,3-7.4,10.4-7.4h2.7v-1.9c0-2.8-1.2-3.5-3.8-3.5c-2.7,0-5.6,0.2-7,0.3c-0.1,0-0.2,0-0.2,0c-0.4,0-0.8-0.1-0.8-0.7v-2.7
			c0-0.5,0.3-0.8,0.8-0.9c1.7-0.3,4.2-0.7,7.1-0.7c6.1,0,9.4,2.7,9.4,8.2v15.4C127,134.5,126.7,134.9,126.2,134.9z M121.4,124.3
			h-2.7c-3.9,0-4.7,1.2-4.7,3.6v0.2c0,2.1,0.9,2.7,3.1,2.7c1.5,0,3.1-0.5,4.4-1.2V124.3z"/>
		<path fill="#00A03F" d="M141.9,135c-1,0.2-2,0.3-2.9,0.3c-4.8,0-6.8-1.1-6.8-6.8V115l-4-0.6c-0.5-0.1-0.9-0.4-0.9-0.9v-1.9
			c0-0.5,0.4-0.9,0.9-0.9h4v-3.5c0-0.5,0.4-0.8,0.9-0.9l4-0.7c0,0,0.1,0,0.2,0c0.4,0,0.7,0.2,0.7,0.6v4.4h3.8c0.5,0,0.9,0.4,0.9,0.9
			v2.5c0,0.5-0.4,0.9-0.9,0.9h-3.8v13.4c0,2.1,0.1,2.4,1.7,2.4h2.3c0.6,0,0.9,0.2,0.9,0.6v2.7C142.7,134.6,142.5,134.9,141.9,135z"
			/>
		<path fill="#00A03F" d="M149.5,107.6h-4.1c-0.5,0-0.9-0.4-0.9-0.9V103c0-0.5,0.4-0.9,0.9-0.9h4.1c0.5,0,0.9,0.4,0.9,0.9v3.8
			C150.3,107.2,150,107.6,149.5,107.6z M149.4,134.9h-3.9c-0.5,0-0.9-0.4-0.9-0.9v-22.4c0-0.5,0.4-0.9,0.9-0.9h3.9
			c0.5,0,0.9,0.4,0.9,0.9V134C150.2,134.5,149.8,134.9,149.4,134.9z"/>
		<path fill="#00A03F" d="M163.2,135.3c-6.7,0-10.2-4.5-10.2-10.6v-3.5c0-6.1,3.5-10.6,10.2-10.6c6.7,0,10.2,4.5,10.2,10.6v3.5
			C173.5,130.7,170,135.3,163.2,135.3z M167.8,121.1c0-3.5-1.6-5.8-4.6-5.8s-4.6,2.3-4.6,5.8v3.5c0,3.5,1.6,5.8,4.6,5.8
			s4.6-2.3,4.6-5.8V121.1z"/>
		<path fill="#00A03F" d="M195,134.9h-3.9c-0.5,0-0.9-0.4-0.9-0.9v-13.9c0-3.7-0.3-4.8-3.6-4.8c-1.5,0-3,0.6-4.8,1.5V134
			c0,0.5-0.4,0.9-0.9,0.9H177c-0.5,0-0.9-0.4-0.9-0.9v-22.4c0-0.5,0.4-0.9,0.9-0.9h3.7c0.5,0,0.9,0.4,0.9,0.9v0.9
			c2.5-1.6,4.1-2.1,6.9-2.1c6.2,0,7.4,4.1,7.4,9.6V134C195.9,134.5,195.5,134.9,195,134.9z"/>
		<path fill="#00A03F" d="M7.5,177.5H3.2c-0.5,0-0.9-0.4-0.9-0.9v-30.1c0-0.5,0.4-0.8,0.9-0.8h4.2c0.5,0,0.9,0.3,0.9,0.8v30.1
			C8.3,177.1,8,177.5,7.5,177.5z"/>
		<path fill="#00A03F" d="M31.1,177.5h-3.9c-0.5,0-0.9-0.4-0.9-0.9v-13.9c0-3.7-0.3-4.8-3.6-4.8c-1.5,0-3,0.6-4.8,1.5v17.2
			c0,0.5-0.4,0.9-0.9,0.9H13c-0.5,0-0.9-0.4-0.9-0.9v-22.4c0-0.5,0.4-0.9,0.9-0.9h3.7c0.5,0,0.9,0.4,0.9,0.9v0.9
			c2.5-1.6,4.1-2.1,6.9-2.1c6.2,0,7.4,4.1,7.4,9.6v13.9C31.9,177.1,31.6,177.5,31.1,177.5z"/>
		<path fill="#00A03F" d="M43.2,177.8c-1.7,0-5.3-0.2-7.7-0.9c-0.5-0.1-0.8-0.5-0.8-1v-2.6c0-0.3,0.3-0.7,0.7-0.7c0.1,0,0.1,0,0.2,0
			c2.1,0.3,5.9,0.5,7.2,0.5c2.7,0,3-0.9,3-2.1c0-0.8-0.5-1.3-1.9-2.2l-5.9-3.6c-2.1-1.3-3.6-3.4-3.6-5.9c0-4.3,2.7-6.4,8.1-6.4
			c3.5,0,5.4,0.4,7.6,0.9c0.5,0.1,0.8,0.5,0.8,1v2.5c0,0.5-0.3,0.8-0.7,0.8c-0.1,0-0.1,0-0.2,0c-1.2-0.2-4.6-0.5-7.1-0.5
			c-2.1,0-3,0.5-3,1.8c0,0.7,0.6,1.1,1.7,1.8l5.6,3.4c3.6,2.2,4.1,4.3,4.1,6.5C51.6,174.9,48.8,177.8,43.2,177.8z"/>
		<path fill="#00A03F" d="M59.2,150.2H55c-0.5,0-0.9-0.4-0.9-0.9v-3.8c0-0.5,0.4-0.9,0.9-0.9h4.1c0.5,0,0.9,0.4,0.9,0.9v3.8
			C60,149.8,59.6,150.2,59.2,150.2z M59,177.5h-3.9c-0.5,0-0.9-0.4-0.9-0.9v-22.4c0-0.5,0.4-0.9,0.9-0.9H59c0.5,0,0.9,0.4,0.9,0.9
			v22.4C59.9,177.1,59.5,177.5,59,177.5z"/>
		<path fill="#00A03F" d="M83.7,157.3l-1.4,0.6c0.7,1,1.1,1.9,1.1,3.4v0.3c0,5.3-3.7,7.8-10.1,7.8c-2.3,0-3.8-0.4-4.7-0.7
			c-0.5,0.3-0.7,0.7-0.7,1.1c0,0.9,0.5,1.2,1.5,1.4l5,1.2c5.8,1.4,9.6,2.3,9.6,6.8v0.3c0,4.4-3.2,6.7-10.5,6.7
			c-6.9,0-10.6-2.6-10.6-7.1v-0.4c0-1.8,0.8-3.5,2.2-4.7c-1.2-0.9-1.9-2.4-1.9-3.9v0c0-1.3,0.6-2.7,1.7-3.5c-1.3-1.3-1.8-2.9-1.8-5
			v-0.3c0-4.3,2.8-7.9,10.2-7.9h10c0.6,0,1.2,0.5,1.2,1.2v1.8C84.4,157,84.3,157.1,83.7,157.3z M78.3,179.2c0-0.9-0.6-1.5-5-2.6
			l-3.8-0.9c-0.6,0.9-1.1,1.5-1.1,3v0.4c0,1.8,1.1,2.8,5.1,2.8c4.1,0,4.8-0.9,4.8-2.4V179.2z M77.8,161.3c0-2.1-0.9-3.6-4.6-3.6
			c-3.6,0-4.6,1.6-4.6,3.6v0.3c0,1.6,0.6,3.4,4.6,3.4c3.5,0,4.6-1.2,4.6-3.4V161.3z"/>
		<path fill="#00A03F" d="M105.2,177.5h-3.9c-0.5,0-0.9-0.4-0.9-0.9v-14.1c0-3.7-0.6-4.7-3.5-4.7c-1.5,0-3.2,0.5-5,1.5v17.3
			c0,0.5-0.4,0.9-0.9,0.9h-3.9c-0.5,0-0.9-0.4-0.9-0.9v-30.8c0-0.5,0.4-0.9,0.9-0.9H91c0.5,0,0.9,0.4,0.9,0.9v8.8
			c1.6-1,3.4-1.6,6.5-1.6c5.9,0,7.7,4.2,7.7,9.4v14.1C106,177.1,105.6,177.5,105.2,177.5z"/>
		<path fill="#00A03F" d="M121.2,177.5c-1,0.2-2,0.3-2.9,0.3c-4.8,0-6.8-1.1-6.8-6.8v-13.4l-4-0.6c-0.5-0.1-0.9-0.4-0.9-0.9v-1.9
			c0-0.5,0.4-0.9,0.9-0.9h4v-3.5c0-0.5,0.4-0.8,0.9-0.9l4-0.7c0,0,0.1,0,0.2,0c0.4,0,0.7,0.2,0.7,0.6v4.4h3.8c0.5,0,0.9,0.4,0.9,0.9
			v2.5c0,0.5-0.4,0.9-0.9,0.9h-3.8V171c0,2.1,0.1,2.4,1.7,2.4h2.3c0.6,0,0.9,0.2,0.9,0.6v2.7C122,177.2,121.8,177.4,121.2,177.5z"/>
	</g>
</g>
<g>
	<path fill="#0C6D33" d="M12.9,86.9v-2.6c0-4.3-2.3-6.1-5.4-6.1s-5.4,1.8-5.4,6.1v2.6c0,4.3,2.3,6.1,5.4,6.1S12.9,91.2,12.9,86.9z
		 M10.3,86.9c0,2.6-0.9,3.7-2.8,3.7c-1.9,0-2.8-1.2-2.8-3.7v-2.6c0-2.6,0.9-3.7,2.8-3.7c1.9,0,2.8,1.2,2.8,3.7V86.9z"/>
	<path fill="#0C6D33" d="M25.1,92.3l0-13.7c0-0.2-0.2-0.4-0.4-0.4h-1.6c-0.2,0-0.4,0.2-0.4,0.4l0,10.6c0,0.1-0.1,0.2-0.1,0.2
		c-0.1,0-0.1-0.1-0.2-0.2l-4.4-10.4c-0.2-0.5-0.4-0.6-0.8-0.6h-2.1c-0.4,0-0.8,0.4-0.8,0.8l0,13.7c0,0.2,0.2,0.4,0.4,0.4h1.6
		c0.2,0,0.4-0.2,0.4-0.4l0-10.2c0-0.1,0-0.2,0.1-0.2c0.1,0,0.1,0,0.2,0.2l4.2,9.9C21.6,93,22,93,22.4,93h1.9
		C24.8,93,25.1,92.7,25.1,92.3z"/>
	<path fill="#0C6D33" d="M35.4,92.3v-1.3c0-0.2-0.2-0.4-0.4-0.4h-3.9c-1.1,0-1.5-0.4-1.5-1.7v-2.5h5.2c0.2,0,0.4-0.2,0.4-0.4v-1.4
		c0-0.2-0.2-0.4-0.4-0.4h-5.2v-2.1c0-1.3,0.4-1.7,1.5-1.7h3.9c0.2,0,0.4-0.2,0.4-0.4v-1.3c0-0.3-0.1-0.4-0.4-0.4
		c-0.6-0.1-1.4-0.3-3.6-0.3c-2.5,0-4.4,0.7-4.4,4V89c0,3.3,1.9,4,4.4,4c2.3,0,3-0.2,3.6-0.3C35.4,92.7,35.4,92.6,35.4,92.3z"/>
	<path fill="#0C6D33" d="M47.6,92.7C47.6,92.7,47.6,92.6,47.6,92.7l-3.1-12.6c-0.5-1.8-1.8-2-2.6-2c-0.8,0-2.2,0.2-2.6,2L36,92.6
		c0,0,0,0.1,0,0.1c0,0.2,0.2,0.3,0.3,0.3h2c0.2,0,0.3-0.2,0.4-0.3l0.9-3.7H44l0.9,3.7c0,0.2,0.2,0.3,0.4,0.3h2
		C47.4,93,47.6,92.9,47.6,92.7z M43.5,86.8h-3.4l1.4-6c0.1-0.2,0.1-0.3,0.3-0.3c0.2,0,0.2,0.1,0.3,0.3L43.5,86.8z"/>
	<path fill="#0C6D33" d="M58.2,82.8v-0.2c0-3.5-2.6-4.5-5.5-4.5c-1.4,0-2.7,0.1-3.7,0.3c-0.4,0.1-0.6,0.2-0.6,0.6l0,13.7
		c0,0.2,0.2,0.4,0.4,0.4h1.9c0.2,0,0.4-0.2,0.4-0.4l0-5.3c0.4,0,1.2,0.1,1.7,0.1C55.7,87.4,58.2,86.3,58.2,82.8z M55.6,82.8
		c0,1.6-0.8,2.4-2.9,2.4c-0.3,0-1.4,0-1.7-0.1v-4.7c0.3,0,1.3-0.1,1.7-0.1c1.9,0,2.9,0.6,2.9,2.3V82.8z"/>
	<path fill="#0C6D33" d="M71.6,92.7V78.9c0-0.4-0.3-0.8-0.8-0.8h-1.6c-0.3,0-0.6,0.2-0.7,0.5l-2.9,6c-0.1,0.2-0.1,0.3-0.2,0.3
		c-0.1,0-0.1-0.1-0.2-0.3l-2.9-6c-0.1-0.3-0.4-0.5-0.7-0.5h-1.6c-0.4,0-0.8,0.4-0.8,0.8v13.8c0,0.2,0.2,0.3,0.3,0.3h1.9
		c0.2,0,0.3-0.2,0.3-0.4v-9.5c0-0.1,0-0.2,0.1-0.2c0,0,0.1,0.1,0.1,0.1l1.8,3.7c0.1,0.2,0.4,0.3,0.6,0.3h1.9c0.2,0,0.5-0.1,0.6-0.3
		l1.8-3.7C68.9,83,69,83,69,83c0,0,0.1,0.1,0.1,0.2v9.5c0,0.2,0.1,0.4,0.3,0.4h1.9C71.5,93,71.6,92.9,71.6,92.7z"/>
</g>
</svg>
