<?xml version="1.0" encoding="utf-8"?>
<!-- Generator: Adobe Illustrator 18.1.1, SVG Export Plug-In . SVG Version: 6.00 Build 0)  -->
<svg version="1.1" id="图层_1" xmlns="http://www.w3.org/2000/svg" xmlns:xlink="http://www.w3.org/1999/xlink" x="0px" y="0px"
	 viewBox="0 0 1052.4 1000" enable-background="new 0 0 1052.4 1000" xml:space="preserve">
<g>
	<g>
		<g>
			<path fill="#00A03F" d="M524.4,407.1l-12.9,52.6c37,14,78.4,19.4,124.1,15l-16.6-68.2h-94.5L524.4,407.1L524.4,407.1z
				 M571.6,231.5c-4.3,0-5.4,1.6-6.4,6.4l-29.6,122.5h72.5l-29.6-122.5C577,233.1,575.4,231.5,571.6,231.5z M917.6,162.2
				C899.3,95,859.6,48.3,797.3,22.5C735.5-3.8,667.4-7,593.2,12.8C508.3,36,446.5,72,407.2,121.9s-49.5,109.5-31.1,178.4
				c15.6,58.5,43.5,102.6,83.8,132.2l54.3-206.8c9.7-38.1,39.8-41.9,57.5-41.9s47.2,3.8,57.5,41.9l62.8,241.2
				c6.4-1.6,13.5-3.3,20.4-4.8V275c0-4.3,3.8-8.1,8.1-8.1h38.1c4.3,0,8.1,3.8,8.1,8.1v168.7c56.4-22.5,98.8-53.7,126.8-93.4
				C928.8,298.6,936.9,235.8,917.6,162.2z M767.7,227.7c0,4.3-3.8,8.1-8.1,8.1h-39.8c-4.3,0-8.6-3.8-8.6-8.1v-36
				c0-4.3,4.3-8.1,8.6-8.1h39.8c4.3,0,8.1,3.8,8.1,8.1V227.7z"/>
		</g>
		<g>
			<path fill="#00A03F" d="M135.4,724.6h-24.2c-2.1,0-3.8-1.6-4.3-3.8l-10.7-43.5H43.6l-10.7,43.5c-0.5,2.1-2.1,3.8-4.3,3.8H4.3
				c-2.1,0-4.3-1.6-4.3-3.8c0,0,0-0.5,0-1.1l37.7-144c5.4-21.5,22-23.7,31.7-23.7s26.3,2.1,31.7,23.7l37.6,144c0,0.5,0,1.1,0,1.1
				C139.7,722.9,138.2,724.6,135.4,724.6z M73.7,582.8c-0.5-2.7-1.6-3.8-3.8-3.8s-3.3,1.1-3.8,3.8l-16.5,68.2h40.3L73.7,582.8z"/>
			<path fill="#00A03F" d="M199.9,726.7c-5.4,0-13.5-0.5-22-1.6V766c0,2.7-2.1,4.8-4.8,4.8h-20.9c-2.7,0-4.8-2.1-4.8-4.8V605.9
				c0-3.3,1.1-4.8,6.4-6.4c14.5-3.8,31.7-5.9,46.2-5.9c37,0,54.8,22,54.8,57.5v17.7C254.8,704.7,237,726.7,199.9,726.7z
				 M224.7,650.9c0-18.8-4.8-32.7-24.7-32.7c-8.1,0-17.7,0.5-22,1.6v80.1c6.4,1.1,16.6,1.6,22,1.6c19.9,0,24.7-14,24.7-32.7V650.9z"
				/>
			<path fill="#00A03F" d="M320.7,726.7c-5.4,0-13.5-0.5-22-1.6V766c0,2.7-2.1,4.8-4.8,4.8H273c-2.7,0-4.8-2.1-4.8-4.8V605.9
				c0-3.3,1.1-4.8,6.4-6.4c14-3.8,31.7-5.9,46.2-5.9c37,0,54.8,22,54.8,57.5v17.7C375.6,704.7,357.9,726.7,320.7,726.7z
				 M345.5,650.9c0-18.8-4.8-32.7-24.7-32.7c-8.1,0-17.7,0.5-22,1.6v80.1c6.4,1.1,16.6,1.6,22,1.6c19.9,0,24.7-14,24.7-32.7V650.9z"
				/>
			<path fill="#00A03F" d="M416.4,724.6h-21.5c-2.7,0-4.8-2.1-4.8-4.8V554.3c0-2.7,2.1-4.8,4.8-4.8h21.5c2.7,0,4.3,2.1,4.3,4.8
				v165.4C421.2,722.4,419.1,724.6,416.4,724.6z"/>
			<path fill="#00A03F" d="M467.4,577.9h-22c-2.7,0-4.8-2.1-4.8-4.8v-19.9c0-2.7,2.1-4.8,4.8-4.8h22c2.7,0,4.8,2.1,4.8,4.8v20.4
				C472.3,575.8,470.2,577.9,467.4,577.9z M466.9,724.6H446c-2.7,0-4.8-2.1-4.8-4.8V599.4c0-2.7,2.1-4.8,4.8-4.8h20.9
				c2.7,0,4.8,2.1,4.8,4.8v120.3C471.7,722.4,469.5,724.6,466.9,724.6z"/>
			<path fill="#00A03F" d="M567.9,723.5c-5.4,1.6-15.6,3.3-29.6,3.3c-30.1,0-52.1-18.3-52.1-55.9v-21.5c0-37.6,22.5-55.9,52.1-55.9
				c14,0,24.2,1.6,29.6,3.3c3.8,1.1,4.8,2.1,4.8,5.9v15c0,2.1-1.6,3.3-4.3,3.3h-0.5c-9.2-1.1-14.5-1.6-29.6-1.6
				c-10.7,0-22,6.4-22,30.1V671c0,23.7,11.3,30.1,22,30.1c15,0,20.4-0.5,29.6-1.6h0.5c2.1,0,4.3,1.1,4.3,3.3v15
				C572.8,721.3,571.6,722.4,567.9,723.5z"/>
			<path fill="#00A03F" d="M678,724.6h-19.4c-2.7,0-4.8-2.1-4.8-4.8V716c-10.7,6.4-21.5,10.2-32.2,10.2c-18.8,0-39.8-7.5-39.8-38.1
				V687c0-26.3,16.1-39.8,55.9-39.8h14.5v-10.2c0-15-6.4-18.8-20.4-18.8c-14.5,0-30.1,1.1-37.6,1.6c-0.5,0-1.1,0-1.1,0
				c-2.1,0-4.3-0.5-4.3-3.8v-14.5c0-2.7,1.6-4.3,4.3-4.8c9.2-1.6,22.5-3.8,38.1-3.8c32.7,0,50.5,14.5,50.5,44.1v82.7
				C682.3,722.4,680.7,724.6,678,724.6z M652.2,667.7h-14.5c-20.9,0-25.3,6.4-25.3,19.4v1.1c0,11.3,4.8,14.5,16.6,14.5
				c8.1,0,16.6-2.7,23.7-6.4v-28.5L652.2,667.7L652.2,667.7z"/>
			<path fill="#00A03F" d="M762.3,725.1c-5.4,1.1-10.7,1.6-15.6,1.6c-25.8,0-36.5-5.9-36.5-36.5v-72.5l-21.5-3.3
				c-2.7-0.5-4.8-2.1-4.8-4.8v-10.2c0-2.7,2.1-4.8,4.8-4.8h21.5v-18.7c0-2.7,2.1-4.3,4.8-4.8l21.5-3.8c0,0,0.5,0,1.1,0
				c2.1,0,3.8,1.1,3.8,3.3v23.7h20.4c2.7,0,4.8,2.1,4.8,4.8v13.5c0,2.7-2.1,4.8-4.8,4.8h-20.4v72c0,11.3,0.5,12.9,9.2,12.9h12.3
				c3.3,0,4.8,1.1,4.8,3.3V720C766.6,722.9,765.5,724.6,762.3,725.1z"/>
			<path fill="#00A03F" d="M803.1,577.9h-22c-2.7,0-4.8-2.1-4.8-4.8v-19.9c0-2.7,2.1-4.8,4.8-4.8h22c2.7,0,4.8,2.1,4.8,4.8v20.4
				C807.4,575.8,805.8,577.9,803.1,577.9z M802.6,724.6h-20.9c-2.7,0-4.8-2.1-4.8-4.8V599.4c0-2.7,2.1-4.8,4.8-4.8h20.9
				c2.7,0,4.8,2.1,4.8,4.8v120.3C806.9,722.4,804.8,724.6,802.6,724.6z"/>
			<path fill="#00A03F" d="M876.8,726.7c-36,0-54.8-24.2-54.8-56.9v-18.8c0-32.7,18.8-56.9,54.8-56.9s54.8,24.2,54.8,56.9v18.8
				C932.1,702,913.3,726.7,876.8,726.7z M901.5,650.4c0-18.8-8.6-31.1-24.7-31.1S852,631.6,852,650.4v18.8
				c0,18.8,8.6,31.1,24.7,31.1s24.7-12.3,24.7-31.1V650.4z"/>
			<path fill="#00A03F" d="M1047.5,724.6h-20.9c-2.7,0-4.8-2.1-4.8-4.8V645c0-19.9-1.6-25.8-19.4-25.8c-8.1,0-16.1,3.3-25.8,8.1
				v92.4c0,2.7-2.1,4.8-4.8,4.8h-20.9c-2.7,0-4.8-2.1-4.8-4.8V599.4c0-2.7,2.1-4.8,4.8-4.8h19.9c2.7,0,4.8,2.1,4.8,4.8v4.8
				c13.5-8.6,22-11.3,37-11.3c33.3,0,39.8,22,39.8,51.6v75.2C1052.4,722.4,1050.3,724.6,1047.5,724.6z"/>
			<path fill="#00A03F" d="M40.4,953.4H17.3c-2.7,0-4.8-2.1-4.8-4.8V786.9c0-2.7,2.1-4.3,4.8-4.3h22.5c2.7,0,4.8,1.6,4.8,4.3v161.6
				C44.7,951.3,43,953.4,40.4,953.4z"/>
			<path fill="#00A03F" d="M167.2,953.4h-20.9c-2.7,0-4.8-2.1-4.8-4.8v-74.7c0-19.9-1.6-25.8-19.4-25.8c-8.1,0-16.1,3.3-25.8,8.1
				v92.4c0,2.7-2.1,4.8-4.8,4.8H70c-2.7,0-4.8-2.1-4.8-4.8V828.3c0-2.7,2.1-4.8,4.8-4.8h19.9c2.7,0,4.8,2.1,4.8,4.8v4.8
				c13.5-8.6,22-11.3,37-11.3c33.3,0,39.8,22,39.8,51.6v74.7C171.4,951.3,169.8,953.4,167.2,953.4z"/>
			<path fill="#00A03F" d="M232.1,955.1c-9.2,0-28.5-1.1-41.4-4.8c-2.7-0.5-4.3-2.7-4.3-5.4v-14c0-1.6,1.6-3.8,3.8-3.8
				c0.5,0,0.5,0,1.1,0c11.3,1.6,31.7,2.7,38.7,2.7c14.5,0,16.1-4.8,16.1-11.3c0-4.3-2.7-6.9-10.2-11.8l-31.7-19.5
				c-11.3-6.9-19.4-18.3-19.4-31.7c0-23.2,14.5-34.4,43.5-34.4c18.8,0,29,2.1,40.8,4.8c2.7,0.5,4.3,2.7,4.3,5.4v13.5
				c0,2.7-1.6,4.3-3.8,4.3c-0.5,0-0.5,0-1.1,0c-6.4-1.1-24.7-2.7-38.1-2.7c-11.3,0-16.1,2.7-16.1,9.7c0,3.8,3.3,5.9,9.2,9.7
				l30.1,18.3c19.4,11.8,22,23.2,22,34.9C277.3,939.5,262.2,955.1,232.1,955.1z"/>
			<path fill="#00A03F" d="M318.1,806.8h-22.5c-2.7,0-4.8-2.1-4.8-4.8v-20.4c0-2.7,2.1-4.8,4.8-4.8h22c2.7,0,4.8,2.1,4.8,4.8v20.4
				C322.4,804.6,320.2,806.8,318.1,806.8z M317.1,953.4h-20.9c-2.7,0-4.8-2.1-4.8-4.8V828.3c0-2.7,2.1-4.8,4.8-4.8h20.9
				c2.7,0,4.8,2.1,4.8,4.8v120.3C321.9,951.3,319.7,953.4,317.1,953.4z"/>
			<path fill="#00A03F" d="M449.7,844.9l-7.5,3.3c3.8,5.4,5.9,10.2,5.9,18.3v1.6c0,28.5-19.9,41.9-54.3,41.9
				c-12.3,0-20.4-2.1-25.3-3.8c-2.7,1.6-3.8,3.8-3.8,5.9c0,4.8,2.7,6.4,8.1,7.5l26.8,6.4c31.1,7.5,51.6,12.3,51.6,36.5v1.6
				c0,23.7-17.2,36-56.4,36c-37,0-56.9-14-56.9-38.1v-2.1c0-9.7,4.3-18.8,11.8-25.3c-6.4-4.8-10.2-12.9-10.2-20.9l0,0
				c0-6.9,3.3-14.5,9.2-18.8c-6.9-6.9-9.7-15.6-9.7-26.8v-1.6c0-23,15-42.4,54.8-42.4h53.7c3.3,0,6.4,2.7,6.4,6.4v9.7
				C453.4,843.3,452.9,843.8,449.7,844.9z M420.7,962.5c0-4.8-3.3-8.1-26.8-14l-20.4-4.8c-3.3,4.8-5.9,8.1-5.9,16.1v2.1
				c0,9.7,5.9,15,27.4,15c22,0,25.8-4.8,25.8-12.9V962.5z M418,866.3c0-11.3-4.8-19.4-24.7-19.4c-19.4,0-24.7,8.6-24.7,19.4v1.6
				c0,8.6,3.3,18.3,24.7,18.3c18.8,0,24.7-6.4,24.7-18.3V866.3z"/>
			<path fill="#00A03F" d="M565.2,953.4h-20.9c-2.7,0-4.8-2.1-4.8-4.8v-75.8c0-19.9-3.3-25.3-18.8-25.3c-8.1,0-17.2,2.7-26.8,8.1
				v92.9c0,2.7-2.1,4.8-4.8,4.8h-20.9c-2.7,0-4.8-2.1-4.8-4.8V783.1c0-2.7,2.1-4.8,4.8-4.8h20.9c2.7,0,4.8,2.1,4.8,4.8v47.2
				c8.6-5.4,18.3-8.6,34.9-8.6c31.7,0,41.4,22.5,41.4,50.5V948C569.5,951.3,567.4,953.4,565.2,953.4z"/>
			<path fill="#00A03F" d="M651.2,953.4c-5.4,1.1-10.7,1.6-15.6,1.6c-25.8,0-36.5-5.9-36.5-36.5v-72l-21.5-3.3
				c-2.7-0.5-4.8-2.1-4.8-4.8v-10.2c0-2.7,2.1-4.8,4.8-4.8h21.5v-18.8c0-2.7,2.1-4.3,4.8-4.8l21.5-3.8c0,0,0.5,0,1.1,0
				c2.1,0,3.8,1.1,3.8,3.3v23.7h20.4c2.7,0,4.8,2.1,4.8,4.8v13.5c0,2.7-2.1,4.8-4.8,4.8h-20.4v72.5c0,11.3,0.5,12.9,9.2,12.9h12.3
				c3.3,0,4.8,1.1,4.8,3.3v14.5C655.5,951.8,654.3,952.8,651.2,953.4z"/>
		</g>
	</g>
	<g>
		<path fill="#7CC790" d="M69.3,466.8v-14c0-23.2-12.3-32.7-29-32.7s-29,9.7-29,32.7v14c0,23,12.3,32.7,29,32.7
			S69.3,489.8,69.3,466.8z M55.5,466.8c0,14-4.8,19.9-15,19.9s-15-6.5-15-19.9v-14c0-14,4.8-19.9,15-19.9s15,6.4,15,19.9V466.8z"/>
		<path fill="#7CC790" d="M134.9,495.7v-73.6c0-1.1-1.1-2.1-2.1-2.1h-8.6c-1.1,0-2.1,1.1-2.1,2.1v56.9c0,0.5-0.5,1.1-0.5,1.1
			c-0.5,0-0.5-0.5-1.1-1.1l-23.7-55.9c-1.1-2.7-2.1-3.3-4.3-3.3H81.2c-2.1,0-4.3,2.1-4.3,4.3v73.7c0,1.1,1.1,2.1,2.1,2.1h8.6
			c1.1,0,2.1-1.1,2.1-2.1v-54.8c0-0.5,0-1.1,0.5-1.1s0.5,0,1.1,1.1l22.5,53.1c2.1,3.3,4.3,3.3,6.4,3.3h10.2
			C133.3,499.5,134.9,497.9,134.9,495.7z"/>
		<path fill="#7CC790" d="M190.3,495.7v-6.9c0-1.1-1.1-2.1-2.1-2.1h-20.9c-5.9,0-8.1-2.1-8.1-9.2v-13.5H187c1.1,0,2.1-1.1,2.1-2.1
			v-7.5c0-1.1-1.1-2.1-2.1-2.1h-27.9v-11.3c0-6.9,2.1-9.2,8.1-9.2h20.9c1.1,0,2.1-1.1,2.1-2.1v-6.9c0-1.6-0.5-2.1-2.1-2.1
			c-3.3-0.5-7.5-1.6-19.4-1.6c-13.5,0-23.7,3.8-23.7,21.5v37.6c0,17.7,10.2,21.5,23.7,21.5c12.3,0,16.1-1.1,19.4-1.6
			C190.3,497.9,190.3,497.3,190.3,495.7z"/>
		<path fill="#7CC790" d="M255.8,497.9C255.8,497.9,255.8,497.3,255.8,497.9l-16.6-67.7c-2.7-9.7-9.7-10.7-14-10.7
			c-4.3,0-11.8,1.1-14,10.7l-17.7,67.1v0.5c0,1.1,1.1,1.6,1.6,1.6h10.7c1.1,0,1.6-1.1,2.1-1.6l4.8-19.9h23.7l4.8,19.9
			c0,1.1,1.1,1.6,2.1,1.6h10.7C254.8,499.5,255.8,499,255.8,497.9z M233.8,466.2h-18.3L223,434c0.5-1.1,0.5-1.6,1.6-1.6
			s1.1,0.5,1.6,1.6L233.8,466.2z"/>
		<path fill="#7CC790" d="M312.7,444.7v-1.1c0-18.8-14-24.2-29.6-24.2c-7.5,0-14.5,0.5-19.9,1.6c-2.1,0.5-3.3,1.1-3.3,3.3v73.7
			c0,1.1,1.1,2.1,2.1,2.1h10.2c1.1,0,2.1-1.1,2.1-2.1v-28.5c2.1,0,6.4,0.5,9.2,0.5C299.3,469.4,312.7,463.5,312.7,444.7z
			 M298.7,444.7c0,8.6-4.3,12.9-15.6,12.9c-1.6,0-7.5,0-9.2-0.5v-25.3c1.6,0,6.9-0.5,9.2-0.5c10.2,0,15.6,3.3,15.6,12.3V444.7z"/>
		<path fill="#7CC790" d="M384.7,497.9v-74.1c0-2.1-1.6-4.3-4.3-4.3h-8.6c-1.6,0-3.3,1.1-3.8,2.7l-15.6,32.2
			c-0.5,1.1-0.5,1.6-1.1,1.6s-0.5-0.5-1.1-1.6l-15.6-32.3c-0.5-1.6-2.1-2.7-3.8-2.7h-8.6c-2.1,0-4.3,2.1-4.3,4.3v74.2
			c0,1.1,1.1,1.6,1.6,1.6h10.2c1.1,0,1.6-1.1,1.6-2.1v-51c0-0.5,0-1.1,0.5-1.1l0.5,0.5l9.7,19.9c0.5,1.1,2.1,1.6,3.3,1.6h10.2
			c1.1,0,2.7-0.5,3.3-1.6l9.7-19.9c1.6,0,2.1,0,2.1,0s0.5,0.5,0.5,1.1v51c0,1.1,0.5,2.1,1.6,2.1h10.2
			C384.2,499.5,384.7,499,384.7,497.9z"/>
	</g>
</g>
</svg>
