<?xml version="1.0" encoding="utf-8"?>
<!-- Generator: Adobe Illustrator 18.1.1, SVG Export Plug-In . SVG Version: 6.00 Build 0)  -->
<svg version="1.1" id="图层_1" xmlns="http://www.w3.org/2000/svg" xmlns:xlink="http://www.w3.org/1999/xlink" x="0px" y="0px"
	 viewBox="0 0 1000 1000" enable-background="new 0 0 1000 1000" xml:space="preserve">
<g>
	<linearGradient id="SVGID_1_" gradientUnits="userSpaceOnUse" x1="500.0001" y1="296" x2="500.0001" y2="702.5427">
		<stop  offset="0" style="stop-color:#7F7977"/>
		<stop  offset="1" style="stop-color:#000000"/>
	</linearGradient>
	<polygon fill="url(#SVGID_1_)" points="309.5,654 309.5,297 292.5,297 292.5,321 260.5,321 260.5,338 292.5,338 292.5,407 
		260.5,407 260.5,424 292.5,424 292.5,494 260.5,494 260.5,511 292.5,511 292.5,567 260.5,567 260.5,584 292.5,584 292.5,654 
		260.5,654 260.5,671 292.5,671 292.5,703 309.5,703 309.5,671 370.5,671 370.5,703 387.5,703 387.5,671 452.5,671 452.5,703 
		469.5,703 469.5,671 529.5,671 529.5,703 546.5,703 546.5,671 611.5,671 611.5,703 628.5,703 628.5,671 689.5,671 689.5,703 
		706.5,703 706.5,671 739.5,671 739.5,654 	"/>
	<linearGradient id="SVGID_2_" gradientUnits="userSpaceOnUse" x1="517.3175" y1="296" x2="517.3175" y2="702.5427">
		<stop  offset="0" style="stop-color:#7F7977"/>
		<stop  offset="1" style="stop-color:#000000"/>
	</linearGradient>
	<polygon fill="url(#SVGID_2_)" points="442.2,431.1 573.9,569.8 688.8,325.5 673.4,318.2 569.1,540.1 437.4,401.4 345.9,595.6 
		361.2,602.9 	"/>
</g>
</svg>
