<?xml version="1.0" encoding="utf-8"?>
<!-- Generator: Adobe Illustrator 18.1.1, SVG Export Plug-In . SVG Version: 6.00 Build 0)  -->
<svg version="1.1" id="图层_1" xmlns="http://www.w3.org/2000/svg" xmlns:xlink="http://www.w3.org/1999/xlink" x="0px" y="0px"
	 viewBox="0 0 1000 1000" enable-background="new 0 0 1000 1000" xml:space="preserve">
<g id="_x34_82ac366-2112-4a58-807f-08445f0ae429.psd">
	<g id="形状_4_拷贝">
		<g>
			<path fill="#00ADBA" d="M71.3,782.7H48.6c-2.5,0-4.6,1.8-4.6,4.4v161.7c0,2.5,2.1,4.6,4.6,4.6h22.7c2.5,0,4.6-2.1,4.6-4.6V787
				C75.9,784.5,73.9,782.7,71.3,782.7z M162.8,822.2c-15.1,0-23.9,2.5-37.2,11v-4.8c0-2.5-2.1-4.6-4.6-4.6h-20
				c-2.5,0-4.6,2.1-4.6,4.6v120.1c0,2.5,2.1,4.8,4.6,4.8h21.1c2.5,0,4.6-2.3,4.6-4.8v-92.3c9.6-5.1,18.1-8.3,25.9-8.3
				c17.7,0,19.5,5.7,19.5,25.7v74.9c0,2.5,2.1,4.8,4.6,4.8h21.1c2.5,0,4.6-2.3,4.6-4.8v-74.9C202.5,844.5,195.9,822.2,162.8,822.2z
				 M285.7,884.4l-30-18.4c-5.7-3.4-9.2-5.7-9.2-9.4c0-7.1,4.8-9.6,15.8-9.6c13.1,0,31.4,1.8,37.8,2.8h0.9c2.3,0,3.7-1.6,3.7-4.4
				v-13.3c0-2.8-1.4-4.6-4.1-5.3c-11.7-2.5-22.3-4.6-40.8-4.6c-29.1,0-43.6,11.5-43.6,34.5c0,13.3,8,24.8,19.3,31.7l31.4,19.3
				c7.3,4.6,10.1,7.4,10.1,11.7c0,6.2-2.1,11-16.3,11c-6.9,0-27.5-1.1-38.5-2.5h-0.9c-2.3,0-3.9,1.8-3.9,3.7v13.8
				c0,2.8,1.6,4.6,4.4,5.3c12.8,3.4,32.1,4.6,41.1,4.6c30,0,45-15.8,45-35.8C307.8,907.6,305,896.1,285.7,884.4z M348.6,777.2h-22.2
				c-2.5,0-4.8,2.1-4.8,4.6V802c0,2.5,2.3,4.6,4.8,4.6h22.2c2.5,0,4.6-2.1,4.6-4.6v-20.2C353.2,779.2,351.1,777.2,348.6,777.2z
				 M347.9,823.8h-21.1c-2.5,0-4.6,2.1-4.6,4.6v120.1c0,2.5,2.1,4.8,4.6,4.8h21.1c2.5,0,4.6-2.3,4.6-4.8V828.4
				C352.5,825.9,350.4,823.8,347.9,823.8z M477.9,823.8h-53.7c-39.7,0-54.6,19.3-54.6,42.3v1.6c0,11.5,2.5,19.8,9.4,26.9
				c-6.2,4.4-9.2,11.5-9.2,18.6v0.2c0,8.3,3.9,16.3,10.3,21.1c-7.3,6.7-11.7,15.9-11.7,25.3v2.1c0,24.1,19.7,38.1,56.9,38.1
				c39,0,56.2-12.6,56.2-36.1v-1.6c0-24.6-20.2-29.4-51.4-36.8l-27.1-6.4c-5.3-1.2-7.8-3-7.8-7.6c0-2.1,1.1-4.1,3.9-6
				c4.6,1.8,12.8,3.9,25,3.9c34.6,0,54.4-13.1,54.4-41.8v-1.6c0-8-2.1-13.1-5.7-18.4l7.6-3c2.7-1.1,3.7-1.6,3.7-5.1V830
				C484.1,826.5,481.4,823.8,477.9,823.8z M398.1,959.8c0-8.3,2.3-11.3,5.7-16.1l20.4,4.8c24.1,5.7,27.1,8.7,27.1,13.8v1.6
				c0,8.3-3.9,13.1-25.9,13.1c-21.6,0-27.3-5.7-27.3-15.2V959.8z M448.8,868.3c0,11.5-5.5,18.1-24.5,18.1
				c-21.3,0-24.8-9.6-24.8-18.1v-1.8c0-10.8,5.3-19.5,24.8-19.5c19.7,0,24.5,8.5,24.5,19.5V868.3z M558.9,822.2
				c-16.3,0-25.9,3.2-34.6,8.5v-47.5c0-2.5-2.1-4.6-4.6-4.6h-21.1c-2.5,0-4.6,2.1-4.6,4.6v165.4c0,2.5,2.1,4.8,4.6,4.8h21.1
				c2.5,0,4.6-2.3,4.6-4.8v-92.8c9.6-5.1,18.8-7.8,26.6-7.8c15.4,0,18.8,5.1,18.8,25v75.6c0,2.5,2.1,4.8,4.6,4.8h21.1
				c2.5,0,4.6-2.3,4.6-4.8v-75.6C599.9,844.7,590.5,822.2,558.9,822.2z M681.1,931.5h-12.2c-8.3,0-8.9-1.4-8.9-12.9v-72.1h20.6
				c2.5,0,4.6-2.1,4.6-4.6v-13.6c0-2.5-2.1-4.6-4.6-4.6H660v-23.7c0-2.3-1.6-3.4-3.7-3.4h-0.9l-21.3,3.7c-2.5,0.5-4.6,2.1-4.6,4.6
				v18.8h-21.6c-2.5,0-4.6,2.1-4.6,4.6v10.3c0,2.5,2.1,4.1,4.6,4.6l21.6,3.2v72.1c0,30.8,10.5,36.5,36.5,36.5c5,0,10.1-0.7,15.6-1.6
				c3-0.5,4.4-1.8,4.4-4.1V935C685.9,932.7,684.1,931.5,681.1,931.5z M533.8,446.9c9.8,0,25,0.8,33.6,0.8
				c52.4,0,68.8-13.5,68.8-42.3v-5.3c0-22.6-11.9-43.5-50.4-43.5h-52V446.9z M947.3,162.3c-17.9-67-57.8-113.7-119.7-139.9
				C765.6-3.9,697.6-7,623.5,13c-84.8,22.8-146.6,59.2-185.6,109.1c-39,49.9-49.3,109.3-30.9,178.2c13.8,51.6,37,92,69.9,121.1
				V209.7c0-14.8,5.3-20.1,18.4-22.2c10.7-1.6,36.5-4.1,68.4-4.1c74.2,0,126.2,21.3,126.2,83.3v8.2c0,27.1-12.7,51.3-37.7,62
				c25,10.7,39.7,31.6,39.7,62.4v7c0,33.4-12.7,55.8-35.4,69.7c26.4-1.6,54.4-6.2,83.7-14V275c0-4.5,3.7-8.2,8.2-8.2h37.7
				c4.5,0,8.2,3.7,8.2,8.2v169.5c57.4-22.6,100.2-54,128.4-94.2C958.8,298.7,966.9,236.1,947.3,162.3z M795.6,227.8
				c0,4.5-3.7,8.2-8.2,8.2h-39.7c-4.5,0-8.6-3.7-8.6-8.2v-36.1c0-4.5,4.1-8.2,8.6-8.2h39.7c4.5,0,8.2,3.7,8.2,8.2V227.8z
				 M634.5,275.8v-5.7c0-28.7-18.4-39.4-70.9-39.4c-9.8,0-21.3,0.4-29.9,0.8v83.3h52C623.9,314.8,634.5,296.7,634.5,275.8z
				 M164.7,674.5v-3.9c0-17.3-8.3-29-22.3-35c14-6,21.1-19.6,21.1-34.7v-4.6c0-34.7-29.2-46.7-70.7-46.7c-17.9,0-32.4,1.4-38.4,2.3
				c-7.4,1.1-10.3,4.1-10.3,12.4v144.9c0,8.5,3.4,11,11,12.4c7.1,1.4,21.1,2.5,39.7,2.5C137.6,724.2,164.7,711.1,164.7,674.5z
				 M76,576.5c4.8-0.2,11.3-0.5,16.8-0.5c29.4,0,39.7,6,39.7,22.1v3.2c0,11.7-6,21.9-27.3,21.9H76V576.5z M133.4,674
				c0,16.1-9.2,23.7-38.6,23.7c-4.8,0-13.3-0.5-18.8-0.5v-50.6h29.2c21.6,0,28.3,11.7,28.3,24.4V674z M246.2,612.1v-16.6
				c0-2.5-2.1-4.6-4.6-4.6c-9.2,0-21.6,2.3-32.8,11v-4.8c0-2.5-2.1-4.6-4.6-4.6h-20c-2.5,0-4.6,2.1-4.6,4.6v120.3
				c0,2.5,2.1,4.8,4.6,4.8h21.1c2.5,0,4.6-2.3,4.6-4.8V625c9.6-5.1,19.3-8.3,31.7-8.3C244.2,616.7,246.2,614.7,246.2,612.1z
				 M299.3,591c-36.1,0-54.9,24.4-54.9,57.3v18.6c0,32.9,18.8,57.3,54.9,57.3c36.1,0,54.9-24.4,54.9-57.3v-18.6
				C354.2,615.4,335.4,591,299.3,591z M323.9,666.9c0,18.9-8.5,31.1-24.6,31.1c-16.1,0-24.6-12.2-24.6-31.1v-18.6
				c0-18.9,8.5-31.1,24.6-31.1c16.1,0,24.6,12.2,24.6,31.1V666.9z M511.5,703.7l20.9-105.8v-0.7c0-2.5-2.1-4.6-4.6-4.6h-22.3
				c-2.3,0-3.9,2.1-4.1,4.1L487,694c-0.2,2.1-0.7,3.2-1.1,3.2c-0.5,0-1.2-0.9-1.6-3.2l-19.1-77.3c-2.3-9-5.1-9.9-12.9-9.9h-16.1
				c-7.8,0-10.6,0.9-12.9,9.9L404.3,694c-0.5,2.3-1.1,3.2-1.6,3.2c-0.5,0-0.9-1.1-1.1-3.2L387,596.7c-0.2-2.1-1.8-4.1-4.1-4.1h-22.3
				c-2.5,0-4.6,2.1-4.6,4.6v0.7l20.9,105.8c2.8,13.8,6.4,19.3,20.4,19.3h6.2c12.4,0,18.8-6,21.8-17.9l18.1-70.4
				c0.2-0.9,0.2-1.2,0.7-1.2c0.5,0,0.5,0.2,0.7,1.2l18.1,70.4c3,12,9.4,17.9,21.8,17.9h6.2C505.1,723,508.8,717.5,511.5,703.7z
				 M581.8,699.3c-6.9,0-27.6-1.2-38.6-2.5h-0.9c-2.3,0-3.9,1.8-3.9,3.7v13.8c0,2.8,1.6,4.6,4.4,5.3c12.9,3.5,32.2,4.6,41.1,4.6
				c30.1,0,45-15.9,45-35.9c0-11.7-2.8-23.2-22.1-35l-30.1-18.4c-5.7-3.4-9.2-5.8-9.2-9.4c0-7.1,4.8-9.7,15.9-9.7
				c13.1,0,31.5,1.8,37.9,2.8h0.9c2.3,0,3.7-1.6,3.7-4.4v-13.3c0-2.8-1.4-4.6-4.1-5.3c-11.7-2.5-22.3-4.6-40.9-4.6
				c-29.2,0-43.6,11.5-43.6,34.5c0,13.3,8,24.8,19.3,31.7l31.5,19.3c7.3,4.6,10.1,7.4,10.1,11.7
				C598.1,694.5,596.1,699.3,581.8,699.3z M693.9,591c-35.1,0-55.1,22.5-55.1,58.4v17c0,45.3,32.6,57.7,55.6,57.7
				c20.7,0,29.6-1.1,44.6-3.9c4.1-0.7,4.8-2.3,4.8-6v-15.2c0-2.3-1.8-3.5-4.1-3.5h-0.7c-9.6,0.9-25.5,2.3-42.3,2.3
				c-22.1,0-27.6-15.9-27.6-29.2V668H744c3.2,0,4.6-2.1,4.6-5.8v-12.9C748.6,615.1,729.3,591,693.9,591z M718,646.4h-48.7v-0.9
				c0-18.2,10.3-28.3,24.6-28.3c14.2,0,24.1,10.4,24.1,28.3V646.4z M825.1,591c-9.2,0-21.6,2.3-32.8,11v-4.8c0-2.5-2.1-4.6-4.6-4.6
				h-20c-2.5,0-4.6,2.1-4.6,4.6v120.3c0,2.5,2.1,4.8,4.6,4.8h21.1c2.5,0,4.6-2.3,4.6-4.8V625c9.7-5.1,19.3-8.3,31.7-8.3
				c2.5,0,4.6-2.1,4.6-4.6v-16.6C829.7,593,827.6,591,825.1,591z"/>
		</g>
	</g>
	<g id="形状_4_拷贝_2">
		<g>
			<path fill="#7ECFD5" d="M71.4,419.6c-16.9,0-29.1,9.7-29.1,32.8v14.2c0,23.2,12.3,32.8,29.1,32.8s29.1-9.7,29.1-32.8v-14.2
				C100.5,429.2,88.3,419.6,71.4,419.6z M86.2,466.6c0,13.9-4.8,20.1-14.8,20.1c-10,0-14.8-6.2-14.8-20.1v-14.2
				c0-13.9,4.8-20.1,14.8-20.1c10,0,14.8,6.2,14.8,20.1V466.6z M164.2,419.6h-8.8c-1.1,0-1.9,0.8-1.9,2l-0.1,57.2
				c0,0.6-0.3,0.9-0.5,0.9c-0.3,0-0.6-0.3-0.8-0.8l-23.7-55.9c-1.2-2.7-2.3-3.4-4.5-3.4h-11c-2.2,0-4.1,1.9-4.1,4.2l-0.1,73.7
				c0,1.2,0.9,2.1,2,2.1h8.7c1.1,0,1.9-0.9,1.9-2.1l0.1-54.7c0-0.6,0.2-0.8,0.5-0.8c0.3,0,0.6,0.2,0.9,0.8l22.6,53.1
				c1.6,3.8,3.8,3.8,6.2,3.8h10.3c2.2,0,4.1-1.9,4.1-4.2l0.1-73.8C166.1,420.4,165.3,419.6,164.2,419.6z M219.3,421
				c-3.3-0.5-7.3-1.5-19.4-1.5c-13.3,0-23.6,3.7-23.6,21.6v36.7c0,17.9,10.3,21.6,23.6,21.6c12.2,0,16.1-0.9,19.4-1.5
				c1.5-0.2,2-0.7,2-2.2v-6.7c0-1.2-0.9-2.1-2-2.1h-20.8c-5.9,0-8.1-2.1-8.1-9.1v-13.6h27.7c1.1,0,2-0.9,2-2.1v-7.6
				c0-1.2-0.9-2.1-2-2.1h-27.7v-11.4c0-7,2.1-9.1,8.1-9.1h20.8c1.1,0,2-0.9,2-2.1v-6.7C221.4,421.8,220.9,421.2,219.3,421z
				 M269.6,430.3c-2.5-9.8-9.8-10.7-14.2-10.7c-4.4,0-11.7,0.9-14.2,10.7l-16.7,67l-0.1,0.5c0,1.1,0.8,1.8,1.8,1.8H237
				c0.9,0,1.7-0.8,1.9-1.8l4.7-20h23.5l4.7,20c0.2,0.9,1,1.8,1.9,1.8h10.8c1,0,1.8-0.7,1.8-1.8l-0.1-0.5L269.6,430.3z M246.4,465.8
				l7.4-32.3c0.3-1.3,0.6-1.7,1.6-1.7c1,0,1.3,0.4,1.6,1.7l7.4,32.3H246.4z M314.1,419.5c-7.5,0-14.7,0.5-20,1.4
				c-2,0.3-3.3,1.1-3.3,3.2l0.1,73.5c0,1.2,0.9,2.1,2,2.1h10.2c1.1,0,1.9-0.9,1.9-2.1l-0.1-28.6c2.3,0.1,6.4,0.4,9.1,0.4
				c15.7,0,29.4-6,29.4-24.6v-0.9C343.6,425.1,329.9,419.5,314.1,419.5z M329.5,444.7c0,8.4-4.3,12.6-15.3,12.6
				c-1.7,0-7.5-0.2-9.1-0.3V432c1.8-0.2,6.9-0.4,9.1-0.4c10.2,0,15.3,3.4,15.3,12.2V444.7z M411.3,419.5h-8.4
				c-1.6,0-3.1,1.1-3.8,2.5l-15.4,32.2c-0.5,0.9-0.7,1.5-1.1,1.5c-0.4,0-0.6-0.5-1.1-1.5L366,422c-0.7-1.5-2.1-2.5-3.8-2.5h-8.4
				c-2.2,0-4.1,1.9-4.1,4.2V498c0,1.1,0.8,1.6,1.7,1.6h10.3c0.9,0,1.6-1.1,1.6-2.1v-50.9c0-0.7,0.1-1.1,0.3-1.1l0.5,0.6l9.9,20.1
				c0.6,1.2,1.9,1.8,3.3,1.8h10.3c1.3,0,2.7-0.6,3.3-1.8l9.8-20.1l0.5-0.6c0.2,0,0.3,0.3,0.3,1.1v50.9c0,1.1,0.7,2.1,1.6,2.1h10.3
				c0.9,0,1.7-0.5,1.7-1.6v-74.3C415.4,421.4,413.5,419.5,411.3,419.5z"/>
		</g>
	</g>
</g>
</svg>
