<?xml version="1.0" encoding="utf-8"?>
<!-- Generator: Adobe Illustrator 18.1.1, SVG Export Plug-In . SVG Version: 6.00 Build 0)  -->
<svg version="1.1" id="图层_1" xmlns="http://www.w3.org/2000/svg" xmlns:xlink="http://www.w3.org/1999/xlink" x="0px" y="0px"
	 viewBox="0 0 1000 1000" enable-background="new 0 0 1000 1000" xml:space="preserve">
<g id="d8e2935e-4c9a-47b1-aa5f-6066f892576f.psd">
	<g id="形状_1_拷贝_4">
		<g>
			<path fill="#E8382F" d="M567.8,229c-15.1,0-25.6,0.8-34.2,1.2v207.9c8.5,0.4,19.1,1.2,34.2,1.2c40.7,0,71.7-15.9,71.7-76.9v-56.5
				C639.5,244.8,608.5,229,567.8,229z M942.8,160.4C925.1,94.2,885.6,48.1,824.3,22.1c-61.3-25.9-128.7-29-202-9.3
				c-83.9,22.6-145.2,58.5-183.7,107.9c-38.6,49.3-48.8,108.1-30.6,176.2c13.6,51,36.7,90.9,69.1,119.7V198.8
				c0-8.1,3.7-11.4,10.6-12.6c12.2-2,51.3-4.9,80.2-4.9c81.4,0,127.8,43.9,127.8,124.5v56.5c0,52.5-19.8,89.3-56,108.7
				c27-0.4,55.6-4.1,85.8-11.2V272.1c0-4.5,3.7-8.1,8.1-8.1H771c4.5,0,8.1,3.7,8.1,8.1v171.8c63-22.6,109.5-55.1,139.3-97.7
				C954.1,295.3,962.2,233.3,942.8,160.4z M780.4,225.3c0,4.5-3.7,8.1-8.1,8.1h-39.5c-4.5,0-8.6-3.7-8.6-8.1v-35.8
				c0-4.5,4.1-8.1,8.6-8.1h39.5c4.5,0,8.1,3.7,8.1,8.1V225.3z"/>
		</g>
	</g>
	<g id="形状_1_拷贝_12">
		<g>
			<path fill="#E8382F" d="M170.6,648.8v-33.4c0-45-25.9-69.5-71.3-69.5c-16.1,0-37.9,1.6-44.7,2.7c-3.9,0.7-5.9,2.5-5.9,7v152.8
				c0,4.5,2,6.4,5.9,7c6.8,1.1,28.6,2.7,44.7,2.7C144.7,718.3,170.6,693.7,170.6,648.8z M139.2,648.8c0,34.1-17.3,42.9-40,42.9
				c-8.4,0-14.3-0.5-19.1-0.7V573.2c4.8-0.2,10.7-0.7,19.1-0.7c22.7,0,40,8.9,40,42.9V648.8z M221,718.3c10.9,0,21.6-3.6,32-10v3.6
				c0,2.5,2,4.5,4.5,4.5h19.3c2.5,0,4.5-2,4.5-4.5v-81.7c0-29.1-17.7-43.4-49.9-43.4c-15.7,0-28.8,1.8-37.9,3.6
				c-3,0.7-4.3,2.3-4.3,4.8v14.5c0,3.2,1.8,3.9,4.1,3.9h1.1c7.5-0.9,22.5-1.8,37-1.8c13.4,0,20,3.6,20,18.4v10h-14.3
				c-39.5,0-55.4,13.4-55.4,39.3v0.9C181.7,711,202.1,718.3,221,718.3z M211.9,679.4c0-12.7,4.5-19.3,25.2-19.3h14.3v27.9
				c-6.6,3.6-15,6.4-23.2,6.4c-11.4,0-16.3-3-16.3-14.1V679.4z M359.9,694.9h-12c-8.2,0-8.9-1.4-8.9-12.7v-71.3h20.4
				c2.5,0,4.5-2,4.5-4.5v-13.4c0-2.5-2-4.5-4.5-4.5H339V565c0-2.3-1.6-3.4-3.6-3.4h-0.9l-21.1,3.6c-2.5,0.5-4.5,2-4.5,4.5v18.6
				h-21.3c-2.5,0-4.5,2-4.5,4.5v10.2c0,2.5,2,4.1,4.5,4.5l21.3,3.2v71.3c0,30.4,10.4,36.1,36.1,36.1c5,0,10-0.7,15.4-1.6
				c3-0.5,4.3-1.8,4.3-4.1v-14.3C364.7,696,362.8,694.9,359.9,694.9z M408.2,718.3c10.9,0,21.6-3.6,32-10v3.6c0,2.5,2,4.5,4.5,4.5
				h19.3c2.5,0,4.5-2,4.5-4.5v-81.7c0-29.1-17.7-43.4-49.9-43.4c-15.7,0-28.8,1.8-37.9,3.6c-3,0.7-4.3,2.3-4.3,4.8v14.5
				c0,3.2,1.8,3.9,4.1,3.9h1.1c7.5-0.9,22.5-1.8,37-1.8c13.4,0,20,3.6,20,18.4v10h-14.3c-39.5,0-55.4,13.4-55.4,39.3v0.9
				C368.9,711,389.4,718.3,408.2,718.3z M399.1,679.4c0-12.7,4.5-19.3,25.2-19.3h14.3v27.9c-6.6,3.6-15,6.4-23.2,6.4
				c-11.4,0-16.3-3-16.3-14.1V679.4z M592.8,661.3v-17.5c0-35.4-17.7-57-54.3-57c-5.4,0-13.4,0.5-21.8,1.6v-40.2
				c0-2.5-2-4.5-4.5-4.5h-20.9c-2.5,0-4.5,2-4.5,4.5v158c0,3.4,0.9,4.8,6.1,6.1c14.1,3.6,31.1,5.9,45.6,5.9
				C575.1,718.3,592.8,696.7,592.8,661.3z M516.7,612.9c6.4-0.9,16.3-1.6,21.8-1.6c19.5,0,24.3,13.8,24.3,32.5v17.5
				c0,18.6-4.8,32.5-24.3,32.5c-8.2,0-17.5-0.7-21.8-1.6V612.9z M651.3,586.8c-15.7,0-28.8,1.8-37.9,3.6c-3,0.7-4.3,2.3-4.3,4.8
				v14.5c0,3.2,1.8,3.9,4.1,3.9h1.1c7.5-0.9,22.5-1.8,37-1.8c13.4,0,20,3.6,20,18.4v10H657c-39.5,0-55.4,13.4-55.4,39.3v0.9
				c0,30.7,20.4,37.9,39.3,37.9c10.9,0,21.6-3.6,32-10v3.6c0,2.5,2,4.5,4.5,4.5h19.3c2.5,0,4.5-2,4.5-4.5v-81.7
				C701.3,601.1,683.6,586.8,651.3,586.8z M671.3,688.1c-6.6,3.6-15,6.4-23.2,6.4c-11.4,0-16.3-3-16.3-14.1v-0.9
				c0-12.7,4.5-19.3,25.2-19.3h14.3V688.1z M783.7,648.3l-29.7-18.2c-5.7-3.4-9.1-5.7-9.1-9.3c0-7,4.8-9.5,15.7-9.5
				c12.9,0,31.1,1.8,37.5,2.7h0.9c2.3,0,3.6-1.6,3.6-4.3v-13.2c0-2.7-1.4-4.5-4.1-5.2c-11.6-2.5-22-4.5-40.4-4.5
				c-28.8,0-43.1,11.4-43.1,34.1c0,13.2,7.9,24.5,19.1,31.3l31.1,19.1c7.3,4.5,10,7.3,10,11.6c0,6.1-2,10.9-16.1,10.9
				c-6.8,0-27.2-1.1-38.1-2.5h-0.9c-2.3,0-3.9,1.8-3.9,3.6v13.6c0,2.7,1.6,4.5,4.3,5.2c12.7,3.4,31.8,4.5,40.6,4.5
				c29.7,0,44.5-15.7,44.5-35.4C805.5,671.3,802.7,659.9,783.7,648.3z M869.7,586.8c-34.7,0-54.5,22.3-54.5,57.7v16.8
				c0,44.7,32.2,57,54.9,57c20.4,0,29.3-1.1,44-3.9c4.1-0.7,4.8-2.3,4.8-5.9v-15c0-2.3-1.8-3.4-4.1-3.4h-0.7
				c-9.5,0.9-25.2,2.3-41.8,2.3c-21.8,0-27.2-15.7-27.2-28.8v-0.7h74c3.2,0,4.5-2,4.5-5.7v-12.7
				C923.7,610.6,904.7,586.8,869.7,586.8z M893.5,641.5h-48.1v-0.9c0-17.9,10.2-27.9,24.3-27.9c14.1,0,23.8,10.2,23.8,27.9V641.5z
				 M75.7,785.2H53.2c-2.5,0-4.5,1.8-4.5,4.3v159.8c0,2.5,2,4.5,4.5,4.5h22.5c2.5,0,4.5-2,4.5-4.5V789.5
				C80.2,787,78.2,785.2,75.7,785.2z M166.3,824.2c-15,0-23.6,2.5-36.8,10.9v-4.8c0-2.5-2-4.5-4.5-4.5h-19.8c-2.5,0-4.5,2-4.5,4.5
				v118.7c0,2.5,2,4.8,4.5,4.8h20.9c2.5,0,4.5-2.3,4.5-4.8v-91.3c9.5-5,17.9-8.2,25.7-8.2c17.5,0,19.3,5.7,19.3,25.4v74
				c0,2.5,2,4.8,4.5,4.8H201c2.5,0,4.5-2.3,4.5-4.8v-74C205.5,846.3,198.9,824.2,166.3,824.2z M287.9,885.8l-29.7-18.2
				c-5.7-3.4-9.1-5.7-9.1-9.3c0-7,4.8-9.5,15.7-9.5c12.9,0,31.1,1.8,37.5,2.7h0.9c2.3,0,3.6-1.6,3.6-4.3V834c0-2.7-1.4-4.5-4.1-5.2
				c-11.6-2.5-22-4.5-40.4-4.5c-28.8,0-43.1,11.4-43.1,34.1c0,13.2,7.9,24.5,19.1,31.3l31.1,19.1c7.3,4.5,10,7.3,10,11.6
				c0,6.1-2,10.9-16.1,10.9c-6.8,0-27.2-1.1-38.1-2.5h-0.9c-2.3,0-3.9,1.8-3.9,3.6v13.6c0,2.7,1.6,4.5,4.3,5.2
				c12.7,3.4,31.8,4.5,40.6,4.5c29.7,0,44.5-15.7,44.5-35.4C309.7,908.7,307,897.3,287.9,885.8z M350.1,779.7h-22
				c-2.5,0-4.8,2-4.8,4.5v20c0,2.5,2.3,4.5,4.8,4.5h22c2.5,0,4.5-2,4.5-4.5v-20C354.6,781.8,352.6,779.7,350.1,779.7z M349.4,825.8
				h-20.9c-2.5,0-4.5,2-4.5,4.5v118.7c0,2.5,2,4.8,4.5,4.8h20.9c2.5,0,4.5-2.3,4.5-4.8V830.4C354,827.9,351.9,825.8,349.4,825.8z
				 M478.2,825.8H425c-39.3,0-54,19.1-54,41.8v1.6c0,11.4,2.5,19.5,9.3,26.6c-6.1,4.3-9.1,11.4-9.1,18.4v0.2
				c0,8.2,3.9,16.1,10.2,20.9c-7.3,6.6-11.6,15.7-11.6,25v2c0,23.8,19.5,37.7,56.3,37.7c38.6,0,55.6-12.5,55.6-35.6v-1.6
				c0-24.3-20-29.1-50.9-36.3l-26.8-6.4c-5.2-1.1-7.7-3-7.7-7.5c0-2,1.1-4.1,3.9-5.9c4.5,1.8,12.7,3.9,24.7,3.9
				c34.3,0,53.8-12.9,53.8-41.3v-1.6c0-7.9-2-12.9-5.7-18.2l7.5-3c2.7-1.1,3.6-1.6,3.6-5V832C484.3,828.6,481.6,825.8,478.2,825.8z
				 M399.1,960.2c0-8.2,2.3-11.1,5.7-15.9l20.2,4.8c23.8,5.7,26.8,8.6,26.8,13.6v1.6c0,8.2-3.9,12.9-25.7,12.9c-21.3,0-27-5.7-27-15
				V960.2z M449.3,869.9c0,11.4-5.4,17.9-24.3,17.9c-21.1,0-24.5-9.5-24.5-17.9v-1.8c0-10.7,5.2-19.3,24.5-19.3
				c19.5,0,24.3,8.4,24.3,19.3V869.9z M558.3,824.2c-16.1,0-25.7,3.2-34.3,8.4v-47c0-2.5-2-4.5-4.5-4.5h-20.9c-2.5,0-4.5,2-4.5,4.5
				v163.5c0,2.5,2,4.8,4.5,4.8h20.9c2.5,0,4.5-2.3,4.5-4.8v-91.7c9.5-5,18.6-7.7,26.3-7.7c15.2,0,18.6,5,18.6,24.7v74.7
				c0,2.5,2,4.8,4.5,4.8h20.9c2.5,0,4.5-2.3,4.5-4.8v-74.7C598.9,846.5,589.6,824.2,558.3,824.2z M679.3,932.3h-12
				c-8.2,0-8.9-1.4-8.9-12.7v-71.3h20.4c2.5,0,4.5-2,4.5-4.5v-13.4c0-2.5-2-4.5-4.5-4.5h-20.4v-23.4c0-2.3-1.6-3.4-3.6-3.4h-0.9
				l-21.1,3.6c-2.5,0.5-4.5,2-4.5,4.5v18.6h-21.3c-2.5,0-4.5,2-4.5,4.5v10.2c0,2.5,2,4.1,4.5,4.5l21.3,3.2v71.3
				c0,30.4,10.4,36.1,36.1,36.1c5,0,10-0.7,15.4-1.6c3-0.5,4.3-1.8,4.3-4.1v-14.3C684,933.4,682.2,932.3,679.3,932.3z"/>
		</g>
	</g>
	<g id="形状_1_拷贝_8">
		<g>
			<path fill="#F38B86" d="M75.7,415c-16.7,0-28.8,9.6-28.8,32.5v14c0,22.9,12.1,32.5,28.8,32.5c16.7,0,28.8-9.6,28.8-32.5v-14
				C104.6,424.6,92.4,415,75.7,415z M90.4,461.5c0,13.7-4.8,19.9-14.7,19.9c-9.9,0-14.7-6.1-14.7-19.9v-14
				c0-13.7,4.8-19.9,14.7-19.9c9.9,0,14.7,6.1,14.7,19.9V461.5z M167.6,415h-8.7c-1.1,0-1.9,0.8-1.9,2l-0.1,56.5
				c0,0.6-0.3,0.9-0.5,0.9c-0.3,0-0.6-0.3-0.8-0.8l-23.5-55.3c-1.2-2.7-2.3-3.3-4.4-3.3h-10.9c-2.2,0-4,1.9-4,4.2l-0.1,72.8
				c0,1.1,0.9,2.1,2,2.1h8.6c1.1,0,1.9-0.9,1.9-2.1l0.1-54.1c0-0.6,0.2-0.8,0.5-0.8c0.3,0,0.6,0.2,0.9,0.8l22.3,52.4
				c1.6,3.7,3.7,3.7,6.2,3.7h10.2c2.2,0,4-1.9,4-4.2l0.1-73C169.5,415.8,168.7,415,167.6,415z M222.2,416.4
				c-3.2-0.5-7.2-1.5-19.2-1.5c-13.1,0-23.4,3.6-23.4,21.3v36.3c0,17.7,10.2,21.3,23.4,21.3c12,0,16-0.9,19.2-1.5
				c1.5-0.2,2-0.7,2-2.2v-6.7c0-1.1-0.9-2.1-2-2.1h-20.6c-5.9,0-8-2.1-8-8.9v-13.4H221c1.1,0,2-0.9,2-2.1v-7.5c0-1.1-0.9-2.1-2-2.1
				h-27.4v-11.2c0-6.9,2.1-9,8-9h20.6c1.1,0,2-0.9,2-2.1v-6.7C224.2,417.2,223.7,416.7,222.2,416.4z M271.9,425.6
				c-2.4-9.7-9.7-10.6-14.1-10.6c-4.3,0-11.6,0.9-14.1,10.6l-16.6,66.2l-0.1,0.5c0,1,0.8,1.8,1.8,1.8h10.7c0.9,0,1.7-0.8,1.9-1.8
				l4.7-19.8h23.3l4.6,19.8c0.2,0.9,1,1.8,1.9,1.8h10.7c1,0,1.8-0.7,1.8-1.8l-0.1-0.5L271.9,425.6z M249,460.7l7.3-31.9
				c0.3-1.2,0.6-1.7,1.6-1.7c1,0,1.3,0.4,1.6,1.7l7.3,31.9H249z M316,414.9c-7.4,0-14.6,0.5-19.8,1.4c-2,0.3-3.2,1-3.2,3.1l0.1,72.7
				c0,1.1,0.9,2.1,2,2.1h10.1c1.1,0,1.9-0.9,1.9-2.1l-0.1-28.2c2.3,0.1,6.4,0.4,9,0.4c15.6,0,29.1-5.9,29.1-24.4v-0.9
				C345.1,420.5,331.6,414.9,316,414.9z M331.2,439.9c0,8.3-4.2,12.5-15.2,12.5c-1.7,0-7.4-0.2-9-0.3v-24.8c1.8-0.2,6.9-0.4,9-0.4
				c10.1,0,15.2,3.3,15.2,12.1V439.9z M412.2,414.9h-8.3c-1.6,0-3,1-3.7,2.5l-15.3,31.8c-0.5,0.9-0.7,1.5-1.1,1.5
				c-0.4,0-0.6-0.5-1.1-1.5l-15.3-31.8c-0.7-1.5-2.1-2.5-3.7-2.5h-8.3c-2.2,0-4,1.9-4,4.2v73.5c0,1,0.8,1.6,1.7,1.6h10.2
				c0.9,0,1.6-1,1.6-2.1v-50.3c0-0.7,0.1-1,0.3-1l0.5,0.6l9.8,19.9c0.6,1.1,1.9,1.8,3.2,1.8h10.2c1.3,0,2.6-0.6,3.2-1.8l9.7-19.9
				l0.5-0.6c0.2,0,0.3,0.3,0.3,1V492c0,1,0.7,2.1,1.6,2.1h10.2c0.9,0,1.7-0.5,1.7-1.6v-73.5C416.2,416.8,414.4,414.9,412.2,414.9z"
				/>
		</g>
	</g>
</g>
</svg>
