<?xml version="1.0" encoding="utf-8"?>
<!-- Generator: Adobe Illustrator 18.1.1, SVG Export Plug-In . SVG Version: 6.00 Build 0)  -->
<svg version="1.1" id="图层_1" xmlns="http://www.w3.org/2000/svg" xmlns:xlink="http://www.w3.org/1999/xlink" x="0px" y="0px"
	 viewBox="0 0 170.6 186.2" enable-background="new 0 0 170.6 186.2" xml:space="preserve">
<g>
	<g>
		<path fill="#00A0E9" d="M119.7,53.1c-0.1,0-0.2,0.2-0.4,0.5L112,68.2c-0.5,0.8-1.5,1.3-2.5,1.3h-7.7c-1,0-2-0.5-2.5-1.3l-7.4-14.6
			c-0.2-0.2-0.3-0.5-0.4-0.5c-0.2,0-0.2,0.2-0.2,0.8v31c8.4,3.6,17.9,4.7,28.7,3.2V53.9C119.9,53.4,119.9,53.1,119.7,53.1z
			 M168.7,30.2c-3.3-12.5-10.8-21.2-22.3-26c-11.5-4.9-24.2-5.5-38-1.8C92.5,6.7,81,13.4,73.7,22.7C66.5,32,64.5,43.1,68,55.9
			c2.6,9.6,6.9,17.1,13,22.5V37.2c0-1.7,1.4-3.1,3.1-3.1h6.3c1.2,0,2.3,0.8,2.8,1.8l11.6,23.4c0.4,0.7,0.5,1.1,0.8,1.1
			c0.3,0,0.5-0.4,0.8-1.1L118,36c0.5-1.1,1.6-1.8,2.8-1.8h6.3c1.7,0,3.1,1.4,3.1,3.1V86c0.1,0,0.3-0.1,0.4-0.1
			c2.4-0.6,4.6-1.3,6.7-2.1V51.2c0-0.8,0.7-1.5,1.5-1.5h7.1c0.8,0,1.5,0.7,1.5,1.5v28.2c7.1-3.8,12.7-8.5,16.6-14.2
			C170.8,55.6,172.4,43.9,168.7,30.2z M147.7,42.4c0,0.8-0.7,1.5-1.5,1.5h-7.4c-0.8,0-1.6-0.7-1.6-1.5v-6.7c0-0.8,0.8-1.5,1.6-1.5
			h7.4c0.8,0,1.5,0.7,1.5,1.5V42.4z"/>
	</g>
	<g>
		<path fill="#00A0E9" d="M27,134.9h-4.3c-0.4,0-0.7-0.4-0.7-0.9v-19.9c0-0.3,0-0.4-0.1-0.4c0,0-0.1,0.1-0.2,0.3l-4.1,8.2
			c-0.3,0.5-0.8,0.7-1.4,0.7h-4.3c-0.6,0-1.1-0.3-1.4-0.7L6.4,114c-0.1-0.1-0.2-0.3-0.2-0.3c-0.1,0-0.1,0.1-0.1,0.4v19.9
			c0,0.4-0.3,0.9-0.7,0.9H1.1c-0.4,0-0.7-0.2-0.7-0.6v-29.4c0-0.9,0.8-1.7,1.7-1.7h3.5c0.7,0,1.3,0.4,1.6,1l6.5,13.1
			c0.2,0.4,0.3,0.6,0.5,0.6c0.2,0,0.3-0.2,0.5-0.6l6.5-13.1c0.3-0.6,0.9-1,1.6-1h3.5c0.9,0,1.7,0.8,1.7,1.7v29.4
			C27.8,134.7,27.4,134.9,27,134.9z"/>
		<path fill="#00A0E9" d="M41.1,135.2c-6.7,0-10.2-4.5-10.2-10.6v-3.5c0-6.1,3.5-10.6,10.2-10.6s10.2,4.5,10.2,10.6v3.5
			C51.3,130.7,47.8,135.2,41.1,135.2z M45.7,121.1c0-3.5-1.6-5.8-4.6-5.8s-4.6,2.3-4.6,5.8v3.5c0,3.5,1.6,5.8,4.6,5.8
			s4.6-2.3,4.6-5.8V121.1z"/>
		<path fill="#00A0E9" d="M63.8,135.2c-2.7,0-5.9-0.4-8.6-1.1c-1-0.3-1.2-0.5-1.2-1.2v-29.8c0-0.5,0.4-0.9,0.9-0.9h3.9
			c0.5,0,0.9,0.4,0.9,0.9v7.6c1.6-0.2,3.1-0.3,4.1-0.3c6.9,0,10.2,4.1,10.2,10.7v3.3C74,131.2,70.6,135.2,63.8,135.2z M68.3,121.2
			c0-3.5-0.9-6.1-4.6-6.1c-1,0-2.9,0.1-4.1,0.3v14.9c0.8,0.2,2.6,0.3,4.1,0.3c3.7,0,4.6-2.6,4.6-6.1V121.2z"/>
		<path fill="#00A0E9" d="M81.6,107.6h-4.1c-0.5,0-0.9-0.4-0.9-0.9V103c0-0.5,0.4-0.9,0.9-0.9h4.1c0.5,0,0.9,0.4,0.9,0.9v3.8
			C82.4,107.2,82.1,107.6,81.6,107.6z M81.5,134.9h-3.9c-0.5,0-0.9-0.4-0.9-0.9v-22.4c0-0.5,0.4-0.9,0.9-0.9h3.9
			c0.5,0,0.9,0.4,0.9,0.9V134C82.3,134.5,81.9,134.9,81.5,134.9z"/>
		<path fill="#00A0E9" d="M90.9,134.9h-4c-0.5,0-0.9-0.4-0.9-0.9v-30.8c0-0.5,0.4-0.9,0.9-0.9h4c0.5,0,0.8,0.4,0.8,0.9V134
			C91.7,134.5,91.4,134.9,90.9,134.9z"/>
		<path fill="#00A0E9" d="M114.2,124.8h-13.9v0.1c0,2.5,1,5.4,5.1,5.4c3.1,0,6.1-0.3,7.9-0.4c0,0,0.1,0,0.1,0c0.4,0,0.8,0.2,0.8,0.6
			v2.8c0,0.7-0.1,1-0.9,1.1c-2.8,0.5-4.4,0.7-8.3,0.7c-4.3,0-10.3-2.3-10.3-10.7v-3.2c0-6.7,3.7-10.9,10.3-10.9
			c6.6,0,10.2,4.5,10.2,10.9v2.4C115.1,124.4,114.8,124.8,114.2,124.8z M109.4,120.6c0-3.3-1.8-5.3-4.5-5.3s-4.6,1.9-4.6,5.3v0.2
			h9.1V120.6z"/>
		<path fill="#00A0E9" d="M5.4,177.5H1.2c-0.5,0-0.9-0.4-0.9-0.9v-30.1c0-0.5,0.4-0.8,0.9-0.8h4.2c0.5,0,0.9,0.3,0.9,0.8v30.1
			C6.3,177.1,5.9,177.5,5.4,177.5z"/>
		<path fill="#00A0E9" d="M29,177.5h-3.9c-0.5,0-0.9-0.4-0.9-0.9v-13.9c0-3.7-0.3-4.8-3.6-4.8c-1.5,0-3,0.6-4.8,1.5v17.2
			c0,0.5-0.4,0.9-0.9,0.9H11c-0.5,0-0.9-0.4-0.9-0.9v-22.4c0-0.5,0.4-0.9,0.9-0.9h3.7c0.5,0,0.9,0.4,0.9,0.9v0.9
			c2.5-1.6,4.1-2.1,6.9-2.1c6.2,0,7.4,4.1,7.4,9.6v13.9C29.9,177.1,29.5,177.5,29,177.5z"/>
		<path fill="#00A0E9" d="M41.1,177.8c-1.7,0-5.3-0.2-7.7-0.9c-0.5-0.1-0.8-0.5-0.8-1v-2.6c0-0.3,0.3-0.7,0.7-0.7c0.1,0,0.1,0,0.2,0
			c2.1,0.3,5.9,0.5,7.2,0.5c2.7,0,3-0.9,3-2.1c0-0.8-0.5-1.3-1.9-2.2l-5.9-3.6c-2.1-1.3-3.6-3.4-3.6-5.9c0-4.3,2.7-6.4,8.1-6.4
			c3.5,0,5.4,0.4,7.6,0.9c0.5,0.1,0.8,0.5,0.8,1v2.5c0,0.5-0.3,0.8-0.7,0.8c-0.1,0-0.1,0-0.2,0c-1.2-0.2-4.6-0.5-7.1-0.5
			c-2.1,0-3,0.5-3,1.8c0,0.7,0.6,1.1,1.7,1.8l5.6,3.4c3.6,2.2,4.1,4.3,4.1,6.5C49.5,174.9,46.7,177.8,41.1,177.8z"/>
		<path fill="#00A0E9" d="M57.1,150.2h-4.1c-0.5,0-0.9-0.4-0.9-0.9v-3.8c0-0.5,0.4-0.9,0.9-0.9h4.1c0.5,0,0.9,0.4,0.9,0.9v3.8
			C57.9,149.8,57.6,150.2,57.1,150.2z M57,177.5H53c-0.5,0-0.9-0.4-0.9-0.9v-22.4c0-0.5,0.4-0.9,0.9-0.9H57c0.5,0,0.9,0.4,0.9,0.9
			v22.4C57.8,177.1,57.4,177.5,57,177.5z"/>
		<path fill="#00A0E9" d="M81.7,157.3l-1.4,0.6c0.7,1,1.1,1.9,1.1,3.4v0.3c0,5.3-3.7,7.8-10.1,7.8c-2.3,0-3.8-0.4-4.7-0.7
			c-0.5,0.3-0.7,0.7-0.7,1.1c0,0.9,0.5,1.2,1.5,1.4l5,1.2c5.8,1.4,9.6,2.3,9.6,6.8v0.3c0,4.4-3.2,6.7-10.5,6.7
			c-6.9,0-10.6-2.6-10.6-7.1v-0.4c0-1.8,0.8-3.5,2.2-4.7c-1.2-0.9-1.9-2.4-1.9-3.9v0c0-1.3,0.6-2.7,1.7-3.5c-1.3-1.3-1.8-2.9-1.8-5
			v-0.3c0-4.3,2.8-7.9,10.2-7.9h10c0.6,0,1.2,0.5,1.2,1.2v1.8C82.4,157,82.2,157.1,81.7,157.3z M76.2,179.2c0-0.9-0.6-1.5-5-2.6
			l-3.8-0.9c-0.6,0.9-1.1,1.5-1.1,3v0.4c0,1.8,1.1,2.8,5.1,2.8c4.1,0,4.8-0.9,4.8-2.4V179.2z M75.8,161.3c0-2.1-0.9-3.6-4.6-3.6
			c-3.6,0-4.6,1.6-4.6,3.6v0.3c0,1.6,0.6,3.4,4.6,3.4c3.5,0,4.6-1.2,4.6-3.4V161.3z"/>
		<path fill="#00A0E9" d="M103.1,177.5h-3.9c-0.5,0-0.9-0.4-0.9-0.9v-14.1c0-3.7-0.6-4.7-3.5-4.7c-1.5,0-3.2,0.5-5,1.5v17.3
			c0,0.5-0.4,0.9-0.9,0.9H85c-0.5,0-0.9-0.4-0.9-0.9v-30.8c0-0.5,0.4-0.9,0.9-0.9H89c0.5,0,0.9,0.4,0.9,0.9v8.8
			c1.6-1,3.4-1.6,6.5-1.6c5.9,0,7.7,4.2,7.7,9.4v14.1C103.9,177.1,103.6,177.5,103.1,177.5z"/>
		<path fill="#00A0E9" d="M119.2,177.5c-1,0.2-2,0.3-2.9,0.3c-4.8,0-6.8-1.1-6.8-6.8v-13.4l-4-0.6c-0.5-0.1-0.9-0.4-0.9-0.9v-1.9
			c0-0.5,0.4-0.9,0.9-0.9h4v-3.5c0-0.5,0.4-0.8,0.9-0.9l4-0.7c0,0,0.1,0,0.2,0c0.4,0,0.7,0.2,0.7,0.6v4.4h3.8c0.5,0,0.9,0.4,0.9,0.9
			v2.5c0,0.5-0.4,0.9-0.9,0.9h-3.8V171c0,2.1,0.1,2.4,1.7,2.4h2.3c0.6,0,0.9,0.2,0.9,0.6v2.7C120,177.2,119.7,177.4,119.2,177.5z"/>
	</g>
</g>
<g>
	<path fill="#0E6D99" d="M10.9,86.9v-2.6c0-4.3-2.3-6.1-5.4-6.1S0,79.9,0,84.3v2.6C0,91.2,2.3,93,5.4,93S10.9,91.2,10.9,86.9z
		 M8.2,86.9c0,2.6-0.9,3.7-2.8,3.7c-1.9,0-2.8-1.2-2.8-3.7v-2.6c0-2.6,0.9-3.7,2.8-3.7c1.9,0,2.8,1.2,2.8,3.7V86.9z"/>
	<path fill="#0E6D99" d="M23.1,92.2l0-13.7c0-0.2-0.2-0.4-0.4-0.4h-1.6c-0.2,0-0.4,0.2-0.4,0.4l0,10.6c0,0.1-0.1,0.2-0.1,0.2
		c-0.1,0-0.1-0.1-0.2-0.2L16,78.8c-0.2-0.5-0.4-0.6-0.8-0.6h-2.1c-0.4,0-0.8,0.4-0.8,0.8l0,13.7c0,0.2,0.2,0.4,0.4,0.4h1.6
		c0.2,0,0.4-0.2,0.4-0.4l0-10.2c0-0.1,0-0.2,0.1-0.2c0.1,0,0.1,0,0.2,0.2l4.2,9.9c0.3,0.7,0.7,0.7,1.2,0.7h1.9
		C22.7,93,23.1,92.7,23.1,92.2z"/>
	<path fill="#0E6D99" d="M33.4,92.3v-1.3c0-0.2-0.2-0.4-0.4-0.4h-3.9c-1.1,0-1.5-0.4-1.5-1.7v-2.5h5.2c0.2,0,0.4-0.2,0.4-0.4v-1.4
		c0-0.2-0.2-0.4-0.4-0.4h-5.2v-2.1c0-1.3,0.4-1.7,1.5-1.7H33c0.2,0,0.4-0.2,0.4-0.4v-1.3c0-0.3-0.1-0.4-0.4-0.4
		c-0.6-0.1-1.4-0.3-3.6-0.3c-2.5,0-4.4,0.7-4.4,4V89c0,3.3,1.9,4,4.4,4c2.3,0,3-0.2,3.6-0.3C33.3,92.7,33.4,92.6,33.4,92.3z"/>
	<path fill="#0E6D99" d="M45.5,92.7C45.5,92.7,45.5,92.6,45.5,92.7l-3.1-12.6c-0.5-1.8-1.8-2-2.6-2c-0.8,0-2.2,0.2-2.6,2L34,92.6
		c0,0,0,0.1,0,0.1c0,0.2,0.2,0.3,0.3,0.3h2c0.2,0,0.3-0.2,0.4-0.3l0.9-3.7h4.4l0.9,3.7c0,0.2,0.2,0.3,0.4,0.3h2
		C45.4,93,45.5,92.9,45.5,92.7z M41.4,86.8H38l1.4-6c0.1-0.2,0.1-0.3,0.3-0.3c0.2,0,0.2,0.1,0.3,0.3L41.4,86.8z"/>
	<path fill="#0E6D99" d="M56.2,82.8v-0.2c0-3.5-2.6-4.5-5.5-4.5c-1.4,0-2.7,0.1-3.7,0.3c-0.4,0.1-0.6,0.2-0.6,0.6l0,13.7
		c0,0.2,0.2,0.4,0.4,0.4h1.9c0.2,0,0.4-0.2,0.4-0.4l0-5.3c0.4,0,1.2,0.1,1.7,0.1C53.6,87.4,56.2,86.3,56.2,82.8z M53.5,82.8
		c0,1.6-0.8,2.4-2.9,2.4c-0.3,0-1.4,0-1.7-0.1v-4.7c0.3,0,1.3-0.1,1.7-0.1c1.9,0,2.9,0.6,2.9,2.3V82.8z"/>
	<path fill="#0E6D99" d="M69.5,92.7V78.9c0-0.4-0.3-0.8-0.8-0.8h-1.6c-0.3,0-0.6,0.2-0.7,0.5l-2.9,6c-0.1,0.2-0.1,0.3-0.2,0.3
		c-0.1,0-0.1-0.1-0.2-0.3l-2.9-6c-0.1-0.3-0.4-0.5-0.7-0.5h-1.6c-0.4,0-0.8,0.4-0.8,0.8v13.8c0,0.2,0.2,0.3,0.3,0.3h1.9
		c0.2,0,0.3-0.2,0.3-0.4v-9.5c0-0.1,0-0.2,0.1-0.2c0,0,0.1,0.1,0.1,0.1l1.8,3.7c0.1,0.2,0.4,0.3,0.6,0.3h1.9c0.2,0,0.5-0.1,0.6-0.3
		l1.8-3.7c0-0.1,0.1-0.1,0.1-0.1c0,0,0.1,0.1,0.1,0.2v9.5c0,0.2,0.1,0.4,0.3,0.4h1.9C69.4,93,69.5,92.9,69.5,92.7z"/>
</g>
</svg>
