<?xml version="1.0" encoding="utf-8"?>
<!-- Generator: Adobe Illustrator 18.1.1, SVG Export Plug-In . SVG Version: 6.00 Build 0)  -->
<svg version="1.1" id="图层_1" xmlns="http://www.w3.org/2000/svg" xmlns:xlink="http://www.w3.org/1999/xlink" x="0px" y="0px"
	 viewBox="0 0 1000 1000" enable-background="new 0 0 1000 1000" xml:space="preserve">
<linearGradient id="SVGID_1_" gradientUnits="userSpaceOnUse" x1="500.0001" y1="262.6024" x2="500.0001" y2="733.6981">
	<stop  offset="0" style="stop-color:#7F7977"/>
	<stop  offset="1" style="stop-color:#000000"/>
</linearGradient>
<path fill="url(#SVGID_1_)" d="M417,718.5V612c0-31.4,19-59.9,47.8-72.2c9.7,7.1,21.6,11.3,34.5,11.3c6.2,0,12.2-1,17.8-2.8
	l23.2,80.8l35.3-10.1l15.5,37.8l69.2-19.8l-6.9-40.2l35.3-10.1l-82.8-288.7l-34.4,9.9l-12.4-43.3l-79.5,22.8l12.4,43.3l-34.4,9.9
	l27.4,95.6c-13,3.3-24.3,11-32.2,21.4c-32.4,9.1-61.7,28.6-82.7,55.2c-22.5,28.6-34.5,63-34.5,99.4v106.5h-69.1v17h467.2v-17H417z
	 M600.9,636.2l-9-21.9l44.9-12.9l4,23.4L600.9,636.2z M547.2,285.5l7.7,27l-46.8,13.4l-7.7-27L547.2,285.5z M478.4,352.1l115.7-33.2
	l73.4,256l-115.7,33.2l-19.3-67.4c15.2-10.6,25.2-28.1,25.2-48c0-31.3-24.7-56.9-55.7-58.4L478.4,352.1z M499.2,451.2
	c22.9,0,41.5,18.6,41.5,41.5s-18.6,41.5-41.5,41.5s-41.5-18.6-41.5-41.5S476.4,451.2,499.2,451.2z M400,718.5h-47.5V612
	c0-59.4,36.2-111.8,90-133.3c-1.1,4.5-1.7,9.1-1.7,13.9c0,12.9,4.2,24.7,11.2,34.4c-31.5,16.2-52,49.1-52,85V718.5z"/>
</svg>
