<?xml version="1.0" encoding="utf-8"?>
<!-- Generator: Adobe Illustrator 18.1.1, SVG Export Plug-In . SVG Version: 6.00 Build 0)  -->
<svg version="1.1" id="图层_1" xmlns="http://www.w3.org/2000/svg" xmlns:xlink="http://www.w3.org/1999/xlink" x="0px" y="0px"
	 viewBox="0 0 1000 1000" enable-background="new 0 0 1000 1000" xml:space="preserve">
<g id="cdc526c2-e7cc-4b08-8ccc-26da6c49bd0c.psd">
	<g id="形状_1_拷贝_2">
		<g>
			<path fill="#F6AB00" d="M529.6,267.7c-1.2,0-2,0.8-2,3.3v178.2c29,13.1,60.9,20.4,95.5,21.8l-89.8-200
				C532,268.5,530.8,267.7,529.6,267.7z M942.8,160.4C925.1,94.2,885.6,48.1,824.3,22.1c-61.3-25.9-128.7-29-202-9.3
				c-83.9,22.6-145.2,58.5-183.8,107.9c-38.6,49.4-48.8,108.1-30.6,176.2c13.6,51,36.7,90.9,69.2,119.7v-219c0-9,7.3-16.3,16.3-16.3
				h44c8.6,0,13,2.4,17.9,13l94.9,212.4c0.8,2,2,3.3,3.3,3.3c0.8,0,2-1.2,2-3.7V189.1c0-4.5,3.3-7.7,7.7-7.7h35
				c4.5,0,7.7,3.3,7.7,7.7v275c11.3-2.2,22.9-4.8,34.7-8c1.1-0.3,2.1-0.6,3.2-0.9v-183c0-4.5,3.7-8.1,8.1-8.1h37.5
				c4.5,0,8.1,3.7,8.1,8.1V437c53.8-22.1,94.1-52.4,121-90.8C954.2,295.3,962.3,233.4,942.8,160.4z M798.7,225.3
				c0,4.5-3.7,8.1-8.1,8.1h-39.5c-4.5,0-8.6-3.7-8.6-8.1v-35.8c0-4.5,4.1-8.1,8.6-8.1h39.5c4.5,0,8.1,3.7,8.1,8.1V225.3z"/>
		</g>
	</g>
	<g id="形状_1_拷贝_10">
		<g>
			<path fill="#F6AB00" d="M53.1,716.4h19.3c2.5,0,4.3-2,4.3-4.5V597.7c0-1.4,0.5-1.8,1.1-1.8c0.7,0,1.4,0.5,2,1.8l50.4,110.6
				c3.6,8.2,8.4,8.2,13.9,8.2h22.9c5,0,9.1-4.1,9.1-9.1V552c0-2.5-1.8-4.3-4.3-4.3h-19.5c-2.5,0-4.3,1.8-4.3,4.3v119.4
				c0,1.4-0.7,2-1.1,2c-0.7,0-1.4-0.7-1.8-1.8L92.2,555c-2.7-5.9-5.2-7.3-10-7.3H57.7c-5,0-9.1,4.1-9.1,9.1v155.1
				C48.6,714.4,50.6,716.4,53.1,716.4z M291.8,714.4c4.1-0.7,4.8-2.3,4.8-5.9v-15c0-2.3-1.8-3.4-4.1-3.4h-0.7
				c-9.5,0.9-25.2,2.3-41.8,2.3c-21.8,0-27.2-15.7-27.2-28.8v-0.7h74c3.2,0,4.5-2,4.5-5.7v-12.7c0-33.8-19.1-57.7-54-57.7
				c-34.7,0-54.5,22.3-54.5,57.7v16.8c0,44.7,32.2,57,54.9,57C268.1,718.2,277,717.1,291.8,714.4z M223,640.6
				c0-17.9,10.2-27.9,24.3-27.9c14.1,0,23.8,10.2,23.8,27.9v0.9H223V640.6z M382.6,712.6v-14.3c0-2.3-1.8-3.4-4.8-3.4h-12
				c-8.2,0-8.9-1.4-8.9-12.7v-71.3h20.4c2.5,0,4.5-2,4.5-4.5v-13.4c0-2.5-2-4.5-4.5-4.5h-20.4V565c0-2.3-1.6-3.4-3.6-3.4h-0.9
				l-21.1,3.6c-2.5,0.5-4.5,2-4.5,4.5v18.6h-21.3c-2.5,0-4.5,2-4.5,4.5v10.2c0,2.5,2,4.1,4.5,4.5l21.3,3.2v71.3
				c0,30.4,10.4,36.1,36.1,36.1c5,0,10-0.7,15.4-1.6C381.2,716.2,382.6,714.8,382.6,712.6z M509.9,717.1h6.1
				c13.8,0,17.5-5.4,20.2-19.1l20.7-104.4v-0.7c0-2.5-2-4.5-4.5-4.5h-22c-2.3,0-3.9,2-4.1,4.1l-14.3,96c-0.2,2-0.7,3.2-1.1,3.2
				c-0.5,0-1.1-0.9-1.6-3.2l-18.8-76.3c-2.3-8.9-5-9.8-12.7-9.8h-15.9c-7.7,0-10.4,0.9-12.7,9.8l-18.8,76.3
				c-0.5,2.3-1.1,3.2-1.6,3.2c-0.5,0-0.9-1.1-1.1-3.2l-14.3-96c-0.2-2-1.8-4.1-4.1-4.1h-22c-2.5,0-4.5,2-4.5,4.5v0.7L403.2,698
				c2.7,13.6,6.4,19.1,20.2,19.1h6.1c12.3,0,18.6-5.9,21.6-17.7l17.9-69.5c0.2-0.9,0.2-1.1,0.7-1.1c0.5,0,0.5,0.2,0.7,1.1l17.9,69.5
				C491.3,711.2,497.7,717.1,509.9,717.1z M613.2,718.2c35.6,0,54.3-24.1,54.3-56.5v-18.4c0-32.5-18.6-56.5-54.3-56.5
				c-35.7,0-54.3,24.1-54.3,56.5v18.4C559,694.2,577.6,718.2,613.2,718.2z M588.9,643.3c0-18.6,8.4-30.7,24.3-30.7
				c15.9,0,24.3,12,24.3,30.7v18.4c0,18.6-8.4,30.7-24.3,30.7c-15.9,0-24.3-12-24.3-30.7V643.3z M743.1,586.8
				c-9.1,0-21.3,2.3-32.5,10.9v-4.8c0-2.5-2-4.5-4.5-4.5h-19.7c-2.5,0-4.5,2-4.5,4.5v118.8c0,2.5,2,4.8,4.5,4.8h20.9
				c2.5,0,4.5-2.3,4.5-4.8v-91.3c9.5-5,19.1-8.2,31.3-8.2c2.5,0,4.5-2,4.5-4.5v-16.3C747.6,588.8,745.6,586.8,743.1,586.8z
				 M857.9,711.9l-46.1-62.7l45.6-56.1c0.7-0.9,0.9-1.6,0.9-2.3c0-1.6-1.1-2.5-3.4-2.5h-25.4c-1.4,0-3.6,0.7-5.2,2.7l-38.8,51.8
				v-94.7c0-2.5-2-4.5-4.5-4.5h-20.9c-2.5,0-4.5,2-4.5,4.5v163.5c0,2.5,2,4.8,4.5,4.8H781c2.5,0,4.5-2.3,4.5-4.8v-51.5l35.6,51.8
				c1.4,2,4.1,4.5,6.6,4.5h27.7c1.8,0,3.2-1.4,3.2-2.7C858.6,713,858.4,712.6,857.9,711.9z M75.6,785.2H53.1c-2.5,0-4.5,1.8-4.5,4.3
				v159.9c0,2.5,2,4.5,4.5,4.5h22.5c2.5,0,4.5-2,4.5-4.5V789.5C80.2,787,78.1,785.2,75.6,785.2z M166.2,824.2
				c-15,0-23.6,2.5-36.8,10.9v-4.8c0-2.5-2-4.5-4.5-4.5h-19.8c-2.5,0-4.5,2-4.5,4.5v118.8c0,2.5,2,4.8,4.5,4.8H126
				c2.5,0,4.5-2.3,4.5-4.8v-91.3c9.5-5,17.9-8.2,25.7-8.2c17.5,0,19.3,5.7,19.3,25.4v74c0,2.5,2,4.8,4.5,4.8h20.9
				c2.5,0,4.5-2.3,4.5-4.8v-74C205.5,846.2,198.9,824.2,166.2,824.2z M287.9,885.8l-29.7-18.2c-5.7-3.4-9.1-5.7-9.1-9.3
				c0-7,4.8-9.5,15.7-9.5c12.9,0,31.1,1.8,37.5,2.7h0.9c2.3,0,3.6-1.6,3.6-4.3V834c0-2.7-1.4-4.5-4.1-5.2c-11.6-2.5-22-4.5-40.4-4.5
				c-28.8,0-43.1,11.4-43.1,34.1c0,13.2,7.9,24.5,19.1,31.3l31.1,19.1c7.3,4.5,10,7.3,10,11.6c0,6.1-2,10.9-16.1,10.9
				c-6.8,0-27.2-1.1-38.1-2.5h-0.9c-2.3,0-3.9,1.8-3.9,3.6v13.6c0,2.7,1.6,4.5,4.3,5.2c12.7,3.4,31.8,4.5,40.6,4.5
				c29.7,0,44.5-15.7,44.5-35.4C309.7,908.7,307,897.3,287.9,885.8z M349.4,825.8h-20.9c-2.5,0-4.5,2-4.5,4.5v118.8
				c0,2.5,2,4.8,4.5,4.8h20.9c2.5,0,4.5-2.3,4.5-4.8V830.4C354,827.9,351.9,825.8,349.4,825.8z M350.1,779.7h-22
				c-2.5,0-4.8,2-4.8,4.5v20c0,2.5,2.3,4.5,4.8,4.5h22c2.5,0,4.5-2,4.5-4.5v-20C354.6,781.8,352.6,779.7,350.1,779.7z M478.1,825.8
				H425c-39.3,0-54,19.1-54,41.8v1.6c0,11.4,2.5,19.5,9.3,26.6c-6.1,4.3-9.1,11.4-9.1,18.4v0.2c0,8.2,3.9,16.1,10.2,20.9
				c-7.3,6.6-11.6,15.7-11.6,25v2c0,23.8,19.5,37.7,56.3,37.7c38.6,0,55.6-12.5,55.6-35.7v-1.6c0-24.3-20-29.1-50.9-36.3l-26.8-6.4
				c-5.2-1.1-7.7-3-7.7-7.5c0-2,1.1-4.1,3.9-5.9c4.5,1.8,12.7,3.9,24.8,3.9c34.3,0,53.8-12.9,53.8-41.3v-1.6c0-7.9-2-12.9-5.7-18.2
				l7.5-3c2.7-1.1,3.6-1.6,3.6-5v-9.5C484.3,828.5,481.6,825.8,478.1,825.8z M399.1,960.2c0-8.2,2.3-11.1,5.7-15.9l20.2,4.8
				c23.8,5.7,26.8,8.6,26.8,13.6v1.6c0,8.2-3.9,12.9-25.7,12.9c-21.3,0-27-5.7-27-15V960.2z M449.3,869.9c0,11.4-5.4,17.9-24.3,17.9
				c-21.1,0-24.5-9.5-24.5-17.9V868c0-10.7,5.2-19.3,24.5-19.3c19.5,0,24.3,8.4,24.3,19.3V869.9z M558.3,824.2
				c-16.1,0-25.7,3.2-34.3,8.4v-47c0-2.5-2-4.5-4.5-4.5h-20.9c-2.5,0-4.5,2-4.5,4.5v163.5c0,2.5,2,4.8,4.5,4.8h20.9
				c2.5,0,4.5-2.3,4.5-4.8v-91.7c9.5-5,18.6-7.7,26.3-7.7c15.2,0,18.6,5,18.6,24.8v74.7c0,2.5,2,4.8,4.5,4.8h20.9
				c2.5,0,4.5-2.3,4.5-4.8v-74.7C598.9,846.5,589.6,824.2,558.3,824.2z M679.3,932.3h-12c-8.2,0-8.9-1.4-8.9-12.7v-71.3h20.4
				c2.5,0,4.5-2,4.5-4.5v-13.4c0-2.5-2-4.5-4.5-4.5h-20.4v-23.4c0-2.3-1.6-3.4-3.6-3.4h-0.9l-21.1,3.6c-2.5,0.5-4.5,2-4.5,4.5v18.6
				h-21.3c-2.5,0-4.5,2-4.5,4.5v10.2c0,2.5,2,4.1,4.5,4.5l21.3,3.2v71.3c0,30.4,10.4,36.1,36.1,36.1c5,0,10-0.7,15.4-1.6
				c3-0.5,4.3-1.8,4.3-4.1v-14.3C684.1,933.4,682.2,932.3,679.3,932.3z"/>
		</g>
	</g>
	<g id="形状_1_拷贝_6">
		<g>
			<path fill="#FACD7A" d="M75.7,414.9c-16.7,0-28.8,9.6-28.8,32.5v14c0,22.9,12.1,32.5,28.8,32.5c16.7,0,28.8-9.6,28.8-32.5v-14
				C104.5,424.5,92.4,414.9,75.7,414.9z M90.4,461.4c0,13.7-4.8,19.9-14.7,19.9c-9.9,0-14.7-6.1-14.7-19.9v-14
				c0-13.7,4.8-19.9,14.7-19.9c9.9,0,14.7,6.1,14.7,19.9V461.4z M167.5,414.9h-8.7c-1.1,0-1.9,0.8-1.9,2l-0.1,56.5
				c0,0.6-0.3,0.9-0.5,0.9c-0.3,0-0.6-0.3-0.8-0.8L132,418.3c-1.2-2.7-2.3-3.3-4.4-3.3h-10.9c-2.2,0-4,1.9-4,4.2l-0.1,72.9
				c0,1.1,0.9,2.1,2,2.1h8.6c1.1,0,1.9-0.9,1.9-2.1l0.1-54.1c0-0.6,0.2-0.8,0.5-0.8c0.3,0,0.6,0.2,0.9,0.8l22.3,52.5
				c1.6,3.7,3.7,3.7,6.2,3.7h10.2c2.2,0,4-1.9,4-4.2l0.1-73C169.4,415.8,168.6,414.9,167.5,414.9z M222.1,416.4
				c-3.2-0.5-7.2-1.5-19.2-1.5c-13.1,0-23.4,3.6-23.4,21.3v36.3c0,17.7,10.2,21.3,23.4,21.3c12,0,16-0.9,19.2-1.5
				c1.5-0.2,2-0.7,2-2.2v-6.7c0-1.1-0.9-2.1-2-2.1h-20.6c-5.9,0-8-2.1-8-9v-13.4h27.4c1.1,0,2-0.9,2-2.1v-7.5c0-1.1-0.9-2.1-2-2.1
				h-27.4v-11.2c0-6.9,2.1-9,8-9h20.6c1.1,0,2-0.9,2-2.1v-6.7C224.2,417.1,223.6,416.6,222.1,416.4z M271.9,425.5
				c-2.4-9.7-9.7-10.6-14.1-10.6c-4.3,0-11.6,0.9-14.1,10.6l-16.6,66.2l-0.1,0.5c0,1,0.8,1.8,1.8,1.8h10.7c0.9,0,1.7-0.8,1.9-1.8
				l4.7-19.8h23.3l4.7,19.8c0.2,0.9,1,1.8,1.9,1.8h10.7c1,0,1.8-0.7,1.8-1.8l-0.1-0.5L271.9,425.5z M248.9,460.6l7.3-31.9
				c0.3-1.2,0.6-1.7,1.6-1.7s1.3,0.4,1.6,1.7l7.3,31.9H248.9z M316,414.8c-7.4,0-14.6,0.5-19.8,1.4c-2,0.3-3.2,1-3.2,3.1L293,492
				c0,1.1,0.9,2.1,2,2.1h10.1c1.1,0,1.9-0.9,1.9-2.1l-0.1-28.2c2.3,0.1,6.4,0.4,9,0.4c15.6,0,29.1-5.9,29.1-24.4v-0.9
				C345.1,420.4,331.6,414.8,316,414.8z M331.2,439.8c0,8.3-4.2,12.5-15.2,12.5c-1.7,0-7.4-0.2-9-0.3v-24.8c1.8-0.2,6.9-0.4,9-0.4
				c10.1,0,15.2,3.3,15.2,12.1V439.8z M412.2,414.8h-8.3c-1.6,0-3,1-3.7,2.5l-15.3,31.8c-0.5,0.9-0.7,1.5-1.1,1.5
				c-0.4,0-0.6-0.5-1.1-1.5l-15.3-31.8c-0.7-1.5-2.1-2.5-3.7-2.5h-8.3c-2.2,0-4,1.9-4,4.2v73.5c0,1,0.8,1.6,1.7,1.6h10.2
				c0.9,0,1.6-1,1.6-2.1v-50.3c0-0.7,0.1-1,0.3-1l0.5,0.6l9.8,19.9c0.6,1.1,1.9,1.8,3.2,1.8h10.2c1.3,0,2.6-0.6,3.2-1.8l9.7-19.9
				l0.5-0.6c0.2,0,0.3,0.3,0.3,1V492c0,1,0.7,2.1,1.6,2.1h10.2c0.9,0,1.7-0.5,1.7-1.6V419C416.2,416.7,414.4,414.8,412.2,414.8z"/>
		</g>
	</g>
</g>
</svg>
