<?xml version="1.0" encoding="utf-8"?>
<!-- Generator: Adobe Illustrator 18.1.1, SVG Export Plug-In . SVG Version: 6.00 Build 0)  -->
<svg version="1.1" id="图层_1" xmlns="http://www.w3.org/2000/svg" xmlns:xlink="http://www.w3.org/1999/xlink" x="0px" y="0px"
	 viewBox="-147.2 0 1294.3 1000" enable-background="new -147.2 0 1294.3 1000" xml:space="preserve">
<g>
	<g>
		<g>
			<path fill="#7E308E" d="M758.7,162.2c-17.6-67.2-58-114-119.8-139.6C577.2-3.8,509.1-7,435,12.8C349.6,36,287.8,71.9,248.5,121.9
				c-38.8,50-49.3,109.6-30.5,178.1c17.1,64,49.1,110.6,94.9,140.1c19.2,1.7,51.6,3.2,65,3.2c36.6,0,47.8-13.4,47.8-37.2
				c0-16-8-24.2-34.8-40.4L336,333.3c-38.1-22.4-48.4-43-48.4-72c0-45.2,26.3-78.4,103-78.4c27.4,0,65,4.1,79.1,7.5
				c4.1,1,7.5,3.7,7.5,8v30.5c0,4.1-2.6,7.5-7,7.5c-0.6,0-0.6,0-1,0c-27.4-2.6-54.2-4.1-81-4.1c-30.5,0-43,10.8-43,29
				c0,13.4,7,22,33.9,36.6l49.3,24.2c45.2,25.2,57.4,51.6,57.4,83.8c0,26.3-10.2,53.2-38.1,69.8c20.5,0,42-1.7,64.4-5.8V275.1
				c0-4.1,3.7-8,8-8h38.3c4.1,0,8,3.7,8,8v182.6c77.8-22.4,134.2-58.6,168.6-107.9C769.9,298.6,778.4,235.7,758.7,162.2z
				 M566.8,227.5c0,4.1-3.7,8-8,8h-40.4c-4.1,0-8.6-3.7-8.6-8v-35.9c0-4.1,4.1-8,8.6-8h39.8c4.1,0,8,3.7,8,8v35.9H566.8z"/>
		</g>
		<g>
			<path fill="#7E308E" d="M-118.3,724.4h-22.4c-2.6,0-4.8-2.2-4.8-4.8v-161c0-2.6,2.2-4.1,4.8-4.1h22.4c2.6,0,4.8,1.7,4.8,4.1V720
				C-113.4,722.2-115.6,724.4-118.3,724.4z"/>
			<path fill="#7E308E" d="M8.6,724.4h-21c-2.6,0-4.8-2.2-4.8-4.8v-74.6c0-19.8-1.7-25.8-19.2-25.8c-8,0-16,3.2-25.8,8v92.5
				c0,2.6-2.2,4.8-4.8,4.8h-20.7c-2.6,0-4.8-2.2-4.8-4.8V599.2c0-2.6,2.2-4.8,4.8-4.8h19.6c2.6,0,4.8,2.2,4.8,4.8v4.8
				c13.4-8.6,22-11.2,37.2-11.2c33.2,0,39.8,22,39.8,51.6v75.2C13.4,722.2,11.2,724.4,8.6,724.4z"/>
			<path fill="#7E308E" d="M94.4,569.7H84.2c-11.2,0-13.4,2.6-13.4,14v11.2h22c2.6,0,4.8,2.2,4.8,4.8v14c0,2.6-2.2,4.1-4.8,4.1h-22
				v102c0,2.6-2.2,4.8-4.8,4.8H45.1c-2.6,0-4.8-2.2-4.8-4.8v-102l-20.5-3.2c-2.6-0.6-4.8-1.7-4.8-4.1v-10.8c0-2.6,2.2-4.8,4.8-4.8
				h20.9v-11.2c0-29.4,15.6-36.6,39.8-36.6c5.4,0,9.5,1,14,1.7c1.7,0.6,4.1,1.7,4.1,3.7v13.4C98.2,568.5,95.9,569.7,94.4,569.7z"/>
			<path fill="#7E308E" d="M168,619.2c-12.4,0-22,3.2-31.6,8v92.5c0,2.6-2.2,4.8-4.8,4.8h-20.9c-2.6,0-4.8-2.2-4.8-4.8V599.3
				c0-2.6,2.2-4.8,4.8-4.8h19.8c2.6,0,4.8,2.2,4.8,4.8v4.8c11.2-8.6,23.6-11.2,32.6-11.2c2.6,0,4.8,2.2,4.8,4.8v16.6
				C172.8,617,170.6,619.2,168,619.2z"/>
			<path fill="#7E308E" d="M266.8,724.4h-19.2c-2.6,0-4.8-2.2-4.8-4.8v-3.7c-10.8,6.4-21.4,10.2-32.2,10.2
				c-18.8,0-39.8-7.5-39.8-38.1v-1c0-26.3,16-39.8,55.8-39.8h14.4v-10.4c0-15.1-6.4-18.8-20.5-18.8c-14.4,0-30,1-37.6,1.7
				c-0.6,0-1,0-1,0c-2.2,0-4.1-0.6-4.1-3.7v-14.4c0-2.6,1.7-4.1,4.1-4.8c9.3-1.7,22.4-3.7,38.1-3.7c32.6,0,50.6,14.4,50.6,44v82.6
				C271.1,722.2,268.8,724.4,266.8,724.4z M240.9,667.3h-14.4c-20.9,0-25.2,6.4-25.2,19.2v1c0,11.2,4.8,14.4,16.6,14.4
				c8,0,16.6-2.6,23.6-6.4v-28.3h-0.6v0.1H240.9z"/>
			<path fill="#7E308E" d="M331.7,725.9c-9.3,0-28.3-1-41.5-4.8c-2.6-0.6-4.1-2.6-4.1-5.4v-14c0-1.7,1.7-3.7,3.7-3.7
				c0.6,0,0.6,0,1,0c11.2,1.7,31.6,2.6,38.8,2.6c14.4,0,16-4.8,16-11.2c0-4.1-2.6-7-10.2-11.7L304,658.3
				c-11.2-7-19.2-18.2-19.2-31.6c0-22.9,14.4-34.1,43.5-34.1c18.8,0,29,2.2,40.8,4.8c2.6,0.6,4.1,2.6,4.1,5.4v13.4
				c0,2.6-1.7,4.1-3.7,4.1c-0.6,0-0.6,0-1,0c-6.4-1-24.6-2.6-38.1-2.6c-11.2,0-16,2.6-16,9.5c0,3.7,3.2,5.8,9.3,9.5l30,18.2
				c19.2,11.7,22,22.9,22,34.8C376.4,710.3,362,725.9,331.7,725.9z"/>
			<path fill="#7E308E" d="M455.8,724.9c-5.4,1-10.8,1.7-15.6,1.7c-25.8,0-36.6-5.8-36.6-36.6v-72.4l-21.4-3.2
				c-2.6-0.6-4.8-2.2-4.8-4.8v-10.2c0-2.6,2.2-4.8,4.8-4.8h21.4v-18.8c0-2.6,2.2-4.1,4.8-4.8l21.4-3.7c0,0,0.6,0,1,0
				c2.2,0,3.7,1,3.7,3.2v23.6H455c2.6,0,4.8,2.2,4.8,4.8v13.4c0,2.6-2.2,4.8-4.8,4.8h-20.5v72c0,11.2,0.6,12.9,9.3,12.9h12.4
				c3.2,0,4.8,1,4.8,3.2v14.4C460.3,722.7,459,724.4,455.8,724.9z"/>
			<path fill="#7E308E" d="M531.6,619.2c-12.4,0-22,3.2-31.6,8v92.5c0,2.6-2.2,4.8-4.8,4.8h-20.9c-2.6,0-4.8-2.2-4.8-4.8V599.3
				c0-2.6,2.2-4.8,4.8-4.8H494c2.6,0,4.8,2.2,4.8,4.8v4.8c11.2-8.6,23.6-11.2,32.6-11.2c2.6,0,4.8,2.2,4.8,4.8v16.6
				C535.9,617,534.2,619.2,531.6,619.2z"/>
			<path fill="#7E308E" d="M645.5,724.4h-20.9c-2.6,0-4.8-2.2-4.8-4.8v-5.4c-11.7,8-21.4,11.2-35.9,11.2c-11.2,0-21.4-3.2-28.3-9.5
				c-8.6-8.6-11.2-22.4-11.2-42v-74.6c0-2.6,2.2-4.8,4.8-4.8H570c2.6,0,4.8,2.2,4.8,4.8v74.6c0,11.2,1,18.2,5.4,22
				c3.2,2.6,7,4.1,14,4.1c8.6,0,19.2-5.8,25.8-9.3v-91.8c0-2.6,2.2-4.8,4.8-4.8h20.9c2.6,0,4.8,2.2,4.8,4.8v120.4
				C650.2,722.2,648.2,724.4,645.5,724.4z"/>
			<path fill="#7E308E" d="M745.8,723.3c-5.4,1.7-15.6,3.2-29.4,3.2c-30,0-52.2-18.2-52.2-55.8v-21.4c0-37.6,22.4-55.8,52.2-55.8
				c14,0,24.2,1.7,29.4,3.2c3.7,1,4.8,2.2,4.8,5.8v15.1c0,2.2-1.7,3.2-4.1,3.2h-0.6c-9.3-1-14.4-1.7-29.4-1.7c-10.8,0-22,6.4-22,30
				v21.4c0,23.6,11.2,30,22,30c15.1,0,20.5-0.6,29.4-1.7h0.6c2.2,0,4.1,1,4.1,3.2v15.1C750.6,721.2,749.7,722.2,745.8,723.3z"/>
			<path fill="#7E308E" d="M832.2,724.9c-5.4,1-10.8,1.7-15.6,1.7c-25.8,0-36.6-5.8-36.6-36.6v-72.4l-21.4-3.2
				c-2.6-0.6-4.8-2.2-4.8-4.8v-10.2c0-2.6,2.2-4.8,4.8-4.8h21.4v-18.8c0-2.6,2.2-4.1,4.8-4.8l21.4-3.7c0,0,0.6,0,1,0
				c2.2,0,3.7,1,3.7,3.2v23.6h20.6c2.6,0,4.8,2.2,4.8,4.8v13.4c0,2.6-2.2,4.8-4.8,4.8h-20.3v72c0,11.2,0.6,12.9,9.3,12.9h12.4
				c3.2,0,4.8,1,4.8,3.2v14.4C836.5,722.7,835.4,724.4,832.2,724.9z"/>
			<path fill="#7E308E" d="M947.2,724.4h-20.9c-2.6,0-4.8-2.2-4.8-4.8v-5.4c-11.7,8-21.4,11.2-35.9,11.2c-11.2,0-21.4-3.2-28.3-9.5
				c-8.6-8.6-11.2-22.4-11.2-42v-74.6c0-2.6,2.2-4.8,4.8-4.8h20.9c2.6,0,4.8,2.2,4.8,4.8v74.6c0,11.2,1,18.2,5.4,22
				c3.2,2.6,7,4.1,14,4.1c8.6,0,19.2-5.8,25.8-9.3v-91.8c0-2.6,2.2-4.8,4.8-4.8h20.6c2.6,0,4.8,2.2,4.8,4.8v120.4
				C952,722.2,949.8,724.4,947.2,724.4z"/>
			<path fill="#7E308E" d="M1032.6,619.2c-12.4,0-22,3.2-31.6,8v92.5c0,2.6-2.2,4.8-4.8,4.8h-20.9c-2.6,0-4.8-2.2-4.8-4.8V599.3
				c0-2.6,2.2-4.8,4.8-4.8H995c2.6,0,4.8,2.2,4.8,4.8v4.8c11.2-8.6,23.6-11.2,32.6-11.2c2.6,0,4.8,2.2,4.8,4.8v16.6
				C1036.9,617,1034.7,619.2,1032.6,619.2z"/>
			<path fill="#7E308E" d="M1141.9,669.9h-74.6v0.6c0,13.4,5.4,29,27.4,29c16.6,0,32.6-1.7,42.4-2.2h0.6c2.2,0,4.1,1,4.1,3.2v15.1
				c0,3.7-0.6,5.4-4.8,5.8c-15.1,2.6-23.6,3.7-44.6,3.7c-22.9,0-55.4-12.4-55.4-57.4v-17.1c0-35.9,19.8-58.6,55.4-58.6
				c35.4,0,54.9,24.2,54.9,58.6v12.9C1146.9,668,1145.2,669.9,1141.9,669.9z M1116.2,647.6c0-17.6-9.5-28.3-24.2-28.3
				c-14.4,0-24.6,10.2-24.6,28.3v1h49.1L1116.2,647.6L1116.2,647.6z"/>
			<path fill="#7E308E" d="M-118.3,953h-22.4c-2.6,0-4.8-2.2-4.8-4.8V786.6c0-2.6,2.2-4.1,4.8-4.1h22.4c2.6,0,4.8,1.7,4.8,4.1v161.6
				C-113.4,950.9-115.6,953-118.3,953z"/>
			<path fill="#7E308E" d="M8.6,953h-21c-2.6,0-4.8-2.2-4.8-4.8v-74.6c0-19.8-1.7-25.8-19.2-25.8c-8,0-16,3.2-25.8,8v92.5
				c0,2.6-2.2,4.8-4.8,4.8h-20.7c-2.6,0-4.8-2.2-4.8-4.8V827.9c0-2.6,2.2-4.8,4.8-4.8h19.6c2.6,0,4.8,2.2,4.8,4.8v4.8
				c13.4-8.6,22-11.2,37.2-11.2c33.2,0,39.8,22,39.8,51.6v74.6C13.4,950.9,11.2,953,8.6,953z"/>
			<path fill="#7E308E" d="M73.6,954.5c-9.3,0-28.3-1-41.5-4.8c-2.6-0.6-4.1-2.6-4.1-5.4v-14c0-1.7,1.7-3.7,3.7-3.7c0.6,0,0.6,0,1,0
				c11.2,1.7,31.6,2.6,38.8,2.6c14.4,0,16-4.8,16-11.2c0-4.1-2.6-7-10.2-11.7l-31.5-19.3c-11.2-7-19.2-18.2-19.2-31.6
				c0-22.9,14.4-34.1,43.5-34.1c18.8,0,29,2.2,40.8,4.8c2.6,0.6,4.1,2.6,4.1,5.4v13.4c0,2.6-1.7,4.1-3.7,4.1c-0.6,0-0.6,0-1,0
				c-6.4-1-24.6-2.6-38.1-2.6c-11.2,0-16,2.6-16,9.5c0,3.7,3.2,5.8,9.3,9.5l30,18.2c19.2,11.7,22,22.9,22,34.8
				C118.6,939.2,103.6,954.5,73.6,954.5z"/>
			<path fill="#7E308E" d="M159.4,806.6h-22c-2.6,0-4.8-2.2-4.8-4.8v-20.5c0-2.6,2.2-4.8,4.8-4.8h22c2.6,0,4.8,2.2,4.8,4.8v20.5
				C163.8,804.4,162.2,806.6,159.4,806.6z M159,953h-21.4c-2.6,0-4.8-2.2-4.8-4.8V827.9c0-2.6,2.2-4.8,4.8-4.8H159
				c2.6,0,4.8,2.2,4.8,4.8v120.4C163.3,950.9,161,953,159,953z"/>
			<path fill="#7E308E" d="M291.7,844.8l-7.5,3.2c3.7,5.4,5.8,10.2,5.8,18.2v1.7c0,28.3-19.8,42-54.2,42c-12.4,0-20.5-2.2-25.2-3.7
				c-2.6,1.7-3.7,3.7-3.7,5.8c0,4.8,2.6,6.4,8,7.5l26.8,6.4c31,7.5,51.6,12.4,51.6,36.6v1.7c0,23.6-17.1,35.9-56.4,35.9
				c-37.2,0-56.9-14-56.9-38.1v-2.2c0-9.5,4.1-18.8,11.7-25.2c-6.4-4.8-10.2-12.9-10.2-20.9l0,0c0-7,3.2-14.4,9.3-18.8
				c-7-7-9.5-15.6-9.5-26.8v-1.8c0-22.9,15.1-42.4,54.9-42.4h53.8c3.2,0,6.4,2.6,6.4,6.4v9.5C295.4,843.1,294.1,843.5,291.7,844.8z
				 M261.9,962.1c0-4.8-3.2-8-26.8-14l-20.5-4.8c-3.2,4.8-5.8,8-5.8,16v2.2c0,9.5,5.8,15.1,27.4,15.1c22,0,25.8-4.8,25.8-12.9v-1.7
				H261.9L261.9,962.1z M259.7,866.2c0-11.2-4.8-19.2-24.6-19.2c-19.2,0-24.6,8.6-24.6,19.2v1.7c0,8.6,3.2,18.2,24.6,18.2
				c18.8,0,24.6-6.4,24.6-18.2V866.2z"/>
			<path fill="#7E308E" d="M406.4,953h-20.9c-2.6,0-4.8-2.2-4.8-4.8v-75.7c0-19.8-3.2-25.2-18.8-25.2c-8,0-17.1,2.6-26.8,8V948
				c0,2.6-2.2,4.8-4.8,4.8h-20.9c-2.6,0-4.8-2.2-4.8-4.8V782.6c0-2.6,2.2-4.8,4.8-4.8h21.4c2.6,0,4.8,2.2,4.8,4.8V830
				c8.6-5.4,18.2-8.6,34.8-8.6c31.6,0,41.5,22.4,41.5,50.6v76C410.6,950.9,409,953,406.4,953z"/>
			<path fill="#7E308E" d="M492.7,953c-5.4,1-10.8,1.7-15.6,1.7c-25.8,0-36.6-5.8-36.6-36.6v-71.9l-21.4-3.2
				c-2.6-0.6-4.8-2.2-4.8-4.8v-10.2c0-2.6,2.2-4.8,4.8-4.8h21.4v-18.8c0-2.6,2.2-4.1,4.8-4.8l21.4-3.7c0,0,0.6,0,1,0
				c2.2,0,3.7,1,3.7,3.2v23.6h20.5c2.6,0,4.8,2.2,4.8,4.8v13.4c0,2.6-2.2,4.8-4.8,4.8h-20.5V918c0,11.2,0.6,12.9,9.3,12.9h12.4
				c3.2,0,4.8,1,4.8,3.2v14.4C497,951.3,495.4,952.6,492.7,953z"/>
		</g>
	</g>
	<g>
		<path fill="#B386BC" d="M-88.6,466.8v-14c0-22.9-12.4-32.8-29-32.8s-29.6,9.3-29.6,32.8v14c0,22.9,12.4,32.8,29,32.8
			S-88.6,489.7-88.6,466.8z M-103.1,466.8c0,14-4.8,19.8-15.1,19.8s-15.1-6.4-15.1-19.8v-14c0-14,4.8-19.8,15.1-19.8
			s15.1,6.4,15.1,19.8V466.8z"/>
		<path fill="#B386BC" d="M-23,495.1v-73.7c0-1-1-2.2-2.2-2.2h-8.6c-1,0-2.2,1-2.2,2.2v56.9c0,0.6-0.6,1-0.6,1c-0.6,0-0.6-0.6-1-1
			L-61.2,423c-1-2.6-2.2-3.2-4.1-3.2h-11.2c-2.2,0-4.1,2.2-4.1,4.1v73.7c0,1,1,2.2,2.2,2.2h8.6c1,0,2.2-1,2.2-2.2v-54.9
			c0-0.6,0-1,0.6-1s0.6,0,1,1l22.7,53.2c1.7,3.7,3.7,3.7,6.4,3.7h10.2C-25.3,499.4-23,497.7-23,495.1z"/>
		<path fill="#B386BC" d="M32.2,495.8v-7c0-1-1-2.2-2.2-2.2H9.2c-5.9,0-8-2.2-8-9.3V464h28.1c1,0,2.2-1,2.2-2.2v-7.6
			c0-1-1-2.2-2.2-2.2H1.1v-11.2c0-7,2.2-9.3,8-9.3h21c1,0,2.2-1,2.2-2.2v-7c0-1.7-0.6-2.2-2.2-2.2c-3.2-0.6-7.6-1.7-19.3-1.7
			c-13.4,0-23.6,3.7-23.6,21.4v38c0,17.8,10.2,21.4,23.6,21.4c12.4,0,16.2-1,19.3-1.7C31.8,497.7,32.2,497.3,32.2,495.8z"/>
		<path fill="#B386BC" d="M97.2,497.7C97.2,497.7,97.2,497.3,97.2,497.7l-16.6-67.6c-2.6-9.5-9.5-10.8-14-10.8
			c-4.1,0-11.7,1-14,10.8l-17.1,67.2v0.6c0,1,1,1.7,1.7,1.7H48c1,0,1.7-1,2.2-1.7l4.8-19.8h23.6l4.8,19.8c0,1,1,1.7,2.2,1.7h10.8
			C96.8,499.4,97.2,499,97.2,497.7z M75.2,466.1H57l7.6-32.2c0.6-1,0.6-1.7,1.7-1.7s1,0.6,1.7,1.7L75.2,466.1z"/>
		<path fill="#B386BC" d="M154.8,444.5v-1c0-18.8-14-24.2-29.6-24.2c-7.6,0-14.7,0.6-19.8,1.7c-2.2,0.6-3.2,1-3.2,3.2v73.7
			c0,1,1,2.2,2.2,2.2h10.2c1,0,2.2-1,2.2-2.2v-28.3c2.2,0,6.4,0.6,9.3,0.6C140.7,469.4,154.8,463.3,154.8,444.5z M140.2,444.5
			c0,8.6-4.1,12.9-15.6,12.9c-1.7,0-7.6,0-9.3-0.6v-25.2c1.7,0,7-0.6,9.3-0.6c10.2,0,15.6,3.2,15.6,12.4V444.5z"/>
		<path fill="#B386BC" d="M226.1,497.7v-74.2c0-2.2-1.7-4.1-4.1-4.1h-8.6c-1.7,0-3.2,1-3.7,2.6l-15.6,32.2c-0.6,1-0.6,1.7-1,1.7
			c-0.6,0-0.6-0.6-1-1.7L176.5,422c-0.6-1.7-2.2-2.6-3.7-2.6h-8.6c-2.2,0-4.1,2.2-4.1,4.1v74.2c0,1,1,1.7,1.7,1.7H172
			c1,0,1.7-1,1.7-2.2v-51c0-0.6,0-1,0.6-1l0.6,0.6l9.5,19.8c0.6,1,2.2,1.7,3.2,1.7h10.2c1,0,2.6-0.6,3.2-1.7l9.5-19.8
			c0-0.6,0.6-0.6,0.6-0.6s0.6,0.6,0.6,1v51c0,1,0.6,2.2,1.7,2.2h10.2C225.6,499.4,226.1,499,226.1,497.7z"/>
	</g>
</g>
</svg>
