<?xml version="1.0" encoding="utf-8"?>
<!-- Generator: Adobe Illustrator 18.1.1, SVG Export Plug-In . SVG Version: 6.00 Build 0)  -->
<svg version="1.1" id="图层_1" xmlns="http://www.w3.org/2000/svg" xmlns:xlink="http://www.w3.org/1999/xlink" x="0px" y="0px"
	 viewBox="0 0 240.9 186.2" enable-background="new 0 0 240.9 186.2" xml:space="preserve">
<g>
	<g>
		<path fill="#7E2F8D" d="M168.7,30.2c-3.3-12.5-10.8-21.2-22.3-26c-11.5-4.9-24.2-5.5-38-1.8C92.5,6.7,81,13.4,73.7,22.7
			C66.5,32,64.5,43.1,68,55.9c3.2,11.9,9.1,20.6,17.7,26.1c3.6,0.3,9.6,0.6,12.1,0.6c6.8,0,8.9-2.5,8.9-6.9c0-3-1.5-4.5-6.5-7.5
			L90,62.1c-7.1-4.2-9-8-9-13.4c0-8.4,4.9-14.6,19.2-14.6c5.1,0,12.1,0.8,14.7,1.4c0.8,0.2,1.4,0.7,1.4,1.5v5.7
			c0,0.8-0.5,1.4-1.3,1.4c-0.1,0-0.1,0-0.2,0c-5.1-0.5-10.1-0.8-15.1-0.8c-5.7,0-8,2-8,5.4c0,2.5,1.3,4.1,6.3,6.8l9.2,4.5
			c8.4,4.7,10.7,9.6,10.7,15.6c0,4.9-1.9,9.9-7.1,13c3.8,0,7.8-0.3,12-1.1V51.2c0-0.8,0.7-1.5,1.5-1.5h7.1c0.8,0,1.5,0.7,1.5,1.5v34
			c14.5-4.2,25-10.9,31.4-20.1C170.8,55.6,172.4,43.9,168.7,30.2z M133,42.4c0,0.8-0.7,1.5-1.5,1.5H124c-0.8,0-1.6-0.7-1.6-1.5v-6.7
			c0-0.8,0.8-1.5,1.6-1.5h7.4c0.8,0,1.5,0.7,1.5,1.5V42.4z"/>
	</g>
	<g>
		<path fill="#7E2F8D" d="M5.4,134.9H1.2c-0.5,0-0.9-0.4-0.9-0.9V104c0-0.5,0.4-0.8,0.9-0.8h4.2c0.5,0,0.9,0.3,0.9,0.8v30.1
			C6.3,134.5,5.9,134.9,5.4,134.9z"/>
		<path fill="#7E2F8D" d="M29,134.9h-3.9c-0.5,0-0.9-0.4-0.9-0.9v-13.9c0-3.7-0.3-4.8-3.6-4.8c-1.5,0-3,0.6-4.8,1.5V134
			c0,0.5-0.4,0.9-0.9,0.9H11c-0.5,0-0.9-0.4-0.9-0.9v-22.4c0-0.5,0.4-0.9,0.9-0.9h3.7c0.5,0,0.9,0.4,0.9,0.9v0.9
			c2.5-1.6,4.1-2.1,6.9-2.1c6.2,0,7.4,4.1,7.4,9.6V134C29.9,134.5,29.5,134.9,29,134.9z"/>
		<path fill="#7E2F8D" d="M45,106.1h-1.9c-2.1,0-2.5,0.5-2.5,2.6v2.1h4.1c0.5,0,0.9,0.4,0.9,0.9v2.6c0,0.5-0.4,0.8-0.9,0.8h-4.1v19
			c0,0.5-0.4,0.9-0.9,0.9h-3.9c-0.5,0-0.9-0.4-0.9-0.9v-19l-3.8-0.6c-0.5-0.1-0.9-0.3-0.9-0.8v-2c0-0.5,0.4-0.9,0.9-0.9H35v-2.1
			c0-5.5,2.9-6.8,7.4-6.8c1,0,1.8,0.2,2.6,0.3c0.3,0.1,0.8,0.3,0.8,0.7v2.5C45.7,105.9,45.3,106.1,45,106.1z"/>
		<path fill="#7E2F8D" d="M58.7,115.3c-2.3,0-4.1,0.6-5.9,1.5V134c0,0.5-0.4,0.9-0.9,0.9H48c-0.5,0-0.9-0.4-0.9-0.9v-22.4
			c0-0.5,0.4-0.9,0.9-0.9h3.7c0.5,0,0.9,0.4,0.9,0.9v0.9c2.1-1.6,4.4-2.1,6.1-2.1c0.5,0,0.9,0.4,0.9,0.9v3.1
			C59.6,114.9,59.2,115.3,58.7,115.3z"/>
		<path fill="#7E2F8D" d="M77.1,134.9h-3.6c-0.5,0-0.9-0.4-0.9-0.9v-0.7c-2,1.2-4,1.9-6,1.9c-3.5,0-7.4-1.4-7.4-7.1v-0.2
			c0-4.9,3-7.4,10.4-7.4h2.7v-1.9c0-2.8-1.2-3.5-3.8-3.5c-2.7,0-5.6,0.2-7,0.3c-0.1,0-0.2,0-0.2,0c-0.4,0-0.8-0.1-0.8-0.7v-2.7
			c0-0.5,0.3-0.8,0.8-0.9c1.7-0.3,4.2-0.7,7.1-0.7c6.1,0,9.4,2.7,9.4,8.2v15.4C77.9,134.5,77.5,134.9,77.1,134.9z M72.3,124.3h-2.7
			c-3.9,0-4.7,1.2-4.7,3.6v0.2c0,2.1,0.9,2.7,3.1,2.7c1.5,0,3.1-0.5,4.4-1.2V124.3z"/>
		<path fill="#7E2F8D" d="M89.2,135.2c-1.7,0-5.3-0.2-7.7-0.9c-0.5-0.1-0.8-0.5-0.8-1v-2.6c0-0.3,0.3-0.7,0.7-0.7c0.1,0,0.1,0,0.2,0
			c2.1,0.3,5.9,0.5,7.2,0.5c2.7,0,3-0.9,3-2.1c0-0.8-0.5-1.3-1.9-2.2l-5.9-3.6c-2.1-1.3-3.6-3.4-3.6-5.9c0-4.3,2.7-6.4,8.1-6.4
			c3.5,0,5.4,0.4,7.6,0.9c0.5,0.1,0.8,0.5,0.8,1v2.5c0,0.5-0.3,0.8-0.7,0.8c-0.1,0-0.1,0-0.2,0c-1.2-0.2-4.6-0.5-7.1-0.5
			c-2.1,0-3,0.5-3,1.8c0,0.7,0.6,1.1,1.7,1.8l5.6,3.4c3.6,2.2,4.1,4.3,4.1,6.5C97.5,132.3,94.8,135.2,89.2,135.2z"/>
		<path fill="#7E2F8D" d="M112.3,135c-1,0.2-2,0.3-2.9,0.3c-4.8,0-6.8-1.1-6.8-6.8V115l-4-0.6c-0.5-0.1-0.9-0.4-0.9-0.9v-1.9
			c0-0.5,0.4-0.9,0.9-0.9h4v-3.5c0-0.5,0.4-0.8,0.9-0.9l4-0.7c0,0,0.1,0,0.2,0c0.4,0,0.7,0.2,0.7,0.6v4.4h3.8c0.5,0,0.9,0.4,0.9,0.9
			v2.5c0,0.5-0.4,0.9-0.9,0.9h-3.8v13.4c0,2.1,0.1,2.4,1.7,2.4h2.3c0.6,0,0.9,0.2,0.9,0.6v2.7C113.1,134.6,112.9,134.9,112.3,135z"
			/>
		<path fill="#7E2F8D" d="M126.4,115.3c-2.3,0-4.1,0.6-5.9,1.5V134c0,0.5-0.4,0.9-0.9,0.9h-3.9c-0.5,0-0.9-0.4-0.9-0.9v-22.4
			c0-0.5,0.4-0.9,0.9-0.9h3.7c0.5,0,0.9,0.4,0.9,0.9v0.9c2.1-1.6,4.4-2.1,6.1-2.1c0.5,0,0.9,0.4,0.9,0.9v3.1
			C127.2,114.9,126.9,115.3,126.4,115.3z"/>
		<path fill="#7E2F8D" d="M147.6,134.9h-3.9c-0.5,0-0.9-0.4-0.9-0.9v-1c-2.2,1.5-4,2.1-6.7,2.1c-2.1,0-4-0.6-5.3-1.8
			c-1.6-1.6-2.1-4.2-2.1-7.8v-13.9c0-0.5,0.4-0.9,0.9-0.9h3.9c0.5,0,0.9,0.4,0.9,0.9v13.9c0,2.1,0.2,3.4,1,4.1
			c0.6,0.5,1.3,0.8,2.6,0.8c1.6,0,3.6-1.1,4.8-1.7v-17.1c0-0.5,0.4-0.9,0.9-0.9h3.9c0.5,0,0.9,0.4,0.9,0.9v22.4
			C148.5,134.5,148.1,134.9,147.6,134.9z"/>
		<path fill="#7E2F8D" d="M166.3,134.7c-1,0.3-2.9,0.6-5.5,0.6c-5.6,0-9.7-3.4-9.7-10.4v-4c0-7,4.2-10.4,9.7-10.4
			c2.6,0,4.5,0.3,5.5,0.6c0.7,0.2,0.9,0.4,0.9,1.1v2.8c0,0.4-0.3,0.6-0.8,0.6c0,0-0.1,0-0.1,0c-1.7-0.2-2.7-0.3-5.5-0.3
			c-2,0-4.1,1.2-4.1,5.6v4c0,4.4,2.1,5.6,4.1,5.6c2.8,0,3.8-0.1,5.5-0.3c0,0,0.1,0,0.1,0c0.4,0,0.8,0.2,0.8,0.6v2.8
			C167.2,134.3,167,134.5,166.3,134.7z"/>
		<path fill="#7E2F8D" d="M182.4,135c-1,0.2-2,0.3-2.9,0.3c-4.8,0-6.8-1.1-6.8-6.8V115l-4-0.6c-0.5-0.1-0.9-0.4-0.9-0.9v-1.9
			c0-0.5,0.4-0.9,0.9-0.9h4v-3.5c0-0.5,0.4-0.8,0.9-0.9l4-0.7c0,0,0.1,0,0.2,0c0.4,0,0.7,0.2,0.7,0.6v4.4h3.8c0.5,0,0.9,0.4,0.9,0.9
			v2.5c0,0.5-0.4,0.9-0.9,0.9h-3.8v13.4c0,2.1,0.1,2.4,1.7,2.4h2.3c0.6,0,0.9,0.2,0.9,0.6v2.7C183.2,134.6,183,134.9,182.4,135z"/>
		<path fill="#7E2F8D" d="M203.8,134.9h-3.9c-0.5,0-0.9-0.4-0.9-0.9v-1c-2.2,1.5-4,2.1-6.7,2.1c-2.1,0-4-0.6-5.3-1.8
			c-1.6-1.6-2.1-4.2-2.1-7.8v-13.9c0-0.5,0.4-0.9,0.9-0.9h3.9c0.5,0,0.9,0.4,0.9,0.9v13.9c0,2.1,0.2,3.4,1,4.1
			c0.6,0.5,1.3,0.8,2.6,0.8c1.6,0,3.6-1.1,4.8-1.7v-17.1c0-0.5,0.4-0.9,0.9-0.9h3.9c0.5,0,0.9,0.4,0.9,0.9v22.4
			C204.7,134.5,204.3,134.9,203.8,134.9z"/>
		<path fill="#7E2F8D" d="M219.7,115.3c-2.3,0-4.1,0.6-5.9,1.5V134c0,0.5-0.4,0.9-0.9,0.9H209c-0.5,0-0.9-0.4-0.9-0.9v-22.4
			c0-0.5,0.4-0.9,0.9-0.9h3.7c0.5,0,0.9,0.4,0.9,0.9v0.9c2.1-1.6,4.4-2.1,6.1-2.1c0.5,0,0.9,0.4,0.9,0.9v3.1
			C220.5,114.9,220.1,115.3,219.7,115.3z"/>
		<path fill="#7E2F8D" d="M240,124.8h-13.9v0.1c0,2.5,1,5.4,5.1,5.4c3.1,0,6.1-0.3,7.9-0.4c0,0,0.1,0,0.1,0c0.4,0,0.8,0.2,0.8,0.6
			v2.8c0,0.7-0.1,1-0.9,1.1c-2.8,0.5-4.4,0.7-8.3,0.7c-4.3,0-10.3-2.3-10.3-10.7v-3.2c0-6.7,3.7-10.9,10.3-10.9
			c6.6,0,10.2,4.5,10.2,10.9v2.4C240.9,124.4,240.6,124.8,240,124.8z M235.2,120.6c0-3.3-1.8-5.3-4.5-5.3s-4.6,1.9-4.6,5.3v0.2h9.1
			V120.6z"/>
		<path fill="#7E2F8D" d="M5.4,177.5H1.2c-0.5,0-0.9-0.4-0.9-0.9v-30.1c0-0.5,0.4-0.8,0.9-0.8h4.2c0.5,0,0.9,0.3,0.9,0.8v30.1
			C6.3,177.1,5.9,177.5,5.4,177.5z"/>
		<path fill="#7E2F8D" d="M29,177.5h-3.9c-0.5,0-0.9-0.4-0.9-0.9v-13.9c0-3.7-0.3-4.8-3.6-4.8c-1.5,0-3,0.6-4.8,1.5v17.2
			c0,0.5-0.4,0.9-0.9,0.9H11c-0.5,0-0.9-0.4-0.9-0.9v-22.4c0-0.5,0.4-0.9,0.9-0.9h3.7c0.5,0,0.9,0.4,0.9,0.9v0.9
			c2.5-1.6,4.1-2.1,6.9-2.1c6.2,0,7.4,4.1,7.4,9.6v13.9C29.9,177.1,29.5,177.5,29,177.5z"/>
		<path fill="#7E2F8D" d="M41.1,177.8c-1.7,0-5.3-0.2-7.7-0.9c-0.5-0.1-0.8-0.5-0.8-1v-2.6c0-0.3,0.3-0.7,0.7-0.7c0.1,0,0.1,0,0.2,0
			c2.1,0.3,5.9,0.5,7.2,0.5c2.7,0,3-0.9,3-2.1c0-0.8-0.5-1.3-1.9-2.2l-5.9-3.6c-2.1-1.3-3.6-3.4-3.6-5.9c0-4.3,2.7-6.4,8.1-6.4
			c3.5,0,5.4,0.4,7.6,0.9c0.5,0.1,0.8,0.5,0.8,1v2.5c0,0.5-0.3,0.8-0.7,0.8c-0.1,0-0.1,0-0.2,0c-1.2-0.2-4.6-0.5-7.1-0.5
			c-2.1,0-3,0.5-3,1.8c0,0.7,0.6,1.1,1.7,1.8l5.6,3.4c3.6,2.2,4.1,4.3,4.1,6.5C49.5,174.9,46.7,177.8,41.1,177.8z"/>
		<path fill="#7E2F8D" d="M57.1,150.2h-4.1c-0.5,0-0.9-0.4-0.9-0.9v-3.8c0-0.5,0.4-0.9,0.9-0.9h4.1c0.5,0,0.9,0.4,0.9,0.9v3.8
			C57.9,149.8,57.6,150.2,57.1,150.2z M57,177.5H53c-0.5,0-0.9-0.4-0.9-0.9v-22.4c0-0.5,0.4-0.9,0.9-0.9H57c0.5,0,0.9,0.4,0.9,0.9
			v22.4C57.8,177.1,57.4,177.5,57,177.5z"/>
		<path fill="#7E2F8D" d="M81.7,157.3l-1.4,0.6c0.7,1,1.1,1.9,1.1,3.4v0.3c0,5.3-3.7,7.8-10.1,7.8c-2.3,0-3.8-0.4-4.7-0.7
			c-0.5,0.3-0.7,0.7-0.7,1.1c0,0.9,0.5,1.2,1.5,1.4l5,1.2c5.8,1.4,9.6,2.3,9.6,6.8v0.3c0,4.4-3.2,6.7-10.5,6.7
			c-6.9,0-10.6-2.6-10.6-7.1v-0.4c0-1.8,0.8-3.5,2.2-4.7c-1.2-0.9-1.9-2.4-1.9-3.9v0c0-1.3,0.6-2.7,1.7-3.5c-1.3-1.3-1.8-2.9-1.8-5
			v-0.3c0-4.3,2.8-7.9,10.2-7.9h10c0.6,0,1.2,0.5,1.2,1.2v1.8C82.4,157,82.2,157.1,81.7,157.3z M76.2,179.2c0-0.9-0.6-1.5-5-2.6
			l-3.8-0.9c-0.6,0.9-1.1,1.5-1.1,3v0.4c0,1.8,1.1,2.8,5.1,2.8c4.1,0,4.8-0.9,4.8-2.4V179.2z M75.8,161.3c0-2.1-0.9-3.6-4.6-3.6
			c-3.6,0-4.6,1.6-4.6,3.6v0.3c0,1.6,0.6,3.4,4.6,3.4c3.5,0,4.6-1.2,4.6-3.4V161.3z"/>
		<path fill="#7E2F8D" d="M103.1,177.5h-3.9c-0.5,0-0.9-0.4-0.9-0.9v-14.1c0-3.7-0.6-4.7-3.5-4.7c-1.5,0-3.2,0.5-5,1.5v17.3
			c0,0.5-0.4,0.9-0.9,0.9H85c-0.5,0-0.9-0.4-0.9-0.9v-30.8c0-0.5,0.4-0.9,0.9-0.9H89c0.5,0,0.9,0.4,0.9,0.9v8.8
			c1.6-1,3.4-1.6,6.5-1.6c5.9,0,7.7,4.2,7.7,9.4v14.1C103.9,177.1,103.6,177.5,103.1,177.5z"/>
		<path fill="#7E2F8D" d="M119.2,177.5c-1,0.2-2,0.3-2.9,0.3c-4.8,0-6.8-1.1-6.8-6.8v-13.4l-4-0.6c-0.5-0.1-0.9-0.4-0.9-0.9v-1.9
			c0-0.5,0.4-0.9,0.9-0.9h4v-3.5c0-0.5,0.4-0.8,0.9-0.9l4-0.7c0,0,0.1,0,0.2,0c0.4,0,0.7,0.2,0.7,0.6v4.4h3.8c0.5,0,0.9,0.4,0.9,0.9
			v2.5c0,0.5-0.4,0.9-0.9,0.9h-3.8V171c0,2.1,0.1,2.4,1.7,2.4h2.3c0.6,0,0.9,0.2,0.9,0.6v2.7C120,177.2,119.7,177.4,119.2,177.5z"/>
	</g>
</g>
<g>
	<path fill="#55295F" d="M10.9,86.9v-2.6c0-4.3-2.3-6.1-5.4-6.1S0,79.9,0,84.3v2.6C0,91.2,2.3,93,5.4,93S10.9,91.2,10.9,86.9z
		 M8.2,86.9c0,2.6-0.9,3.7-2.8,3.7c-1.9,0-2.8-1.2-2.8-3.7v-2.6c0-2.6,0.9-3.7,2.8-3.7c1.9,0,2.8,1.2,2.8,3.7V86.9z"/>
	<path fill="#55295F" d="M23.1,92.2l0-13.7c0-0.2-0.2-0.4-0.4-0.4h-1.6c-0.2,0-0.4,0.2-0.4,0.4l0,10.6c0,0.1-0.1,0.2-0.1,0.2
		c-0.1,0-0.1-0.1-0.2-0.2L16,78.8c-0.2-0.5-0.4-0.6-0.8-0.6h-2.1c-0.4,0-0.8,0.4-0.8,0.8l0,13.7c0,0.2,0.2,0.4,0.4,0.4h1.6
		c0.2,0,0.4-0.2,0.4-0.4l0-10.2c0-0.1,0-0.2,0.1-0.2c0.1,0,0.1,0,0.2,0.2l4.2,9.9c0.3,0.7,0.7,0.7,1.2,0.7h1.9
		C22.7,93,23.1,92.7,23.1,92.2z"/>
	<path fill="#55295F" d="M33.4,92.3v-1.3c0-0.2-0.2-0.4-0.4-0.4h-3.9c-1.1,0-1.5-0.4-1.5-1.7v-2.5h5.2c0.2,0,0.4-0.2,0.4-0.4v-1.4
		c0-0.2-0.2-0.4-0.4-0.4h-5.2v-2.1c0-1.3,0.4-1.7,1.5-1.7H33c0.2,0,0.4-0.2,0.4-0.4v-1.3c0-0.3-0.1-0.4-0.4-0.4
		c-0.6-0.1-1.4-0.3-3.6-0.3c-2.5,0-4.4,0.7-4.4,4V89c0,3.3,1.9,4,4.4,4c2.3,0,3-0.2,3.6-0.3C33.3,92.7,33.4,92.6,33.4,92.3z"/>
	<path fill="#55295F" d="M45.5,92.7C45.5,92.7,45.5,92.6,45.5,92.7l-3.1-12.6c-0.5-1.8-1.8-2-2.6-2c-0.8,0-2.2,0.2-2.6,2L34,92.6
		c0,0,0,0.1,0,0.1c0,0.2,0.2,0.3,0.3,0.3h2c0.2,0,0.3-0.2,0.4-0.3l0.9-3.7h4.4l0.9,3.7c0,0.2,0.2,0.3,0.4,0.3h2
		C45.4,93,45.5,92.9,45.5,92.7z M41.4,86.7H38l1.4-6c0.1-0.2,0.1-0.3,0.3-0.3c0.2,0,0.2,0.1,0.3,0.3L41.4,86.7z"/>
	<path fill="#55295F" d="M56.2,82.8v-0.2c0-3.5-2.6-4.5-5.5-4.5c-1.4,0-2.7,0.1-3.7,0.3c-0.4,0.1-0.6,0.2-0.6,0.6l0,13.7
		c0,0.2,0.2,0.4,0.4,0.4h1.9c0.2,0,0.4-0.2,0.4-0.4l0-5.3c0.4,0,1.2,0.1,1.7,0.1C53.6,87.4,56.2,86.3,56.2,82.8z M53.5,82.8
		c0,1.6-0.8,2.4-2.9,2.4c-0.3,0-1.4,0-1.7-0.1v-4.7c0.3,0,1.3-0.1,1.7-0.1c1.9,0,2.9,0.6,2.9,2.3V82.8z"/>
	<path fill="#55295F" d="M69.5,92.7V78.9c0-0.4-0.3-0.8-0.8-0.8h-1.6c-0.3,0-0.6,0.2-0.7,0.5l-2.9,6c-0.1,0.2-0.1,0.3-0.2,0.3
		c-0.1,0-0.1-0.1-0.2-0.3l-2.9-6c-0.1-0.3-0.4-0.5-0.7-0.5h-1.6c-0.4,0-0.8,0.4-0.8,0.8v13.8c0,0.2,0.2,0.3,0.3,0.3h1.9
		c0.2,0,0.3-0.2,0.3-0.4v-9.5c0-0.1,0-0.2,0.1-0.2c0,0,0.1,0.1,0.1,0.1l1.8,3.7c0.1,0.2,0.4,0.3,0.6,0.3h1.9c0.2,0,0.5-0.1,0.6-0.3
		l1.8-3.7c0-0.1,0.1-0.1,0.1-0.1c0,0,0.1,0.1,0.1,0.2v9.5c0,0.2,0.1,0.4,0.3,0.4h1.9C69.4,93,69.5,92.9,69.5,92.7z"/>
</g>
</svg>
