<?xml version="1.0" encoding="utf-8"?>
<!-- Generator: Adobe Illustrator 18.1.1, SVG Export Plug-In . SVG Version: 6.00 Build 0)  -->
<svg version="1.1" id="图层_1" xmlns="http://www.w3.org/2000/svg" xmlns:xlink="http://www.w3.org/1999/xlink" x="0px" y="0px"
	 viewBox="0 0 691 500" enable-background="new 0 0 691 500" xml:space="preserve">
<g>
	<g>
		<g>
			<path fill="#B83BC0" d="M474.7,81.1c-8.8-33.6-29-57-59.9-69.8C384-1.9,349.9-3.5,312.9,6.4C270.2,18,239.3,36,219.7,61
				c-19.4,25-24.7,54.8-15.3,89.1c8.6,32,24.5,55.3,47.5,70.1c9.6,0.8,25.8,1.6,32.5,1.6c18.3,0,23.9-6.7,23.9-18.6
				c0-8-4-12.1-17.4-20.2l-27.4-16.3c-19.1-11.2-24.2-21.5-24.2-36c0-22.6,13.1-39.2,51.5-39.2c13.7,0,32.5,2.1,39.5,3.7
				c2.1,0.5,3.7,1.9,3.7,4v15.3c0,2.1-1.3,3.7-3.5,3.7c-0.3,0-0.3,0-0.5,0c-13.7-1.3-27.1-2.1-40.5-2.1c-15.3,0-21.5,5.4-21.5,14.5
				c0,6.7,3.5,11,16.9,18.3l24.7,12.1c22.6,12.6,28.7,25.8,28.7,41.9c0,13.1-5.1,26.6-19.1,34.9c10.2,0,21-0.8,32.2-2.9v-97.3
				c0-2.1,1.9-4,4-4h19.1c2.1,0,4,1.9,4,4v91.3c38.9-11.2,67.1-29.3,84.3-54C480.3,149.3,484.6,117.9,474.7,81.1z M378.8,113.8
				c0,2.1-1.9,4-4,4h-20.2c-2.1,0-4.3-1.9-4.3-4v-18c0-2.1,2.1-4,4.3-4h19.9c2.1,0,4,1.9,4,4v18H378.8z"/>
		</g>
		<g>
			<path fill="#B83BC0" d="M36.3,362.2H25.1c-1.3,0-2.4-1.1-2.4-2.4v-80.5c0-1.3,1.1-2.1,2.4-2.1h11.2c1.3,0,2.4,0.8,2.4,2.1V360
				C38.7,361.1,37.6,362.2,36.3,362.2z"/>
			<path fill="#B83BC0" d="M99.7,362.2H89.2c-1.3,0-2.4-1.1-2.4-2.4v-37.3c0-9.9-0.8-12.9-9.6-12.9c-4,0-8,1.6-12.9,4v46.2
				c0,1.3-1.1,2.4-2.4,2.4H51.5c-1.3,0-2.4-1.1-2.4-2.4v-60.2c0-1.3,1.1-2.4,2.4-2.4h9.8c1.3,0,2.4,1.1,2.4,2.4v2.4
				c6.7-4.3,11-5.6,18.6-5.6c16.6,0,19.9,11,19.9,25.8v37.6C102.1,361.1,101,362.2,99.7,362.2z"/>
			<path fill="#B83BC0" d="M142.6,284.9h-5.1c-5.6,0-6.7,1.3-6.7,7v5.6h11c1.3,0,2.4,1.1,2.4,2.4v7c0,1.3-1.1,2.1-2.4,2.1h-11v51
				c0,1.3-1.1,2.4-2.4,2.4H118c-1.3,0-2.4-1.1-2.4-2.4v-51l-10.2-1.6c-1.3-0.3-2.4-0.8-2.4-2.1v-5.4c0-1.3,1.1-2.4,2.4-2.4h10.4
				v-5.6c0-14.7,7.8-18.3,19.9-18.3c2.7,0,4.8,0.5,7,0.8c0.8,0.3,2.1,0.8,2.1,1.9v6.7C144.5,284.3,143.4,284.9,142.6,284.9z"/>
			<path fill="#B83BC0" d="M179.4,309.6c-6.2,0-11,1.6-15.8,4v46.2c0,1.3-1.1,2.4-2.4,2.4h-10.4c-1.3,0-2.4-1.1-2.4-2.4v-60.2
				c0-1.3,1.1-2.4,2.4-2.4h9.9c1.3,0,2.4,1.1,2.4,2.4v2.4c5.6-4.3,11.8-5.6,16.3-5.6c1.3,0,2.4,1.1,2.4,2.4v8.3
				C181.8,308.5,180.7,309.6,179.4,309.6z"/>
			<path fill="#B83BC0" d="M228.8,362.2h-9.6c-1.3,0-2.4-1.1-2.4-2.4v-1.9c-5.4,3.2-10.7,5.1-16.1,5.1c-9.4,0-19.9-3.7-19.9-19.1
				v-0.5c0-13.1,8-19.9,27.9-19.9h7.2v-5.1c0-7.5-3.2-9.4-10.2-9.4c-7.2,0-15,0.5-18.8,0.8c-0.3,0-0.5,0-0.5,0
				c-1.1,0-2.1-0.3-2.1-1.9v-7.2c0-1.3,0.8-2.1,2.1-2.4c4.6-0.8,11.2-1.9,19.1-1.9c16.3,0,25.3,7.2,25.3,22v41.3
				C230.9,361.1,229.8,362.2,228.8,362.2z M215.9,333.7h-7.2c-10.4,0-12.6,3.2-12.6,9.6v0.5c0,5.6,2.4,7.2,8.3,7.2
				c4,0,8.3-1.3,11.8-3.2v-14.2h-0.3V333.7z"/>
			<path fill="#B83BC0" d="M261.3,363c-4.6,0-14.2-0.5-20.7-2.4c-1.3-0.3-2.1-1.3-2.1-2.7v-7c0-0.8,0.8-1.9,1.9-1.9
				c0.3,0,0.3,0,0.5,0c5.6,0.8,15.8,1.3,19.4,1.3c7.2,0,8-2.4,8-5.6c0-2.1-1.3-3.5-5.1-5.9l-15.8-9.6c-5.6-3.5-9.6-9.1-9.6-15.8
				c0-11.5,7.2-17.1,21.8-17.1c9.4,0,14.5,1.1,20.4,2.4c1.3,0.3,2.1,1.3,2.1,2.7v6.7c0,1.3-0.8,2.1-1.9,2.1c-0.3,0-0.3,0-0.5,0
				c-3.2-0.5-12.3-1.3-19.1-1.3c-5.6,0-8,1.3-8,4.8c0,1.9,1.6,2.9,4.6,4.8l15,9.1c9.6,5.9,11,11.5,11,17.4
				C283.6,355.2,276.4,363,261.3,363z"/>
			<path fill="#B83BC0" d="M323.3,362.5c-2.7,0.5-5.4,0.8-7.8,0.8c-12.9,0-18.3-2.9-18.3-18.3v-36.2l-10.7-1.6
				c-1.3-0.3-2.4-1.1-2.4-2.4v-5.1c0-1.3,1.1-2.4,2.4-2.4h10.7v-9.4c0-1.3,1.1-2.1,2.4-2.4l10.7-1.9c0,0,0.3,0,0.5,0
				c1.1,0,1.9,0.5,1.9,1.6V297h10.2c1.3,0,2.4,1.1,2.4,2.4v6.7c0,1.3-1.1,2.4-2.4,2.4h-10.2v36c0,5.6,0.3,6.4,4.6,6.4h6.2
				c1.6,0,2.4,0.5,2.4,1.6v7.2C325.5,361.4,324.9,362.2,323.3,362.5z"/>
			<path fill="#B83BC0" d="M361.2,309.6c-6.2,0-11,1.6-15.8,4v46.2c0,1.3-1.1,2.4-2.4,2.4h-10.4c-1.3,0-2.4-1.1-2.4-2.4v-60.2
				c0-1.3,1.1-2.4,2.4-2.4h9.9c1.3,0,2.4,1.1,2.4,2.4v2.4c5.6-4.3,11.8-5.6,16.3-5.6c1.3,0,2.4,1.1,2.4,2.4v8.3
				C363.3,308.5,362.5,309.6,361.2,309.6z"/>
			<path fill="#B83BC0" d="M418.1,362.2h-10.4c-1.3,0-2.4-1.1-2.4-2.4v-2.7c-5.9,4-10.7,5.6-18,5.6c-5.6,0-10.7-1.6-14.2-4.8
				c-4.3-4.3-5.6-11.2-5.6-21v-37.3c0-1.3,1.1-2.4,2.4-2.4h10.4c1.3,0,2.4,1.1,2.4,2.4v37.3c0,5.6,0.5,9.1,2.7,11
				c1.6,1.3,3.5,2.1,7,2.1c4.3,0,9.6-2.9,12.9-4.6v-45.9c0-1.3,1.1-2.4,2.4-2.4h10.4c1.3,0,2.4,1.1,2.4,2.4v60.2
				C420.5,361.1,419.5,362.2,418.1,362.2z"/>
			<path fill="#B83BC0" d="M468.3,361.7c-2.7,0.8-7.8,1.6-14.7,1.6c-15,0-26.1-9.1-26.1-27.9v-10.7c0-18.8,11.2-27.9,26.1-27.9
				c7,0,12.1,0.8,14.7,1.6c1.9,0.5,2.4,1.1,2.4,2.9v7.5c0,1.1-0.8,1.6-2.1,1.6h-0.3c-4.6-0.5-7.2-0.8-14.7-0.8c-5.4,0-11,3.2-11,15
				v10.7c0,11.8,5.6,15,11,15c7.5,0,10.2-0.3,14.7-0.8h0.3c1.1,0,2.1,0.5,2.1,1.6v7.5C470.7,360.6,470.2,361.1,468.3,361.7z"/>
			<path fill="#B83BC0" d="M511.5,362.5c-2.7,0.5-5.4,0.8-7.8,0.8c-12.9,0-18.3-2.9-18.3-18.3v-36.2l-10.7-1.6
				c-1.3-0.3-2.4-1.1-2.4-2.4v-5.1c0-1.3,1.1-2.4,2.4-2.4h10.7v-9.4c0-1.3,1.1-2.1,2.4-2.4l10.7-1.9c0,0,0.3,0,0.5,0
				c1.1,0,1.9,0.5,1.9,1.6V297h10.3c1.3,0,2.4,1.1,2.4,2.4v6.7c0,1.3-1.1,2.4-2.4,2.4H501v36c0,5.6,0.3,6.4,4.6,6.4h6.2
				c1.6,0,2.4,0.5,2.4,1.6v7.2C513.6,361.4,513.1,362.2,511.5,362.5z"/>
			<path fill="#B83BC0" d="M569,362.2h-10.4c-1.3,0-2.4-1.1-2.4-2.4v-2.7c-5.9,4-10.7,5.6-18,5.6c-5.6,0-10.7-1.6-14.2-4.8
				c-4.3-4.3-5.6-11.2-5.6-21v-37.3c0-1.3,1.1-2.4,2.4-2.4h10.4c1.3,0,2.4,1.1,2.4,2.4v37.3c0,5.6,0.5,9.1,2.7,11
				c1.6,1.3,3.5,2.1,7,2.1c4.3,0,9.6-2.9,12.9-4.6v-45.9c0-1.3,1.1-2.4,2.4-2.4h10.3c1.3,0,2.4,1.1,2.4,2.4v60.2
				C571.4,361.1,570.3,362.2,569,362.2z"/>
			<path fill="#B83BC0" d="M611.7,309.6c-6.2,0-11,1.6-15.8,4v46.2c0,1.3-1.1,2.4-2.4,2.4h-10.4c-1.3,0-2.4-1.1-2.4-2.4v-60.2
				c0-1.3,1.1-2.4,2.4-2.4h9.9c1.3,0,2.4,1.1,2.4,2.4v2.4c5.6-4.3,11.8-5.6,16.3-5.6c1.3,0,2.4,1.1,2.4,2.4v8.3
				C613.8,308.5,612.7,309.6,611.7,309.6z"/>
			<path fill="#B83BC0" d="M666.3,335H629v0.3c0,6.7,2.7,14.5,13.7,14.5c8.3,0,16.3-0.8,21.2-1.1h0.3c1.1,0,2.1,0.5,2.1,1.6v7.5
				c0,1.9-0.3,2.7-2.4,2.9c-7.5,1.3-11.8,1.9-22.3,1.9c-11.5,0-27.7-6.2-27.7-28.7v-8.6c0-18,9.9-29.3,27.7-29.3
				c17.7,0,27.4,12.1,27.4,29.3v6.4C668.8,334,668,335,666.3,335z M653.5,323.8c0-8.8-4.8-14.2-12.1-14.2c-7.2,0-12.3,5.1-12.3,14.2
				v0.5h24.5L653.5,323.8L653.5,323.8z"/>
			<path fill="#B83BC0" d="M36.3,476.5H25.1c-1.3,0-2.4-1.1-2.4-2.4v-80.8c0-1.3,1.1-2.1,2.4-2.1h11.2c1.3,0,2.4,0.8,2.4,2.1v80.8
				C38.7,475.5,37.6,476.5,36.3,476.5z"/>
			<path fill="#B83BC0" d="M99.7,476.5H89.2c-1.3,0-2.4-1.1-2.4-2.4v-37.3c0-9.9-0.8-12.9-9.6-12.9c-4,0-8,1.6-12.9,4v46.2
				c0,1.3-1.1,2.4-2.4,2.4H51.5c-1.3,0-2.4-1.1-2.4-2.4V414c0-1.3,1.1-2.4,2.4-2.4h9.8c1.3,0,2.4,1.1,2.4,2.4v2.4
				c6.7-4.3,11-5.6,18.6-5.6c16.6,0,19.9,11,19.9,25.8v37.3C102.1,475.5,101,476.5,99.7,476.5z"/>
			<path fill="#B83BC0" d="M132.2,477.3c-4.6,0-14.2-0.5-20.7-2.4c-1.3-0.3-2.1-1.3-2.1-2.7v-7c0-0.8,0.8-1.9,1.9-1.9
				c0.3,0,0.3,0,0.5,0c5.6,0.8,15.8,1.3,19.4,1.3c7.2,0,8-2.4,8-5.6c0-2.1-1.3-3.5-5.1-5.9l-15.8-9.6c-5.6-3.5-9.6-9.1-9.6-15.8
				c0-11.5,7.2-17.1,21.8-17.1c9.4,0,14.5,1.1,20.4,2.4c1.3,0.3,2.1,1.3,2.1,2.7v6.7c0,1.3-0.8,2.1-1.9,2.1c-0.3,0-0.3,0-0.5,0
				c-3.2-0.5-12.3-1.3-19.1-1.3c-5.6,0-8,1.3-8,4.8c0,1.9,1.6,2.9,4.6,4.8l15,9.1c9.6,5.9,11,11.5,11,17.4
				C154.7,469.6,147.2,477.3,132.2,477.3z"/>
			<path fill="#B83BC0" d="M175.1,403.3h-11c-1.3,0-2.4-1.1-2.4-2.4v-10.2c0-1.3,1.1-2.4,2.4-2.4h11c1.3,0,2.4,1.1,2.4,2.4v10.2
				C177.3,402.2,176.5,403.3,175.1,403.3z M174.9,476.5h-10.7c-1.3,0-2.4-1.1-2.4-2.4V414c0-1.3,1.1-2.4,2.4-2.4h10.7
				c1.3,0,2.4,1.1,2.4,2.4v60.2C177,475.5,175.9,476.5,174.9,476.5z"/>
			<path fill="#B83BC0" d="M241.2,422.4l-3.7,1.6c1.9,2.7,2.9,5.1,2.9,9.1v0.8c0,14.2-9.9,21-27.1,21c-6.2,0-10.2-1.1-12.6-1.9
				c-1.3,0.8-1.9,1.9-1.9,2.9c0,2.4,1.3,3.2,4,3.7l13.4,3.2c15.5,3.7,25.8,6.2,25.8,18.3v0.8c0,11.8-8.6,18-28.2,18
				c-18.6,0-28.5-7-28.5-19.1v-1.1c0-4.8,2.1-9.4,5.9-12.6c-3.2-2.4-5.1-6.4-5.1-10.4l0,0c0-3.5,1.6-7.2,4.6-9.4
				c-3.5-3.5-4.8-7.8-4.8-13.4v-0.8c0-11.5,7.5-21.2,27.4-21.2h26.9c1.6,0,3.2,1.3,3.2,3.2v4.8C243.1,421.6,242.5,421.8,241.2,422.4
				z M226.4,481.1c0-2.4-1.6-4-13.4-7l-10.2-2.4c-1.6,2.4-2.9,4-2.9,8v1.1c0,4.8,2.9,7.5,13.7,7.5c11,0,12.9-2.4,12.9-6.4v-0.8
				L226.4,481.1L226.4,481.1z M225.3,433.1c0-5.6-2.4-9.6-12.3-9.6c-9.6,0-12.3,4.3-12.3,9.6v0.8c0,4.3,1.6,9.1,12.3,9.1
				c9.4,0,12.3-3.2,12.3-9.1V433.1z"/>
			<path fill="#B83BC0" d="M298.6,476.5h-10.4c-1.3,0-2.4-1.1-2.4-2.4v-37.9c0-9.9-1.6-12.6-9.4-12.6c-4,0-8.6,1.3-13.4,4V474
				c0,1.3-1.1,2.4-2.4,2.4h-10.4c-1.3,0-2.4-1.1-2.4-2.4v-82.7c0-1.3,1.1-2.4,2.4-2.4h10.7c1.3,0,2.4,1.1,2.4,2.4V415
				c4.3-2.7,9.1-4.3,17.4-4.3c15.8,0,20.7,11.2,20.7,25.3v38C300.7,475.5,299.9,476.5,298.6,476.5z"/>
			<path fill="#B83BC0" d="M341.8,476.5c-2.7,0.5-5.4,0.8-7.8,0.8c-12.9,0-18.3-2.9-18.3-18.3v-35.9l-10.7-1.6
				c-1.3-0.3-2.4-1.1-2.4-2.4V414c0-1.3,1.1-2.4,2.4-2.4h10.7v-9.4c0-1.3,1.1-2.1,2.4-2.4l10.7-1.9c0,0,0.3,0,0.5,0
				c1.1,0,1.9,0.5,1.9,1.6v11.8h10.2c1.3,0,2.4,1.1,2.4,2.4v6.7c0,1.3-1.1,2.4-2.4,2.4h-10.2V459c0,5.6,0.3,6.4,4.6,6.4h6.2
				c1.6,0,2.4,0.5,2.4,1.6v7.2C343.9,475.7,343.1,476.3,341.8,476.5z"/>
		</g>
	</g>
	<g>
		<path fill="#7B3080" d="M51.1,233.4v-7c0-11.5-6.2-16.4-14.5-16.4s-14.8,4.6-14.8,16.4v7c0,11.5,6.2,16.4,14.5,16.4
			S51.1,244.9,51.1,233.4z M43.9,233.4c0,7-2.4,9.9-7.5,9.9s-7.5-3.2-7.5-9.9v-7c0-7,2.4-9.9,7.5-9.9s7.5,3.2,7.5,9.9V233.4z"/>
		<path fill="#7B3080" d="M83.9,247.6v-36.8c0-0.5-0.5-1.1-1.1-1.1h-4.3c-0.5,0-1.1,0.5-1.1,1.1v28.5c0,0.3-0.3,0.5-0.3,0.5
			c-0.3,0-0.3-0.3-0.5-0.5l-11.8-27.7c-0.5-1.3-1.1-1.6-2.1-1.6h-5.6c-1.1,0-2.1,1.1-2.1,2.1v36.8c0,0.5,0.5,1.1,1.1,1.1h4.3
			c0.5,0,1.1-0.5,1.1-1.1v-27.4c0-0.3,0-0.5,0.3-0.5c0.3,0,0.3,0,0.5,0.5l11.3,26.6c0.8,1.9,1.9,1.9,3.2,1.9h5.1
			C82.8,249.7,83.9,248.9,83.9,247.6z"/>
		<path fill="#7B3080" d="M111.5,247.9v-3.5c0-0.5-0.5-1.1-1.1-1.1H100c-3,0-4-1.1-4-4.6V232h14c0.5,0,1.1-0.5,1.1-1.1v-3.8
			c0-0.5-0.5-1.1-1.1-1.1H96v-5.6c0-3.5,1.1-4.6,4-4.6h10.5c0.5,0,1.1-0.5,1.1-1.1v-3.5c0-0.8-0.3-1.1-1.1-1.1
			c-1.6-0.3-3.8-0.8-9.7-0.8c-6.7,0-11.8,1.9-11.8,10.7v19c0,8.9,5.1,10.7,11.8,10.7c6.2,0,8.1-0.5,9.7-0.8
			C111.3,248.9,111.5,248.7,111.5,247.9z"/>
		<path fill="#7B3080" d="M144,248.9C144,248.9,144,248.7,144,248.9l-8.3-33.8c-1.3-4.8-4.8-5.4-7-5.4c-2.1,0-5.9,0.5-7,5.4
			l-8.6,33.6v0.3c0,0.5,0.5,0.8,0.8,0.8h5.4c0.5,0,0.8-0.5,1.1-0.8l2.4-9.9h11.8l2.4,9.9c0,0.5,0.5,0.8,1.1,0.8h5.4
			C143.8,249.7,144,249.5,144,248.9z M133,233.1h-9.1l3.8-16.1c0.3-0.5,0.3-0.8,0.8-0.8c0.5,0,0.5,0.3,0.8,0.8L133,233.1z"/>
		<path fill="#7B3080" d="M172.8,222.3v-0.5c0-9.4-7-12.1-14.8-12.1c-3.8,0-7.3,0.3-9.9,0.8c-1.1,0.3-1.6,0.5-1.6,1.6v36.8
			c0,0.5,0.5,1.1,1.1,1.1h5.1c0.5,0,1.1-0.5,1.1-1.1v-14.2c1.1,0,3.2,0.3,4.6,0.3C165.8,234.7,172.8,231.7,172.8,222.3z
			 M165.5,222.3c0,4.3-2.1,6.4-7.8,6.4c-0.8,0-3.8,0-4.6-0.3v-12.6c0.8,0,3.5-0.3,4.6-0.3c5.1,0,7.8,1.6,7.8,6.2V222.3z"/>
		<path fill="#7B3080" d="M208.5,248.9v-37.1c0-1.1-0.8-2.1-2.1-2.1h-4.3c-0.8,0-1.6,0.5-1.9,1.3l-7.8,16.1
			c-0.3,0.5-0.3,0.8-0.5,0.8c-0.3,0-0.3-0.3-0.5-0.8l-7.8-16.1c-0.3-0.8-1.1-1.3-1.9-1.3h-4.3c-1.1,0-2.1,1.1-2.1,2.1v37.1
			c0,0.5,0.5,0.8,0.8,0.8h5.1c0.5,0,0.8-0.5,0.8-1.1v-25.5c0-0.3,0-0.5,0.3-0.5l0.3,0.3l4.8,9.9c0.3,0.5,1.1,0.8,1.6,0.8h5.1
			c0.5,0,1.3-0.3,1.6-0.8l4.8-9.9c0-0.3,0.3-0.3,0.3-0.3s0.3,0.3,0.3,0.5v25.5c0,0.5,0.3,1.1,0.8,1.1h5.1
			C208.2,249.7,208.5,249.5,208.5,248.9z"/>
	</g>
</g>
</svg>
