<?xml version="1.0" encoding="utf-8"?>
<!-- Generator: Adobe Illustrator 18.1.1, SVG Export Plug-In . SVG Version: 6.00 Build 0)  -->
<svg version="1.1" id="图层_1" xmlns="http://www.w3.org/2000/svg" xmlns:xlink="http://www.w3.org/1999/xlink" x="0px" y="0px"
	 viewBox="0 0 1000 1000" enable-background="new 0 0 1000 1000" xml:space="preserve">
<linearGradient id="SVGID_1_" gradientUnits="userSpaceOnUse" x1="499.9999" y1="231.5926" x2="499.9999" y2="774.7795">
	<stop  offset="0" style="stop-color:#7F7977"/>
	<stop  offset="1" style="stop-color:#000000"/>
</linearGradient>
<path fill="url(#SVGID_1_)" d="M754,388c-28.3,0-51.8,20.9-55.9,48H573.6c-4.2-56.1-49.2-101-105.3-105.2v-27.3
	c16.8-3.9,29.3-18.9,29.3-36.9c0-20.8-17-37.8-37.8-37.8c-10.1,0-19.6,3.9-26.7,11.1c-7.1,7.1-11.1,16.6-11.1,26.7
	c0,10.1,3.9,19.6,11.1,26.7c5.1,5.1,11.4,8.5,18.2,10.1v27.3c-56.1,4.2-101,49.1-105.2,105.1h-79.2c-1.6-7.2-5.2-13.8-10.5-19.2
	c-7.4-7.4-17.3-11.5-27.8-11.5c-21.6,0-39.2,17.6-39.3,39.3c0,21.6,17.6,39.2,39.3,39.3h0c10.5,0,20.4-4.1,27.8-11.5
	c5.4-5.4,9-12.1,10.6-19.3h79.2c4.1,56.2,49.1,101.2,105.2,105.3v93.8c-12.7,1.8-24.5,7.7-33.8,16.9c-11.3,11.3-17.5,26.3-17.5,42.3
	c0,16,6.2,31,17.5,42.3c11.3,11.3,26.3,17.5,42.3,17.5h0c32.9,0,59.8-26.9,59.8-59.8c-0.1-30.1-22.4-55-51.3-59.2v-93.8
	c56.2-4.1,101.2-49.1,105.3-105.3h124.4c4.1,27.2,27.6,48.2,56,48.2h0c15.1,0,29.3-5.9,40-16.6c10.7-10.7,16.6-24.9,16.6-40
	C810.7,413.3,785.3,388,754,388z M244.4,460.3c-4.2,4.2-9.8,6.5-15.7,6.5c-12.3,0-22.3-10-22.3-22.3c0-12.3,10-22.3,22.3-22.3
	c5.9,0,11.5,2.3,15.7,6.5c4.2,4.2,6.5,9.8,6.5,15.7C250.9,450.5,248.6,456.1,244.4,460.3z M439.1,266.7c0-5.6,2.2-10.8,6.1-14.7
	c3.9-3.9,9.2-6.1,14.7-6.1c11.5,0,20.8,9.3,20.8,20.8c0,11.5-9.3,20.8-20.8,20.8c-5.6,0-10.8-2.2-14.7-6.1
	C441.2,277.5,439.1,272.3,439.1,266.7z M502.7,711.3c0,23.6-19.2,42.8-42.8,42.8c-11.5,0-22.2-4.5-30.3-12.5
	c-8.1-8.1-12.5-18.8-12.5-30.3c0-11.4,4.5-22.2,12.5-30.2c8.1-8.1,18.8-12.5,30.3-12.5C483.5,668.5,502.7,687.7,502.7,711.3z
	 M459.9,541.6c-53.5,0-97.1-43.6-97.1-97.1c0-53.5,43.6-97,97.1-97c53.5,0,97,43.6,97,97C556.9,498.1,513.4,541.6,459.9,541.6z
	 M782.1,472.6c-7.5,7.5-17.4,11.6-28,11.6v8.5l0-8.5c-21.8,0-39.6-17.8-39.6-39.6c0-21.8,17.8-39.6,39.6-39.6
	c21.8,0,39.6,17.8,39.6,39.6C793.7,455.1,789.5,465.1,782.1,472.6z"/>
</svg>
