<?xml version="1.0" encoding="utf-8"?>
<!-- Generator: Adobe Illustrator 18.1.1, SVG Export Plug-In . SVG Version: 6.00 Build 0)  -->
<svg version="1.1" id="图层_1" xmlns="http://www.w3.org/2000/svg" xmlns:xlink="http://www.w3.org/1999/xlink" x="0px" y="0px"
	 viewBox="0 0 1000 1000" enable-background="new 0 0 1000 1000" xml:space="preserve">
<linearGradient id="SVGID_1_" gradientUnits="userSpaceOnUse" x1="499.9999" y1="281.5378" x2="499.9999" y2="735.0696">
	<stop  offset="0" style="stop-color:#7F7977"/>
	<stop  offset="1" style="stop-color:#000000"/>
</linearGradient>
<path fill="url(#SVGID_1_)" d="M721,413.9L586.2,279.1l-37.1,37.1l-16.7-16.7l-44.9,44.9l16.7,16.7L279,586.5v134.4h134.6
	l225.3-225.2l16.8,16.8l44.9-44.9L683.9,451L721,413.9z M586.2,303.1L697,413.9l-25.1,25.1L561.1,328.2L586.2,303.1z M543.3,400.1
	l-217,217l-27-27l216.9-217.1L543.3,400.1z M296,687.1v-76.3l93.1,93.1h-76.3L296,687.1z M338.4,629.1l217-217l28.4,28.4l-217,217
	L338.4,629.1z M409.9,700.6l-31-31l217-217l31.1,31.1L409.9,700.6z M655.8,488.5L511.5,344.3l20.8-20.8l144.2,144.2L655.8,488.5z"/>
</svg>
