<?xml version="1.0" encoding="utf-8"?>
<!-- Generator: Adobe Illustrator 18.1.1, SVG Export Plug-In . SVG Version: 6.00 Build 0)  -->
<svg version="1.1" id="图层_1" xmlns="http://www.w3.org/2000/svg" xmlns:xlink="http://www.w3.org/1999/xlink" x="0px" y="0px"
	 viewBox="0 0 1000 1000" enable-background="new 0 0 1000 1000" xml:space="preserve">
<g>
	<linearGradient id="SVGID_1_" gradientUnits="userSpaceOnUse" x1="500" y1="261.5956" x2="500" y2="732.4178">
		<stop  offset="0" style="stop-color:#7F7977"/>
		<stop  offset="1" style="stop-color:#000000"/>
	</linearGradient>
	<path fill="url(#SVGID_1_)" d="M666.5,333.5c-44.5-44.5-103.6-69-166.5-69s-122,24.5-166.5,69c-44.5,44.5-69,103.6-69,166.5
		s24.5,122,69,166.5c44.5,44.5,103.6,69,166.5,69s122-24.5,166.5-69c44.5-44.5,69-103.6,69-166.5S710.9,378,666.5,333.5z
		 M654.4,654.4c-41.3,41.3-96.1,64-154.4,64s-113.2-22.7-154.4-64c-41.3-41.3-64-96.1-64-154.4s22.7-113.2,64-154.4
		c41.3-41.3,96.1-64,154.4-64s113.2,22.7,154.4,64c41.3,41.3,64,96.1,64,154.4S695.7,613.2,654.4,654.4z"/>
	<linearGradient id="SVGID_2_" gradientUnits="userSpaceOnUse" x1="500.0005" y1="261.5956" x2="500.0005" y2="732.7955">
		<stop  offset="0" style="stop-color:#7F7977"/>
		<stop  offset="1" style="stop-color:#000000"/>
	</linearGradient>
	<path fill="url(#SVGID_2_)" d="M500,610.3c-60.8,0-110.3-49.5-110.3-110.3h-17c0,70.2,57.1,127.3,127.3,127.3
		S627.3,570.2,627.3,500h-17C610.3,560.8,560.8,610.3,500,610.3z"/>
	<linearGradient id="SVGID_3_" gradientUnits="userSpaceOnUse" x1="434.5997" y1="261.5956" x2="434.5997" y2="732.7955">
		<stop  offset="0" style="stop-color:#7F7977"/>
		<stop  offset="1" style="stop-color:#000000"/>
	</linearGradient>
	<circle fill="url(#SVGID_3_)" cx="434.6" cy="419.7" r="20.2"/>
	<linearGradient id="SVGID_4_" gradientUnits="userSpaceOnUse" x1="565.1515" y1="261.5956" x2="565.1515" y2="732.7955">
		<stop  offset="0" style="stop-color:#7F7977"/>
		<stop  offset="1" style="stop-color:#000000"/>
	</linearGradient>
	<circle fill="url(#SVGID_4_)" cx="565.2" cy="419.7" r="20.2"/>
</g>
</svg>
