<?xml version="1.0" encoding="utf-8"?>
<!-- Generator: Adobe Illustrator 19.0.0, SVG Export Plug-In . SVG Version: 6.00 Build 0)  -->
<svg version="1.1" id="图层_1" xmlns="http://www.w3.org/2000/svg" xmlns:xlink="http://www.w3.org/1999/xlink" x="0px" y="0px"
	 viewBox="14 1 194.4 50" style="enable-background:new 14 1 194.4 50;" xml:space="preserve">
<style type="text/css">
	.st0{fill:#FFFFFF;}
	.st1{opacity:0.3;fill:#444444;enable-background:new    ;}
</style>
<g id="XMLID_3_">
	<g id="XMLID_32_">
		<g id="XMLID_58_">
			<path id="XMLID_59_" class="st0" d="M30.6,43.7l-1.3,5.5c3.9,1.5,8.3,2,13.1,1.6l-1.7-7.1H30.6z M72.2,18
				C70.3,11,66,6.1,59.5,3.3c-6.6-2.8-13.8-3.1-21.6-1c-9,2.4-15.5,6.2-19.7,11.5C14.1,19,13,25.3,14.9,32.5
				c1.7,6.1,4.6,10.8,8.9,13.9l5.7-21.7c1-4,4.2-4.4,6.1-4.4s5,0.4,6.1,4.4L48.4,50c0.7-0.2,1.4-0.3,2.1-0.5V29.9
				c0-0.5,0.4-0.9,0.9-0.9h4c0.5,0,0.9,0.4,0.9,0.9v17.7c6-2.4,10.4-5.6,13.4-9.8C73.4,32.3,74.2,25.8,72.2,18z M56.3,24.9
				c0,0.5-0.4,0.9-0.9,0.9h-4.2c-0.5,0-0.9-0.4-0.9-0.9v-3.8c0-0.5,0.4-0.9,0.9-0.9h4.2c0.5,0,0.9,0.4,0.9,0.9V24.9z M35.6,25.3
				c-0.4,0-0.6,0.2-0.7,0.7l-3.1,12.8h7.7L36.3,26C36.1,25.5,36,25.3,35.6,25.3z"/>
		</g>
	</g>
	<g id="XMLID_4_">
		<path id="XMLID_163_" class="st0" d="M119.9,42h-4.1c-0.5,0-0.9-0.4-0.9-0.9v-5.2c0-0.5,0.4-0.9,0.9-0.9h4.1
			c0.5,0,0.9,0.4,0.9,0.9v5.2C120.8,41.6,120.4,42,119.9,42z"/>
		<path id="XMLID_168_" class="st0" d="M151.3,42h-4.6c-1.1,0-2.1,0-2.8-1.7l-10.2-22.4c-0.1-0.3-0.3-0.4-0.4-0.4
			c-0.1,0-0.2,0.1-0.2,0.4V41c0,0.5-0.4,0.9-0.9,0.9h-3.9c-0.5,0-0.9-0.4-0.9-0.9V9.7c0-1,0.8-1.8,1.8-1.8h5c1,0,1.5,0.3,2,1.5
			L146.9,33c0.1,0.2,0.2,0.4,0.4,0.4c0.1,0,0.2-0.1,0.2-0.4V8.7c0-0.5,0.4-0.9,0.9-0.9h4c0.5,0,0.9,0.4,0.9,0.9v31.5
			C153.1,41.2,152.3,42,151.3,42z"/>
		<path id="XMLID_170_" class="st0" d="M179.4,41.7c-1.5,0.2-3.3,0.6-8.7,0.6c-6,0-10.6-1.6-10.6-9.4v-16c0-7.8,4.6-9.4,10.6-9.4
			c5.5,0,7.3,0.4,8.7,0.6c0.7,0.1,0.9,0.3,0.9,1V12c0,0.5-0.4,0.9-0.9,0.9H170c-2.7,0-3.6,0.9-3.6,4v5h12.5c0.5,0,0.9,0.4,0.9,0.9
			v3.3c0,0.5-0.4,0.9-0.9,0.9h-12.5v5.9c0,3,1,4,3.6,4h9.4c0.5,0,0.9,0.4,0.9,0.9v2.9C180.3,41.4,180.1,41.6,179.4,41.7z"/>
		<path id="XMLID_172_" class="st0" d="M207.6,13.1h-8.1V41c0,0.5-0.4,0.9-0.9,0.9H194c-0.5,0-0.9-0.4-0.9-0.9V13.1H185
			c-0.5,0-0.9-0.3-0.9-0.8V8.7c0-0.5,0.4-0.9,0.9-0.9h22.5c0.5,0,0.9,0.4,0.9,0.9v3.6C208.6,12.8,208.1,13.1,207.6,13.1z"/>
	</g>
	<path id="XMLID_29_" class="st1" d="M93.6,7.5h0.9v37h-0.9V7.5z"/>
</g>
</svg>
