<?xml version="1.0" encoding="utf-8"?>
<!-- Generator: Adobe Illustrator 19.0.0, SVG Export Plug-In . SVG Version: 6.00 Build 0)  -->
<svg version="1.1" id="图层_1" xmlns="http://www.w3.org/2000/svg" xmlns:xlink="http://www.w3.org/1999/xlink" x="0px" y="0px"
	 viewBox="44 0 254 50" style="enable-background:new 44 0 254 50;" xml:space="preserve">
<style type="text/css">
	.st0{fill:#FFFFFF;}
	.st1{opacity:0.3;fill:#444444;enable-background:new    ;}
</style>
<g id="XMLID_110_">
	<g id="XMLID_114_">
		<g id="XMLID_46_">
			<path id="XMLID_47_" class="st0" d="M60.6,42.7l-1.3,5.5c3.9,1.5,8.3,2,13.1,1.6l-1.7-7.1H60.6z M102.2,17
				C100.3,10,96,5.1,89.5,2.3c-6.6-2.8-13.8-3.1-21.6-1c-9,2.4-15.5,6.2-19.7,11.5C44.1,18,43,24.3,44.9,31.5
				c1.7,6.1,4.6,10.8,8.9,13.9l5.7-21.7c1-4,4.2-4.4,6.1-4.4s5,0.4,6.1,4.4L78.4,49c0.7-0.2,1.4-0.3,2.1-0.5V28.9
				c0-0.5,0.4-0.9,0.9-0.9h4c0.5,0,0.9,0.4,0.9,0.9v17.7c6-2.4,10.4-5.6,13.4-9.8C103.4,31.3,104.2,24.8,102.2,17z M86.3,23.9
				c0,0.5-0.4,0.9-0.9,0.9h-4.2c-0.5,0-0.9-0.4-0.9-0.9v-3.8c0-0.5,0.4-0.9,0.9-0.9h4.2c0.5,0,0.9,0.4,0.9,0.9V23.9z M65.6,24.3
				c-0.4,0-0.6,0.2-0.7,0.7l-3.1,12.8h7.7L66.3,25C66.1,24.5,66,24.3,65.6,24.3z"/>
		</g>
	</g>
	<g id="XMLID_62_">
		<path id="XMLID_115_" class="st0" d="M168.8,41.1h-4.6c-1.1,0-2.1,0-2.8-1.7L151.1,17c-0.1-0.3-0.3-0.4-0.4-0.4s-0.2,0.1-0.2,0.4
			v23.1c0,0.5-0.4,0.9-0.9,0.9h-3.9c-0.5,0-0.9-0.4-0.9-0.9V8.7c0-1,0.8-1.8,1.8-1.8h5c1,0,1.5,0.3,2,1.5L164.3,32
			c0.1,0.2,0.2,0.4,0.4,0.4c0.1,0,0.2-0.1,0.2-0.4V7.8c0-0.5,0.4-0.9,0.9-0.9h4c0.5,0,0.9,0.4,0.9,0.9v31.5
			C170.6,40.3,169.8,41.1,168.8,41.1z"/>
		<path id="XMLID_117_" class="st0" d="M187.3,41.5c-7.2,0-11-4.9-11-11.5v-3.7c0-6.6,3.8-11.5,11-11.5s11,4.9,11,11.5V30
			C198.3,36.6,194.5,41.5,187.3,41.5z M192.2,26.3c0-3.8-1.7-6.2-4.9-6.2s-4.9,2.4-4.9,6.2V30c0,3.8,1.7,6.2,4.9,6.2
			s4.9-2.4,4.9-6.2V26.3z"/>
		<path id="XMLID_120_" class="st0" d="M222.8,40.3c-2.9,0.7-6.3,1.2-9.2,1.2c-7.4,0-11-4.4-11-11.5v-3.5c0-7.2,3.6-11.5,11-11.5
			c1.1,0,2.7,0.1,4.4,0.3V7c0-0.5,0.4-0.9,0.9-0.9h4.2c0.5,0,0.9,0.4,0.9,0.9v32C224.1,39.7,223.9,40,222.8,40.3z M218,20.1
			c-1.3-0.2-3.3-0.3-4.4-0.3c-4,0-4.9,2.8-4.9,6.6v3.5c0,3.8,1,6.6,4.9,6.6c1.7,0,3.5-0.1,4.4-0.3V20.1z"/>
		<path id="XMLID_130_" class="st0" d="M250.3,30.2h-15v0.1c0,2.7,1.1,5.8,5.5,5.8c3.4,0,6.5-0.3,8.5-0.5h0.1c0.5,0,0.8,0.2,0.8,0.7
			v3c0,0.7-0.1,1.1-1,1.2c-3,0.6-4.8,0.8-8.9,0.8c-4.6,0-11.1-2.5-11.1-11.5v-3.4c0-7.2,4-11.7,11-11.7c7.1,0,10.9,4.8,10.9,11.7V29
			C251.2,29.8,251,30.2,250.3,30.2z M245.1,25.7c0-3.6-2-5.7-4.8-5.7s-4.9,2-4.9,5.7v0.2h9.8v-0.2H245.1z"/>
		<path id="XMLID_133_" class="st0" d="M261.4,41.1h-4.1c-0.5,0-0.9-0.4-0.9-0.9V35c0-0.5,0.4-0.9,0.9-0.9h4.1
			c0.5,0,0.9,0.4,0.9,0.9v5.2C262.4,40.7,262,41.1,261.4,41.1z"/>
		<path id="XMLID_135_" class="st0" d="M267.7,50.3c-1,0-1.9-0.1-3-0.3c-0.6-0.1-0.9-0.4-0.9-0.8v-3c0-0.5,0.4-0.7,1-0.7h2.1
			c1.5,0,1.6-0.6,1.6-2.4v-27c0-0.5,0.4-0.9,0.9-0.9h4.2c0.5,0,0.9,0.4,0.9,0.9v27C274.6,48.6,272,50.3,267.7,50.3z M273.7,11.7
			h-4.4c-0.5,0-0.9-0.4-0.9-0.9v-4c0-0.5,0.4-0.9,0.9-0.9h4.4c0.5,0,1,0.4,1,0.9v4C274.7,11.3,274.2,11.7,273.7,11.7z"/>
		<path id="XMLID_212_" class="st0" d="M289.1,41.5c-1.8,0-5.7-0.2-8.2-0.9c-0.6-0.1-0.9-0.5-0.9-1.1v-2.8c0-0.4,0.3-0.7,0.8-0.7
			c0.1,0,0.1,0,0.2,0c2.2,0.3,6.3,0.5,7.7,0.5c2.9,0,3.3-1,3.3-2.2c0-0.9-0.6-1.4-2-2.3l-6.3-3.9c-2.3-1.4-3.9-3.7-3.9-6.3
			c0-4.6,2.9-6.9,8.7-6.9c3.7,0,5.8,0.4,8.2,0.9c0.6,0.1,0.8,0.5,0.8,1.1v2.7c0,0.6-0.3,0.9-0.7,0.9c-0.1,0-0.1,0-0.2,0
			c-1.3-0.2-5-0.6-7.6-0.6c-2.2,0-3.2,0.5-3.2,1.9c0,0.7,0.7,1.2,1.8,1.9l6,3.7c3.9,2.3,4.4,4.6,4.4,7
			C298.1,38.3,295.1,41.5,289.1,41.5z"/>
	</g>
	<path id="XMLID_111_" class="st1" d="M123.6,6.5h0.9v37h-0.9V6.5z"/>
</g>
</svg>
