<?xml version="1.0" encoding="utf-8"?>
<!-- Generator: Adobe Illustrator 19.0.0, SVG Export Plug-In . SVG Version: 6.00 Build 0)  -->
<svg version="1.1" id="图层_1" xmlns="http://www.w3.org/2000/svg" xmlns:xlink="http://www.w3.org/1999/xlink" x="0px" y="0px"
	 viewBox="10 1 186.1 50" style="enable-background:new 10 1 186.1 50;" xml:space="preserve">
<style type="text/css">
	.st0{fill:#FFFFFF;}
	.st1{opacity:0.3;fill:#444444;enable-background:new    ;}
</style>
<g id="XMLID_136_">
	<g id="XMLID_140_">
		<g id="XMLID_46_">
			<path id="XMLID_47_" class="st0" d="M68.2,18C66.3,11,62,6.1,55.5,3.3c-6.6-2.8-13.8-3.1-21.6-1c-9,2.4-15.5,6.2-19.7,11.5
				C10.1,19,9,25.3,10.9,32.5c1.7,6.1,4.6,10.8,8.9,13.9l5.7-21.7c1-4,4.2-4.4,6.1-4.4c1.9,0,5,0.4,6.1,4.4L44.4,50
				c0.7-0.2,1.4-0.3,2.1-0.5V29.9c0-0.5,0.4-0.9,0.9-0.9h4c0.5,0,0.9,0.4,0.9,0.9v17.7c6-2.4,10.4-5.6,13.4-9.8
				C69.4,32.3,70.2,25.8,68.2,18z M52.3,24.9c0,0.5-0.4,0.9-0.9,0.9h-4.2c-0.5,0-0.9-0.4-0.9-0.9v-3.8c0-0.5,0.4-0.9,0.9-0.9h4.2
				c0.5,0,0.9,0.4,0.9,0.9V24.9z M26.6,43.7l-1.3,5.5c3.9,1.5,8.3,2,13.1,1.6l-1.7-7.1H26.6z M31.6,25.3c-0.4,0-0.6,0.2-0.7,0.7
				l-3.1,12.8h7.7L32.3,26C32.1,25.5,32,25.3,31.6,25.3z"/>
		</g>
	</g>
	<g id="XMLID_113_">
		<path id="XMLID_141_" class="st0" d="M121.4,29.3c-1.2,0-3-0.1-4.1-0.2v12c0,0.5-0.4,0.9-0.9,0.9h-4.6c-0.5,0-0.9-0.4-0.9-0.9V9.4
			c0-0.9,0.6-1.2,1.5-1.4c2.4-0.4,5.7-0.6,9-0.6c7.1,0,13.2,2.5,13.2,10.6v0.4C134.6,26.6,128.5,29.3,121.4,29.3z M128.3,18.1
			c0-3.9-2.3-5.3-6.9-5.3c-1,0-3.3,0.1-4.1,0.2v10.9c0.7,0,3.3,0.1,4.1,0.1c5,0,6.9-1.8,6.9-5.5V18.1z"/>
		<path id="XMLID_144_" class="st0" d="M164.6,42H160c-0.5,0-0.9-0.4-0.9-0.9V27H146v14.1c0,0.5-0.4,0.9-0.9,0.9h-4.6
			c-0.5,0-0.9-0.4-0.9-0.9V8.7c0-0.5,0.4-0.9,0.9-0.9h4.6c0.5,0,0.9,0.4,0.9,0.9v12.7h13.1V8.7c0-0.5,0.4-0.9,0.9-0.9h4.6
			c0.5,0,0.9,0.4,0.9,0.9v32.4C165.5,41.6,165.1,42,164.6,42z"/>
		<path id="XMLID_146_" class="st0" d="M182.9,29.3c-1.2,0-3-0.1-4.1-0.2v12c0,0.5-0.4,0.9-0.9,0.9h-4.6c-0.5,0-0.9-0.4-0.9-0.9V9.4
			c0-0.9,0.6-1.2,1.5-1.4c2.4-0.4,5.7-0.6,9-0.6c7.1,0,13.2,2.5,13.2,10.6v0.4C196.2,26.6,190,29.3,182.9,29.3z M189.8,18.1
			c0-3.9-2.3-5.3-6.9-5.3c-1,0-3.3,0.1-4.1,0.2v10.9c0.7,0,3.3,0.1,4.1,0.1c5,0,6.9-1.8,6.9-5.5V18.1z"/>
	</g>
	<path id="XMLID_137_" class="st1" d="M89.6,7.5h0.9v37h-0.9V7.5z"/>
</g>
</svg>
