<?xml version="1.0" encoding="utf-8"?>
<!-- Generator: Adobe Illustrator 19.0.0, SVG Export Plug-In . SVG Version: 6.00 Build 0)  -->
<svg version="1.1" id="图层_1" xmlns="http://www.w3.org/2000/svg" xmlns:xlink="http://www.w3.org/1999/xlink" x="0px" y="0px"
	 viewBox="41 0 248.6 50" style="enable-background:new 41 0 248.6 50;" xml:space="preserve">
<style type="text/css">
	.st0{fill:#FFFFFF;}
	.st1{opacity:0.3;fill:#444444;enable-background:new    ;}
</style>
<g id="XMLID_59_">
	<g id="XMLID_63_">
		<g id="XMLID_51_">
			<path id="XMLID_52_" class="st0" d="M57.6,42.7l-1.3,5.5c3.9,1.5,8.3,2,13.1,1.6l-1.7-7.1H57.6z M62.6,24.3
				c-0.4,0-0.6,0.2-0.7,0.7l-3.1,12.8h7.7L63.3,25C63.1,24.5,63,24.3,62.6,24.3z M99.2,17C97.3,10,93,5.1,86.5,2.3
				c-6.6-2.8-13.8-3.1-21.6-1c-9,2.4-15.5,6.2-19.7,11.5C41.1,18,40,24.3,41.9,31.5c1.7,6.1,4.6,10.8,8.9,13.9l5.7-21.7
				c1-4,4.2-4.4,6.1-4.4s5,0.4,6.1,4.4L75.4,49c0.7-0.2,1.4-0.3,2.1-0.5V28.9c0-0.5,0.4-0.9,0.9-0.9h4c0.5,0,0.9,0.4,0.9,0.9v17.7
				c6-2.4,10.4-5.6,13.4-9.8C100.4,31.3,101.2,24.8,99.2,17z M83.3,23.9c0,0.5-0.4,0.9-0.9,0.9h-4.2c-0.5,0-0.9-0.4-0.9-0.9v-3.8
				c0-0.5,0.4-0.9,0.9-0.9h4.2c0.5,0,0.9,0.4,0.9,0.9V23.9z"/>
		</g>
	</g>
	<g id="XMLID_6_">
		<path id="XMLID_14_" class="st0" d="M152.3,28.2c-1.2,0-3-0.1-4.1-0.2v12c0,0.5-0.4,0.9-0.9,0.9h-4.6c-0.5,0-0.9-0.4-0.9-0.9V8.4
			c0-0.9,0.6-1.2,1.5-1.4c2.4-0.4,5.7-0.6,9-0.6c7.1,0,13.2,2.5,13.2,10.6v0.4C165.5,25.6,159.4,28.2,152.3,28.2z M159.2,17
			c0-3.9-2.3-5.3-6.9-5.3c-1,0-3.3,0.1-4.1,0.2v10.9c0.7,0,3.3,0.1,4.1,0.1c5,0,6.9-1.8,6.9-5.5V17z"/>
		<path id="XMLID_23_" class="st0" d="M191.7,16.1L184,42.9c-1.4,5-3.1,7.2-9.4,7.2c-1.5,0-3.8-0.3-4.9-0.6c-0.5-0.1-1-0.3-1-0.8
			v-2.9c0-0.5,0.4-0.8,0.9-0.8c0,0,0,0,0.1,0c1.3,0,3.9,0.3,5.2,0.3c2,0,3-0.6,3.6-2.9l0.4-1.4h-0.7c-1.3,0-3-0.3-4-3.8l-6-21.1
			c0-0.1,0-0.2,0-0.3c0-0.5,0.3-0.7,0.9-0.7h4.6c0.4,0,0.8,0.4,0.9,0.8l4.6,18.7c0.2,0.8,0.4,1,0.6,1l0,0c0.1,0,0.2,0,0.2,0
			c0.1,0,0.1,0,0.1,0l5-19.8c0.1-0.4,0.5-0.8,0.9-0.8h4.7c0.5,0,0.8,0.4,0.8,0.8C191.7,15.9,191.7,16,191.7,16.1z"/>
		<path id="XMLID_184_" class="st0" d="M209.5,41c-1.1,0.2-2.1,0.3-3.1,0.3c-5.2,0-7.3-1.2-7.3-7.3V19.6l-4.3-0.6
			c-0.5-0.1-0.9-0.4-0.9-0.9V16c0-0.5,0.4-0.9,0.9-0.9h4.3v-3.8c0-0.5,0.4-0.8,0.9-0.9l4.3-0.7c0,0,0.1,0,0.2,0
			c0.4,0,0.7,0.2,0.7,0.7V15h4.1c0.5,0,0.9,0.4,0.9,0.9v2.7c0,0.5-0.4,0.9-0.9,0.9h-4.1V34c0,2.3,0.1,2.6,1.8,2.6h2.4
			c0.6,0,1,0.2,1,0.7v2.9C210.4,40.6,210.1,40.9,209.5,41z"/>
		<path id="XMLID_203_" class="st0" d="M234.9,40.9h-4.2c-0.5,0-0.9-0.5-0.9-1V24.8c0-4-0.7-5-3.8-5c-1.6,0-3.4,0.6-5.3,1.6V40
			c0,0.5-0.4,1-0.9,1h-4.2c-0.5,0-0.9-0.5-0.9-1V6.9c0-0.5,0.4-0.9,0.9-0.9h4.2c0.5,0,0.9,0.4,0.9,0.9v9.5c1.7-1.1,3.7-1.7,6.9-1.7
			c6.3,0,8.2,4.5,8.2,10.2V40C235.8,40.5,235.4,40.9,234.9,40.9z"/>
		<path id="XMLID_205_" class="st0" d="M252,41.3c-7.2,0-11-4.9-11-11.5v-3.7c0-6.6,3.8-11.5,11-11.5c7.2,0,11,4.9,11,11.5v3.7
			C263,36.4,259.2,41.3,252,41.3z M256.9,26.1c0-3.8-1.7-6.2-4.9-6.2s-4.9,2.4-4.9,6.2v3.7c0,3.8,1.7,6.2,4.9,6.2s4.9-2.4,4.9-6.2
			V26.1z"/>
		<path id="XMLID_208_" class="st0" d="M288.5,40.9h-4.2c-0.5,0-0.9-0.5-0.9-1V25c0-4-0.4-5.2-3.9-5.2c-1.6,0-3.3,0.6-5.2,1.7V40
			c0,0.5-0.4,1-0.9,1h-4.2c-0.5,0-0.9-0.5-0.9-1V15.9c0-0.5,0.4-0.9,0.9-0.9h4c0.5,0,0.9,0.4,0.9,0.9v1c2.7-1.7,4.4-2.2,7.5-2.2
			c6.6,0,8,4.5,8,10.3v15C289.4,40.5,289,40.9,288.5,40.9z"/>
	</g>
	<path id="XMLID_60_" class="st1" d="M120.6,6.5h0.9v37h-0.9V6.5z"/>
</g>
</svg>
