<?xml version="1.0" encoding="utf-8"?>
<!-- Generator: Adobe Illustrator 19.0.0, SVG Export Plug-In . SVG Version: 6.00 Build 0)  -->
<svg version="1.1" id="图层_1" xmlns="http://www.w3.org/2000/svg" xmlns:xlink="http://www.w3.org/1999/xlink" x="0px" y="0px"
	 viewBox="19 0 204.8 50" style="enable-background:new 19 0 204.8 50;" xml:space="preserve">
<style type="text/css">
	.st0{fill:#FFFFFF;}
	.st1{opacity:0.3;fill:#444444;enable-background:new    ;}
</style>
<g id="XMLID_273_">
	<g id="XMLID_157_">
		<path id="XMLID_158_" class="st0" d="M144,41h-5.6c-0.5,0-0.7-0.5-0.9-0.9l-6.6-12.3h-0.6c-1.2,0-3-0.1-4.1-0.2v12.5
			c0,0.5-0.4,0.9-0.9,0.9h-4.6c-0.5,0-0.9-0.4-0.9-0.9V8.4c0-0.9,0.6-1.2,1.5-1.4c2.4-0.4,5.7-0.6,9-0.6c7.1,0,13.2,2.5,13.2,10.4
			v0.4c0,4.9-2.4,7.9-6.2,9.4l7.2,13.4c0.1,0.1,0.1,0.3,0.1,0.4C144.6,40.8,144.4,41,144,41z M137.1,16.8c0-3.5-2.3-4.9-6.9-4.9
			c-1,0-3.3,0.1-4.1,0.2v10.4c0.7,0,3.3,0.1,4.1,0.1c4.7,0,6.9-1.3,6.9-5.3V16.8z"/>
		<path id="XMLID_162_" class="st0" d="M169.6,41h-4.2c-0.5,0-0.9-0.4-0.9-0.9V39c-2.4,1.6-4.3,2.3-7.2,2.3c-2.3,0-4.3-0.6-5.7-1.9
			c-1.7-1.7-2.3-4.6-2.3-8.4V16c0-0.5,0.4-1,0.9-1h4.2c0.5,0,0.9,0.5,0.9,1v15c0,2.3,0.2,3.6,1.1,4.4c0.6,0.6,1.4,0.8,2.9,0.8
			c1.7,0,3.9-1.2,5.2-1.8V16c0-0.5,0.4-1,0.9-1h4.2c0.5,0,0.9,0.5,0.9,1v24.1C170.5,40.6,170.1,41,169.6,41z"/>
		<path id="XMLID_215_" class="st0" d="M187,41.4c-2.9,0-6.4-0.5-9.2-1.2c-1.1-0.3-1.2-0.6-1.2-1.2V7c0-0.5,0.4-0.9,0.9-0.9h4.2
			c0.5,0,0.9,0.4,0.9,0.9v8c1.7-0.2,3.3-0.3,4.4-0.3c7.4,0,11,4.4,11,11.5v3.5C198,37,194.4,41.4,187,41.4z M191.9,26.3
			c0-3.8-1-6.6-4.9-6.6c-1.1,0-3.1,0.1-4.4,0.3v16.1c0.9,0.2,2.8,0.3,4.4,0.3c4,0,4.9-2.8,4.9-6.6V26.3z"/>
		<path id="XMLID_218_" class="st0" d="M223.7,16.1L216,43c-1.4,5-3.1,7.2-9.4,7.2c-1.5,0-3.8-0.3-4.9-0.6c-0.5-0.1-1-0.3-1-0.8
			v-2.9c0-0.5,0.4-0.8,0.9-0.8c0,0,0,0,0.1,0c1.3,0,3.9,0.3,5.2,0.3c2,0,3-0.6,3.6-2.9L211,41h-0.7c-1.3,0-3-0.3-4-3.8l-6-21.1
			c0-0.1,0-0.2,0-0.3c0-0.5,0.3-0.7,0.9-0.7h4.6c0.4,0,0.8,0.4,0.9,0.8l4.6,18.7c0.2,0.8,0.4,1,0.6,1l0,0c0.1,0,0.2,0,0.2,0
			c0.1,0,0.1,0,0.1,0l5-19.8c0.1-0.4,0.5-0.8,0.9-0.8h4.7c0.5,0,0.8,0.4,0.8,0.8C223.8,15.9,223.8,16,223.7,16.1z"/>
	</g>
	<path id="XMLID_274_" class="st1" d="M98.2,6.5h0.9v37h-0.9V6.5z"/>
	<g id="XMLID_156_">
		<g id="XMLID_46_">
			<path id="XMLID_47_" class="st0" d="M77.2,17C75.3,10,71,5.1,64.5,2.3c-6.6-2.8-13.8-3.1-21.6-1c-9,2.4-15.5,6.2-19.7,11.5
				C19.1,18,18,24.3,19.9,31.5c1.7,6.1,4.6,10.8,8.9,13.9l5.7-21.7c1-4,4.2-4.4,6.1-4.4s5,0.4,6.1,4.4L53.4,49
				c0.7-0.2,1.4-0.3,2.1-0.5V28.9c0-0.5,0.4-0.9,0.9-0.9h4c0.5,0,0.9,0.4,0.9,0.9v17.7c6-2.4,10.4-5.6,13.4-9.8
				C78.4,31.3,79.2,24.8,77.2,17z M61.3,23.9c0,0.5-0.4,0.9-0.9,0.9h-4.2c-0.5,0-0.9-0.4-0.9-0.9v-3.8c0-0.5,0.4-0.9,0.9-0.9h4.2
				c0.5,0,0.9,0.4,0.9,0.9V23.9z M35.6,42.7l-1.3,5.5c3.9,1.5,8.3,2,13.1,1.6l-1.7-7.1H35.6z M40.6,24.3c-0.4,0-0.6,0.2-0.7,0.7
				l-3.1,12.8h7.7L41.3,25C41.1,24.5,41,24.3,40.6,24.3z"/>
		</g>
	</g>
</g>
</svg>
