<?xml version="1.0" encoding="utf-8"?>
<!-- Generator: Adobe Illustrator 19.0.0, SVG Export Plug-In . SVG Version: 6.00 Build 0)  -->
<svg version="1.1" id="图层_1" xmlns="http://www.w3.org/2000/svg" xmlns:xlink="http://www.w3.org/1999/xlink" x="0px" y="0px"
	 viewBox="12 1 191 50" style="enable-background:new 12 1 191 50;" xml:space="preserve">
<style type="text/css">
	.st0{fill:#FFFFFF;}
</style>
<g id="XMLID_3_">
	<g id="XMLID_25_">
		<g id="XMLID_61_">
			<path id="XMLID_62_" class="st0" d="M33.6,25.3c-0.4,0-0.6,0.2-0.7,0.7l-3.1,12.8h7.7L34.3,26C34.1,25.5,34,25.3,33.6,25.3z
				 M28.6,43.7l-1.3,5.5c3.9,1.5,8.3,2,13.1,1.6l-1.7-7.1H28.6z M70.2,18C68.3,11,64,6.1,57.5,3.3c-6.6-2.8-13.8-3.1-21.6-1
				c-9,2.4-15.5,6.2-19.7,11.5C12.1,19,11,25.3,12.9,32.5c1.7,6.1,4.6,10.8,8.9,13.9l5.7-21.7c1-4,4.2-4.4,6.1-4.4
				c1.9,0,5,0.4,6.1,4.4L46.4,50c0.7-0.2,1.4-0.3,2.1-0.5V29.9c0-0.5,0.4-0.9,0.9-0.9h4c0.5,0,0.9,0.4,0.9,0.9v17.7
				c6-2.4,10.4-5.6,13.4-9.8C71.4,32.3,72.2,25.8,70.2,18z M54.3,24.9c0,0.5-0.4,0.9-0.9,0.9h-4.2c-0.5,0-0.9-0.4-0.9-0.9v-3.8
				c0-0.5,0.4-0.9,0.9-0.9h4.2c0.5,0,0.9,0.4,0.9,0.9V24.9z"/>
		</g>
	</g>
	<g id="XMLID_2_">
		<path id="XMLID_53_" class="st0" d="M121.6,49.7c-1.4,0-3.4-0.3-3.7-0.4c-0.3-0.1-0.5-0.3-0.5-0.6v-3.3c0-0.5,0.4-0.8,0.9-0.8h3
			c0.8,0,1.1-0.3,1.1-1.6V8.7c0-0.5,0.4-0.9,0.9-0.9h4.6c0.5,0,0.9,0.4,0.9,0.9V43C129,47.8,126.6,49.7,121.6,49.7z"/>
		<path id="XMLID_55_" class="st0" d="M153.8,42h-3.9c-0.5,0-0.9-0.4-0.9-0.9v-0.7c-2.1,1.3-4.3,2-6.5,2c-3.8,0-8-1.5-8-7.7v-0.2
			c0-5.2,3.2-8,11.2-8h2.9v-2c0-3-1.3-3.7-4-3.7c-2.9,0-6,0.2-7.5,0.4c-0.1,0-0.2,0-0.2,0c-0.5,0-0.8-0.1-0.8-0.8v-2.9
			c0-0.5,0.3-0.8,0.9-1c1.8-0.4,4.5-0.7,7.7-0.7c6.5,0,10.1,2.9,10.1,8.8v16.6C154.7,41.6,154.3,42,153.8,42z M148.6,30.6h-2.9
			c-4.2,0-5.1,1.3-5.1,3.9v0.2c0,2.3,1,2.9,3.3,2.9c1.7,0,3.4-0.6,4.7-1.3V30.6z"/>
		<path id="XMLID_70_" class="st0" d="M180.7,17.1L174.9,38c-0.9,3.4-3.4,4.3-5.8,4.3s-4.8-0.9-5.7-4.3l-5.8-20.9c0-0.1,0-0.2,0-0.3
			c0-0.4,0.3-0.7,0.7-0.7h4.6c0.4,0,0.8,0.3,0.9,0.9l4.4,19.3c0.2,0.9,0.5,1.2,0.9,1.2s0.7-0.3,0.9-1.2l4.4-19.3
			c0.1-0.6,0.6-0.9,1-0.9h4.6c0.4,0,0.7,0.3,0.7,0.7C180.8,16.9,180.8,17,180.7,17.1z"/>
		<path id="XMLID_72_" class="st0" d="M202.2,42h-3.9c-0.5,0-0.9-0.4-0.9-0.9v-0.7c-2.1,1.3-4.3,2-6.5,2c-3.8,0-8-1.5-8-7.7v-0.2
			c0-5.2,3.2-8,11.2-8h2.9v-2c0-3-1.3-3.7-4-3.7c-2.9,0-6,0.2-7.5,0.4c-0.1,0-0.2,0-0.2,0c-0.5,0-0.8-0.1-0.8-0.8v-2.9
			c0-0.5,0.3-0.8,0.9-1c1.8-0.4,4.5-0.7,7.7-0.7c6.5,0,10.1,2.9,10.1,8.8v16.6C203.1,41.6,202.7,42,202.2,42z M197,30.6h-2.9
			c-4.2,0-5.1,1.3-5.1,3.9v0.2c0,2.3,1,2.9,3.3,2.9c1.7,0,3.4-0.6,4.7-1.3V30.6z"/>
	</g>
	<path id="XMLID_4_" class="st0" d="M91.6,7.5h0.9v37h-0.9V7.5z"/>
</g>
</svg>
