<?xml version="1.0" encoding="utf-8"?>
<!-- Generator: Adobe Illustrator 19.0.0, SVG Export Plug-In . SVG Version: 6.00 Build 0)  -->
<svg version="1.1" id="图层_1" xmlns="http://www.w3.org/2000/svg" xmlns:xlink="http://www.w3.org/1999/xlink" x="0px" y="0px"
	 viewBox="0 0 94 70" style="enable-background:new 0 0 94 70;" xml:space="preserve">
<style type="text/css">
	.st0{opacity:0.1;}
	.st1{fill:#231815;}
</style>
<g class="st0">
	<path class="st1" d="M74,6.7H20c-0.6,0-1,0.4-1,1v54.7c0,0.6,0.4,1,1,1h54c0.6,0,1-0.4,1-1V7.7C75,7.1,74.6,6.7,74,6.7z M73,61.3
		H21V8.7h52V61.3z"/>
	<path id="XMLID_2_" class="st1" d="M46.6,53.9c1.8,0,3.2-0.5,4.1-1.5c1.1-1.2,1-2.7,1-3.1V35.9c0-0.6-0.4-1-1-1s-1,0.4-1,1v13.4
		c0,0,0,0.1,0,0.1c0,0,0.1,0.9-0.5,1.6c-0.5,0.5-1.4,0.8-2.5,0.8c-3.4,0-3.6-1.7-3.6-1.9c0-0.6-0.5-1-1-1c-0.6,0-1,0.5-1,1
		C41,51.4,42.2,53.9,46.6,53.9z"/>
	<path id="XMLID_1_" class="st1" d="M60.6,53.9c2.4,0,4.4-0.7,5.6-1.9c0.9-1,1.4-2.2,1.4-3.7c0-2.5-2.8-3.6-5.5-4.6
		c-2-0.8-4.3-1.6-4.5-2.9c-0.1-0.6,0-1.6,0.7-2.3c0.6-0.7,1.7-1.1,3-1.1c2.9,0,3.7,1.7,3.8,1.8c0.2,0.5,0.8,0.8,1.3,0.5
		c0.5-0.2,0.8-0.8,0.6-1.3c0-0.1-1.2-3-5.6-3c-2.4,0-3.8,1-4.5,1.8c-0.9,1.1-1.3,2.5-1.1,4c0.4,2.4,3.1,3.5,5.7,4.5
		c2.1,0.8,4.2,1.6,4.2,2.8c0,1-0.2,1.7-0.8,2.3c-1.1,1.1-3.1,1.3-4.2,1.3c-2.3,0-3.6-1.2-3.7-2.1c-0.1-0.5-0.6-0.9-1.1-0.9
		c-0.5,0.1-0.9,0.6-0.9,1.1C55.1,52,57.2,53.9,60.6,53.9z"/>
</g>
</svg>
