<?xml version="1.0" encoding="utf-8"?>
<!-- Generator: Adobe Illustrator 19.0.0, SVG Export Plug-In . SVG Version: 6.00 Build 0)  -->
<svg version="1.1" id="图层_1" xmlns="http://www.w3.org/2000/svg" xmlns:xlink="http://www.w3.org/1999/xlink" x="0px" y="0px"
	 viewBox="-404 476 191 50" style="enable-background:new -404 476 191 50;" xml:space="preserve">
<style type="text/css">
	.st0{fill:#FFFFFF;}
	.st1{opacity:0.3;}
</style>
<g id="XMLID_3_">
	<g id="XMLID_25_">
		<g id="XMLID_61_">
			<path id="XMLID_62_" class="st0" d="M-382.4,500.4c-0.4,0-0.6,0.2-0.7,0.7l-3.1,12.8h7.7l-3.2-12.8
				C-381.9,500.6-382,500.4-382.4,500.4z M-387.4,518.8l-1.3,5.5c3.9,1.5,8.3,2,13.1,1.6l-1.7-7.1H-387.4z M-345.8,493.1
				c-1.9-7-6.2-11.9-12.7-14.7c-6.6-2.8-13.8-3.1-21.6-1c-9,2.4-15.5,6.2-19.7,11.5c-4.1,5.2-5.2,11.5-3.3,18.7
				c1.7,6.1,4.6,10.8,8.9,13.9l5.7-21.7c1-4,4.2-4.4,6.1-4.4s5,0.4,6.1,4.4l6.7,25.3c0.7-0.2,1.4-0.3,2.1-0.5V505
				c0-0.5,0.4-0.9,0.9-0.9h4c0.5,0,0.9,0.4,0.9,0.9v17.7c6-2.4,10.4-5.6,13.4-9.8C-344.6,507.4-343.8,500.9-345.8,493.1z
				 M-361.7,500c0,0.5-0.4,0.9-0.9,0.9h-4.2c-0.5,0-0.9-0.4-0.9-0.9v-3.8c0-0.5,0.4-0.9,0.9-0.9h4.2c0.5,0,0.9,0.4,0.9,0.9V500z"/>
		</g>
	</g>
	<g id="XMLID_2_">
		<path id="XMLID_53_" class="st0" d="M-294.4,524.8c-1.4,0-3.4-0.3-3.7-0.4c-0.3-0.1-0.5-0.3-0.5-0.6v-3.3c0-0.5,0.4-0.8,0.9-0.8h3
			c0.8,0,1.1-0.3,1.1-1.6v-34.3c0-0.5,0.4-0.9,0.9-0.9h4.6c0.5,0,0.9,0.4,0.9,0.9v34.3C-287,522.9-289.4,524.8-294.4,524.8z"/>
		<path id="XMLID_55_" class="st0" d="M-262.2,517.1h-3.9c-0.5,0-0.9-0.4-0.9-0.9v-0.7c-2.1,1.3-4.3,2-6.5,2c-3.8,0-8-1.5-8-7.7
			v-0.2c0-5.2,3.2-8,11.2-8h2.9v-2c0-3-1.3-3.7-4-3.7c-2.9,0-6,0.2-7.5,0.4c-0.1,0-0.2,0-0.2,0c-0.5,0-0.8-0.1-0.8-0.8v-2.9
			c0-0.5,0.3-0.8,0.9-1c1.8-0.4,4.5-0.7,7.7-0.7c6.5,0,10.1,2.9,10.1,8.8v16.6C-261.3,516.7-261.7,517.1-262.2,517.1z M-267.4,505.7
			h-2.9c-4.2,0-5.1,1.3-5.1,3.9v0.2c0,2.3,1,2.9,3.3,2.9c1.7,0,3.4-0.6,4.7-1.3V505.7z"/>
		<path id="XMLID_70_" class="st0" d="M-235.3,492.2l-5.8,20.9c-0.9,3.4-3.4,4.3-5.8,4.3s-4.8-0.9-5.7-4.3l-5.8-20.9
			c0-0.1,0-0.2,0-0.3c0-0.4,0.3-0.7,0.7-0.7h4.6c0.4,0,0.8,0.3,0.9,0.9l4.4,19.3c0.2,0.9,0.5,1.2,0.9,1.2s0.7-0.3,0.9-1.2l4.4-19.3
			c0.1-0.6,0.6-0.9,1-0.9h4.6c0.4,0,0.7,0.3,0.7,0.7C-235.2,492-235.2,492.1-235.3,492.2z"/>
		<path id="XMLID_72_" class="st0" d="M-213.8,517.1h-3.9c-0.5,0-0.9-0.4-0.9-0.9v-0.7c-2.1,1.3-4.3,2-6.5,2c-3.8,0-8-1.5-8-7.7
			v-0.2c0-5.2,3.2-8,11.2-8h2.9v-2c0-3-1.3-3.7-4-3.7c-2.9,0-6,0.2-7.5,0.4c-0.1,0-0.2,0-0.2,0c-0.5,0-0.8-0.1-0.8-0.8v-2.9
			c0-0.5,0.3-0.8,0.9-1c1.8-0.4,4.5-0.7,7.7-0.7c6.5,0,10.1,2.9,10.1,8.8v16.6C-212.9,516.7-213.3,517.1-213.8,517.1z M-219,505.7
			h-2.9c-4.2,0-5.1,1.3-5.1,3.9v0.2c0,2.3,1,2.9,3.3,2.9c1.7,0,3.4-0.6,4.7-1.3V505.7z"/>
	</g>
	<path id="XMLID_4_" class="st1" d="M-324.4,482.6h0.9v37h-0.9V482.6z"/>
</g>
</svg>
