<?xml version="1.0" encoding="utf-8"?>
<!-- Generator: Adobe Illustrator 19.0.0, SVG Export Plug-In . SVG Version: 6.00 Build 0)  -->
<svg version="1.1" id="图层_1" xmlns="http://www.w3.org/2000/svg" xmlns:xlink="http://www.w3.org/1999/xlink" x="0px" y="0px"
	 viewBox="0 0 94 70" style="enable-background:new 0 0 94 70;" xml:space="preserve">
<style type="text/css">
	.st0{opacity:0.1;}
	.st1{fill:#231815;}
</style>
<g class="st0">
	<path id="XMLID_6_" class="st1" d="M42.5,27.1l1.4-1.4c-0.8-0.8-3.3-3.3,0.6-7.4c1.6-1.7,2.3-3.4,2.1-5.1c-0.4-2.9-3.2-4.7-3.3-4.7
		c-0.5-0.3-1.1-0.1-1.4,0.3c-0.3,0.5-0.1,1.1,0.3,1.4c0,0,2.1,1.3,2.3,3.3c0.1,1.1-0.4,2.3-1.5,3.5C39.6,20.4,39.4,24.1,42.5,27.1z"
		/>
	<path id="XMLID_5_" class="st1" d="M50.4,23.7c0.1,2.2,2.2,3.8,2.3,3.9c0.2,0.1,0.4,0.2,0.6,0.2c0.3,0,0.6-0.1,0.8-0.4
		c0.3-0.4,0.2-1.1-0.2-1.4c-0.4-0.3-1.4-1.3-1.5-2.4c0-0.6,0.3-1.2,0.9-1.8c1.1-1,1.6-2.2,1.7-3.5c0.1-2.3-1.6-4-1.6-4.1
		c-0.4-0.4-1-0.4-1.4,0c-0.4,0.4-0.4,1,0,1.4c0.2,0.3,2.3,2.6,0,4.8C50.8,21.3,50.3,22.4,50.4,23.7z"/>
	<path class="st1" d="M44.4,54.4h5.3c0.1,0,0.1,0,0.2,0c9.2-1.5,13.2-7.1,14.9-12.2c0.1,0,0.2,0.1,0.4,0.1c3,0,5.3-0.9,7-2.6
		c2.6-2.7,2.4-6.5,2.4-6.7c0-0.5-0.5-0.9-1-0.9h-8.6c0,0,0,0,0,0H28.7c-0.5,0-1,0.4-1,1C26.7,52.9,44.2,54.4,44.4,54.4z M65.9,34
		h6.5c-0.1,1.1-0.5,2.9-1.8,4.3c-1.2,1.3-3,2-5.4,2C65.9,37.6,65.9,35.3,65.9,34z M63.9,34c0.2,3.5-0.3,16.1-14.3,18.4l-5.1,0
		c-0.6,0-15.1-1.3-14.9-18.4H63.9z"/>
	<path id="XMLID_1_" class="st1" d="M64,51.1c-0.6,0-1,0.4-1.1,0.9c0,0.6,0.4,1,0.9,1.1c3.9,0.3,7.6,1.4,7.9,2.2
		c-1.1,1.8-10.4,4.4-24.6,4.5h-0.9c-14.3-0.1-23.6-2.7-24.7-4.5c0.3-0.8,4.1-1.8,7.9-2.1c0.6,0,1-0.5,0.9-1.1c0-0.5-0.5-1-1.1-0.9
		c-1.9,0.2-8.3,0.9-9.5,3.2c-0.3,0.6-0.3,1.3,0.1,2c2,3.4,14.2,5.3,25.6,5.5c0,0,0.1,0,0.1,0c0.2,0,0.4,0,0.7,0c0.3,0,0.6,0,0.8,0
		c0.2,0,0.4,0,0.7,0c0,0,0.1,0,0.1,0c11.3-0.2,23.6-2.1,25.6-5.5c0.4-0.6,0.4-1.3,0.1-2C72.3,52,65.9,51.3,64,51.1z"/>
</g>
</svg>
