<?xml version="1.0" encoding="utf-8"?>
<!-- Generator: Adobe Illustrator 19.0.0, SVG Export Plug-In . SVG Version: 6.00 Build 0)  -->
<svg version="1.1" id="图层_1" xmlns="http://www.w3.org/2000/svg" xmlns:xlink="http://www.w3.org/1999/xlink" x="0px" y="0px"
	 viewBox="0 0 94 70" style="enable-background:new 0 0 94 70;" xml:space="preserve">
<style type="text/css">
	.st0{opacity:0.1;}
	.st1{fill:#231815;}
</style>
<g class="st0">
	<path class="st1" d="M65.8,20.8c0,0-0.1,0-0.1,0h-4.8v-5.2c0-0.2,0-3.8-2.6-6.5c-1.7-1.7-4-2.6-6.9-2.6l-8.7,0
		c-3.3,0.1-9.6,1.9-9.6,8.2v6H28c-0.1,0-0.1,0-0.2,0c-0.1,0-9,2.1-9,14.5c0,12.5,9.4,13.7,9.5,13.7c0,0,0.1,0,0.1,0h4.8v5.2
		c0,0.2,0,3.8,2.6,6.5c1.7,1.7,4,2.6,6.9,2.6l8.7,0c3.3-0.1,9.6-1.9,9.6-8.2v-6H66c0.1,0,0.1,0,0.2,0c0.1,0,9-2.1,9-14.5
		C75.3,22.1,65.9,20.9,65.8,20.8z M33,47.2h-4.6c-0.7-0.1-7.7-1.4-7.7-11.8c0-10.2,6.5-12.3,7.4-12.5h19c0.6,0,1-0.4,1-1s-0.4-1-1-1
		h-12v-6c0-5.9,7.3-6.2,7.6-6.3h8.6c2.4,0,4.2,0.7,5.5,1.9c2,2,2,5,2,5.1V30c0,0.1,0,0.1,0,0.1c-0.2,0.7-0.5,1.5-1.1,2.2
		c-1,1-2.5,1.6-4.4,1.6l-13,0c-0.1,0-3.3-0.2-5.4,1.7c-1,0.9-1.6,2.2-1.7,3.8c-0.2,1.1-0.2,1.9-0.2,1.9V47.2z M65.9,47.1h-19
		c-0.6,0-1,0.4-1,1s0.4,1,1,1h12v6c0,5.9-7.3,6.2-7.6,6.3h-8.6c-2.4,0-4.2-0.7-5.5-1.9c-2-2-2-5-2-5.1V40c0-0.1,0-0.1,0-0.1
		c0.2-0.7,0.5-1.5,1.1-2.2c1-1,2.5-1.6,4.4-1.6l13,0c0.1,0,3.3,0.3,5.4-1.7c1-0.9,1.6-2.2,1.7-3.8c0.2-1.1,0.2-1.9,0.2-1.9v-5.9h4.6
		c0.7,0.1,7.7,1.4,7.7,11.8C73.3,44.8,66.8,46.9,65.9,47.1z"/>
	<circle id="XMLID_2_" class="st1" cx="41.2" cy="15.4" r="1.4"/>
	<circle id="XMLID_1_" class="st1" cx="53.4" cy="55" r="1.4"/>
</g>
</svg>
