<?xml version="1.0" encoding="utf-8"?>
<!-- Generator: Adobe Illustrator 19.0.0, SVG Export Plug-In . SVG Version: 6.00 Build 0)  -->
<svg version="1.1" id="图层_1" xmlns="http://www.w3.org/2000/svg" xmlns:xlink="http://www.w3.org/1999/xlink" x="0px" y="0px"
	 viewBox="0 0 94 70" style="enable-background:new 0 0 94 70;" xml:space="preserve">
<style type="text/css">
	.st0{opacity:0.1;}
	.st1{fill:#231815;}
</style>
<g class="st0">
	<path id="XMLID_5_" class="st1" d="M21.5,27c-0.6,0-1,0.4-1,1v7.5v3.9v8.8c0,0.6,0.4,1,1,1s1-0.4,1-1v-8.8v-3.9V28
		C22.5,27.4,22,27,21.5,27z"/>
	<path class="st1" d="M51.8,33.7C51.8,33.7,51.8,33.7,51.8,33.7c-0.2-5.3-1.7-9.1-4.4-11.5c-2.7-2.4-6-2.7-8.3-2.5
		c-0.6,0-3.6,0-6.3,2.5c-2.9,2.7-4.3,7.1-4.3,13.2c0,5.7,1.4,9.8,4.3,12.4c2.5,2.2,5.3,2.5,6.7,2.5c0.3,0,0.6,0,0.7,0h1.2
		c0.2,0,3.6,0,6.5-2.9c2.6-2.6,4-6.7,4-12C51.8,34.8,51.8,34.2,51.8,33.7C51.8,33.7,51.8,33.7,51.8,33.7z M41.3,48.3h-1.2
		c0,0-0.1,0-0.1,0c0,0-3.2,0.4-5.9-2c-2.4-2.1-3.6-5.8-3.6-10.9c0-5.5,1.2-9.4,3.7-11.7c2.3-2.1,4.8-2,4.9-2c0.1,0,0.1,0,0.2,0
		c1.9-0.2,4.7,0.1,6.9,2c2.3,2,3.5,5.4,3.7,10.1c0,0,0,0,0,0c0,0.5,0,1,0,1.5C49.8,48.1,41.7,48.3,41.3,48.3z"/>
	<path id="XMLID_2_" class="st1" d="M65.5,33.3c-0.7-0.3-1.4-0.7-2-1c-2.7-1.4-3.9-2.5-4.2-3.9c-0.3-1.7,0-3.3,1-4.5
		c1.1-1.4,3-2.1,5.3-2.1c4.4,0,5,3,5,3.4c0.1,0.5,0.6,0.9,1.1,0.9c0.5-0.1,0.9-0.6,0.9-1.1c-0.2-1.8-2-5.1-7-5.1
		c-2.9,0-5.4,1-6.9,2.8c-1.4,1.7-1.8,3.9-1.4,6.2c0.5,2.6,2.9,4.1,5.2,5.3c0.7,0.3,1.4,0.7,2.1,1c3.7,1.8,7.2,3.4,6.9,7
		c-0.2,2.3-1.9,4.2-4.4,4.9c-2.3,0.6-5.8,0.3-8.2-2.8c-0.3-0.4-1-0.5-1.4-0.2c-0.4,0.3-0.5,1-0.2,1.4c1.9,2.5,4.7,3.9,7.7,3.9
		c0.9,0,1.7-0.1,2.6-0.4c3.3-0.9,5.6-3.5,5.9-6.6C74,37.3,69.5,35.2,65.5,33.3z"/>
	<path id="XMLID_1_" class="st1" d="M21.5,19.7c-0.6,0-1,0.4-1,1v2.2c0,0.6,0.4,1,1,1s1-0.4,1-1v-2.2C22.5,20.1,22,19.7,21.5,19.7z"
		/>
</g>
</svg>
