<?xml version="1.0" encoding="utf-8"?>
<!-- Generator: Adobe Illustrator 19.0.0, SVG Export Plug-In . SVG Version: 6.00 Build 0)  -->
<svg version="1.1" id="图层_1" xmlns="http://www.w3.org/2000/svg" xmlns:xlink="http://www.w3.org/1999/xlink" x="0px" y="0px"
	 viewBox="0 0 94 70" style="enable-background:new 0 0 94 70;" xml:space="preserve">
<style type="text/css">
	.st0{opacity:0.1;}
	.st1{fill:#231815;}
</style>
<g class="st0">
	<g>
		<path id="XMLID_4_" class="st1" d="M61.3,40.7c-0.1,0-0.1,0-0.2,0c-0.5-0.1-0.9-0.7-0.8-1.2c2.4-10.5,9.5-21.9,19.6-21.9
			c0.6,0,1,0.4,1,1s-0.4,1-1,1c-8.6,0-15.4,10.2-17.7,20.3C62.2,40.3,61.8,40.7,61.3,40.7z"/>
	</g>
	<g>
		<path id="XMLID_3_" class="st1" d="M13.4,52.4c-0.6,0-1-0.4-1-1s0.4-1,1-1c8.6,0,15.4-10.2,17.7-20.3c0.1-0.5,0.7-0.9,1.2-0.8
			c0.5,0.1,0.9,0.7,0.8,1.2C30.6,41.1,23.5,52.4,13.4,52.4z"/>
	</g>
	<g>
		<path id="XMLID_2_" class="st1" d="M68.8,52.4c-0.8,0-1.6-0.1-2.2-0.3c-5.2-1.4-9.9-7.8-12-16.4c-2.5-10.1-5.7-15-10.2-15.4
			c-2.9-0.3-5,0.1-6.8,1.3c-0.5,0.3-1.1,0.2-1.4-0.3c-0.3-0.5-0.2-1.1,0.3-1.4c2.2-1.5,4.7-2,8.1-1.7c5.4,0.5,9.2,5.9,11.9,16.9
			c1.9,7.9,6.1,13.8,10.6,15c2.9,0.8,5.8-0.4,8.6-3.4c4.9-5.1,8.8-19.6,8.8-28.2c0-0.6,0.4-1,1-1s1,0.4,1,1c0,8.1-3.6,23.6-9.4,29.6
			C74,51.5,71.1,52.4,68.8,52.4z"/>
	</g>
	<g>
		<path id="XMLID_1_" class="st1" d="M8.5,52.4c-0.6,0-1-0.4-1-1c0-8.1,3.6-23.6,9.4-29.6c4.3-4.5,8.1-4.6,10.6-3.9
			c5.2,1.4,9.9,7.8,12,16.4c2.5,10.1,5.7,15,10.2,15.4c2.8,0.3,5-0.1,6.8-1.3c0.5-0.3,1.1-0.2,1.4,0.3c0.3,0.5,0.2,1.1-0.3,1.4
			c-2.2,1.5-4.7,2-8.1,1.7c-5.4-0.5-9.2-5.9-11.9-16.9c-1.9-7.9-6.1-13.8-10.6-15c-2.9-0.8-5.8,0.4-8.6,3.4
			c-4.9,5.1-8.8,19.6-8.8,28.2C9.5,52,9,52.4,8.5,52.4z"/>
	</g>
</g>
</svg>
