<?xml version="1.0" encoding="utf-8"?>
<!-- Generator: Adobe Illustrator 19.0.0, SVG Export Plug-In . SVG Version: 6.00 Build 0)  -->
<svg version="1.1" id="图层_1" xmlns="http://www.w3.org/2000/svg" xmlns:xlink="http://www.w3.org/1999/xlink" x="0px" y="0px"
	 viewBox="0 0 94 70" style="enable-background:new 0 0 94 70;" xml:space="preserve">
<style type="text/css">
	.st0{opacity:0.1;}
	.st1{fill:#231815;}
</style>
<g class="st0">
	<path class="st1" d="M77.9,28.4C76.1,26,73.1,26,73,26h-9.9c-0.5,0-0.9,0.3-1,0.8l-4.3,24.1c-0.1,0.5,0.3,1.1,0.8,1.2
		c0.1,0,0.1,0,0.2,0c0.5,0,0.9-0.3,1-0.8l1.4-7.7l5.3,0.3c0.1,0,9.7,1.4,12.2-8C79.5,32.7,79.2,30.2,77.9,28.4z M76.7,35.4
		c-2,7.6-9.6,6.6-10.1,6.5l-5.1-0.3L63.9,28H73c0,0,2.1,0.1,3.3,1.6C77.2,30.9,77.4,32.8,76.7,35.4z"/>
	<path class="st1" d="M30.1,26h-9.9c-0.5,0-0.9,0.3-1,0.8l-4.2,24.1c-0.1,0.5,0.3,1.1,0.8,1.2c0.1,0,0.1,0,0.2,0
		c0.5,0,0.9-0.3,1-0.8l1.4-7.7l5.3,0.3c0.1,0,9.7,1.4,12.2-8c0.9-3.2,0.6-5.7-0.7-7.5C33.2,26,30.2,26,30.1,26z M33.8,35.4
		c-2,7.6-9.6,6.6-10.1,6.5l-5.1-0.3L21,28h9.1c0,0,2.1,0.1,3.3,1.6C34.3,30.9,34.5,32.8,33.8,35.4z"/>
	<path id="XMLID_1_" class="st1" d="M50.2,26h-6.7l1.2-6.9c0.1-0.5-0.3-1.1-0.8-1.2c-0.5-0.1-1.1,0.3-1.2,0.8l-4.3,24.9
		c-0.1,0.5,0.3,1.1,0.8,1.2c0.1,0,0.1,0,0.2,0c0.5,0,0.9-0.3,1-0.8l2.7-16h7.2c0.1,0,0.1,0,0.2,0c0,0,2-0.4,3.2,0.8
		c0.9,0.8,1.2,2.4,0.8,4.5c-1.1,7.5-2,10.9-2,10.9c-0.1,0.5,0.2,1.1,0.7,1.2c0.1,0,0.2,0,0.3,0c0.4,0,0.9-0.3,1-0.7
		c0-0.1,0.9-3.5,2-11.1c0.4-2.8-0.1-4.9-1.4-6.2C53.3,25.6,50.8,25.9,50.2,26z"/>
</g>
</svg>
