<?xml version="1.0" encoding="utf-8"?>
<!-- Generator: Adobe Illustrator 19.0.0, SVG Export Plug-In . SVG Version: 6.00 Build 0)  -->
<svg version="1.1" id="图层_1" xmlns="http://www.w3.org/2000/svg" xmlns:xlink="http://www.w3.org/1999/xlink" x="0px" y="0px"
	 viewBox="0 0 94 70" style="enable-background:new 0 0 94 70;" xml:space="preserve">
<style type="text/css">
	.st0{opacity:0.1;}
	.st1{fill:#231815;}
</style>
<g class="st0">
	<path class="st1" d="M31.7,22.7h30.6c0.3,0,0.5-0.1,0.7-0.3s0.3-0.5,0.3-0.8c-0.4-4.8-3.2-9-7.6-11.6l2.2-3.4
		c0.5-0.7,0.3-1.6-0.3-2.1c-0.3-0.2-0.7-0.3-1.1-0.2c-0.4,0.1-0.8,0.3-1,0.7L53,8.7c-3.8-1.4-8.1-1.4-11.9,0l-2.5-3.8
		c-0.2-0.4-0.6-0.6-1-0.7c-0.4-0.1-0.8,0-1.1,0.2c-0.7,0.5-0.8,1.4-0.3,2.1l2.2,3.4c-4.4,2.5-7.2,6.8-7.6,11.6
		c0,0.3,0.1,0.6,0.3,0.8S31.4,22.7,31.7,22.7z M40.2,11.3c0.1-0.1,0.7-0.3,0.8-0.4c3.8-1.6,8.2-1.6,11.9,0c0.2,0.1,0.7,0.3,0.8,0.4
		c4,1.9,6.7,5.4,7.4,9.4H32.8C33.5,16.7,36.2,13.2,40.2,11.3z"/>
	<circle id="XMLID_8_" class="st1" cx="40.3" cy="15.4" r="1.8"/>
	<circle id="XMLID_7_" class="st1" cx="53.7" cy="15.4" r="1.8"/>
	<path class="st1" d="M24.5,22.9c-2.5,0-4.6,2.1-4.6,4.6V42c0,2.5,2.1,4.6,4.6,4.6s4.6-2.1,4.6-4.6V27.5
		C29.1,24.9,27,22.9,24.5,22.9z M27.1,42c0,1.4-1.2,2.6-2.6,2.6s-2.6-1.2-2.6-2.6V27.5c0-1.4,1.2-2.6,2.6-2.6s2.6,1.2,2.6,2.6V42z"
		/>
	<path class="st1" d="M62.4,23.7H31.6c-0.6,0-1,0.4-1,1v25.5c0,2.1,1.7,3.8,3.8,3.8H36v7.1c0,2.5,2.1,4.6,4.6,4.6
		c2.5,0,4.6-2.1,4.6-4.6v-7.1h3.5v7.1c0,2.5,2.1,4.6,4.6,4.6c2.5,0,4.6-2.1,4.6-4.6v-7.1h1.6c2.1,0,3.8-1.7,3.8-3.8V24.7
		C63.4,24.2,62.9,23.7,62.4,23.7z M61.4,50.3c0,1-0.8,1.8-1.8,1.8H57c-0.6,0-1,0.4-1,1v8.1c0,1.4-1.2,2.6-2.6,2.6
		c-1.4,0-2.6-1.2-2.6-2.6v-8.1c0-0.6-0.4-1-1-1h-5.5c-0.6,0-1,0.4-1,1v8.1c0,1.4-1.2,2.6-2.6,2.6c-1.4,0-2.6-1.2-2.6-2.6v-8.1
		c0-0.6-0.4-1-1-1h-2.6c-1,0-1.8-0.8-1.8-1.8V25.7h28.8V50.3z"/>
	<path class="st1" d="M69.5,22.9c-2.5,0-4.6,2.1-4.6,4.6V42c0,2.5,2.1,4.6,4.6,4.6s4.6-2.1,4.6-4.6V27.5
		C74.1,24.9,72.1,22.9,69.5,22.9z M72.1,42c0,1.4-1.2,2.6-2.6,2.6s-2.6-1.2-2.6-2.6V27.5c0-1.4,1.2-2.6,2.6-2.6s2.6,1.2,2.6,2.6V42z
		"/>
</g>
</svg>
