<?xml version="1.0" encoding="utf-8"?>
<!-- Generator: Adobe Illustrator 19.0.0, SVG Export Plug-In . SVG Version: 6.00 Build 0)  -->
<svg version="1.1" id="图层_1" xmlns="http://www.w3.org/2000/svg" xmlns:xlink="http://www.w3.org/1999/xlink" x="0px" y="0px"
	 viewBox="-452 466 94 70" style="enable-background:new -452 466 94 70;" xml:space="preserve">
<style type="text/css">
	.st0{opacity:0.1;}
</style>
<g id="path22_1_" class="st0">
	<path d="M-379.6,529.7c-0.4,0-0.9-0.1-1.2-0.3l-14.2-8.2c-1.2-0.7-2-2-2-3.4v-17.4c0-0.7-0.4-1.3-0.9-1.6l-6.1-3.5
		c-0.6-0.3-1.3-0.3-1.9,0l-6.1,3.5c-0.6,0.3-0.9,1-0.9,1.6v17.4c0,1.4-0.7,2.6-1.9,3.4l-14.3,8.2c-0.7,0.4-1.7,0.4-2.5,0
		c-0.7-0.4-1.2-1.2-1.2-2.1l-0.1-37.2c0-1.4,0.7-2.7,1.9-3.4l24-13.8c0.5-0.3,1.2-0.5,1.8-0.5l0.3,0c0.7,0,1.3,0.2,1.8,0.5l24,13.8
		c1.2,0.7,1.9,2,1.9,3.4l0,37.2c0,0.9-0.5,1.7-1.2,2.1C-378.8,529.5-379.2,529.7-379.6,529.7z M-405,493c0.7,0,1.4,0.2,2,0.5
		l6.1,3.5c1.2,0.7,1.9,2,1.9,3.4v17.4c0,0.7,0.4,1.3,1,1.7l14.2,8.2c0.1,0.1,0.3,0.1,0.4,0c0.2-0.1,0.2-0.2,0.2-0.4l0-37.2
		c0-0.7-0.4-1.3-0.9-1.6l-24-13.8c-0.3-0.2-0.6-0.2-0.9-0.2l-0.2,0c-0.3,0-0.6,0.1-0.8,0.2l-24,13.8c-0.6,0.3-0.9,1-0.9,1.7
		l0.1,37.2c0,0.2,0.1,0.3,0.2,0.4c0.2,0.1,0.3,0.1,0.4,0l14.3-8.2c0.6-0.3,0.9-1,0.9-1.6v-17.4c0-1.4,0.7-2.7,1.9-3.4l6.1-3.5
		C-406.3,493.2-405.7,493-405,493z"/>
</g>
</svg>
