<?xml version="1.0" encoding="utf-8"?>
<!-- Generator: Adobe Illustrator 19.0.0, SVG Export Plug-In . SVG Version: 6.00 Build 0)  -->
<svg version="1.1" id="图层_1" xmlns="http://www.w3.org/2000/svg" xmlns:xlink="http://www.w3.org/1999/xlink" x="0px" y="0px"
	 viewBox="-452 466 94 70" style="enable-background:new -452 466 94 70;" xml:space="preserve">
<style type="text/css">
	.st0{opacity:0.1;}
</style>
<g class="st0">
	<path d="M-418.7,490.1h27.3c0.3,0,0.5-0.1,0.7-0.3s0.3-0.5,0.3-0.8c-0.4-4.4-3-8.3-7.2-10.6l2.3-3.4c0.3-0.5,0.2-1.1-0.3-1.4
		c-0.5-0.3-1.1-0.2-1.4,0.3l-2.4,3.7c-3.6-1.4-7.7-1.4-11.3,0l-2.4-3.7c-0.3-0.5-0.9-0.6-1.4-0.3c-0.5,0.3-0.6,0.9-0.3,1.4l2.3,3.4
		c-4.1,2.2-6.8,6.2-7.2,10.6c0,0.3,0.1,0.6,0.3,0.8C-419.2,489.9-418.9,490.1-418.7,490.1z M-411.1,479.9l0.3-0.1
		c0.1,0,0.2-0.1,0.3-0.1c0,0,0,0,0,0l0.2-0.1c3.3-1.4,7.3-1.4,10.5,0l0.2,0.1c0,0,0,0,0,0c0.1,0.1,0.2,0.1,0.3,0.1l0.3,0.1
		c3.5,1.7,5.8,4.7,6.5,8.2h-25C-416.9,484.6-414.5,481.6-411.1,479.9z"/>
	<circle cx="-411" cy="483.5" r="1.6"/>
	<circle cx="-399" cy="483.5" r="1.6"/>
	<path d="M-425.1,490c-2.3,0-4.2,1.9-4.2,4.2v13c0,2.3,1.9,4.2,4.2,4.2s4.2-1.9,4.2-4.2v-13C-420.9,491.9-422.8,490-425.1,490z
		 M-422.9,507.2c0,1.2-1,2.2-2.2,2.2s-2.2-1-2.2-2.2v-13c0-1.2,1-2.2,2.2-2.2s2.2,1,2.2,2.2V507.2z"/>
	<path d="M-391.3,490.8h-27.5c-0.6,0-1,0.4-1,1v22.8c0,1.9,1.6,3.5,3.5,3.5h1.3v6.2c0,2.3,1.9,4.2,4.2,4.2s4.2-1.9,4.2-4.2v-6.2h2.9
		v6.2c0,2.3,1.9,4.2,4.2,4.2s4.2-1.9,4.2-4.2v-6.2h1.3c1.9,0,3.5-1.6,3.5-3.5v-22.8C-390.3,491.2-390.7,490.8-391.3,490.8z
		 M-392.3,514.6c0,0.8-0.7,1.5-1.5,1.5h-2.3c-0.6,0-1,0.4-1,1v7.2c0,1.2-1,2.2-2.2,2.2s-2.2-1-2.2-2.2v-7.2c0-0.6-0.4-1-1-1h-4.9
		c-0.6,0-1,0.4-1,1v7.2c0,1.2-1,2.2-2.2,2.2c-1.2,0-2.2-1-2.2-2.2v-7.2c0-0.6-0.4-1-1-1h-2.3c-0.8,0-1.5-0.7-1.5-1.5v-21.8h25.5
		V514.6z"/>
	<path d="M-384.9,490c-2.3,0-4.2,1.9-4.2,4.2v13c0,2.3,1.9,4.2,4.2,4.2s4.2-1.9,4.2-4.2v-13C-380.7,491.9-382.6,490-384.9,490z
		 M-382.7,507.2c0,1.2-1,2.2-2.2,2.2c-1.2,0-2.2-1-2.2-2.2v-13c0-1.2,1-2.2,2.2-2.2c1.2,0,2.2,1,2.2,2.2V507.2z"/>
</g>
</svg>
