<?xml version="1.0" encoding="utf-8"?>
<!-- Generator: Adobe Illustrator 19.0.0, SVG Export Plug-In . SVG Version: 6.00 Build 0)  -->
<svg version="1.1" id="图层_1" xmlns="http://www.w3.org/2000/svg" xmlns:xlink="http://www.w3.org/1999/xlink" x="0px" y="0px"
	 viewBox="0 0 94 70" style="enable-background:new 0 0 94 70;" xml:space="preserve">
<style type="text/css">
	.st0{opacity:0.1;fill:#231815;}
</style>
<path class="st0" d="M74,27.6C74,27.6,74,27.6,74,27.6c0,0,0-0.1,0-0.1c0-0.1,0-0.2-0.1-0.3c0-0.1-0.1-0.1-0.1-0.2
	c0,0,0-0.1-0.1-0.1l-10.6-11c0,0,0,0,0,0c-0.1-0.1-0.2-0.1-0.3-0.2c0,0,0,0-0.1,0c-0.1,0-0.2-0.1-0.4-0.1h-31c-0.1,0-0.2,0-0.4,0.1
	c0,0,0,0-0.1,0c-0.1,0-0.2,0.1-0.3,0.2c0,0,0,0,0,0l-10.5,11c0,0-0.1,0.1-0.1,0.1c0,0.1-0.1,0.1-0.1,0.2c0,0.1,0,0.2-0.1,0.3
	c0,0,0,0.1,0,0.1c0,0,0,0,0,0c0,0.1,0,0.3,0.1,0.4c0.1,0.1,0.1,0.2,0.2,0.3c0,0,0,0,0,0l26,25.8c0,0,0,0,0.1,0
	c0.1,0.1,0.1,0.1,0.2,0.1c0,0,0.1,0,0.1,0c0.1,0,0.2,0.1,0.3,0.1h0c0.1,0,0.2,0,0.3-0.1c0,0,0.1,0,0.1,0c0.1,0,0.2-0.1,0.2-0.1
	c0,0,0,0,0.1,0l26-25.8c0,0,0,0,0,0c0.1-0.1,0.2-0.2,0.2-0.3C74,27.9,74,27.8,74,27.6z M31.1,18.4l3.5,8.2H23.3L31.1,18.4z
	 M38.9,26.6l8.3-8.5l8,8.5H38.9z M56.3,28.6L47,50.8l-9.4-22.2H56.3z M35.4,28.6l8.7,20.5L23.4,28.6H35.4z M58.5,28.6h12.1
	L49.9,49.1L58.5,28.6z M59.3,26.6l3.5-8.2l7.9,8.2H59.3z M57.4,26.1l-7.9-8.5H61L57.4,26.1z M44.8,17.6l-8.3,8.5L33,17.6H44.8z"/>
</svg>
