<?xml version="1.0" encoding="utf-8"?>
<!-- Generator: Adobe Illustrator 18.1.1, SVG Export Plug-In . SVG Version: 6.00 Build 0)  -->
<svg version="1.1" id="图层_1" xmlns="http://www.w3.org/2000/svg" xmlns:xlink="http://www.w3.org/1999/xlink" x="0px" y="0px"
	 viewBox="10 16.2 80 67.6" enable-background="new 10 16.2 80 67.6" xml:space="preserve">
<g>
	<path fill="#666666" d="M32.4,74.1l-1.8,7.5c5.3,2,11.2,2.7,17.7,2.2l-2.4-9.7H32.4z M39.1,49c-0.6,0-0.8,0.2-0.9,0.9L34,67.4h10.3
		L40.1,50C39.9,49.3,39.7,49,39.1,49z M88.5,39.1c-2.6-9.6-8.3-16.2-17.1-20c-8.9-3.7-18.6-4.2-29.2-1.3c-12.1,3.3-21,8.5-26.5,15.6
		c-5.6,7.1-7,15.6-4.4,25.4c2.2,8.4,6.2,14.6,12,18.9L31,48.1c1.4-5.5,5.6-6,8.2-6c2.5,0,6.8,0.5,8.2,6l9,34.4
		c0.9-0.2,1.9-0.4,2.9-0.7V55.3c0-0.6,0.5-1.2,1.2-1.2h5.4c0.6,0,1.2,0.5,1.2,1.2v24C75,76.1,81,71.7,85,66
		C90.2,58.6,91.3,49.7,88.5,39.1z M67.1,48.5c0,0.6-0.5,1.2-1.2,1.2h-5.7c-0.6,0-1.2-0.5-1.2-1.2v-5.2c0-0.6,0.6-1.2,1.2-1.2h5.7
		c0.6,0,1.2,0.5,1.2,1.2V48.5z"/>
</g>
</svg>
