<?xml version="1.0" encoding="utf-8"?>
<!-- Generator: Adobe Illustrator 19.0.0, SVG Export Plug-In . SVG Version: 6.00 Build 0)  -->
<svg version="1.1" id="图层_1" xmlns="http://www.w3.org/2000/svg" xmlns:xlink="http://www.w3.org/1999/xlink" x="0px" y="0px"
	 viewBox="33 0 1065 1000" style="enable-background:new 33 0 1065 1000;" xml:space="preserve">
<style type="text/css">
	.st0{fill:#FFFFFF;}
	.st1{opacity:0.6;}
</style>
<g id="_x31_ef8eb6b-2ede-4d4b-8793-0f4df74bbb33.psd">
	<g id="AI">
		<g id="形状_1_拷贝_3">
			<g>
				<path class="st0" d="M579.5,410.1l-12.9,53c37.5,14.1,79.2,19.3,125.3,15.4l-16.6-68.4H579.5z M977.1,163.4
					C959,95.9,918.6,49,855.9,22.6S724.3-7,649.3,13.1c-85.8,23-148.4,59.6-187.9,109.9c-39.4,50.2-49.9,110-31.3,179.4
					c15.8,58.9,44,103.2,84.6,133L569.5,227c10-38.5,40-42.3,57.9-42.3s47.9,3.7,57.9,42.3L749,469.6c6.7-1.5,13.5-3.1,20.4-4.9
					V277.1c0-4.6,3.7-8.3,8.3-8.3H816c4.6,0,8.3,3.7,8.3,8.3v169.6c57-22.7,99.7-54,127.9-94.1C988.7,300.7,997,237.7,977.1,163.4z
					 M825.6,229.4c0,4.6-3.7,8.3-8.3,8.3h-40.4c-4.6,0-8.7-3.7-8.7-8.3V193c0-4.6,4.2-8.3,8.7-8.3h40.4c4.6,0,8.3,3.7,8.3,8.3
					L825.6,229.4L825.6,229.4z M627.4,233.2c-4.2,0-5.4,1.7-6.7,6.6l-30,123.1H664l-30-123.1C632.8,234.8,631.6,233.2,627.4,233.2z"
					/>
			</g>
		</g>
		<g id="形状_1_拷贝_11">
			<g>
				<path class="st0" d="M141.9,705.9c0.5,2.1,2.3,3.9,4.4,3.9h24.6c2.3,0,4.2-1.6,4.2-3.9l-0.2-1.2l-38.1-145.6
					c-5.6-21.6-22.3-23.7-32.3-23.7s-26.7,2.1-32.3,23.7L34.1,704.7l-0.2,1.2c0,2.3,1.9,3.9,4.2,3.9h24.6c2.1,0,3.9-1.9,4.4-3.9
					l10.7-44.1h53.4L141.9,705.9z M84.1,635.3l16.7-69c0.7-2.8,1.4-3.7,3.7-3.7c2.3,0,3,0.9,3.7,3.7l16.7,69H84.1z M291.3,653.4
					v-17.9c0-36.2-18.1-58.3-55.5-58.3c-14.9,0-32.3,2.3-46.6,6c-5.3,1.4-6.3,2.8-6.3,6.3v161.7c0,2.6,2.1,4.6,4.6,4.6h21.3
					c2.6,0,4.6-2.1,4.6-4.6v-41.1c8.6,1.2,16.7,1.6,22.3,1.6C273.2,711.7,291.3,689.6,291.3,653.4z M213.6,603.9
					c4.4-0.9,13.9-1.6,22.3-1.6c20,0,24.8,14.2,24.8,33.2v17.9c0,19-4.9,33.2-24.8,33.2c-5.6,0-15.8-0.7-22.3-1.6V603.9z
					 M413.6,653.4v-17.9c0-36.2-18.1-58.3-55.5-58.3c-14.9,0-32.3,2.3-46.6,6c-5.3,1.4-6.3,2.8-6.3,6.3v161.7c0,2.6,2.1,4.6,4.6,4.6
					h21.3c2.6,0,4.6-2.1,4.6-4.6v-41.1c8.6,1.2,16.7,1.6,22.3,1.6C395.5,711.7,413.6,689.6,413.6,653.4z M383,653.4
					c0,19-4.9,33.2-24.8,33.2c-5.6,0-15.8-0.7-22.3-1.6v-81.1c4.4-0.9,13.9-1.6,22.3-1.6c20,0,24.8,14.2,24.8,33.2V653.4z
					 M433.3,709.8h21.6c2.6,0,4.4-2.3,4.4-4.9V537.7c0-2.6-1.9-4.6-4.4-4.6h-21.6c-2.5,0-4.6,2.1-4.6,4.6v167.2
					C428.7,707.5,430.7,709.8,433.3,709.8z M505.7,578.8h-21.4c-2.6,0-4.6,2.1-4.6,4.6v121.5c0,2.6,2.1,4.9,4.6,4.9h21.4
					c2.6,0,4.6-2.3,4.6-4.9V583.5C510.3,580.9,508.2,578.8,505.7,578.8z M483.9,561.4h22.5c2.6,0,4.6-2.1,4.6-4.6v-20.4
					c0-2.6-2.1-4.6-4.6-4.6h-22.5c-2.6,0-4.9,2.1-4.9,4.6v20.4C479,559.3,481.3,561.4,483.9,561.4z M612.7,702.6v-15.1
					c0-2.3-1.9-3.5-4.2-3.5h-0.7c-9.3,1.2-14.9,1.6-29.9,1.6c-10.9,0-22.3-6.3-22.3-30.4v-21.6c0-24.2,11.4-30.4,22.3-30.4
					c15.1,0,20.7,0.5,29.9,1.6h0.7c2.3,0,4.2-1.2,4.2-3.5v-15.1c0-3.7-0.9-5.1-4.9-6c-5.3-1.4-15.8-3-29.9-3
					c-30.2,0-52.9,18.6-52.9,56.4v21.6c0,37.9,22.7,56.4,52.9,56.4c14.2,0,24.6-1.6,29.9-3C611.7,707.7,612.7,706.3,612.7,702.6z
					 M672.5,577.2c-16,0-29.5,1.9-38.8,3.7c-3,0.7-4.4,2.3-4.4,4.9v14.9c0,3.3,1.9,3.9,4.2,3.9h1.2c7.7-0.9,23-1.9,37.8-1.9
					c13.7,0,20.4,3.7,20.4,18.8v10.2h-14.6c-40.4,0-56.6,13.7-56.6,40.2v0.9c0,31.4,20.9,38.8,40.1,38.8c11.1,0,22-3.7,32.7-10.2
					v3.7c0,2.6,2.1,4.6,4.6,4.6h19.7c2.5,0,4.6-2.1,4.6-4.6v-83.6C723.6,591.8,705.5,577.2,672.5,577.2z M692.9,680.8
					c-6.7,3.7-15.3,6.5-23.7,6.5c-11.6,0-16.7-3-16.7-14.4V672c0-13,4.6-19.7,25.8-19.7h14.6V680.8L692.9,680.8z M803.8,687.8h-12.3
					c-8.4,0-9.1-1.4-9.1-13v-72.9h20.9c2.6,0,4.6-2.1,4.6-4.6v-13.8c0-2.6-2.1-4.6-4.6-4.6h-20.9V555c0-2.3-1.6-3.5-3.7-3.5h-0.9
					l-21.6,3.7c-2.6,0.5-4.6,2.1-4.6,4.6v19h-21.8c-2.6,0-4.6,2.1-4.6,4.6v10.5c0,2.6,2.1,4.2,4.6,4.6l21.8,3.3v72.9
					c0,31.1,10.7,36.9,36.9,36.9c5.1,0,10.2-0.7,15.8-1.6c3-0.5,4.4-1.9,4.4-4.2v-14.6C808.7,688.9,806.8,687.8,803.8,687.8z
					 M844.7,578.8h-21.4c-2.5,0-4.6,2.1-4.6,4.6v121.5c0,2.6,2.1,4.9,4.6,4.9h21.4c2.6,0,4.6-2.3,4.6-4.9V583.5
					C849.3,580.9,847.2,578.8,844.7,578.8z M845.3,531.7h-22.5c-2.6,0-4.9,2.1-4.9,4.6v20.4c0,2.6,2.3,4.6,4.9,4.6h22.5
					c2.5,0,4.6-2.1,4.6-4.6v-20.4C850,533.8,847.9,531.7,845.3,531.7z M920.1,577.2c-36.4,0-55.5,24.6-55.5,57.8v18.8
					c0,33.2,19,57.8,55.5,57.8c36.4,0,55.5-24.6,55.5-57.8V635C975.5,601.8,956.5,577.2,920.1,577.2z M944.9,653.8
					c0,19-8.6,31.4-24.8,31.4c-16.2,0-24.8-12.3-24.8-31.4V635c0-19,8.6-31.4,24.8-31.4c16.2,0,24.8,12.3,24.8,31.4V653.8z
					 M1057.2,577.2c-15.3,0-24.1,2.6-37.6,11.1v-4.8c0-2.6-2.1-4.6-4.6-4.6h-20.2c-2.6,0-4.6,2.1-4.6,4.6V705c0,2.6,2.1,4.9,4.6,4.9
					h21.3c2.6,0,4.6-2.3,4.6-4.9v-93.4c9.7-5.1,18.3-8.4,26.2-8.4c17.9,0,19.7,5.8,19.7,26v75.7c0,2.6,2.1,4.9,4.6,4.9h21.3
					c2.6,0,4.6-2.3,4.6-4.9v-75.7C1097.3,599.7,1090.6,577.2,1057.2,577.2z M73.1,780H50.2c-2.5,0-4.6,1.9-4.6,4.4v163.7
					c0,2.6,2.1,4.6,4.6,4.6h22.9c2.5,0,4.6-2.1,4.6-4.6V784.4C77.7,781.8,75.6,780,73.1,780z M165.3,820c-15.3,0-24.1,2.6-37.5,11.2
					v-4.9c0-2.6-2.1-4.6-4.6-4.6h-20.1c-2.5,0-4.6,2.1-4.6,4.6v121.6c0,2.6,2.1,4.9,4.6,4.9h21.3c2.5,0,4.6-2.3,4.6-4.9v-93.4
					c9.7-5.1,18.3-8.4,26.1-8.4c17.8,0,19.7,5.8,19.7,26v75.8c0,2.6,2.1,4.9,4.6,4.9h21.3c2.5,0,4.6-2.3,4.6-4.9v-75.8
					C205.4,842.5,198.6,820,165.3,820z M289.3,882.9L259,864.4c-5.8-3.5-9.3-5.8-9.3-9.5c0-7.2,4.9-9.8,16-9.8
					c13.2,0,31.7,1.9,38.2,2.8h0.9c2.3,0,3.7-1.6,3.7-4.4V830c0-2.8-1.4-4.6-4.2-5.3c-11.8-2.6-22.4-4.6-41.2-4.6
					c-29.4,0-43.9,11.6-43.9,34.9c0,13.5,8.1,25.1,19.4,32.1l31.7,19.5c7.4,4.6,10.2,7.4,10.2,11.9c0,6.3-2.1,11.2-16.4,11.2
					c-6.9,0-27.8-1.2-38.9-2.6h-0.9c-2.3,0-3.9,1.9-3.9,3.7v13.9c0,2.8,1.6,4.6,4.4,5.3c13,3.5,32.4,4.6,41.4,4.6
					c30.3,0,45.3-16,45.3-36.3C311.5,906.4,308.7,894.8,289.3,882.9z M351.9,821.6h-21.3c-2.5,0-4.6,2.1-4.6,4.6v121.6
					c0,2.6,2.1,4.9,4.6,4.9h21.3c2.5,0,4.6-2.3,4.6-4.9V826.2C356.6,823.7,354.5,821.6,351.9,821.6z M352.6,774.4h-22.4
					c-2.5,0-4.9,2.1-4.9,4.6v20.5c0,2.6,2.3,4.6,4.9,4.6h22.4c2.5,0,4.6-2.1,4.6-4.6V779C357.3,776.5,355.2,774.4,352.6,774.4z
					 M483.1,821.6H429c-40,0-55,19.5-55,42.8v1.6c0,11.6,2.5,20,9.5,27.2c-6.2,4.4-9.3,11.6-9.3,18.8v0.2c0,8.4,3.9,16.5,10.4,21.4
					c-7.4,6.7-11.8,16-11.8,25.6v2.1c0,24.4,19.9,38.6,57.4,38.6c39.3,0,56.7-12.8,56.7-36.5v-1.6c0-24.9-20.4-29.8-51.8-37.2
					l-27.3-6.5c-5.3-1.2-7.9-3-7.9-7.7c0-2.1,1.2-4.2,3.9-6c4.6,1.9,13,4,25.2,4c34.9,0,54.8-13.2,54.8-42.3v-1.6
					c0-8.1-2.1-13.2-5.8-18.6l7.6-3c2.8-1.2,3.7-1.6,3.7-5.1V828C489.3,824.4,486.5,821.6,483.1,821.6z M402.6,959.2
					c0-8.4,2.3-11.4,5.8-16.3l20.6,4.9c24.3,5.8,27.3,8.8,27.3,13.9v1.6c0,8.4-3.9,13.3-26.1,13.3c-21.7,0-27.5-5.8-27.5-15.3
					L402.6,959.2L402.6,959.2z M453.7,866.7c0,11.6-5.6,18.4-24.7,18.4c-21.5,0-25-9.8-25-18.4v-1.9c0-10.9,5.3-19.8,25-19.8
					c19.9,0,24.7,8.6,24.7,19.8V866.7z M564.7,820c-16.4,0-26.1,3.3-34.9,8.6v-48.1c0-2.6-2.1-4.6-4.6-4.6h-21.3
					c-2.5,0-4.6,2.1-4.6,4.6v167.4c0,2.6,2.1,4.9,4.6,4.9h21.3c2.5,0,4.6-2.3,4.6-4.9V854c9.7-5.1,19-7.9,26.8-7.9
					c15.5,0,19,5.1,19,25.3v76.5c0,2.6,2.1,4.9,4.6,4.9h21.3c2.5,0,4.6-2.3,4.6-4.9v-76.5C606.1,842.7,596.6,820,564.7,820z
					 M687.9,930.6h-12.3c-8.3,0-9-1.4-9-13v-73h20.8c2.5,0,4.6-2.1,4.6-4.6v-13.7c0-2.6-2.1-4.6-4.6-4.6h-20.8v-23.9
					c0-2.3-1.6-3.5-3.7-3.5H662l-21.5,3.7c-2.5,0.5-4.6,2.1-4.6,4.7v19.1h-21.7c-2.5,0-4.6,2.1-4.6,4.6v10.5c0,2.6,2.1,4.2,4.6,4.6
					l21.7,3.3v73c0,31.2,10.6,37,36.8,37c5.1,0,10.2-0.7,15.7-1.6c3-0.5,4.4-1.9,4.4-4.2v-14.6C692.8,931.8,690.9,930.6,687.9,930.6
					z"/>
			</g>
		</g>
		<g id="形状_1_拷贝_7" class="st1">
			<g>
				<path class="st0" d="M74.9,399c-17,0-29.3,9.8-29.3,33.1v14.3c0,23.4,12.3,33.1,29.3,33.1s29.3-9.8,29.3-33.1v-14.3
					C104.2,408.7,91.9,399,74.9,399z M89.8,446.4c0,14-4.8,20.3-14.9,20.3S60,460.4,60,446.4v-14.3c0-14,4.8-20.3,14.9-20.3
					s14.9,6.3,14.9,20.3V446.4z M168.3,399h-8.8c-1.1,0-2,0.8-2,2l-0.1,57.6c0,0.6-0.3,1-0.5,1c-0.3,0-0.6-0.3-0.8-0.8l-23.9-56.4
					c-1.2-2.8-2.4-3.4-4.5-3.4h-11.1c-2.3,0-4.1,1.9-4.1,4.2l-0.1,74.3c0,1.2,0.9,2.1,2.1,2.1h8.7c1.1,0,2-1,2-2.1l0.1-55.2
					c0-0.6,0.2-0.8,0.5-0.8s0.6,0.2,0.9,0.8l22.7,53.5c1.6,3.8,3.8,3.8,6.3,3.8H166c2.3,0,4.1-1.9,4.1-4.2l0.1-74.4
					C170.2,399.8,169.4,399,168.3,399z M223.8,400.5c-3.3-0.5-7.3-1.5-19.5-1.5c-13.4,0-23.8,3.7-23.8,21.8v37
					c0,18,10.4,21.8,23.8,21.8c12.2,0,16.2-1,19.5-1.5c1.5-0.2,2.1-0.7,2.1-2.2v-6.8c0-1.2-0.9-2.1-2.1-2.1h-21
					c-6,0-8.1-2.1-8.1-9.1v-13.7h27.9c1.1,0,2.1-1,2.1-2.1v-7.6c0-1.2-0.9-2.1-2.1-2.1h-27.9v-11.5c0-7,2.2-9.1,8.1-9.1h21
					c1.1,0,2.1-1,2.1-2.1v-6.8C225.8,401.2,225.3,400.7,223.8,400.5z M274.4,409.8c-2.5-9.9-9.9-10.8-14.3-10.8
					c-4.4,0-11.8,1-14.3,10.8l-16.9,67.5l-0.1,0.5c0,1.1,0.8,1.8,1.9,1.8h10.9c0.9,0,1.7-0.8,2-1.8l4.7-20.2h23.6l4.7,20.2
					c0.2,1,1,1.8,2,1.8h10.9c1,0,1.9-0.7,1.9-1.8l-0.1-0.5L274.4,409.8z M251,445.6l7.4-32.5c0.3-1.3,0.6-1.7,1.6-1.7
					s1.3,0.4,1.6,1.7l7.4,32.5H251z M319.2,398.9c-7.5,0-14.8,0.5-20.2,1.4c-2.1,0.3-3.3,1.1-3.3,3.2l0.1,74.1
					c0,1.2,0.9,2.1,2.1,2.1h10.3c1.1,0,2-1,2-2.1l-0.1-28.8c2.4,0.1,6.5,0.4,9.2,0.4c15.8,0,29.6-6,29.6-24.8v-1
					C348.9,404.6,335.1,398.9,319.2,398.9z M334.7,424.4c0,8.5-4.3,12.7-15.4,12.7c-1.7,0-7.5-0.2-9.2-0.3v-25.3
					c1.9-0.2,7-0.4,9.2-0.4c10.3,0,15.4,3.4,15.4,12.3V424.4z M417,398.9h-8.4c-1.6,0-3.1,1.1-3.8,2.5l-15.5,32.5
					c-0.5,1-0.7,1.5-1.1,1.5c-0.4,0-0.6-0.5-1.1-1.5l-15.5-32.5c-0.7-1.5-2.2-2.5-3.8-2.5h-8.4c-2.3,0-4.1,1.9-4.1,4.2v75
					c0,1.1,0.8,1.6,1.7,1.6h10.4c0.9,0,1.6-1.1,1.6-2.1v-51.3c0-0.7,0.1-1.1,0.3-1.1l0.5,0.6l10,20.3c0.6,1.2,2,1.8,3.3,1.8h10.4
					c1.3,0,2.7-0.6,3.3-1.8l9.9-20.3l0.5-0.6c0.2,0,0.3,0.3,0.3,1.1v51.3c0,1.1,0.7,2.1,1.6,2.1h10.4c0.9,0,1.7-0.5,1.7-1.6v-75
					C421.1,400.8,419.3,398.9,417,398.9z"/>
			</g>
		</g>
	</g>
</g>
</svg>
