<?xml version="1.0" encoding="utf-8"?>
<!-- Generator: Adobe Illustrator 18.1.1, SVG Export Plug-In . SVG Version: 6.00 Build 0)  -->
<svg version="1.1" id="图层_1" xmlns="http://www.w3.org/2000/svg" xmlns:xlink="http://www.w3.org/1999/xlink" x="0px" y="0px"
	 viewBox="0 0 80 67.9" enable-background="new 0 0 80 67.9" xml:space="preserve">
<path fill="#666666" d="M33.8,39.4v-0.8c0-4.1-2.6-5.6-10.1-5.6c-1.4,0-3,0.1-4.3,0.1v11.9h7.4C32.3,44.9,33.8,42.4,33.8,39.4z
	 M26.8,50.9h-7.4v12.9c1.4,0,3.6,0.1,4.8,0.1c7.5,0,9.8-1.9,9.8-6v-0.8C34,53.9,32.3,50.9,26.8,50.9z M78.5,23.2
	c-2.6-9.6-8.3-16.2-17.1-20C52.5-0.6,42.8-1,32.2,1.8c-12.1,3.3-21,8.5-26.5,15.6c-5.6,7.1-7,15.6-4.4,25.4c2,7.4,5.3,13.1,10,17.3
	V29.9c0-2.1,0.8-2.9,2.6-3.2c1.5-0.2,5.2-0.6,9.8-0.6c10.6,0,18,3,18,11.9v1.2c0,3.9-1.8,7.3-5.4,8.8c3.6,1.5,5.7,4.5,5.7,8.9v1
	c0,4.8-1.8,8-5.1,10c3.8-0.2,7.8-0.9,12-2V39.2c0-0.6,0.5-1.2,1.2-1.2h5.4c0.6,0,1.2,0.5,1.2,1.2v24.2C64.9,60.2,71,55.7,75,50
	C80.2,42.6,81.3,33.7,78.5,23.2z M56.8,32.5c0,0.6-0.5,1.2-1.2,1.2H50c-0.6,0-1.2-0.5-1.2-1.2v-5.2c0-0.6,0.6-1.2,1.2-1.2h5.7
	c0.6,0,1.2,0.5,1.2,1.2V32.5z"/>
</svg>
