<?xml version="1.0" encoding="utf-8"?>
<!-- Generator: Adobe Illustrator 18.1.1, SVG Export Plug-In . SVG Version: 6.00 Build 0)  -->
<svg version="1.1" id="图层_1" xmlns="http://www.w3.org/2000/svg" xmlns:xlink="http://www.w3.org/1999/xlink" x="0px" y="0px"
	 viewBox="10 16 80 67.9" enable-background="new 10 16 80 67.9" xml:space="preserve">
<path fill="#FFFFFF" d="M43.8,55.4v-0.8c0-4.1-2.6-5.6-10.1-5.6c-1.4,0-3,0.1-4.3,0.1V61h7.4C42.3,61,43.8,58.4,43.8,55.4z
	 M36.8,66.9h-7.4v12.9c1.4,0,3.6,0.1,4.8,0.1c7.5,0,9.8-1.9,9.8-6v-0.8C44,69.9,42.3,66.9,36.8,66.9z M88.5,39.2
	c-2.6-9.6-8.3-16.2-17.1-20c-8.9-3.7-18.6-4.2-29.2-1.3c-12.1,3.3-21,8.5-26.5,15.6c-5.6,7.1-7,15.6-4.4,25.4
	c2,7.4,5.3,13.1,10,17.3V46c0-2.1,0.8-2.9,2.6-3.2c1.5-0.2,5.2-0.6,9.8-0.6c10.6,0,18,3,18,11.9v1.2c0,3.9-1.8,7.3-5.4,8.8
	c3.6,1.5,5.7,4.5,5.7,8.9v1c0,4.8-1.8,8-5.1,10c3.8-0.2,7.8-0.9,12-2V55.3c0-0.6,0.5-1.2,1.2-1.2h5.4c0.6,0,1.2,0.5,1.2,1.2v24.2
	C74.9,76.2,81,71.8,85,66C90.2,58.7,91.3,49.7,88.5,39.2z M66.8,48.5c0,0.6-0.5,1.2-1.2,1.2H60c-0.6,0-1.2-0.5-1.2-1.2v-5.2
	c0-0.6,0.6-1.2,1.2-1.2h5.7c0.6,0,1.2,0.5,1.2,1.2L66.8,48.5L66.8,48.5z"/>
</svg>
