<svg xmlns="http://www.w3.org/2000/svg" viewBox="0 0 300 300" enable-background="new 0 0 300 300"><path fill-rule="evenodd" clip-rule="evenodd" fill="#fff" d="M89.5 165.1c.9 0 1.1.3 1.4 1.3l6.3 25.8H81.9l6.3-25.8c.2-1.1.4-1.3 1.3-1.3zm148 24.8c-4.3 6.1-9.5 11.6-15.6 16.5v-48.1c0-1.9-1.5-3.4-3.4-3.4h-7.1c-1.4 0-2.6.8-3.2 2.1L195 184c-.4.8-.6 1.2-1 1.2-.3 0-.5-.4-1-1.2l-13-27c-.6-1.2-1.8-2.1-3.2-2.1h-7.1c-1.9 0-3.3 1.5-3.3 3.4V219c0 .9.5 1.3 1.3 1.3h8.8c.8 0 1.3-.9 1.3-1.8v-41c0-.6.1-.9.3-.9.1 0 .3.3.4.5l8.4 16.9c.5 1 1.7 1.5 2.8 1.5h8.8c1.1 0 2.3-.5 2.8-1.5l8.3-16.9c.2-.3.4-.5.5-.5.2 0 .3.3.3.9v36.9c-10.6 6.2-22.8 11.2-37.1 15.1-30 8.1-55.7 7.2-77.2-2.6-7.3-3.3-13.8-7.8-19.4-13.1l2.8-11.8h20l4 16.7c.2.8.9 1.6 1.7 1.6h9.2c.9 0 1.6-.6 1.6-1.5 0-.1-.1-.3-.1-.4l-14.3-54.7c-2.1-8.1-8.4-8.9-12.1-8.9s-10 .8-12.1 8.9L67.1 203c-6.1-8.6-10.8-18.9-14-30.9-6.6-24.6-2.9-45.8 11.1-63.6 4.7-6 10.3-11.4 16.8-16.2-1.8 3.9-2.8 8.9-2.8 14.9v10.5c0 19.4 10.6 27.5 25.1 27.5 14.5 0 25.1-8.1 25.1-27.5v-10.5c0-19.4-10.6-27.5-25.1-27.5h-1c8.5-4 17.9-7.3 28.4-10.2 26.5-7.1 50.8-6 72.9 3.4 4.6 2 8.9 4.3 12.9 6.9-1.8-.1-3.9-.1-6.3-.1-11.5 0-20.5 3.1-20.5 18.1v29.4c0 15 9 18.1 20.5 18.1 10.5 0 14-.8 16.9-1.2 1.3-.2 1.8-.6 1.8-1.9v-5.6c0-1-.9-1.6-1.9-1.6h-18.1c-5.1 0-7.1-1.9-7.1-7.7v-10.6h24.1c1 0 1.8-.9 1.8-1.9v-6.3c0-1-.8-1.7-1.8-1.7h-24.1v-8.9c0-5.8 1.9-7.6 7-7.6h19.9c8.2 8.7 14.1 19.6 17.6 32.7 7 26.2 4.1 48.6-8.8 66.9zM121.6 156c-1.7.3-2.8.9-2.8 2.6v60c0 1 .7 1.8 1.7 1.8h8.6c1 0 1.8-.8 1.8-1.8v-22.8c1.9.1 5.3.3 7.6.3 13.3 0 24.8-5 24.8-20.4v-.7c0-15.4-11.5-20.1-24.9-20.1-6.2 0-12.3.4-16.8 1.1zm61.1-74.6c0-1-.8-1.7-1.8-1.7h-7.5c-1 0-1.8.7-1.8 1.7v46.3c0 .5-.2.8-.4.8-.3 0-.5-.3-.7-.7l-20.2-45.3c-1-2.3-2-2.8-3.8-2.8h-9.4c-1.9 0-3.6 1.6-3.6 3.6v60.2c0 1 .9 1.7 1.9 1.7h7.4c1 0 1.7-.7 1.7-1.7V99.1c0-.5.1-.7.4-.7.3 0 .5.2.8.7L165 142c1.4 3.2 3.2 3.1 5.3 3.1h8.8c1.9 0 3.6-1.5 3.6-3.4V81.4zM151.5 175v.8c0 7-3.6 10.5-12.9 10.5-1.5 0-6.5-.2-7.6-.3v-20.8c1.5-.2 5.8-.3 7.6-.3 8.7 0 12.9 2.8 12.9 10.1zm-35.7-67.8v10.5c0 11.6-4.1 16.8-12.7 16.8s-12.7-5.2-12.7-16.8v-10.5c0-11.6 4.1-16.8 12.7-16.8 8.6-.1 12.7 5.1 12.7 16.8z"/></svg>