<?xml version="1.0" encoding="utf-8"?>
<!-- Generator: Adobe Illustrator 18.1.1, SVG Export Plug-In . SVG Version: 6.00 Build 0)  -->
<svg version="1.1" id="图层_1" xmlns="http://www.w3.org/2000/svg" xmlns:xlink="http://www.w3.org/1999/xlink" x="0px" y="0px"
	 viewBox="0 0 500 500" enable-background="new 0 0 500 500" xml:space="preserve">
<g>
	<g>
		<path fill="#006EC3" d="M171.6,224c14.4,0,21.5-8.7,21.5-28.1v-17.5c0-19.4-7.1-28.1-21.5-28.1c-14.4,0-21.5,8.7-21.5,28.1v17.5
			C150.1,215.4,157.2,224,171.6,224z"/>
		<g>
			<path fill="#006EC3" d="M410.6,204.6c-6-22.4-16.1-41-30.3-55.7c-0.4,0.6-1.1,1-2.1,1h-30.1c-8.6,0-11,3.1-11,12.8v14.2h39.4
				c1.6,0,2.6,1.9,2.6,3.5V191c0,1.6-1,2.9-2.6,2.9h-39.4v17.8c0,9.7,2.5,13.2,11,13.2h30.1c1.6,0,2.8,0.7,2.8,2.4v9.4
				c0,2.1-0.7,2.8-2.9,3.1c-4.7,0.7-10.9,2.1-28.4,2.1c-19.2,0-34.7-5.1-34.7-30.1v-48.9c0-25,15.3-30.1,34.5-30.1
				c4.2,0,8,0.1,11,0.2c-6.6-4.4-13.7-8.2-21.4-11.5c-36.9-15.6-77.4-17.5-121.6-5.6c-17.4,4.7-33.1,10.3-47.3,16.9c0.5,0,1,0,1.5,0
				c24.2,0,42.3,13.5,42.3,45.8v17.5c0,32.3-17.8,45.8-42,45.8s-42-13.5-42-45.8v-17.5c0-9.8,1.4-17.9,4.4-24.4
				c-10.6,8-19.8,16.9-27.4,26.6c-23.2,29.7-29.4,65.1-18.5,106c5.4,20.1,13.1,37.2,23.3,51.6l17.1-65.6
				c3.5-13.5,13.9-14.8,20.2-14.8c6.2,0,16.7,1.3,20.2,14.8l23.8,91c0,0.3,0.1,0.5,0.1,0.6c0,1.5-1.2,2.3-2.6,2.3h-15.4
				c-1.3,0-2.5-0.6-2.8-1.9l-6.7-27.1h-33.4l-4.7,19c9.4,8.8,20.2,15.9,32.4,21.5c35.8,16.4,78.7,17.8,128.7,4.3
				c23.6-6.3,44.2-14.7,61.2-24.8v-62c0-1,0.1-1.5-0.2-1.5c-0.1,0-0.2,0.4-0.5,0.8l-13.6,27.7c-0.9,1.6-2.8,2-4.6,2h-14.6
				c-1.9,0-3.8-0.4-4.6-2l-14.1-27.7c-0.3-0.4-0.7-0.8-0.9-0.8c-0.3,0-0.6,0.5-0.6,1.5v68.3c0,1.5-0.6,2.7-1.9,2.7h-14.6
				c-1.3,0-3.4-0.5-3.4-1.9v-101c0-3.2,3.6-5,6.8-5H295c2.3,0,4.3,1,5.4,3.1l21.9,44.7c0.7,1.3,1,2,1.6,2s0.9-0.7,1.6-2l21.9-44.7
				c1-2.1,3-3.1,5.4-3.1h11.9c3.2,0,4.8,1.7,4.8,5v80.2c11-8.3,19.4-17.5,26.6-27.7C417.1,285.7,422.4,248.5,410.6,204.6z"/>
			<path fill="#006EC3" d="M149.2,275.1c-1.5,0-1.9,0.7-2.3,2.4l-10.5,43.4H162l-10.5-43.3C151.1,275.8,150.7,275.1,149.2,275.1z"/>
		</g>
	</g>
	<g>
		<path fill="#FFFFFF" d="M230.7,258c-10.5,0-20.6,0.7-28.1,1.9c-2.9,0.4-4.5,1.5-4.5,4.4v99.9c0,1.6,1.2,2.6,2.8,2.6h14.4
			c1.6,0,2.8-1,2.8-2.6v-37.9c3,0.1,8.9,0.6,12.6,0.6c22.2,0,41.4-8.3,41.4-34v-1.3C272.1,265.8,253,258,230.7,258z M252.1,292.8
			c0,11.6-5.8,17.4-21.4,17.4c-2.5,0-9.6-0.3-12.6-0.4v-34.6c3-0.3,9.6-0.6,12.6-0.6c14.4,0,21.4,4.7,21.4,16.9V292.8z"/>
		<path fill="#FFFFFF" d="M284.1,242.9h14.6c3.2,0,5.4-3.8,5.4-7V135.5c0-1.6-0.8-2.5-2.4-2.5h-12.5c-1.6,0-3.2,0.9-3.2,2.5v77.2
			c0,0.9-0.2,1.3-0.5,1.3c-0.4,0-0.8-0.4-1.1-1.2l-33.7-75.3c-1.7-3.8-3.3-4.6-6.3-4.6h-15.6c-3.2,0-5.8,2.4-5.8,5.6v100.4
			c0,1.6,1.3,4,2.9,4h12.3c1.6,0,2.8-2.4,2.8-4V165c0-0.9,0.3-1.2,0.7-1.2c0.4,0,0.9,0.3,1.3,1.2l32.1,72
			C277.5,242.3,280.6,242.9,284.1,242.9z"/>
		<path fill="#FFFFFF" d="M214.1,196v-17.5c0-32.3-18-45.8-42.2-45.8c-0.5,0-1,0-1.5,0c-13.5,6.3-25.3,13.4-35.8,21.4
			c-3,6.5-4.4,14.6-4.4,24.4V196c0,32.3,17.8,45.8,42,45.8S214.1,228.3,214.1,196z M150.1,196v-17.5c0-19.4,7.1-28.1,21.5-28.1
			c14.4,0,21.5,8.7,21.5,28.1V196c0,19.4-7.1,28.1-21.5,28.1C157.2,224.1,150.1,215.4,150.1,196z"/>
		<path fill="#FFFFFF" d="M348.1,149.9h30.1c0.9,0,1.6-0.4,2.1-1c-5.8-6-12.3-11.4-19.5-16.1c-3-0.1-7-0.2-11.2-0.2
			c-19.2,0-34.5,5.1-34.5,30.1v48.9c0,25,15.4,30.1,34.6,30.1c17.6,0,23.5-1.3,28.3-2.1c2.2-0.3,3.1-1,3.1-3.1v-9.4
			c0-1.6-1.2-2.4-2.8-2.4h-30.2c-8.6,0-11-3.5-11-13.2v-17.6h39.4c1.6,0,2.6-1.3,2.6-2.9v-10.6c0-1.6-1-3.5-2.6-3.5h-39.4v-14.2
			C337.1,153,339.6,149.9,348.1,149.9z"/>
		<path fill="#FFFFFF" d="M350.1,357.7c7-4.2,14-8.7,19-13.6v-80.2c0-3.2-1.7-5-4.8-5h-11.9c-2.3,0-4.3,1-5.4,3.1l-21.9,44.7
			c-0.7,1.3-1,1.9-1.6,1.9s-0.9-0.8-1.6-2.1L300.1,262c-1-2.1-3-3.1-5.4-3.1h-11.9c-3.2,0-6.8,1.7-6.8,5v101c0,1.5,2.1,1.9,3.4,1.9
			H294c1.3,0,1.9-1.2,1.9-2.7v-68.3c0-1,0.3-1.5,0.6-1.5c0.1,0,0.5,0.4,0.8,0.9l14.1,27.6c0.9,1.6,2.8,2,4.7,2h14.6
			c1.9,0,3.8-0.4,4.6-2l13.9-27.8c0.3-0.4,0.3-0.8,0.5-0.8c0.3,0,0.2,0.6,0.2,1.6v61.9H350.1z"/>
		<path fill="#FFFFFF" d="M172.6,364.9c0.3,1.3,1.5,1.9,2.8,1.9h15.4c1.5,0,2.6-0.9,2.6-2.3c0-0.1-0.1-0.4-0.1-0.7l-23.8-91
			c-3.5-13.5-13.9-14.8-20.2-14.8c-6.3,0-16.7,1.3-20.2,14.8L112,338.3c4.8,6.7,10.1,13.1,15.9,18.5l4.7-19H166L172.6,364.9z
			 M136.4,320.8l10.5-43.4c0.4-1.7,0.9-2.4,2.3-2.4s1.9,0.7,2.3,2.5l10.5,43.3H136.4z"/>
	</g>
</g>
</svg>
