<?xml version="1.0" encoding="utf-8"?>
<!-- Generator: Adobe Illustrator 19.0.0, SVG Export Plug-In . SVG Version: 6.00 Build 0)  -->
<svg version="1.1" id="图层_1" xmlns="http://www.w3.org/2000/svg" xmlns:xlink="http://www.w3.org/1999/xlink" x="0px" y="0px"
	 viewBox="33 0 1065 1000" style="enable-background:new 33 0 1065 1000;" xml:space="preserve">
<style type="text/css">
	.st0{fill:#FFFFFF;}
	.st1{opacity:0.6;}
</style>
<g id="_x35_f8ad069-0257-44c4-8c83-49b61449262d.psd">
	<g id="MI">
		<g id="形状_1_拷贝">
			<g>
				<path class="st0" d="M1026,163.4C1007.9,95.9,967.5,49,904.9,22.6C842.2-3.8,773.4-7,698.4,13.1C612.6,36.1,550,72.7,510.6,123
					c-39.5,50.2-50,110-31.4,179.4c13.9,52,37.5,92.6,70.7,121.9v-223c0-9.1,7.5-16.6,16.6-16.6h34.1c6.7,0,12.5,4.1,15.4,9.9
					l62.9,126.9c2.1,3.7,2.9,5.8,4.6,5.8c1.7,0,2.5-2.1,4.6-5.8l62.8-126.8c2.9-5.8,8.7-9.9,15.4-9.9h34.1c9.2,0,16.6,7.5,16.6,16.6
					v263.7c0.7-0.2,1.4-0.4,2.2-0.5c12.8-3.4,24.9-7.2,36.6-11.3v-176c0-4.6,3.7-8.3,8.3-8.3h38.3c4.6,0,8.3,3.7,8.3,8.3v152.3
					c38.6-20.5,68.8-46.1,90.4-76.8C1037.6,300.8,1045.9,237.7,1026,163.4z M912,229.5c0,4.6-3.7,8.3-8.3,8.3h-40.4
					c-4.6,0-8.7-3.7-8.7-8.3V193c0-4.6,4.2-8.3,8.7-8.3h40.4c4.6,0,8.3,3.7,8.3,8.3V229.5z M760.1,287.5c-0.4,0-1.2,1.2-2.1,2.5
					l-40,79.2c-2.5,4.6-7.9,7-13.3,7h-42c-5.4,0-10.8-2.5-13.3-7L609,290c-0.8-1.2-1.7-2.5-2.1-2.5c-0.8,0-1.2,1.2-1.2,4.1v167.5
					c45.4,19.4,97.2,25.2,155.7,17.2V291.6C761.3,288.7,760.9,287.5,760.1,287.5z"/>
			</g>
		</g>
		<g id="形状_1_拷贝_9">
			<g>
				<path class="st0" d="M157.1,644.5h23.4c3,0,6-1.4,7.4-4l22.2-44.4c0.5-0.7,0.9-1.4,1.2-1.4c0.5,0,0.7,0.7,0.7,2.3v108
					c0,2.3,1.6,4.6,3.7,4.6h23.4c2.1,0,3.9-1.2,3.9-3.5V546.5c0-5.1-4.2-9.3-9.3-9.3h-19c-3.7,0-6.9,2.3-8.6,5.6l-34.9,71.1
					c-1.2,2.1-1.6,3.3-2.5,3.3s-1.4-1.2-2.5-3.3l-34.9-71.1c-1.6-3.3-4.9-5.6-8.6-5.6h-19c-5.1,0-9.3,4.2-9.3,9.3v159.8
					c0,2.3,1.9,3.5,3.9,3.5h23.4c2.1,0,3.7-2.3,3.7-4.6v-108c0-1.6,0.2-2.3,0.7-2.3c0.2,0,0.7,0.7,1.2,1.4l22.4,44.4
					C151.1,643.2,154.1,644.5,157.1,644.5z M315.1,577.2c-36.3,0-55.3,24.6-55.3,57.8v18.8c0,33.2,19,57.8,55.3,57.8
					s55.3-24.6,55.3-57.8V635C370.4,601.8,351.4,577.2,315.1,577.2z M339.9,653.8c0,19-8.6,31.4-24.7,31.4
					c-16.2,0-24.8-12.3-24.8-31.4V635c0-19,8.6-31.4,24.8-31.4c16.2,0,24.7,12.3,24.7,31.4V653.8z M391.2,705.6
					c14.3,3.7,31.7,6,46.5,6c37.2,0,55.3-22.1,55.3-58.3v-17.8c0-36.2-18-58.3-55.3-58.3c-5.6,0-13.7,0.5-22.2,1.6v-41.1
					c0-2.6-2.1-4.6-4.6-4.6h-21.3c-2.5,0-4.6,2.1-4.6,4.6v161.7C384.9,702.9,385.9,704.2,391.2,705.6z M415.5,603.9
					c6.5-0.9,16.7-1.6,22.2-1.6c19.9,0,24.8,14.2,24.8,33.2v17.9c0,19-4.9,33.2-24.8,33.2c-8.3,0-17.8-0.7-22.2-1.6L415.5,603.9
					L415.5,603.9z M533.4,709.8c2.5,0,4.6-2.3,4.6-4.9V583.5c0-2.6-2.1-4.6-4.6-4.6h-21.3c-2.5,0-4.6,2.1-4.6,4.6V705
					c0,2.6,2.1,4.9,4.6,4.9h21.3V709.8z M534.1,531.7h-22.4c-2.5,0-4.9,2.1-4.9,4.6v20.4c0,2.6,2.3,4.6,4.9,4.6h22.4
					c2.5,0,4.6-2.1,4.6-4.6v-20.4C538.8,533.8,536.7,531.7,534.1,531.7z M563,709.8h21.5c2.5,0,4.4-2.3,4.4-4.9V537.7
					c0-2.6-1.9-4.6-4.4-4.6H563c-2.5,0-4.6,2.1-4.6,4.6v167.2C558.4,707.5,560.5,709.8,563,709.8z M660.6,711.7
					c20.8,0,29.8-1.2,44.9-3.9c4.2-0.7,4.9-2.3,4.9-6v-15.3c0-2.3-1.9-3.5-4.2-3.5h-0.7c-9.7,0.9-25.7,2.3-42.6,2.3
					c-22.2,0-27.8-16-27.8-29.5v-0.7h75.4c3.2,0,4.6-2.1,4.6-5.8v-13c0-34.6-19.4-59-55.1-59c-35.4,0-55.5,22.8-55.5,59v17.2
					C604.7,699.1,637.5,711.7,660.6,711.7z M635.4,632.2c0-18.4,10.4-28.6,24.7-28.6s24.3,10.5,24.3,28.6v0.9h-49V632.2z M122,780.1
					H99.1c-2.5,0-4.6,1.9-4.6,4.4V948c0,2.6,2.1,4.6,4.6,4.6H122c2.5,0,4.6-2.1,4.6-4.6V784.6C126.6,782,124.5,780.1,122,780.1z
					 M214.3,820.1c-15.3,0-24.1,2.6-37.5,11.1v-4.9c0-2.6-2.1-4.6-4.6-4.6h-20.1c-2.5,0-4.6,2.1-4.6,4.6v121.5
					c0,2.6,2.1,4.9,4.6,4.9h21.3c2.5,0,4.6-2.3,4.6-4.9v-93.3c9.7-5.1,18.3-8.4,26.1-8.4c17.8,0,19.7,5.8,19.7,26v75.7
					c0,2.6,2.1,4.9,4.6,4.9h21.3c2.5,0,4.6-2.3,4.6-4.9v-75.7C254.3,842.6,247.6,820.1,214.3,820.1z M338.2,883l-30.3-18.5
					c-5.8-3.5-9.3-5.8-9.3-9.5c0-7.2,4.9-9.8,16-9.8c13.2,0,31.7,1.9,38.2,2.8h0.9c2.3,0,3.7-1.6,3.7-4.4v-13.5
					c0-2.8-1.4-4.6-4.2-5.3c-11.8-2.6-22.4-4.6-41.2-4.6c-29.4,0-43.9,11.6-43.9,34.8c0,13.5,8.1,25.1,19.4,32.1l31.7,19.5
					c7.4,4.6,10.2,7.4,10.2,11.8c0,6.3-2.1,11.1-16.4,11.1c-6.9,0-27.8-1.2-38.9-2.6h-0.9c-2.3,0-3.9,1.9-3.9,3.7v13.9
					c0,2.8,1.6,4.6,4.4,5.3c13,3.5,32.4,4.6,41.4,4.6c30.3,0,45.3-16,45.3-36.2C360.4,906.5,357.7,894.9,338.2,883z M400.9,821.7
					h-21.3c-2.5,0-4.6,2.1-4.6,4.6v121.5c0,2.6,2.1,4.9,4.6,4.9h21.3c2.5,0,4.6-2.3,4.6-4.9V826.4
					C405.5,823.8,403.5,821.7,400.9,821.7z M401.6,774.6h-22.4c-2.5,0-4.9,2.1-4.9,4.6v20.4c0,2.6,2.3,4.6,4.9,4.6h22.4
					c2.5,0,4.6-2.1,4.6-4.6v-20.4C406.2,776.7,404.1,774.6,401.6,774.6z M532.1,821.7H478c-40,0-55.1,19.5-55.1,42.7v1.6
					c0,11.6,2.5,20,9.5,27.2c-6.2,4.4-9.3,11.6-9.3,18.8v0.2c0,8.4,3.9,16.5,10.4,21.4c-7.4,6.7-11.8,16-11.8,25.6v2.1
					c0,24.4,19.9,38.6,57.4,38.6c39.3,0,56.7-12.8,56.7-36.5v-1.6c0-24.9-20.4-29.7-51.8-37.2l-27.3-6.5c-5.3-1.2-7.9-3-7.9-7.7
					c0-2.1,1.2-4.2,3.9-6c4.6,1.9,13,3.9,25.2,3.9c34.9,0,54.8-13.2,54.8-42.3v-1.5c0-8.1-2.1-13.2-5.8-18.6l7.6-3
					c2.8-1.2,3.7-1.6,3.7-5.1V828C538.3,824.5,535.5,821.7,532.1,821.7z M451.6,959.2c0-8.4,2.3-11.4,5.8-16.3l20.6,4.9
					c24.3,5.8,27.3,8.8,27.3,13.9v1.6c0,8.4-3.9,13.2-26.1,13.2c-21.7,0-27.5-5.8-27.5-15.3L451.6,959.2L451.6,959.2z M502.7,866.8
					c0,11.6-5.6,18.4-24.7,18.4c-21.5,0-25-9.8-25-18.4v-1.9c0-10.9,5.3-19.7,25-19.7c19.9,0,24.7,8.6,24.7,19.7V866.8z
					 M613.7,820.1c-16.4,0-26.1,3.3-34.9,8.6v-48.1c0-2.6-2.1-4.6-4.6-4.6h-21.3c-2.5,0-4.6,2.1-4.6,4.6v167.2
					c0,2.6,2.1,4.9,4.6,4.9h21.2c2.5,0,4.6-2.3,4.6-4.9V854c9.7-5.1,19-7.9,26.8-7.9c15.5,0,19,5.1,19,25.3v76.4
					c0,2.6,2.1,4.9,4.6,4.9h21.3c2.5,0,4.6-2.3,4.6-4.9v-76.4C655.1,842.9,645.6,820.1,613.7,820.1z M737,930.7h-12.3
					c-8.3,0-9-1.4-9-13v-72.9h20.8c2.5,0,4.6-2.1,4.6-4.6v-13.7c0-2.6-2.1-4.6-4.6-4.6h-20.8V798c0-2.3-1.6-3.5-3.7-3.5h-0.9
					l-21.5,3.7c-2.5,0.5-4.6,2.1-4.6,4.6v19h-21.7c-2.5,0-4.6,2.1-4.6,4.6v10.5c0,2.6,2.1,4.2,4.6,4.6l21.7,3.3v72.9
					c0,31.1,10.6,36.9,36.8,36.9c5.1,0,10.2-0.7,15.7-1.6c3-0.5,4.4-1.9,4.4-4.2v-14.6C741.8,931.8,740,930.7,737,930.7z"/>
			</g>
		</g>
		<g id="形状_1_拷贝_5" class="st1">
			<g>
				<path class="st0" d="M123.8,399c-17,0-29.3,9.8-29.3,33.1v14.3c0,23.4,12.3,33.1,29.3,33.1s29.3-9.8,29.3-33.1v-14.3
					C153.1,408.7,140.8,399,123.8,399z M138.7,446.4c0,14-4.8,20.3-14.9,20.3c-10.1,0-14.9-6.3-14.9-20.3v-14.3
					c0-14,4.8-20.3,14.9-20.3c10.1,0,14.9,6.3,14.9,20.3V446.4z M217.2,399h-8.8c-1.1,0-2,0.8-2,2l-0.1,57.6c0,0.6-0.3,1-0.5,1
					c-0.3,0-0.6-0.3-0.8-0.8l-23.9-56.4c-1.2-2.8-2.4-3.4-4.5-3.4h-11.1c-2.3,0-4.1,1.9-4.1,4.2l-0.1,74.3c0,1.2,0.9,2.1,2.1,2.1
					h8.7c1.1,0,2-1,2-2.1l0.1-55.2c0-0.6,0.2-0.8,0.5-0.8s0.6,0.2,0.9,0.8l22.7,53.5c1.6,3.8,3.8,3.8,6.3,3.8H215
					c2.3,0,4.1-1.9,4.1-4.2l0.1-74.4C219.2,399.8,218.4,399,217.2,399z M272.8,400.5c-3.3-0.5-7.3-1.5-19.5-1.5
					c-13.4,0-23.8,3.7-23.8,21.8v37c0,18,10.4,21.8,23.8,21.8c12.2,0,16.3-1,19.5-1.5c1.5-0.2,2.1-0.7,2.1-2.2v-6.8
					c0-1.2-0.9-2.1-2.1-2.1h-21c-6,0-8.1-2.1-8.1-9.1v-13.7h27.9c1.1,0,2.1-1,2.1-2.1v-7.6c0-1.2-0.9-2.1-2.1-2.1h-27.9v-11.5
					c0-7,2.2-9.1,8.1-9.1h21c1.1,0,2.1-1,2.1-2.1v-6.8C274.8,401.2,274.3,400.7,272.8,400.5z M323.4,409.8
					c-2.5-9.9-9.9-10.8-14.3-10.8s-11.8,1-14.3,10.8l-16.9,67.5l-0.1,0.5c0,1.1,0.8,1.8,1.9,1.8h10.9c0.9,0,1.7-0.8,2-1.8l4.7-20.2
					H321l4.7,20.2c0.2,1,1,1.8,2,1.8h10.9c1,0,1.9-0.7,1.9-1.8l-0.1-0.5L323.4,409.8z M300,445.6l7.4-32.5c0.3-1.3,0.6-1.7,1.6-1.7
					s1.3,0.4,1.6,1.7l7.4,32.5H300z M368.3,398.9c-7.5,0-14.8,0.5-20.2,1.4c-2.1,0.3-3.3,1.1-3.3,3.2l0.1,74.1
					c0,1.2,0.9,2.1,2.1,2.1h10.3c1.1,0,2-1,2-2.1l-0.1-28.8c2.4,0.1,6.5,0.4,9.2,0.4c15.8,0,29.6-6,29.6-24.8v-1
					C397.9,404.6,384.1,398.9,368.3,398.9z M383.7,424.4c0,8.5-4.3,12.7-15.4,12.7c-1.7,0-7.5-0.2-9.2-0.3v-25.3
					c1.9-0.2,7-0.4,9.2-0.4c10.3,0,15.4,3.4,15.4,12.3V424.4z M466.1,398.9h-8.4c-1.6,0-3.1,1.1-3.8,2.5l-15.5,32.5
					c-0.5,1-0.7,1.5-1.1,1.5s-0.6-0.5-1.1-1.5l-15.5-32.5c-0.7-1.5-2.2-2.5-3.8-2.5h-8.4c-2.3,0-4.1,1.9-4.1,4.2v75
					c0,1.1,0.8,1.6,1.7,1.6h10.4c0.9,0,1.6-1.1,1.6-2.1v-51.3c0-0.7,0.1-1.1,0.3-1.1l0.5,0.6l10,20.3c0.6,1.2,2,1.8,3.3,1.8h10.4
					c1.3,0,2.7-0.6,3.3-1.8l9.9-20.3l0.5-0.6c0.2,0,0.3,0.3,0.3,1.1v51.3c0,1.1,0.7,2.1,1.6,2.1h10.4c0.9,0,1.7-0.5,1.7-1.6v-75
					C470.2,400.8,468.3,398.9,466.1,398.9z"/>
			</g>
		</g>
	</g>
</g>
</svg>
