<?xml version="1.0" encoding="utf-8"?>
<!-- Generator: Adobe Illustrator 18.1.1, SVG Export Plug-In . SVG Version: 6.00 Build 0)  -->
<svg version="1.1" id="图层_1" xmlns="http://www.w3.org/2000/svg" xmlns:xlink="http://www.w3.org/1999/xlink" x="0px" y="0px"
	 viewBox="10 15.9 80 68.1" enable-background="new 10 15.9 80 68.1" xml:space="preserve">
<g>
	<path fill="#FFFFFF" d="M50.9,56.7c-0.1,0-0.2,0.2-0.3,0.4L45,68.3c-0.4,0.6-1.1,1-1.9,1h-5.9c-0.8,0-1.5-0.4-1.9-1l-5.7-11.2
		c-0.1-0.2-0.2-0.4-0.3-0.4c-0.1,0-0.2,0.2-0.2,0.6v23.8c6.4,2.8,13.7,3.6,22,2.4V57.3C51.1,56.9,51.1,56.7,50.9,56.7z M88.5,39.1
		c-2.6-9.6-8.3-16.2-17.1-20c-8.9-3.7-18.6-4.2-29.2-1.3c-12.1,3.3-21,8.5-26.5,15.6c-5.6,7.1-7,15.6-4.4,25.4
		c2,7.4,5.3,13.1,10,17.3V44.5c0-1.3,1.1-2.4,2.4-2.4h4.8c0.9,0,1.8,0.6,2.2,1.4l8.9,18c0.3,0.5,0.4,0.8,0.6,0.8s0.4-0.3,0.6-0.8
		l8.9-18c0.4-0.8,1.2-1.4,2.2-1.4h4.8c1.3,0,2.4,1.1,2.4,2.4v37.4c0.1,0,0.2,0,0.3-0.1c1.8-0.5,3.5-1,5.2-1.6v-25
		c0-0.6,0.5-1.2,1.2-1.2h5.4c0.6,0,1.2,0.5,1.2,1.2v21.6C77.7,74,82,70.3,85,66C90.2,58.6,91.3,49.7,88.5,39.1z M72.4,48.5
		c0,0.6-0.5,1.2-1.2,1.2h-5.7c-0.6,0-1.2-0.5-1.2-1.2v-5.2c0-0.6,0.6-1.2,1.2-1.2h5.7c0.6,0,1.2,0.5,1.2,1.2V48.5z"/>
</g>
</svg>
