<?xml version="1.0" encoding="utf-8"?>
<!-- Generator: Adobe Illustrator 19.0.0, SVG Export Plug-In . SVG Version: 6.00 Build 0)  -->
<svg version="1.1" id="图层_1" xmlns="http://www.w3.org/2000/svg" xmlns:xlink="http://www.w3.org/1999/xlink" x="0px" y="0px"
	 viewBox="212 -169.5 1000 1000" style="enable-background:new 212 -169.5 1000 1000;" xml:space="preserve">
<style type="text/css">
	.st0{fill:url(#SVGID_1_);}
	.st1{fill:url(#SVGID_2_);}
</style>
<g>
	<g>
		
			<linearGradient id="SVGID_1_" gradientUnits="userSpaceOnUse" x1="712.05" y1="-232.6387" x2="712.05" y2="211.5817" gradientTransform="matrix(1 0 0 1 0 339.53)">
			<stop  offset="0" style="stop-color:#1AE0EE"/>
			<stop  offset="1" style="stop-color:#00B2BF"/>
		</linearGradient>
		<path class="st0" d="M983.1,315.8h-78.3c-8.8-85.5-101.6-153.1-214.4-153.1c-17.4,0-34.4,1.3-50.7,4c-5-6.7-10.2-12.5-15.6-17.6
			c-0.9-0.8-1.8-1.6-2.6-2.4c-0.5-0.5-1-0.9-1.5-1.4c-48.4-42.7-105.8-27.5-106.6-27.3l-6.2,1.7l-2.6,0.6l7.2,18.6l26,69
			c-26.2,19.7-44.8,45.4-54.4,75H441v106.8h43.7c14.1,42.5,46.2,65.3,71.3,79v77.1h82.1V492c14.8,2.3,33.1,3.5,52.8,3.5
			c14.1,0,25.2-1.1,37.5-3.1v53.3h82.1v-77.9c58.5-30.2,93.6-80.4,94.9-135.7h13.2c-1.4,3.2-2.1,6.7-2.1,10.4
			c0,14.7,11.9,26.6,26.6,26.6s26.6-11.9,26.6-26.6c0-3.7-0.8-7.2-2.1-10.4H983L983.1,315.8L983.1,315.8z M943.2,352.8
			c-5.6,0-10.2-4.6-10.2-10.2c0-5.6,4.6-10.2,10.2-10.2s10.2,4.6,10.2,10.2C953.4,348.3,948.8,352.8,943.2,352.8z M798.8,455.5
			l-4.6,2.2v71.7h-49.3v-56.5l-9.7,1.8c-15.9,2.9-27.7,4.5-44.3,4.5c-23.3,0-44.3-1.7-59.4-4.9l-9.9-2.1v57.3h-49.3v-70.6l-4.4-2.3
			c-38.2-20-60.2-44.5-69.4-77.2l-1.7-6h-39.6v-73.9h38.4l1.7-6c8.2-29.6,26.5-55.2,52.9-74.2l7.7-5.5L527,133l-0.2-0.4
			c16.8-1.8,53.2-1.6,84.3,26.8c0.2,0.2,0.4,0.3,0.5,0.5l0.1,0.1c10.9,10.4,21.3,24.4,30.2,43.1c0.7,1.6,1.5,3.2,2.2,4.9l0,0
			c0.5,1.1,1,2.2,1.5,3.3l15.2-6.3c-0.5-1.2-1-2.2-1.5-3.3l0,0c0-0.1-0.1-0.2-0.1-0.3c-1.1-2.5-2.2-5-3.4-7.4
			c-2-4.3-4.1-8.4-6.3-12.2c13.2-1.8,26.9-2.7,40.8-2.7c109.6,0,198.8,67.3,198.8,150C889.1,380.6,855.4,427.9,798.8,455.5z"/>
	</g>
	
		<linearGradient id="SVGID_2_" gradientUnits="userSpaceOnUse" x1="757.95" y1="-232.6387" x2="757.95" y2="211.5817" gradientTransform="matrix(1 0 0 1 0 339.53)">
		<stop  offset="0" style="stop-color:#1AE0EE"/>
		<stop  offset="1" style="stop-color:#00B2BF"/>
	</linearGradient>
	<path class="st1" d="M709.8,223.8c34,3.2,64.2,12.8,90.6,27.3l5.7-15.4c-28.3-15.7-57.9-24.9-94.1-28.4L709.8,223.8z"/>
</g>
</svg>
