<?xml version="1.0" encoding="utf-8"?>
<!-- Generator: Adobe Illustrator 19.0.0, SVG Export Plug-In . SVG Version: 6.00 Build 0)  -->
<svg version="1.1" id="图层_1" xmlns="http://www.w3.org/2000/svg" xmlns:xlink="http://www.w3.org/1999/xlink" x="0px" y="0px"
	 viewBox="308 -440.1 1000 1000" style="enable-background:new 308 -440.1 1000 1000;" xml:space="preserve">
<style type="text/css">
	.st0{fill:url(#SVGID_1_);}
	.st1{fill:url(#SVGID_2_);}
	.st2{fill:url(#SVGID_3_);}
</style>
<g>
	<linearGradient id="SVGID_1_" gradientUnits="userSpaceOnUse" x1="808" y1="-164.6184" x2="808" y2="287.3471">
		<stop  offset="0" style="stop-color:#1AE0EE"/>
		<stop  offset="1" style="stop-color:#00B2BF"/>
	</linearGradient>
	<path class="st0" d="M584.4-166.4v452.5h447.2v-452.5H584.4z M1014.3,268.8H601.8V-149h412.5V268.8z"/>
	<linearGradient id="SVGID_2_" gradientUnits="userSpaceOnUse" x1="802.4166" y1="-164.6184" x2="802.4166" y2="287.3471">
		<stop  offset="0" style="stop-color:#1AE0EE"/>
		<stop  offset="1" style="stop-color:#00B2BF"/>
	</linearGradient>
	<path class="st1" d="M804.6,211.3c14.5,0,25.6-4.1,32.9-12.3c9.1-10.3,8.4-22.8,8.2-25.1V66.4h-17.4l0,107.7l0.1,1
		c0,0.7,0.4,7.4-3.8,12.2c-3.8,4.3-10.5,6.4-19.8,6.4c-26,0-28-13.3-28.1-14.8l-0.7,0l0-0.6l-16.6,0.8v0.7c0,0.1,0.1,8.4,6.9,16.7
		C771.5,203.3,782.7,211.3,804.6,211.3z"/>
	<linearGradient id="SVGID_3_" gradientUnits="userSpaceOnUse" x1="921.1353" y1="-164.6184" x2="921.1353" y2="287.3471">
		<stop  offset="0" style="stop-color:#1AE0EE"/>
		<stop  offset="1" style="stop-color:#00B2BF"/>
	</linearGradient>
	<path class="st2" d="M916,193.8c-18.1,0-27.8-9.5-28.7-15.9l-0.1-0.7l-17.2,2.4l0.1,0.7c2.1,15,18.8,30.9,45.9,30.9
		c19.4,0,35.5-5.4,45.2-15.3c7.6-7.8,11.4-18,11.3-30.3c-0.4-20.4-22.6-29-44.2-37.3c-15.7-6.1-33.5-13-34.9-22.5
		c-0.8-4.9,0.2-12.3,5.1-18.1c4.9-5.7,12.8-8.7,23.1-8.7c9.3,0,16.9,2.1,22.7,6.2c3.8,2.7,5.6,5.5,6.2,6.7l0.4,0.7l0,0l0.2,0.5
		l16.1-6.3l-0.2-0.7c-0.1-0.2-9.1-24.4-45.4-24.4c-19.5,0-30.5,8-36.2,14.8c-7.5,8.7-10.9,20.7-9.1,32c3,19.5,24.8,27.9,45.9,36.1
		l0.2,0.1c16.1,6.2,32.8,12.7,33,21.4c0.1,7.5-1.9,13.4-6.3,17.9C940.1,192.5,924.5,193.8,916,193.8z"/>
</g>
</svg>
