<?xml version="1.0" encoding="utf-8"?>
<!-- Generator: Adobe Illustrator 19.0.0, SVG Export Plug-In . SVG Version: 6.00 Build 0)  -->
<svg version="1.1" id="图层_1" xmlns="http://www.w3.org/2000/svg" xmlns:xlink="http://www.w3.org/1999/xlink" x="0px" y="0px"
	 viewBox="212 -169.5 1000 1000" style="enable-background:new 212 -169.5 1000 1000;" xml:space="preserve">
<style type="text/css">
	.st0{fill:url(#SVGID_1_);}
</style>
<linearGradient id="SVGID_1_" gradientUnits="userSpaceOnUse" x1="711.9942" y1="573.3398" x2="711.9942" y2="88.44" gradientTransform="matrix(1 0 0 -1 0 661.41)">
	<stop  offset="0" style="stop-color:#1AE0EE"/>
	<stop  offset="1" style="stop-color:#00B2BF"/>
</linearGradient>
<path class="st0" d="M927,573c-5.1,0-10.1-0.3-14.2-0.6c-3.2-0.2-5.5-0.3-7-0.3c-2.8,0-38.8-0.1-38.8-0.1
	c-98.9-0.3-361.6-1.2-372.3-1.6c-2.2-0.1-4.2-0.1-6.1-0.1c-5.8,0-10.9,0-15.2-2.5c-8.8-4.8-7.8-15.6-7.3-20.2l0.3-3.1
	c3.9-39.9,9.4-82.5,21.3-95.8c13.2-14.7,63.2-41.5,107.4-65.1l6.5-3.5c7.4-3.9,14.4-7.7,20.6-11.1c8.1-12,22.1-20.7,28.1-24.4
	c0.1-0.1,0.3-0.2,0.5-0.3c0.1-0.1,0.2-0.1,0.3-0.2c0.7-3.1,1.2-10.4,1.1-17.4c-2.1-4.7-12.9-29.2-15.7-44.4
	c-6.2-5.2-17.5-15-19.2-43.6c-0.6-11.4,5.4-20.8,8-24.4c-0.3-4-2.5-13.8-3.3-17c-1.3-5.7-2-9-2.2-11.2c-1.1-21.7,8.7-45.6,27.1-65.4
	c18.6-20.1,42.1-32,64.6-32.6h1.8c21.7,0,39.7,11,54.4,21.8c14.4,10.5,25.3,27.9,30.9,49c4.6,17.7,5,36.4,1.1,52.7
	c11,11.7,6.5,32.6,4.9,40.5c-2.8,13.4-13.9,25.5-18.6,30.2c-3.8,22-11.7,36.1-14.9,41.1c-0.2,8.9,0.1,17.7,0.7,21.4
	c4.5,2.8,17.9,11,25.4,25.3c21,12.9,50.5,28.9,74.2,41.7l2.5,1.4c26.1,14.1,48.6,26.3,57.3,32.8c8.6,6.4,12.7,24.9,18.2,61.5
	c0.9,6,1.8,12.5,2.6,15.4c0.2,0.9,0.5,1.9,0.8,3.2c5.5,21.3,6.6,29.9,4.2,35.1C951.8,571.8,937.4,573,927,573z M482.2,553.7
	c1.5,0.2,4.1,0.2,6.5,0.2c2,0,4.2,0,6.6,0.1c12.9,0.5,406.8,1.7,410.5,1.7c1.8,0,4,0.1,6.5,0.3l1.5,0.1c4.2,0.3,8.7,0.6,13.2,0.6
	c10.9,0,14.1-1.9,14.8-2.4c0.1-3.4-1.6-11.8-4.9-24.3l-0.8-3.4c-0.9-3.7-1.9-10.3-2.8-16.9l-0.1-0.4c-1.9-12.5-6.8-45.9-11.9-50.5
	c-7.8-5.8-30.7-18.3-57.7-32.8l-1.8-1c-25.7-13.9-54.8-29.7-75.3-42.5l-2.1-1.3l-1-2.2c-5.3-11.6-17-18.6-20.8-20.9l-0.3-0.2
	c-1.7-1.1-2.9-1.8-3.9-3.2c-1.3-1.7-4.6-6.3-3.6-34.5l0.1-2.6l1.6-2.1c0.1-0.1,10-13.7,13.8-38.8l0.4-2.9l2.2-2
	c3.7-3.3,13.7-14.1,15.6-23.5c3.2-15.3,2.4-24.4-2.3-27.2l-5.5-3.3l1.9-6.2c10.8-34.6-4-74-24.6-89c-12.6-9.2-27.7-18.6-44.8-18.6
	H712c-17.9,0.5-37.8,10.7-53.1,27.4c-15.1,16.4-23.6,36.4-22.7,53.5c0.1,1,1,5.2,1.8,8.4c4.2,18.1,5.3,24.9,1.2,29.6
	c-0.1,0.1-5.9,7.2-5.5,14.6c1.3,21.6,8.8,28.1,13.7,32.3c0.9,0.8,1.8,1.6,2.5,2.3l2.1,2.1l0.3,2.9c1.2,11,11.6,35.7,15.5,44.3
	l0.6,1.5l0.1,1.7c0.3,10.4-0.2,24-4.2,29.5c-1,1.4-2.1,2.2-4.5,3.7l-0.9,0.6l-0.5,0.3c-5.8,3.7-18,11.3-23.7,20.7l-1.1,1.6l-2,1.1
	c-5.2,2.8-10.8,5.8-16.7,9l-2.8,1.5c-3.1,1.7-6.3,3.4-9.5,5.1c-38.7,20.7-91.6,49-103,61.6c-4.5,5-11.1,24-17.1,86.5l-0.3,3.1
	C482.1,551.7,482.1,553.1,482.2,553.7z"/>
</svg>
