<?xml version="1.0" encoding="utf-8"?>
<!-- Generator: Adobe Illustrator 19.0.0, SVG Export Plug-In . SVG Version: 6.00 Build 0)  -->
<svg version="1.1" id="图层_1" xmlns="http://www.w3.org/2000/svg" xmlns:xlink="http://www.w3.org/1999/xlink" x="0px" y="0px"
	 viewBox="0 0 1000 1000" style="enable-background:new 0 0 1000 1000;" xml:space="preserve">
<style type="text/css">
	.st0{fill:#FFFFFF;}
</style>
<g>
	<polygon id="XMLID_16_" class="st0" points="453.3,402.2 453.3,171.1 379,171.1 300.6,249.5 	"/>
	<polygon id="XMLID_15_" class="st0" points="448.4,500.4 415.8,467.7 164,467.7 156.2,467.7 156.2,459.8 156.2,393.9 50,500.1 
		156.2,606.3 156.2,538.1 156.2,530.4 164,530.4 418.5,530.4 	"/>
	<polygon id="XMLID_14_" class="st0" points="249,278.8 254.7,284.4 422.2,452 453.3,452 453.3,424.3 284,255 278.5,249.5 284,244 
		356.9,171.1 171.8,171.1 171.8,356.1 243.6,284.4 	"/>
	<polygon id="XMLID_13_" class="st0" points="469,155.3 469,163.2 469,417.8 500,448.9 532.1,416.8 532.1,162.2 532.1,154.4 
		540,154.4 604.3,154.4 500,50.1 394.7,155.3 461.1,155.3 	"/>
	<polygon id="XMLID_12_" class="st0" points="249,301 171.8,378.2 171.8,452 400,452 	"/>
	<polygon id="XMLID_11_" class="st0" points="599.4,452 829.7,452 829.7,379.8 750.6,300.7 	"/>
	<polygon id="XMLID_10_" class="st0" points="721.6,249.5 716,255 547.7,423.3 547.7,452 577.2,452 745.1,284.1 750.6,278.6 
		756.2,284.1 829.7,357.6 829.7,170 642,170 716,244 	"/>
	<polygon id="XMLID_9_" class="st0" points="547.7,401.1 699.4,249.5 619.9,170 547.7,170 	"/>
	<polygon id="XMLID_8_" class="st0" points="547.7,600.9 547.7,828 621.4,828 698.1,751.3 	"/>
	<polygon id="XMLID_7_" class="st0" points="249.4,699.5 402.9,546 171.8,546 171.8,621.9 	"/>
	<polygon id="XMLID_6_" class="st0" points="750.6,699.5 829.7,620.3 829.7,546 597.3,546 	"/>
	<polygon id="XMLID_5_" class="st0" points="750.6,721.5 745.1,716.1 575.1,546 547.7,546 547.7,578.8 714.7,745.8 720.2,751.3 
		714.7,756.9 643.6,828 829.7,828 829.7,642.5 756.2,716.1 	"/>
	<polygon id="XMLID_4_" class="st0" points="845.5,459.8 845.5,467.7 837.6,467.7 583.7,467.7 551.3,500.1 581.6,530.4 837.6,530.4 
		845.5,530.4 845.5,538.1 845.5,604.6 950,500.1 845.5,395.5 	"/>
	<polygon id="XMLID_3_" class="st0" points="278.5,751.3 284,745.8 453.8,576 453.8,546 424.9,546 254.9,716.1 249.4,721.5 
		243.9,716.1 171.8,644 171.8,828 355.1,828 284,756.9 	"/>
	<polygon id="XMLID_2_" class="st0" points="453.8,598.2 300.6,751.3 377.3,828 453.8,828 	"/>
	<polygon id="XMLID_1_" class="st0" points="532.1,843.6 532.1,835.7 532.1,585.3 499.4,552.6 469.5,582.5 469.5,835.7 469.5,843.6 
		461.6,843.6 393,843.6 499.4,949.9 605.7,843.6 540,843.6 	"/>
</g>
</svg>
