<?xml version="1.0" encoding="utf-8"?>
<!-- Generator: Adobe Illustrator 19.0.0, SVG Export Plug-In . SVG Version: 6.00 Build 0)  -->
<svg version="1.1" id="图层_1" xmlns="http://www.w3.org/2000/svg" xmlns:xlink="http://www.w3.org/1999/xlink" x="0px" y="0px"
	 viewBox="450 0 1000 1000" style="enable-background:new 450 0 1000 1000;" xml:space="preserve">
<style type="text/css">
	.st0{fill:url(#SVGID_1_);}
</style>
<linearGradient id="SVGID_1_" gradientUnits="userSpaceOnUse" x1="950" y1="699.7708" x2="950" y2="285.0428" gradientTransform="matrix(1 0 0 -1 0 1000)">
	<stop  offset="0" style="stop-color:#A6DC55"/>
	<stop  offset="1" style="stop-color:#7FB333"/>
</linearGradient>
<path class="st0" d="M1152.1,421.3L1028.8,298l-33.9,33.9l-15.3-15.3l-41.1,41.1l15.3,15.3L747.9,579.1V702H871l206-205.9l15.4,15.4
	l41.1-41.1l-15.3-15.2L1152.1,421.3z M1028.8,319.9l101.3,101.3l-23,23l-101.3-101.3L1028.8,319.9z M989.6,408.6L791.2,607.1
	l-24.7-24.7l198.3-198.5L989.6,408.6z M763.5,671.1v-69.8l85.1,85.1h-69.8L763.5,671.1z M802.2,618.1l198.4-198.4l26,26L828.2,644
	L802.2,618.1z M867.6,683.4l-28.3-28.3l198.4-198.4l28.4,28.4L867.6,683.4z M1092.5,489.5l-132-131.9l19-19l131.9,131.9
	L1092.5,489.5z"/>
</svg>
