<?xml version="1.0" encoding="utf-8"?>
<!-- Generator: Adobe Illustrator 19.0.0, SVG Export Plug-In . SVG Version: 6.00 Build 0)  -->
<svg version="1.1" id="图层_1" xmlns="http://www.w3.org/2000/svg" xmlns:xlink="http://www.w3.org/1999/xlink" x="0px" y="0px"
	 viewBox="0 0 1000 1000" style="enable-background:new 0 0 1000 1000;" xml:space="preserve">
<style type="text/css">
	.st0{fill:url(#XMLID_2_);}
</style>
<linearGradient id="XMLID_2_" gradientUnits="userSpaceOnUse" x1="500" y1="299.1005" x2="500" y2="705.9536">
	<stop  offset="0" style="stop-color:#A6DC55"/>
	<stop  offset="1" style="stop-color:#7FB333"/>
</linearGradient>
<path id="XMLID_7_" class="st0" d="M762.6,576.7c-31.3,28.8-65.6,52.2-102,69.7L640.3,473c27.3,7,57.3-8.9,58.8-9.7l-7-14.7
	c-6.6,2.3-16,1.2-25.4-20.3c-12.4-28.2-37-28.5-40.3-28.4H487.2c-26.1-43.9-69.5-74.9-125.9-89.8c-43.6-11.5-79.2-9.5-80.7-9.4
	l-7.6,0.5v179.8c0,15.6,11.7,28.5,27.2,30.2c13.4,1.4,25.9-6,31.2-18.4l16.9-40h25.1l-43.2,189.1c-33-16.9-64.1-38.7-92.8-65.1
	l-11,12c38.3,35.2,80.8,62.6,126.4,81.5c47.2,19.5,96.8,29.4,147.3,29.4c50.5,0,100.1-9.9,147.3-29.4
	c45.6-18.9,88.1-46.3,126.4-81.5L762.6,576.7z M411.4,672.4l21.8-107.1c12.1,6.4,33.8,15.2,62.1,15.2c31.1,0,63.8-10.7,79.9-16.7
	l12.7,108.8c-28.8,7.1-58.2,10.7-87.9,10.7C470,683.3,440.4,679.6,411.4,672.4z M603.8,668.2l-15-127.9l-10.1,4.5
	c-0.4,0.2-44.4,19.4-83.5,19.4c-37.8,0-62.6-18.3-62.8-18.5l-10.3-7.9l-26.5,130.2c-12.4-3.7-24.6-8-36.7-13
	c-4.6-1.9-9.2-3.9-13.8-6l48.6-212.7h-56.4l-21.1,50c-2.4,5.7-8.2,9.2-14.4,8.5c-7.2-0.8-12.6-6.8-12.6-14V316.7
	c12.4,0,38.7,1.2,68.3,9.1c54.3,14.5,94,43.4,117.8,86.1l2.3,4.2h148.7l0.5,0c0.2,0,16.3-0.7,24.8,18.7c4.6,10.6,9.8,17.8,14.9,22.6
	c-9.8,1.8-20.3,1.8-31.5-3.6l-14.5-8.3L645,653.4c-1.3,0.6-2.6,1.1-3.9,1.7C628.8,660.1,616.4,664.5,603.8,668.2z"/>
</svg>
