<?xml version="1.0" encoding="utf-8"?>
<!-- Generator: Adobe Illustrator 19.0.0, SVG Export Plug-In . SVG Version: 6.00 Build 0)  -->
<svg version="1.1" id="图层_1" xmlns="http://www.w3.org/2000/svg" xmlns:xlink="http://www.w3.org/1999/xlink" x="0px" y="0px"
	 viewBox="0 0 1000 1000" enable-background="new 0 0 1000 1000" xml:space="preserve">
<g id="XMLID_1_">
	<linearGradient id="XMLID_3_" gradientUnits="userSpaceOnUse" x1="438.9062" y1="347.0978" x2="438.9062" y2="650.1755">
		<stop  offset="0" style="stop-color:#A6DC55"/>
		<stop  offset="1" style="stop-color:#7FB333"/>
	</linearGradient>
	<path id="XMLID_16_" fill="url(#XMLID_3_)" d="M482.7,395.1h-8.1c-43.8,0-79.4,35.6-79.4,79.4v8.1h87.6V395.1z M466.4,466.4h-54.5
		c3.7-28.3,26.2-50.8,54.5-54.5V466.4z"/>
	<linearGradient id="XMLID_4_" gradientUnits="userSpaceOnUse" x1="500" y1="347.0978" x2="500" y2="650.1755">
		<stop  offset="0" style="stop-color:#A6DC55"/>
		<stop  offset="1" style="stop-color:#7FB333"/>
	</linearGradient>
	<path id="XMLID_20_" fill="url(#XMLID_4_)" d="M763.7,495.5c-29.9-44.7-69.2-81.7-113.7-107.2c-46.7-26.7-97.2-40.2-150-40.2
		c-52.9,0-103.3,13.5-150,40.2c-44.4,25.4-83.7,62.5-113.7,107.2l-3,4.5l3,4.5c29.9,44.7,69.2,81.7,113.7,107.2
		c46.7,26.7,97.2,40.2,150,40.2c52.9,0,103.3-13.5,150-40.2c44.4-25.4,83.7-62.5,113.7-107.2l3-4.5L763.7,495.5z M364.4,500
		c0-74.8,60.8-135.6,135.6-135.6c74.8,0,135.6,60.8,135.6,135.6c0,74.8-60.8,135.6-135.6,135.6C425.2,635.6,364.4,574.8,364.4,500z
		 M253,500c28.1-40.6,64.4-74.2,105.1-97.5c15.8-9,32-16.4,48.6-22.3C371,408,348.1,451.4,348.1,500c0,48.6,23,92,58.6,119.8
		c-16.6-5.8-32.8-13.3-48.6-22.3C317.3,574.2,281.1,540.6,253,500z M641.9,597.5c-15.8,9-32,16.4-48.6,22.3
		C629,592,651.9,548.6,651.9,500c0-48.6-23-92-58.6-119.8c16.6,5.8,32.9,13.3,48.6,22.3c40.8,23.3,77,57,105.1,97.5
		C718.9,540.6,682.7,574.2,641.9,597.5z"/>
	<linearGradient id="XMLID_5_" gradientUnits="userSpaceOnUse" x1="499.0938" y1="347.0978" x2="499.0938" y2="650.1755">
		<stop  offset="0" style="stop-color:#A6DC55"/>
		<stop  offset="1" style="stop-color:#7FB333"/>
	</linearGradient>
	<path id="XMLID_25_" fill="url(#XMLID_5_)" d="M499.1,413.7h-8.1v77.2h-77.2v8.1c0,47.1,38.3,85.4,85.4,85.4
		c47.1,0,85.4-38.3,85.4-85.4C584.5,452,546.2,413.7,499.1,413.7z M499.1,568.2c-35.3,0-64.6-26.7-68.6-60.9h76.8v-76.8
		c34.3,4,60.9,33.3,60.9,68.6C568.2,537.2,537.2,568.2,499.1,568.2z"/>
</g>
</svg>
