<?xml version="1.0" encoding="utf-8"?>
<!-- Generator: Adobe Illustrator 19.0.0, SVG Export Plug-In . SVG Version: 6.00 Build 0)  -->
<svg version="1.1" id="图层_1" xmlns="http://www.w3.org/2000/svg" xmlns:xlink="http://www.w3.org/1999/xlink" x="0px" y="0px"
	 viewBox="0 0 1000 1000" style="enable-background:new 0 0 1000 1000;" xml:space="preserve">
<style type="text/css">
	.st0{fill:#FFFFFF;}
</style>
<g>
	<path id="XMLID_6_" class="st0" d="M592.6,188.8c-0.8,6.8-10.3,12.4-14.2,17.6c13.8,4.1,69,1.8,53.1-24.6
		c-13.4-22.4-56.6-17.5-77.8-12.4v1.8C562.6,173.2,594.4,174.1,592.6,188.8z"/>
	<path id="XMLID_5_" class="st0" d="M472.7,242.6c-24.8-5.5-50.4,5.4-74-3c-9.1-3.2-23.1-22.4-33.1-17.3c-6.5,3.3-7.3,12.9-7.4,19.2
		c-0.4,19.1,12.3,33.1,29.9,39.8c9.7,3.7,17.6-4.5,26.4-7.5c21.4-7.2,57.4-1,75.3-15C503.4,248.4,479.1,244,472.7,242.6z"/>
	<path id="XMLID_4_" class="st0" d="M590.5,721c-7.4-3-15.2,7.3-22.7,7.9c-13.6,1.1-22.8-14.5-37-10.7c-7.1,1.9-19.3,13.4-10,20.1
		c5,3.6,13,2.9,18.8,4.6c13.9,4.3,25,13.2,40.5,8.3C589.9,748.2,606.7,727.7,590.5,721z"/>
	<path class="st0" d="M949.8,507.5c0-2.5,0.2-5,0.2-7.5c0-0.6,0-1.2,0-1.8c0-14.3-0.7-28.5-2.2-42.7c-0.2-2.3-0.5-4.6-0.8-6.9
		c-0.5-4.2-1-8.4-1.6-12.6c-0.6-4.3-1.3-8.6-2.1-12.8c-0.3-1.6-0.6-3.2-0.8-4.7C904.9,213.2,728.2,56.8,513.7,50.3
		c-4-0.1-8-0.3-12-0.3c-0.6,0-1.1,0-1.7,0c-1.5,0-2.9,0.1-4.3,0.1c-5.7,0-11.4,0.2-17,0.4c-1.4,0.1-2.7,0.1-4.1,0.2
		c-6.5,0.4-13,0.8-19.5,1.5c-0.6,0.1-1.2,0.1-1.8,0.2c-66.3,6.8-131.8,28.3-191.5,65.4c-94.3,58.7-160.1,147.6-191.3,247.5
		c-0.2,0.6-0.4,1.3-0.6,1.9c-1.9,6.1-3.6,12.2-5.2,18.4c-0.3,1.1-0.6,2.1-0.8,3.2c-1.6,6.2-3,12.4-4.3,18.7
		c-0.2,0.8-0.4,1.6-0.5,2.4c-2.9,14.5-5.2,29.1-6.7,43.8c0,0.4-0.1,0.8-0.1,1.3c-0.7,6.6-1.2,13.3-1.5,19.9
		c-0.1,1.9-0.2,3.8-0.2,5.7c-0.2,5.1-0.3,10.2-0.4,15.2c0,1.4-0.1,2.7-0.1,4.1c0,1.5,0.1,2.9,0.1,4.4c0,3.7,0.1,7.3,0.3,11
		c0.1,4.1,0.3,8.3,0.5,12.4c0.1,1,0.2,2,0.2,3C67,765,261.8,950,500,950c242.8,0,440.5-192.3,449.6-432.9
		C949.7,513.9,949.7,510.7,949.8,507.5z M140.7,364.9c3.9-16.3,20.2-28.9,34.3-36.4c35.1-18.8,83.2-12.9,121.5-12.9
		c-3.8,16.8-9.1,34.5-1.4,51.1c7.7,16.6,26.8,26,41.9,34.7c36.3,21,74.9,39,114.5,52.7c20.3,7,41.9,15.8,63.4,17.9
		c5.3,0.5,19.8,2.5,22.4-4c3.2-7.8-14.1-20.9-16.1-29.2c-2.8-11.4-0.9-23.6-8.7-33.4c-11.5-14.5-31.8-19.1-48.6-24.2
		c-31.9-9.6-64-19-95.1-30.8c-28.6-10.9-64.5-27.7-58.9-64.8c7.8-51.6,18.2-133.9,80-143.7c39.5-6.2,78.4,12.5,118,9.6
		c52.9-3.9,107.9-26.9,153.2,16.2c16.8,15.9,23.7,38.8,32.1,59.7c16.2,40.6,41.7,85.9,43.6,130.4c1.1,24.3-12.3,51.1-8.7,74
		c16.6-9.6,24.2-26.4,29.9-44c31.1,4.7,88.9,33.9,104.8,61.7c18.8,32.9,3.1,83.7-19.3,111c-43.6,53.1-129.8,80.3-196.5,77.3
		c-140.1-6.2-279.3-48.8-392.8-133c-32.8-24.4-62.3-51.6-90-81.7C149.5,407,135.2,388.1,140.7,364.9z M500,922.8
		c-182.8,0-338.9-116.7-397.8-279.5c-3.1-8.6,3.3-17.7,12.5-17.7c20.6,0.1,44.7-0.1,58.7,0c9.5,0.2,21.8-2.4,29.7,0.5
		c19.9,7.1,34.6,41,63.5,49c11.1,3,25-6.1,24-15.2c-1.5-12.8-16.3-13.2-30.3-32.1c-18.4-24.4-34.2-54.8-15.3-75.7
		c5.5-6,25.6-16.5,45.3-4.7c30,18.1,34.6,44.9,49.2,49.7c11.7,3.8,18.9-6.2,30-1.3c24,10.7,41.4,50.8,67.5,62.5
		c32.4,14.4,73.7,2.2,93.7,2.3c19,0,24.9,4.6,48.7,5.5c12.9,0.3,27.5-2.4,41.7-2.6c18-0.3,26,2.1,39.5,3.1c13,0.9,23.1-4.5,31-3.4
		c11.4,1.6,5.2,23.1-1.6,45.7c-3,9.1-1.6,22.5-8.1,43.5c-5.2,16.6-24.8,41.4-42,61.9c-17.1,20.7-36.4,37.8-27.9,46.1
		c15.7,15.1,51.1-31.6,77.9-48.2c19.7-12.4,32.5-13.3,40.6-20.7c10.9-10.1,1-14.1,9.3-23.3c3.9-4.5,20.9-1.8,35-1.7
		c8.2,0.2,17.4-0.1,26.7-0.3c10.7-0.3,16.4,12.5,9.1,20.3C733.3,870.2,622.7,922.8,500,922.8z"/>
</g>
</svg>
