<?xml version="1.0" encoding="utf-8"?>
<!-- Generator: Adobe Illustrator 19.0.0, SVG Export Plug-In . SVG Version: 6.00 Build 0)  -->
<svg version="1.1" id="图层_1" xmlns="http://www.w3.org/2000/svg" xmlns:xlink="http://www.w3.org/1999/xlink" x="0px" y="0px"
	 viewBox="0 0 1000 1000" style="enable-background:new 0 0 1000 1000;" xml:space="preserve">
<style type="text/css">
	.st0{fill:#FFFFFF;}
</style>
<path class="st0" d="M500,50C251.5,50,50,251.5,50,500s201.5,450,450,450s450-201.5,450-450S748.5,50,500,50z M601,205
	c16.6-28.7,53.3-38.6,82.1-22s38.6,53.3,22,82.1c-16.6,28.7-53.3,38.6-82.1,22C594.2,270.4,584.4,233.7,601,205z M194,560.1
	c-33.2,0-60.1-26.9-60.1-60.1c0-33.2,26.9-60.1,60.1-60.1s60.1,26.9,60.1,60.1C254.1,533.2,227.2,560.1,194,560.1z M247.3,565.4
	c19-15.5,31.1-39,31.1-65.4c0-26.4-12.1-50-31.1-65.4c16.2-62.9,55.4-116.6,107.9-151.7l43.9,73.6c-45.1,31.8-74.6,84.2-74.6,143.6
	c0,59.4,29.5,111.8,74.6,143.6l-43.9,73.6C302.6,682,263.5,628.3,247.3,565.4z M683,817c-28.7,16.6-65.5,6.7-82.1-22
	c-16.6-28.7-6.7-65.5,22-82.1c28.7-16.6,65.5-6.7,82.1,22C721.6,763.7,711.8,800.4,683,817z M683,686.2c-22.9-8.7-49.3-7.4-72.2,5.8
	s-37.2,35.5-41.1,59.6C507.1,769,441,761.9,384.3,734l41.8-74.8c50.1,23.2,110.2,22.5,161.7-7.2c51.4-29.7,82.1-81.5,87-136.4
	l85.7,1.3C756.3,579.9,729.4,640.6,683,686.2z M674.8,484.4c-4.9-55-35.6-106.7-87-136.4c-51.4-29.7-111.6-30.4-161.7-7.2L384.3,266
	c56.7-28,122.8-35,185.4-17.6c3.9,24.2,18.2,46.4,41.1,59.6c22.9,13.2,49.3,14.5,72.2,5.8c46.4,45.5,73.3,106.2,77.4,169.3
	L674.8,484.4z"/>
</svg>
