<?xml version="1.0" encoding="utf-8"?>
<!-- Generator: Adobe Illustrator 18.1.1, SVG Export Plug-In . SVG Version: 6.00 Build 0)  -->
<svg version="1.1" id="图层_1" xmlns="http://www.w3.org/2000/svg" xmlns:xlink="http://www.w3.org/1999/xlink" x="0px" y="0px"
	 viewBox="0 0 200 200" enable-background="new 0 0 200 200" xml:space="preserve">
<path fill="#006EC3" d="M163.8,200H36.2C16.2,200,0,183.8,0,163.8V36.2C0,16.2,16.2,0,36.2,0h127.7c20,0,36.2,16.2,36.2,36.2v127.7
	C200,183.8,183.8,200,163.8,200z"/>
<g id="b1280af7-3d9c-4df8-b964-64382b97cbaf.psd">
	<g id="形状_1">
		<g>
			<path fill="#FFFFFF" d="M92.4,109c-1.2,0-4.1,0.1-5.1,0.2v13.7c0.9,0.1,4.1,0.2,5.1,0.2c6.2,0,8.6-2.3,8.6-6.9v-0.5
				C101,110.8,98.1,109,92.4,109z M69.1,88.9c5.7,0,8.4-3.4,8.4-11.1v-6.9c0-7.7-2.7-11.1-8.4-11.1c-5.7,0-8.4,3.4-8.4,11.1v6.9
				C60.6,85.5,63.4,88.9,69.1,88.9z M163.6,81.2c-2.3-8.6-6.2-15.8-11.6-21.6l-13.1,0c-3.4,0-4.6,1.2-4.6,5v5.8H150
				c0.6,0,1.2,0.5,1.2,1.2v4.2c0,0.6-0.5,1.2-1.2,1.2h-15.8v7c0,3.8,1.2,5,4.6,5h11.9c0.6,0,1.2,0.5,1.2,1.2v3.7
				c0,0.8-0.3,1.1-1.2,1.2c-1.9,0.3-4.2,0.8-11.1,0.8c-7.6,0-13.5-2-13.5-11.9V64.6c0-9.9,5.9-11.9,13.5-11.9c1.6,0,3,0,4.2,0.1
				c-2.6-1.7-5.4-3.2-8.5-4.5c-14.6-6.2-30.7-6.9-48.2-2.2c-6.9,1.9-13.1,4.1-18.7,6.7c0.2,0,0.4,0,0.6,0c9.6,0,16.6,5.4,16.6,18.2
				v6.9c0,12.8-7,18.2-16.6,18.2s-16.6-5.4-16.6-18.2v-6.9c0-4,0.7-7.2,1.9-9.8c-4.3,3.2-8,6.8-11,10.7c-9.2,11.8-11.6,25.8-7.3,42
				c2.1,7.9,5.2,14.7,9.2,20.4l6.8-25.9c1.4-5.4,5.5-5.9,8-5.9s6.6,0.5,8,5.9l9.4,36.1c0,0.1,0.1,0.2,0.1,0.3c0,0.6-0.5,1-1,1h-6.1
				c-0.5,0-1-0.5-1.1-1l-2.6-10.9H53.4l-1.9,7.7c3.7,3.5,8,6.4,12.8,8.6c14.2,6.5,31.2,7.1,51,1.7c9.4-2.5,17.6-5.9,24.5-10v-24.4
				c0-0.4-0.1-0.6-0.2-0.6c-0.1,0-0.2,0.2-0.3,0.3l-5.5,11.1c-0.3,0.6-1.1,1-1.8,1h-5.8c-0.7,0-1.5-0.3-1.8-1l-5.6-11.1
				c-0.1-0.2-0.2-0.3-0.3-0.3c-0.1,0-0.2,0.2-0.2,0.6v27c0,0.6-0.4,1.2-0.9,1.2h-5.8c-0.5,0-1-0.3-1-0.9v-40c0-1.3,1-2.3,2.3-2.3
				h4.7c0.9,0,1.7,0.6,2.1,1.4l8.7,17.8c0.3,0.5,0.4,0.8,0.6,0.8c0.2,0,0.3-0.3,0.6-0.8l8.7-17.8c0.4-0.8,1.2-1.4,2.1-1.4h4.7
				c1.3,0,2.3,1,2.3,2.3v31.7c4-3.3,7.5-6.9,10.3-10.9C166.3,113.4,168.2,98.6,163.6,81.2z M108.9,116.2c0,10.2-7.7,13.5-16.4,13.5
				c-1.5,0-3.8-0.2-5.1-0.2v15c0,0.6-0.5,1.2-1.1,1.2h-5.7c-0.6,0-1.1-0.5-1.1-1.2v-39.6c0-1.2,0.7-1.6,1.8-1.7
				c3-0.5,7-0.7,11.2-0.7c8.8,0,16.4,3.1,16.4,13.3V116.2z M121.5,93.6c0,1.3-1,2.3-2.3,2.3h-5.8c-1.4,0-2.6,0-3.5-2.1L97.2,65.5
				c-0.2-0.3-0.3-0.5-0.5-0.5c-0.2,0-0.3,0.1-0.3,0.5v29.3c0,0.6-0.5,1.2-1.1,1.2h-4.9c-0.6,0-1.1-0.5-1.1-1.2V55
				c0-1.3,1-2.3,2.3-2.3h6.2c1.2,0,1.8,0.3,2.5,1.9l13.4,29.9c0.1,0.3,0.3,0.5,0.5,0.5c0.1,0,0.3-0.2,0.3-0.5V53.8
				c0-0.6,0.5-1.1,1.1-1.1h4.9c0.6,0,1.1,0.5,1.1,1.1V93.6z M60.1,109.1c-0.6,0-0.7,0.2-0.9,0.9L55,127.1h10.1L61,110
				C60.8,109.3,60.6,109.1,60.1,109.1z"/>
		</g>
	</g>
</g>
</svg>
