<?xml version="1.0" encoding="utf-8"?>
<!-- Generator: Adobe Illustrator 18.1.1, SVG Export Plug-In . SVG Version: 6.00 Build 0)  -->
<svg version="1.1" id="图层_1" xmlns="http://www.w3.org/2000/svg" xmlns:xlink="http://www.w3.org/1999/xlink" x="0px" y="0px"
	 viewBox="0 0 1000 1000" enable-background="new 0 0 1000 1000" xml:space="preserve">
<g>
	<path fill="#FFFFFF" d="M248.9,295.8v408.4h502.2V295.8H248.9z M733.6,313.3v45H266.4v-45H733.6z M266.4,686.7V375.9h467.1v310.8
		H266.4z"/>
	<rect x="296.8" y="327.1" fill="#FFFFFF" width="31.3" height="17.6"/>
	<rect x="359.3" y="327.1" fill="#FFFFFF" width="31.3" height="17.6"/>
	<rect x="421.8" y="327.1" fill="#FFFFFF" width="31.3" height="17.6"/>
	<polygon fill="#FFFFFF" points="427.6,448.2 346.3,529.4 427.6,610.7 440,598.3 371.2,529.4 440,460.6 	"/>
	<polygon fill="#FFFFFF" points="560,460.6 628.8,529.4 560,598.3 572.4,610.7 653.7,529.4 572.4,448.2 	"/>
	
		<rect x="491.2" y="430.8" transform="matrix(-0.9345 -0.3559 0.3559 -0.9345 778.8131 1202.1558)" fill="#FFFFFF" width="17.6" height="197.2"/>
</g>
</svg>
