<?xml version="1.0" encoding="utf-8"?>
<!-- Generator: Adobe Illustrator 18.1.1, SVG Export Plug-In . SVG Version: 6.00 Build 0)  -->
<svg version="1.1" id="图层_1" xmlns="http://www.w3.org/2000/svg" xmlns:xlink="http://www.w3.org/1999/xlink" x="0px" y="0px"
	 viewBox="0 0 1000 1000" enable-background="new 0 0 1000 1000" xml:space="preserve">
<g>
	<linearGradient id="SVGID_1_" gradientUnits="userSpaceOnUse" x1="500" y1="291.3647" x2="500" y2="704.2545">
		<stop  offset="0" style="stop-color:#5BCCFF"/>
		<stop  offset="1" style="stop-color:#0096DA"/>
	</linearGradient>
	<path fill="url(#SVGID_1_)" d="M674.7,436.9H514v-38.5h134.6v-86.5h-96.1v-19.2h-19.2v38.5h96.1v48.1H494.7v57.7H325.3
		c-74.9,0-135.8,60.8-135.8,135.5c0,74.5,60.9,135,135.8,135c47.2,0,87.5-21.4,111.6-59h126.2c24,37.5,64.4,58.8,111.6,58.8
		c74.9,0,135.8-60.6,135.8-135.2S749.6,436.9,674.7,436.9z M674.7,687.9c-42.2,0-77.9-19.7-97.9-54.1l-2.8-4.8H426l-2.8,4.8
		c-20.1,34.5-55.8,54.2-97.9,54.2c-64.3,0-116.6-52-116.6-115.8c0-64.1,52.3-116.2,116.6-116.2h349.5c64.3,0,116.6,52,116.6,115.9
		S739,687.9,674.7,687.9z"/>
	<linearGradient id="SVGID_2_" gradientUnits="userSpaceOnUse" x1="321.7007" y1="291.3647" x2="321.7007" y2="704.2545">
		<stop  offset="0" style="stop-color:#5BCCFF"/>
		<stop  offset="1" style="stop-color:#0096DA"/>
	</linearGradient>
	<polygon fill="url(#SVGID_2_)" points="331.3,494.5 312.1,494.5 312.1,561.8 244.8,561.8 244.8,581 312.1,581 312.1,648.3 
		331.3,648.3 331.3,581 398.6,581 398.6,561.8 331.3,561.8 	"/>
	<linearGradient id="SVGID_3_" gradientUnits="userSpaceOnUse" x1="674.7346" y1="291.3647" x2="674.7346" y2="704.2545">
		<stop  offset="0" style="stop-color:#5BCCFF"/>
		<stop  offset="1" style="stop-color:#0096DA"/>
	</linearGradient>
	<path fill="url(#SVGID_3_)" d="M674.7,494.3c-42.8,0-77.6,34.8-77.6,77.6s34.8,77.6,77.6,77.6s77.6-34.8,77.6-77.6
		S717.5,494.3,674.7,494.3z M732.1,561.8H687v-47C710.1,519.8,728.1,538.4,732.1,561.8z M667.8,514v47.9h-50.5
		C621.7,536.7,642.2,517,667.8,514z M617.2,581h50.6v48.7C641.9,626.6,621.3,606.6,617.2,581z M687,628.9V581h45.3
		C728.5,604.8,710.3,623.9,687,628.9z"/>
</g>
</svg>
