<?xml version="1.0" encoding="utf-8"?>
<!-- Generator: Adobe Illustrator 18.1.1, SVG Export Plug-In . SVG Version: 6.00 Build 0)  -->
<svg version="1.1" id="图层_1" xmlns="http://www.w3.org/2000/svg" xmlns:xlink="http://www.w3.org/1999/xlink" x="0px" y="0px"
	 viewBox="0 0 1000 1000" enable-background="new 0 0 1000 1000" xml:space="preserve">
<path fill="#FFFFFF" d="M750.2,491.2h-54c-4.5-101.3-86.1-182.9-187.4-187.4v-54h-17.6v54c-101.3,4.5-182.9,86.1-187.4,187.4h-54
	v17.6h54c4.5,101.3,86.1,182.9,187.4,187.4v54h17.6v-54c101.3-4.5,182.9-86.1,187.4-187.4h54V491.2z M508.8,678.4v-53.3h-17.6v53.3
	c-91.6-4.5-165.1-78-169.6-169.6h53.3v-17.6h-53.3c4.5-91.6,78-165.1,169.6-169.6v53.3h17.6v-53.3c91.6,4.5,165.1,78,169.6,169.6
	h-53.3v17.6h53.3C673.9,600.4,600.4,673.9,508.8,678.4z"/>
</svg>
