<?xml version="1.0" encoding="utf-8"?>
<!-- Generator: Adobe Illustrator 19.0.0, SVG Export Plug-In . SVG Version: 6.00 Build 0)  -->
<svg version="1.1" id="图层_1" xmlns="http://www.w3.org/2000/svg" xmlns:xlink="http://www.w3.org/1999/xlink" x="0px" y="0px"
	 viewBox="0 0 262 50" style="enable-background:new 0 0 262 50;" xml:space="preserve">
<style type="text/css">
	.st0{fill:#FFFFFF;}
	.st1{opacity:0.3;fill-rule:evenodd;clip-rule:evenodd;fill:#444444;}
</style>
<g id="XMLID_221_">
	<g id="XMLID_226_">
		<g id="_x39_2b06b34-6a5f-4407-ace2-51c99506758f.psd_1_">
			<g id="形状_2_1_">
				<g id="XMLID_44_">
					<path id="XMLID_45_" class="st0" d="M30.1,30c0,0-0.1,0.1-0.2,0.3l-4.1,8.3c-0.3,0.5-0.8,0.7-1.4,0.7H20
						c-0.6,0-1.1-0.3-1.4-0.7l-4.2-8.3c-0.1-0.1-0.2-0.3-0.2-0.3c-0.1,0-0.1,0.1-0.1,0.4v17.5c4.7,2,10.1,2.6,16.2,1.8V30.4
						C30.2,30.1,30.2,30,30.1,30z M57.7,17c-1.9-7-6.1-11.9-12.6-14.7c-6.5-2.8-13.7-3.1-21.4-1C14.8,3.8,8.3,7.6,4.2,12.8
						C0.1,18-1,24.3,0.9,31.5c1.4,5.4,3.9,9.7,7.3,12.7V21c0-1,0.8-1.7,1.7-1.7h3.5c0.7,0,1.3,0.4,1.6,1l6.5,13.2
						c0.2,0.4,0.3,0.6,0.5,0.6c0.2,0,0.3-0.2,0.5-0.6l6.5-13.2c0.3-0.6,0.9-1,1.6-1h3.5c1,0,1.7,0.8,1.7,1.7v27.5
						c0.1,0,0.2,0,0.2-0.1c1.3-0.4,2.6-0.8,3.8-1.2V28.9c0-0.5,0.4-0.9,0.9-0.9h4c0.5,0,0.9,0.4,0.9,0.9v15.9c4-2.1,7.1-4.8,9.4-8
						C58.9,31.3,59.8,24.8,57.7,17z M45.9,23.9c0,0.5-0.4,0.9-0.9,0.9h-4.2c-0.5,0-0.9-0.4-0.9-0.9v-3.8c0-0.5,0.4-0.9,0.9-0.9H45
						c0.5,0,0.9,0.4,0.9,0.9V23.9z"/>
				</g>
			</g>
		</g>
	</g>
	<g id="XMLID_220_">
		<path id="XMLID_272_" class="st0" d="M127.6,41.1h-4.9c-0.4,0-0.8-0.4-0.9-0.8l-2.1-8.7h-10.6l-2.1,8.7c-0.1,0.4-0.5,0.8-0.9,0.8
			h-4.9c-0.5,0-0.8-0.3-0.8-0.8c0,0,0-0.1,0-0.2l7.5-28.8c1.1-4.3,4.4-4.7,6.4-4.7c2,0,5.3,0.4,6.4,4.7l7.5,28.8c0,0.1,0,0.2,0,0.2
			C128.4,40.8,128,41.1,127.6,41.1z M115.2,12.7c-0.1-0.6-0.3-0.7-0.7-0.7c-0.5,0-0.6,0.2-0.7,0.7l-3.3,13.7h8.1L115.2,12.7z"/>
		<path id="XMLID_278_" class="st0" d="M152.6,41.1h-4.2c-0.5,0-0.9-0.5-0.9-1v-15c0-4-0.4-5.2-3.9-5.2c-1.6,0-3.3,0.6-5.2,1.7v18.5
			c0,0.5-0.4,1-0.9,1h-4.2c-0.5,0-0.9-0.5-0.9-1V16.1c0-0.5,0.4-0.9,0.9-0.9h4c0.5,0,0.9,0.4,0.9,0.9v1c2.7-1.7,4.4-2.2,7.5-2.2
			c6.6,0,8,4.5,8,10.3v15C153.5,40.7,153.1,41.1,152.6,41.1z"/>
		<path id="XMLID_280_" class="st0" d="M178.8,40.3c-2.9,0.7-6.3,1.2-9.2,1.2c-7.4,0-11-4.4-11-11.5v-3.5c0-7.2,3.6-11.5,11-11.5
			c1.1,0,2.7,0.1,4.4,0.3V7c0-0.5,0.4-0.9,0.9-0.9h4.2c0.5,0,0.9,0.4,0.9,0.9v32C180.1,39.8,179.9,40,178.8,40.3z M174,20.2
			c-1.3-0.2-3.3-0.3-4.4-0.3c-4,0-4.9,2.8-4.9,6.6V30c0,3.8,1,6.6,4.9,6.6c1.7,0,3.5-0.1,4.4-0.3V20.2z"/>
		<path id="XMLID_283_" class="st0" d="M198.5,20c-2.5,0-4.4,0.6-6.3,1.7v18.5c0,0.5-0.4,1-0.9,1H187c-0.5,0-0.9-0.5-0.9-1V16.1
			c0-0.5,0.4-0.9,0.9-0.9h4c0.5,0,0.9,0.4,0.9,0.9v1c2.3-1.7,4.7-2.2,6.6-2.2c0.5,0,0.9,0.4,0.9,0.9v3.3C199.4,19.6,199,20,198.5,20
			z"/>
		<path id="XMLID_285_" class="st0" d="M212.3,41.5c-7.2,0-11-4.9-11-11.5v-3.7c0-6.6,3.8-11.5,11-11.5c7.2,0,11,4.9,11,11.5V30
			C223.3,36.6,219.5,41.5,212.3,41.5z M217.2,26.3c0-3.8-1.7-6.2-4.9-6.2c-3.2,0-4.9,2.4-4.9,6.2V30c0,3.8,1.7,6.2,4.9,6.2
			c3.2,0,4.9-2.4,4.9-6.2V26.3z"/>
		<path id="XMLID_288_" class="st0" d="M233.9,11.7h-4.5c-0.5,0-1-0.4-1-0.9v-4c0-0.5,0.5-0.9,1-0.9h4.5c0.5,0,0.9,0.4,0.9,0.9v4
			C234.8,11.3,234.4,11.7,233.9,11.7z M233.8,41.1h-4.2c-0.5,0-0.9-0.5-0.9-1V16.1c0-0.5,0.4-0.9,0.9-0.9h4.2c0.5,0,0.9,0.4,0.9,0.9
			v24.1C234.7,40.7,234.3,41.1,233.8,41.1z"/>
		<path id="XMLID_291_" class="st0" d="M260.1,40.3c-2.9,0.7-6.3,1.2-9.2,1.2c-7.4,0-11-4.4-11-11.5v-3.5c0-7.2,3.6-11.5,11-11.5
			c1.1,0,2.7,0.1,4.4,0.3V7c0-0.5,0.4-0.9,0.9-0.9h4.2c0.5,0,0.9,0.4,0.9,0.9v32C261.4,39.8,261.2,40,260.1,40.3z M255.3,20.2
			c-1.3-0.2-3.3-0.3-4.4-0.3c-4,0-4.9,2.8-4.9,6.6V30c0,3.8,1,6.6,4.9,6.6c1.7,0,3.5-0.1,4.4-0.3V20.2z"/>
	</g>
	<path id="XMLID_222_" class="st1" d="M79.2,6.5h0.9v37h-0.9V6.5z"/>
</g>
</svg>
