<?xml version="1.0" encoding="utf-8"?>
<!-- Generator: Adobe Illustrator 19.0.0, SVG Export Plug-In . SVG Version: 6.00 Build 0)  -->
<svg version="1.1" id="图层_1" xmlns="http://www.w3.org/2000/svg" xmlns:xlink="http://www.w3.org/1999/xlink" x="0px" y="0px"
	 viewBox="0 0.5 164.9 50" style="enable-background:new 0 0.5 164.9 50;" xml:space="preserve">
<style type="text/css">
	.st0{fill:#FFFFFF;}
	.st1{enable-background:new    ;}
	.st2{opacity:0.3;fill:#444444;enable-background:new    ;}
</style>
<g id="XMLID_24_">
	<g id="XMLID_2_">
		<g id="_x39_2b06b34-6a5f-4407-ace2-51c99506758f.psd">
			<g id="形状_2">
				<g id="XMLID_55_">
					<path id="XMLID_56_" class="st0" d="M30.1,30.6c0,0-0.1,0.1-0.2,0.3l-4.1,8.3c-0.3,0.5-0.8,0.7-1.4,0.7H20
						c-0.6,0-1.1-0.3-1.4-0.7l-4.2-8.3c-0.1-0.1-0.2-0.3-0.2-0.3c-0.1,0-0.1,0.1-0.1,0.4v17.5c4.7,2,10.1,2.6,16.2,1.8V31
						C30.2,30.7,30.2,30.6,30.1,30.6z M57.7,17.6c-1.9-7-6.1-11.9-12.6-14.7s-13.7-3.1-21.4-1C14.8,4.4,8.3,8.2,4.2,13.4
						S-1,24.9,0.9,32.1c1.4,5.4,3.9,9.7,7.3,12.7V21.6c0-1,0.8-1.7,1.7-1.7h3.5c0.7,0,1.3,0.4,1.6,1l6.5,13.2
						c0.2,0.4,0.3,0.6,0.5,0.6s0.3-0.2,0.5-0.6L29,20.9c0.3-0.6,0.9-1,1.6-1h3.5c1,0,1.7,0.8,1.7,1.7v27.5c0.1,0,0.2,0,0.2-0.1
						c1.3-0.4,2.6-0.8,3.8-1.2V29.5c0-0.5,0.4-0.9,0.9-0.9h4c0.5,0,0.9,0.4,0.9,0.9v15.9c4-2.1,7.1-4.8,9.4-8
						C58.9,31.9,59.8,25.4,57.7,17.6z M45.9,24.5c0,0.5-0.4,0.9-0.9,0.9h-4.2c-0.5,0-0.9-0.4-0.9-0.9v-3.8c0-0.5,0.4-0.9,0.9-0.9H45
						c0.5,0,0.9,0.4,0.9,0.9V24.5z"/>
				</g>
			</g>
		</g>
	</g>
	<g class="st1">
		<path class="st0" d="M105.7,12.2h-4.5c-0.5,0-1-0.4-1-0.9v-4c0-0.5,0.5-0.9,1-0.9h4.5c0.5,0,0.9,0.4,0.9,0.9v4
			C106.6,11.8,106.2,12.2,105.7,12.2z M105.5,41.6h-4.2c-0.5,0-0.9-0.5-0.9-1v-24c0-0.5,0.4-0.9,0.9-0.9h4.2c0.5,0,0.9,0.4,0.9,0.9
			v24C106.5,41.1,106.1,41.6,105.5,41.6z"/>
		<path class="st0" d="M125.2,42c-7.6,0-13.1-4.2-13.1-14.4v-6.2c0-10.1,5.5-14.4,13.1-14.4c7.6,0,13.1,4.2,13.1,14.4v6.2
			C138.3,37.7,132.8,42,125.2,42z M131.9,21.4c0-6.1-2.2-8.8-6.7-8.8s-6.7,2.7-6.7,8.8v6.2c0,6.1,2.2,8.8,6.7,8.8s6.7-2.7,6.7-8.8
			V21.4z"/>
		<path class="st0" d="M152.9,42c-3.5,0-5.9-0.3-8.1-0.8c-0.5-0.1-0.9-0.4-0.9-0.9V37c0-0.5,0.4-0.9,0.9-0.9c0,0,0,0,0.1,0
			c1.8,0.2,6.4,0.5,8.1,0.5c4.1,0,5.3-1.5,5.3-4.1c0-1.8-0.9-2.7-3.9-4.5l-6.1-3.6c-4.3-2.5-5.4-5.2-5.4-8.4c0-5.1,2.9-8.7,11.5-8.7
			c3,0,7.3,0.5,8.8,0.8c0.5,0.1,0.8,0.4,0.8,0.9v3.4c0,0.5-0.3,0.8-0.8,0.8c0,0,0,0-0.1,0c-3-0.3-6.1-0.5-9.1-0.5
			c-3.4,0-4.8,1.2-4.8,3.3c0,1.5,0.8,2.4,3.8,4.1l5.5,3.1c5.1,2.8,6.4,5.8,6.4,9.4C165,37,162.1,42,152.9,42z"/>
	</g>
	<path id="XMLID_25_" class="st2" d="M79.2,7.1h0.9v37h-0.9V7.1z"/>
</g>
</svg>
