<?xml version="1.0" encoding="utf-8"?>
<!-- Generator: Adobe Illustrator 19.0.0, SVG Export Plug-In . SVG Version: 6.00 Build 0)  -->
<svg version="1.1" id="图层_1" xmlns="http://www.w3.org/2000/svg" xmlns:xlink="http://www.w3.org/1999/xlink" x="0px" y="0px"
	 viewBox="155.4 -169.5 942.1 1000" style="enable-background:new 155.4 -169.5 942.1 1000;" xml:space="preserve">
<style type="text/css">
	.st0{fill:#FFFFFF;}
	.st1{opacity:0.6;}
</style>
<g id="_x35_f8ad069-0257-44c4-8c83-49b61449262d.psd">
	<g id="MI">
		<g id="形状_1_拷贝">
			<g>
				<path class="st0" d="M1086.9-6.1c-18.1-67.5-58.5-114.4-121.1-140.8c-62.7-26.4-131.5-29.6-206.5-9.5
					c-85.8,23-148.4,59.6-187.8,109.9C532,3.7,521.5,63.5,540.1,132.9c13.9,52,37.5,92.6,70.7,121.9v-223c0-9.1,7.5-16.6,16.6-16.6
					h34.1c6.7,0,12.5,4.1,15.4,9.9L739.8,152c2.1,3.7,2.9,5.8,4.6,5.8c1.7,0,2.5-2.1,4.6-5.8l62.8-126.8c2.9-5.8,8.7-9.9,15.4-9.9
					h34.1c9.2,0,16.6,7.5,16.6,16.6v263.7c0.7-0.2,1.4-0.4,2.2-0.5c12.8-3.4,24.9-7.2,36.6-11.3v-176c0-4.6,3.7-8.3,8.3-8.3h38.3
					c4.6,0,8.3,3.7,8.3,8.3v152.3c38.6-20.5,68.8-46.1,90.4-76.8C1098.5,131.3,1106.8,68.2,1086.9-6.1z M972.9,60
					c0,4.6-3.7,8.3-8.3,8.3h-40.4c-4.6,0-8.7-3.7-8.7-8.3V23.5c0-4.6,4.2-8.3,8.7-8.3h40.4c4.6,0,8.3,3.7,8.3,8.3V60z M821,118
					c-0.4,0-1.2,1.2-2.1,2.5l-40,79.2c-2.5,4.6-7.9,7-13.3,7h-42c-5.4,0-10.8-2.5-13.3-7l-40.4-79.2c-0.8-1.2-1.7-2.5-2.1-2.5
					c-0.8,0-1.2,1.2-1.2,4.1v167.5c45.4,19.4,97.2,25.2,155.7,17.2V122.1C822.2,119.2,821.8,118,821,118z"/>
			</g>
		</g>
		<g id="形状_1_拷贝_9">
			<g>
				<path class="st0" d="M218,475h23.4c3,0,6-1.4,7.4-4l22.2-44.4c0.5-0.7,0.9-1.4,1.2-1.4c0.5,0,0.7,0.7,0.7,2.3v108
					c0,2.3,1.6,4.6,3.7,4.6h23.4c2.1,0,3.9-1.2,3.9-3.5V377c0-5.1-4.2-9.3-9.3-9.3h-19c-3.7,0-6.9,2.3-8.6,5.6l-34.9,71.1
					c-1.2,2.1-1.6,3.3-2.5,3.3c-0.9,0-1.4-1.2-2.5-3.3l-34.9-71.1c-1.6-3.3-4.9-5.6-8.6-5.6h-19c-5.1,0-9.3,4.2-9.3,9.3v159.8
					c0,2.3,1.9,3.5,3.9,3.5h23.4c2.1,0,3.7-2.3,3.7-4.6v-108c0-1.6,0.2-2.3,0.7-2.3c0.2,0,0.7,0.7,1.2,1.4l22.4,44.4
					C212,473.7,215,475,218,475z M376,407.7c-36.3,0-55.3,24.6-55.3,57.8v18.8c0,33.2,19,57.8,55.3,57.8c36.3,0,55.3-24.6,55.3-57.8
					v-18.8C431.3,432.3,412.3,407.7,376,407.7z M400.8,484.3c0,19-8.6,31.4-24.7,31.4c-16.2,0-24.8-12.3-24.8-31.4v-18.8
					c0-19,8.6-31.4,24.8-31.4c16.2,0,24.7,12.3,24.7,31.4V484.3z M452.1,536.1c14.3,3.7,31.7,6,46.5,6c37.2,0,55.3-22.1,55.3-58.3
					V466c0-36.2-18-58.3-55.3-58.3c-5.6,0-13.7,0.5-22.2,1.6v-41.1c0-2.6-2.1-4.6-4.6-4.6h-21.3c-2.5,0-4.6,2.1-4.6,4.6v161.7
					C445.8,533.4,446.8,534.7,452.1,536.1z M476.4,434.4c6.5-0.9,16.7-1.6,22.2-1.6c19.9,0,24.8,14.2,24.8,33.2v17.9
					c0,19-4.9,33.2-24.8,33.2c-8.3,0-17.8-0.7-22.2-1.6V434.4z M594.3,540.3c2.5,0,4.6-2.3,4.6-4.9V414c0-2.6-2.1-4.6-4.6-4.6h-21.3
					c-2.5,0-4.6,2.1-4.6,4.6v121.5c0,2.6,2.1,4.9,4.6,4.9H594.3z M595,362.2h-22.4c-2.5,0-4.9,2.1-4.9,4.6v20.4
					c0,2.6,2.3,4.6,4.9,4.6H595c2.5,0,4.6-2.1,4.6-4.6v-20.4C599.7,364.3,597.6,362.2,595,362.2z M623.9,540.3h21.5
					c2.5,0,4.4-2.3,4.4-4.9V368.2c0-2.6-1.9-4.6-4.4-4.6h-21.5c-2.5,0-4.6,2.1-4.6,4.6v167.2C619.3,538,621.4,540.3,623.9,540.3z
					 M721.5,542.2c20.8,0,29.8-1.2,44.9-3.9c4.2-0.7,4.9-2.3,4.9-6v-15.3c0-2.3-1.9-3.5-4.2-3.5h-0.7c-9.7,0.9-25.7,2.3-42.6,2.3
					c-22.2,0-27.8-16-27.8-29.5v-0.7h75.4c3.2,0,4.6-2.1,4.6-5.8v-13c0-34.6-19.4-59-55.1-59c-35.4,0-55.5,22.8-55.5,59v17.2
					C665.6,529.6,698.4,542.2,721.5,542.2z M696.3,462.7c0-18.4,10.4-28.6,24.7-28.6s24.3,10.5,24.3,28.6v0.9h-49V462.7z
					 M182.9,610.6H160c-2.5,0-4.6,1.9-4.6,4.4v163.5c0,2.6,2.1,4.6,4.6,4.6h22.9c2.5,0,4.6-2.1,4.6-4.6V615.1
					C187.5,612.5,185.4,610.6,182.9,610.6z M275.2,650.6c-15.3,0-24.1,2.6-37.5,11.1v-4.9c0-2.6-2.1-4.6-4.6-4.6H213
					c-2.5,0-4.6,2.1-4.6,4.6v121.5c0,2.6,2.1,4.9,4.6,4.9h21.3c2.5,0,4.6-2.3,4.6-4.9V685c9.7-5.1,18.3-8.4,26.1-8.4
					c17.8,0,19.7,5.8,19.7,26v75.7c0,2.6,2.1,4.9,4.6,4.9h21.3c2.5,0,4.6-2.3,4.6-4.9v-75.7C315.2,673.1,308.5,650.6,275.2,650.6z
					 M399.1,713.5L368.8,695c-5.8-3.5-9.3-5.8-9.3-9.5c0-7.2,4.9-9.8,16-9.8c13.2,0,31.7,1.9,38.2,2.8h0.9c2.3,0,3.7-1.6,3.7-4.4
					v-13.5c0-2.8-1.4-4.6-4.2-5.3c-11.8-2.6-22.4-4.6-41.2-4.6c-29.4,0-43.9,11.6-43.9,34.8c0,13.5,8.1,25.1,19.4,32.1l31.7,19.5
					c7.4,4.6,10.2,7.4,10.2,11.8c0,6.3-2.1,11.1-16.4,11.1c-6.9,0-27.8-1.2-38.9-2.6h-0.9c-2.3,0-3.9,1.9-3.9,3.7v13.9
					c0,2.8,1.6,4.6,4.4,5.3c13,3.5,32.4,4.6,41.4,4.6c30.3,0,45.3-16,45.3-36.2C421.3,737,418.6,725.4,399.1,713.5z M461.8,652.2
					h-21.3c-2.5,0-4.6,2.1-4.6,4.6v121.5c0,2.6,2.1,4.9,4.6,4.9h21.3c2.5,0,4.6-2.3,4.6-4.9V656.9
					C466.4,654.3,464.4,652.2,461.8,652.2z M462.5,605.1h-22.4c-2.5,0-4.9,2.1-4.9,4.6v20.4c0,2.6,2.3,4.6,4.9,4.6h22.4
					c2.5,0,4.6-2.1,4.6-4.6v-20.4C467.1,607.2,465,605.1,462.5,605.1z M593,652.2h-54.1c-40,0-55.1,19.5-55.1,42.7v1.6
					c0,11.6,2.5,20,9.5,27.2c-6.2,4.4-9.3,11.6-9.3,18.8v0.2c0,8.4,3.9,16.5,10.4,21.4c-7.4,6.7-11.8,16-11.8,25.6v2.1
					c0,24.4,19.9,38.6,57.4,38.6c39.3,0,56.7-12.8,56.7-36.5v-1.6c0-24.9-20.4-29.7-51.8-37.2l-27.3-6.5c-5.3-1.2-7.9-3-7.9-7.7
					c0-2.1,1.2-4.2,3.9-6c4.6,1.9,13,3.9,25.2,3.9c34.9,0,54.8-13.2,54.8-42.3V695c0-8.1-2.1-13.2-5.8-18.6l7.6-3
					c2.8-1.2,3.7-1.6,3.7-5.1v-9.8C599.2,655,596.4,652.2,593,652.2z M512.5,789.7c0-8.4,2.3-11.4,5.8-16.3l20.6,4.9
					c24.3,5.8,27.3,8.8,27.3,13.9v1.6c0,8.4-3.9,13.2-26.1,13.2c-21.7,0-27.5-5.8-27.5-15.3V789.7z M563.6,697.3
					c0,11.6-5.6,18.4-24.7,18.4c-21.5,0-25-9.8-25-18.4v-1.9c0-10.9,5.3-19.7,25-19.7c19.9,0,24.7,8.6,24.7,19.7V697.3z
					 M674.6,650.6c-16.4,0-26.1,3.3-34.9,8.6v-48.1c0-2.6-2.1-4.6-4.6-4.6h-21.3c-2.5,0-4.6,2.1-4.6,4.6v167.2
					c0,2.6,2.1,4.9,4.6,4.9H635c2.5,0,4.6-2.3,4.6-4.9v-93.8c9.7-5.1,19-7.9,26.8-7.9c15.5,0,19,5.1,19,25.3v76.4
					c0,2.6,2.1,4.9,4.6,4.9h21.3c2.5,0,4.6-2.3,4.6-4.9v-76.4C716,673.4,706.5,650.6,674.6,650.6z M797.9,761.2h-12.3
					c-8.3,0-9-1.4-9-13v-72.9h20.8c2.5,0,4.6-2.1,4.6-4.6v-13.7c0-2.6-2.1-4.6-4.6-4.6h-20.8v-23.9c0-2.3-1.6-3.5-3.7-3.5H772
					l-21.5,3.7c-2.5,0.5-4.6,2.1-4.6,4.6v19h-21.7c-2.5,0-4.6,2.1-4.6,4.6v10.5c0,2.6,2.1,4.2,4.6,4.6l21.7,3.3v72.9
					c0,31.1,10.6,36.9,36.8,36.9c5.1,0,10.2-0.7,15.7-1.6c3-0.5,4.4-1.9,4.4-4.2v-14.6C802.7,762.3,800.9,761.2,797.9,761.2z"/>
			</g>
		</g>
		<g id="形状_1_拷贝_5" class="st1">
			<g>
				<path class="st0" d="M184.7,229.5c-17,0-29.3,9.8-29.3,33.1v14.3c0,23.4,12.3,33.1,29.3,33.1s29.3-9.8,29.3-33.1v-14.3
					C214,239.2,201.7,229.5,184.7,229.5z M199.6,276.9c0,14-4.8,20.3-14.9,20.3c-10.1,0-14.9-6.3-14.9-20.3v-14.3
					c0-14,4.8-20.3,14.9-20.3c10.1,0,14.9,6.3,14.9,20.3V276.9z M278.1,229.5h-8.8c-1.1,0-2,0.8-2,2l-0.1,57.6c0,0.6-0.3,1-0.5,1
					c-0.3,0-0.6-0.3-0.8-0.8L242,232.9c-1.2-2.8-2.4-3.4-4.5-3.4h-11.1c-2.3,0-4.1,1.9-4.1,4.2l-0.1,74.3c0,1.2,0.9,2.1,2.1,2.1h8.7
					c1.1,0,2-1,2-2.1l0.1-55.2c0-0.6,0.2-0.8,0.5-0.8c0.3,0,0.6,0.2,0.9,0.8l22.7,53.5c1.6,3.8,3.8,3.8,6.3,3.8h10.4
					c2.3,0,4.1-1.9,4.1-4.2l0.1-74.4C280.1,230.3,279.3,229.5,278.1,229.5z M333.7,231c-3.3-0.5-7.3-1.5-19.5-1.5
					c-13.4,0-23.8,3.7-23.8,21.8v37c0,18,10.4,21.8,23.8,21.8c12.2,0,16.3-1,19.5-1.5c1.5-0.2,2.1-0.7,2.1-2.2v-6.8
					c0-1.2-0.9-2.1-2.1-2.1h-21c-6,0-8.1-2.1-8.1-9.1v-13.7h27.9c1.1,0,2.1-1,2.1-2.1v-7.6c0-1.2-0.9-2.1-2.1-2.1h-27.9v-11.5
					c0-7,2.2-9.1,8.1-9.1h21c1.1,0,2.1-1,2.1-2.1v-6.8C335.7,231.7,335.2,231.2,333.7,231z M384.3,240.3
					c-2.5-9.9-9.9-10.8-14.3-10.8c-4.4,0-11.8,1-14.3,10.8l-16.9,67.5l-0.1,0.5c0,1.1,0.8,1.8,1.9,1.8h10.9c0.9,0,1.7-0.8,2-1.8
					l4.7-20.2h23.7l4.7,20.2c0.2,1,1,1.8,2,1.8h10.9c1,0,1.9-0.7,1.9-1.8l-0.1-0.5L384.3,240.3z M360.9,276.1l7.4-32.5
					c0.3-1.3,0.6-1.7,1.6-1.7c1,0,1.3,0.4,1.6,1.7l7.4,32.5H360.9z M429.2,229.4c-7.5,0-14.8,0.5-20.2,1.4c-2.1,0.3-3.3,1.1-3.3,3.2
					l0.1,74.1c0,1.2,0.9,2.1,2.1,2.1h10.3c1.1,0,2-1,2-2.1l-0.1-28.8c2.4,0.1,6.5,0.4,9.2,0.4c15.8,0,29.6-6,29.6-24.8v-1
					C458.8,235.1,445,229.4,429.2,229.4z M444.6,254.9c0,8.5-4.3,12.7-15.4,12.7c-1.7,0-7.5-0.2-9.2-0.3V242c1.9-0.2,7-0.4,9.2-0.4
					c10.3,0,15.4,3.4,15.4,12.3V254.9z M527,229.4h-8.4c-1.6,0-3.1,1.1-3.8,2.5l-15.5,32.5c-0.5,1-0.7,1.5-1.1,1.5
					c-0.4,0-0.6-0.5-1.1-1.5l-15.5-32.5c-0.7-1.5-2.2-2.5-3.8-2.5h-8.4c-2.3,0-4.1,1.9-4.1,4.2v75c0,1.1,0.8,1.6,1.7,1.6h10.4
					c0.9,0,1.6-1.1,1.6-2.1v-51.3c0-0.7,0.1-1.1,0.3-1.1l0.5,0.6l10,20.3c0.6,1.2,2,1.8,3.3,1.8h10.4c1.3,0,2.7-0.6,3.3-1.8
					l9.9-20.3l0.5-0.6c0.2,0,0.3,0.3,0.3,1.1v51.3c0,1.1,0.7,2.1,1.6,2.1h10.4c0.9,0,1.7-0.5,1.7-1.6v-75
					C531.1,231.3,529.2,229.4,527,229.4z"/>
			</g>
		</g>
	</g>
</g>
</svg>
