<?xml version="1.0" encoding="utf-8"?>
<!-- Generator: Adobe Illustrator 18.1.1, SVG Export Plug-In . SVG Version: 6.00 Build 0)  -->
<svg version="1.1" id="图层_1" xmlns="http://www.w3.org/2000/svg" xmlns:xlink="http://www.w3.org/1999/xlink" x="0px" y="0px"
	 viewBox="0 0 1000 1000" enable-background="new 0 0 1000 1000" xml:space="preserve">
<g>
	<g>
		<path fill="#FFFFFF" d="M684.7,285.2c-0.5,0-1.1,1.1-2.1,2.7l-39.2,78.4c-2.7,4.3-8.1,7-13.4,7h-41.4c-5.4,0-10.7-2.7-13.4-7
			l-39.7-78.4c-1.1-1.1-1.6-2.7-2.1-2.7c-1.1,0-1.1,1.1-1.1,4.3V456c45.1,19.3,96.1,25.2,154.1,17.2V289.5
			C685.8,286.8,685.8,285.2,684.7,285.2z M947.9,162.2c-17.7-67.1-58-113.9-119.8-139.6C766.4-3.8,698.2-7,624.1,12.9
			C538.7,36,476.9,72,437.7,121.9c-38.7,49.9-49.4,109.6-30.6,178.3c14,51.6,37.1,91.8,69.8,120.8V199.8c0-9.1,7.5-16.6,16.6-16.6
			h33.8c6.4,0,12.4,4.3,15,9.7l62.3,125.7c2.1,3.8,2.7,5.9,4.3,5.9s2.7-2.1,4.3-5.9l62.3-125.1c2.7-5.9,8.6-9.7,15-9.7h33.8
			c9.1,0,16.6,7.5,16.6,16.6v261.5c0.5,0,1.6-0.5,2.1-0.5c12.9-3.2,24.7-7,36-11.3V275c0-4.3,3.8-8.1,8.1-8.1h38.1
			c4.3,0,8.1,3.8,8.1,8.1v151.5c38.1-20.4,68.2-45.6,89.2-76.3C959.2,298.6,967.8,235.8,947.9,162.2z M835.1,227.7
			c0,4.3-3.8,8.1-8.1,8.1h-39.7c-4.3,0-8.6-3.8-8.6-8.1v-36c0-4.3,4.3-8.1,8.6-8.1H827c4.3,0,8.1,3.8,8.1,8.1V227.7z"/>
	</g>
	<g>
		<path fill="#FFFFFF" d="M186.9,724.5h-23.1c-2.1,0-3.8-2.1-3.8-4.8V612.8c0-1.6,0-2.1-0.5-2.1c0,0-0.5,0.5-1.1,1.6l-22,44
			c-1.6,2.7-4.3,3.8-7.5,3.8h-23.1c-3.2,0-5.9-1.6-7.5-3.8l-22-44c-0.5-0.5-1.1-1.6-1.1-1.6c-0.5,0-0.5,0.5-0.5,2.1v106.9
			c0,2.1-1.6,4.8-3.8,4.8H47.8c-2.1,0-3.8-1.1-3.8-3.2V563.4c0-4.8,4.3-9.1,9.1-9.1H72c3.8,0,7,2.1,8.6,5.4l34.9,70.4
			c1.1,2.1,1.6,3.2,2.7,3.2s1.6-1.1,2.7-3.2l34.9-70.4c1.6-3.2,4.8-5.4,8.6-5.4h18.8c4.8,0,9.1,4.3,9.1,9.1v157.9
			C191.2,723.4,189,724.5,186.9,724.5z"/>
		<path fill="#FFFFFF" d="M262.6,726.1c-36,0-54.8-24.2-54.8-56.9v-18.8c0-32.8,18.8-56.9,54.8-56.9s54.8,24.2,54.8,56.9v18.8
			C317.4,701.9,298.6,726.1,262.6,726.1z M287.3,650.4c0-18.8-8.6-31.1-24.7-31.1s-24.7,12.4-24.7,31.1v18.8
			c0,18.8,8.6,31.1,24.7,31.1s24.7-12.4,24.7-31.1V650.4z"/>
		<path fill="#FFFFFF" d="M384.5,726.1c-14.5,0-31.7-2.1-46.2-5.9c-5.4-1.6-6.4-2.7-6.4-6.4v-160c0-2.7,2.1-4.8,4.8-4.8h20.9
			c2.7,0,4.8,2.1,4.8,4.8v40.8c8.6-1.1,16.6-1.6,22-1.6c37.1,0,54.8,22,54.8,57.5v17.7C439.3,704.6,421.1,726.1,384.5,726.1z
			 M408.7,650.9c0-18.8-4.8-32.8-24.7-32.8c-5.4,0-15.6,0.5-22,1.6v80c4.3,1.1,14,1.6,22,1.6c19.9,0,24.7-14,24.7-32.8V650.9z"/>
		<path fill="#FFFFFF" d="M480.1,577.9h-22c-2.7,0-4.8-2.1-4.8-4.8v-19.9c0-2.7,2.1-4.8,4.8-4.8h22c2.7,0,4.8,2.1,4.8,4.8v20.4
			C484.4,575.7,482.8,577.9,480.1,577.9z M479.6,724.5h-20.9c-2.7,0-4.8-2.1-4.8-4.8V599.4c0-2.7,2.1-4.8,4.8-4.8h20.9
			c2.7,0,4.8,2.1,4.8,4.8v120.3C483.9,722.3,481.7,724.5,479.6,724.5z"/>
		<path fill="#FFFFFF" d="M530.1,724.5h-21.5c-2.7,0-4.8-2.1-4.8-4.8V554.2c0-2.7,2.1-4.8,4.8-4.8h21.5c2.7,0,4.3,2.1,4.3,4.8v165.4
			C534.4,722.3,532.8,724.5,530.1,724.5z"/>
		<path fill="#FFFFFF" d="M655.2,670.2h-74.7v0.5c0,13.4,5.4,29,27.4,29c16.6,0,32.8-1.6,42.4-2.1h0.5c2.1,0,4.3,1.1,4.3,3.2v15
			c0,3.8-0.5,5.4-4.8,5.9c-15,2.7-23.6,3.8-44.6,3.8c-23.1,0-55.3-12.4-55.3-57.5v-17.2c0-36,19.9-58.5,55.3-58.5
			c35.4,0,54.8,24.2,54.8,58.5v12.9C660,668.1,658.4,670.2,655.2,670.2z M629.4,647.7c0-17.7-9.7-28.5-24.2-28.5
			s-24.7,10.2-24.7,28.5v1.1h48.9V647.7z"/>
		<path fill="#FFFFFF" d="M70.9,953.3H48.3c-2.7,0-4.8-2.1-4.8-4.8V786.8c0-2.7,2.1-4.3,4.8-4.3h22.6c2.7,0,4.8,1.6,4.8,4.3v161.7
			C75.7,951.1,73.6,953.3,70.9,953.3z"/>
		<path fill="#FFFFFF" d="M197.6,953.3h-20.9c-2.7,0-4.8-2.1-4.8-4.8v-74.7c0-19.9-1.6-25.8-19.3-25.8c-8.1,0-16.1,3.2-25.8,8.1
			v92.4c0,2.7-2.1,4.8-4.8,4.8h-21c-2.7,0-4.8-2.1-4.8-4.8V828.1c0-2.7,2.1-4.8,4.8-4.8h19.9c2.7,0,4.8,2.1,4.8,4.8v4.8
			c13.4-8.6,22-11.3,37.1-11.3c33.3,0,39.7,22,39.7,51.6v74.7C202.5,951.1,200.3,953.3,197.6,953.3z"/>
		<path fill="#FFFFFF" d="M262.6,954.9c-9.1,0-28.5-1.1-41.4-4.8c-2.7-0.5-4.3-2.7-4.3-5.4v-14c0-1.6,1.6-3.8,3.8-3.8
			c0.5,0,0.5,0,1.1,0c11.3,1.6,31.7,2.7,38.7,2.7c14.5,0,16.1-4.8,16.1-11.3c0-4.3-2.7-7-10.2-11.8l-31.7-19.3
			c-11.3-7-19.3-18.3-19.3-31.7c0-23.1,14.5-34.4,43.5-34.4c18.8,0,29,2.1,40.8,4.8c2.7,0.5,4.3,2.7,4.3,5.4v13.4
			c0,2.7-1.6,4.3-3.8,4.3c-0.5,0-0.5,0-1.1,0c-6.4-1.1-24.7-2.7-38.1-2.7c-11.3,0-16.1,2.7-16.1,9.7c0,3.8,3.2,5.9,9.1,9.7
			l30.1,18.3c19.3,11.8,22,23.1,22,34.9C307.7,939.3,292.7,954.9,262.6,954.9z"/>
		<path fill="#FFFFFF" d="M348.5,806.7h-22c-2.7,0-4.8-2.1-4.8-4.8v-20.4c0-2.7,2.1-4.8,4.8-4.8h22c2.7,0,4.8,2.1,4.8,4.8v20.4
			C352.8,804.5,351.2,806.7,348.5,806.7z M348,953.3h-21.5c-2.7,0-4.8-2.1-4.8-4.8V828.1c0-2.7,2.1-4.8,4.8-4.8H348
			c2.7,0,4.8,2.1,4.8,4.8v120.3C352.3,951.1,350.2,953.3,348,953.3z"/>
		<path fill="#FFFFFF" d="M480.7,844.8l-7.5,3.2c3.8,5.4,5.9,10.2,5.9,18.3v1.6c0,28.5-19.9,41.9-54.2,41.9
			c-12.4,0-20.4-2.1-25.2-3.8c-2.7,1.6-3.8,3.8-3.8,5.9c0,4.8,2.7,6.4,8.1,7.5l26.9,6.4c31.1,7.5,51.6,12.4,51.6,36.5v1.6
			c0,23.6-17.2,36-56.4,36c-37.1,0-56.9-14-56.9-38.1v-2.1c0-9.7,4.3-18.8,11.8-25.2c-6.4-4.8-10.2-12.9-10.2-20.9l0,0
			c0-7,3.2-14.5,9.1-18.8c-7-7-9.7-15.6-9.7-26.9v-1.6c0-23.1,15-42.4,54.8-42.4h53.7c3.2,0,6.4,2.7,6.4,6.4v9.7
			C484.4,843.2,483.4,843.7,480.7,844.8z M451.1,962.4c0-4.8-3.2-8.1-26.9-14l-20.4-4.8c-3.2,4.8-5.9,8.1-5.9,16.1v2.1
			c0,9.7,5.9,15,27.4,15c22,0,25.8-4.8,25.8-12.9V962.4z M449,866.3c0-11.3-4.8-19.3-24.7-19.3c-19.3,0-24.7,8.6-24.7,19.3v1.6
			c0,8.6,3.2,18.3,24.7,18.3c18.8,0,24.7-6.4,24.7-18.3V866.3z"/>
		<path fill="#FFFFFF" d="M595.6,953.3h-20.9c-2.7,0-4.8-2.1-4.8-4.8v-75.7c0-19.9-3.2-25.2-18.8-25.2c-8.1,0-17.2,2.7-26.9,8.1
			v92.9c0,2.7-2.1,4.8-4.8,4.8h-20.9c-2.7,0-4.8-2.1-4.8-4.8V783c0-2.7,2.1-4.8,4.8-4.8H520c2.7,0,4.8,2.1,4.8,4.8v47.3
			c8.6-5.4,18.3-8.6,34.9-8.6c31.7,0,41.4,22.6,41.4,50.5v75.7C599.9,951.1,598.3,953.3,595.6,953.3z"/>
		<path fill="#FFFFFF" d="M682.1,953.3c-5.4,1.1-10.7,1.6-15.6,1.6c-25.8,0-36.5-5.9-36.5-36.5v-72l-21.5-3.2
			c-2.7-0.5-4.8-2.1-4.8-4.8v-10.2c0-2.7,2.1-4.8,4.8-4.8H630v-18.8c0-2.7,2.1-4.3,4.8-4.8l21.5-3.8c0,0,0.5,0,1.1,0
			c2.1,0,3.8,1.1,3.8,3.2v23.6h20.4c2.7,0,4.8,2.1,4.8,4.8V841c0,2.7-2.1,4.8-4.8,4.8h-20.4v72.5c0,11.3,0.5,12.9,9.1,12.9h12.4
			c3.2,0,4.8,1.1,4.8,3.2V949C686.4,951.7,684.7,952.7,682.1,953.3z"/>
	</g>
</g>
<g>
	<path fill="#FFFFFF" d="M100.4,466.7v-14c0-23.1-12.4-32.8-29-32.8s-29.5,9.1-29.5,32.8v14c0,23.1,12.4,32.8,29,32.8
		S100.4,489.8,100.4,466.7z M85.9,466.7c0,14-4.8,19.9-15,19.9s-15-6.4-15-19.9v-14c0-14,4.8-19.9,15-19.9s15,6.4,15,19.9V466.7z"/>
	<path fill="#FFFFFF" d="M166,495.2v-73.6c0-1.1-1.1-2.1-2.1-2.1h-8.6c-1.1,0-2.1,1.1-2.1,2.1v56.9c0,0.5-0.5,1.1-0.5,1.1
		c-0.5,0-0.5-0.5-1.1-1.1L128,423.2c-1.1-2.7-2.1-3.2-4.3-3.2h-11.3c-2.1,0-4.3,2.1-4.3,4.3v73.6c0,1.1,1.1,2.1,2.1,2.1h8.6
		c1.1,0,2.1-1.1,2.1-2.1v-54.8c0-0.5,0-1.1,0.5-1.1s0.5,0,1.1,1.1l22.6,53.2c1.6,3.8,3.8,3.8,6.4,3.8h10.2
		C163.8,499.5,166,497.9,166,495.2z"/>
	<path fill="#FFFFFF" d="M221.3,495.7v-7c0-1.1-1.1-2.1-2.1-2.1h-20.9c-5.9,0-8.1-2.1-8.1-9.1V464H218c1.1,0,2.1-1.1,2.1-2.1v-7.5
		c0-1.1-1.1-2.1-2.1-2.1h-27.9V441c0-7,2.1-9.1,8.1-9.1h20.9c1.1,0,2.1-1.1,2.1-2.1v-7c0-1.6-0.5-2.1-2.1-2.1
		c-3.2-0.5-7.5-1.6-19.3-1.6c-13.4,0-23.6,3.8-23.6,21.5V478c0,17.7,10.2,21.5,23.6,21.5c12.4,0,16.1-1.1,19.3-1.6
		C220.7,497.9,221.3,497.3,221.3,495.7z"/>
	<path fill="#FFFFFF" d="M286.3,497.9C286.3,497.9,286.3,497.3,286.3,497.9l-16.6-67.7c-2.7-9.7-9.7-10.7-14-10.7
		c-4.3,0-11.8,1.1-14,10.7l-17.2,67.1v0.5c0,1.1,1.1,1.6,1.6,1.6h10.7c1.1,0,1.6-1.1,2.1-1.6l4.8-19.9h23.6l4.8,19.9
		c0,1.1,1.1,1.6,2.1,1.6h10.7C285.7,499.5,286.3,498.9,286.3,497.9z M264.2,466.2H246l7.5-32.2c0.5-1.1,0.5-1.6,1.6-1.6
		s1.1,0.5,1.6,1.6L264.2,466.2z"/>
	<path fill="#FFFFFF" d="M343.7,444.7v-1.1c0-18.8-14-24.2-29.5-24.2c-7.5,0-14.5,0.5-19.9,1.6c-2.1,0.5-3.2,1.1-3.2,3.2v73.6
		c0,1.1,1.1,2.1,2.1,2.1h10.2c1.1,0,2.1-1.1,2.1-2.1v-28.5c2.1,0,6.4,0.5,9.1,0.5C329.8,469.4,343.7,463.5,343.7,444.7z
		 M329.2,444.7c0,8.6-4.3,12.9-15.6,12.9c-1.6,0-7.5,0-9.1-0.5v-25.2c1.6,0,7-0.5,9.1-0.5c10.2,0,15.6,3.2,15.6,12.4V444.7z"/>
	<path fill="#FFFFFF" d="M415.1,497.9v-74.1c0-2.1-1.6-4.3-4.3-4.3h-8.6c-1.6,0-3.2,1.1-3.8,2.7l-15.6,32.2
		c-0.5,1.1-0.5,1.6-1.1,1.6c-0.5,0-0.5-0.5-1.1-1.6L365,422.2c-0.5-1.6-2.1-2.7-3.8-2.7h-8.6c-2.1,0-4.3,2.1-4.3,4.3v74.1
		c0,1.1,1.1,1.6,1.6,1.6h10.2c1.1,0,1.6-1.1,1.6-2.1v-51c0-0.5,0-1.1,0.5-1.1l0.5,0.5l9.7,19.9c0.5,1.1,2.1,1.6,3.2,1.6h10.2
		c1.1,0,2.7-0.5,3.2-1.6l9.7-19.9c0-0.5,0.5-0.5,0.5-0.5s0.5,0.5,0.5,1.1v51c0,1.1,0.5,2.1,1.6,2.1h10.2
		C414.6,499.5,415.1,498.9,415.1,497.9z"/>
</g>
</svg>
