<?xml version="1.0" encoding="utf-8"?>
<!-- Generator: Adobe Illustrator 18.1.1, SVG Export Plug-In . SVG Version: 6.00 Build 0)  -->
<svg version="1.1" id="图层_1" xmlns="http://www.w3.org/2000/svg" xmlns:xlink="http://www.w3.org/1999/xlink" x="0px" y="0px"
	 viewBox="0 0 1000 1000" enable-background="new 0 0 1000 1000" xml:space="preserve">
<linearGradient id="SVGID_1_" gradientUnits="userSpaceOnUse" x1="500" y1="335.4531" x2="500" y2="683.6917">
	<stop  offset="0" style="stop-color:#5BCCFF"/>
	<stop  offset="1" style="stop-color:#0096DA"/>
</linearGradient>
<path fill="url(#SVGID_1_)" d="M597.4,328.9c-36.2,0-69.7,11.3-97.4,30.5c-27.7-19.2-61.2-30.5-97.4-30.5
	c-94.4,0-171.1,76.8-171.1,171.1c0,94.4,76.8,171.1,171.1,171.1c36.2,0,69.7-11.3,97.4-30.5c27.7,19.2,61.2,30.5,97.4,30.5
	c94.4,0,171.1-76.8,171.1-171.1C768.5,405.6,691.7,328.9,597.4,328.9z M402.6,653.4c-84.6,0-153.4-68.8-153.4-153.4
	c0-84.6,68.8-153.4,153.4-153.4c30.4,0,58.8,8.9,82.7,24.3c-36.1,31.4-59.1,77.6-59.1,129.2c0,51.5,22.9,97.8,59.1,129.2
	C461.4,644.5,433.1,653.4,402.6,653.4z M556.1,500c0,47.7-21.9,90.3-56.1,118.5c-34.2-28.2-56.1-70.8-56.1-118.5
	c0-47.7,21.9-90.3,56.1-118.5C534.2,409.7,556.1,452.3,556.1,500z M597.4,653.4c-30.4,0-58.8-8.9-82.7-24.3
	c36.1-31.4,59.1-77.6,59.1-129.2c0-51.5-22.9-97.8-59.1-129.2c23.9-15.3,52.2-24.3,82.7-24.3c84.6,0,153.4,68.8,153.4,153.4
	C750.8,584.6,682,653.4,597.4,653.4z"/>
</svg>
