<?xml version="1.0" encoding="utf-8"?>
<!-- Generator: Adobe Illustrator 18.1.1, SVG Export Plug-In . SVG Version: 6.00 Build 0)  -->
<svg version="1.1" id="图层_1" xmlns="http://www.w3.org/2000/svg" xmlns:xlink="http://www.w3.org/1999/xlink" x="0px" y="0px"
	 viewBox="0 0 1000 1000" enable-background="new 0 0 1000 1000" xml:space="preserve">
<g>
	<path fill="#FFFFFF" d="M495.2,351.9c-63.5,0-117.7,40.3-138.7,96.5c-8.5,1.6-14.9,9-14.9,18c0,5.8,2.7,10.8,6.9,14.2
		c-0.8,6.4-1.4,12.8-1.4,19.4c0,49.3,24.3,92.9,61.5,119.9c0,0.4-0.1,0.7-0.1,1.1c0,10.1,8.2,18.3,18.3,18.3c3.8,0,7.3-1.2,10.3-3.2
		c17.9,7.7,37.5,11.9,58.2,11.9c81.7,0,148.1-66.4,148.1-148.1S576.9,351.9,495.2,351.9z M495.2,630.6c-17.8,0-34.7-3.6-50.2-10
		c-0.3-9.9-8.3-17.8-18.3-17.8c-3.2,0-6.2,0.9-8.8,2.3c-32.3-23.8-53.3-61.9-53.3-105c0-5.5,0.5-10.9,1.1-16.3
		c7.3-2.4,12.5-9.2,12.5-17.3c0-4.9-1.9-9.3-5.1-12.6c18.7-49.2,66.3-84.4,122-84.4c72,0,130.6,58.6,130.6,130.6
		S567.2,630.6,495.2,630.6z"/>
	<path fill="#FFFFFF" d="M495.2,441.1c-32.5,0-58.9,26.4-58.9,58.9s26.4,58.9,58.9,58.9c32.5,0,58.9-26.4,58.9-58.9
		S527.7,441.1,495.2,441.1z M495.2,541.3c-22.8,0-41.3-18.5-41.3-41.3c0-22.8,18.5-41.3,41.3-41.3s41.3,18.5,41.3,41.3
		C536.5,522.8,518,541.3,495.2,541.3z"/>
	<path fill="#FFFFFF" d="M736.3,494.6c0-7.4-4.4-13.7-10.6-16.6c-11.1-117.4-110.2-209.5-230.4-209.5
		c-127.7,0-231.5,103.8-231.5,231.5s103.8,231.5,231.5,231.5c124.1,0,225.6-98.1,231.2-220.8C732.3,507.6,736.3,501.6,736.3,494.6z
		 M495.2,713.9c-118,0-213.9-96-213.9-213.9s96-213.9,213.9-213.9c110.9,0,202.4,84.9,212.9,193.1c-5.1,3.3-8.5,8.9-8.5,15.4
		c0,6.8,3.8,12.7,9.3,15.9C703.4,623.6,609.7,713.9,495.2,713.9z"/>
</g>
</svg>
