<?xml version="1.0" encoding="utf-8"?>
<!-- Generator: Adobe Illustrator 18.1.1, SVG Export Plug-In . SVG Version: 6.00 Build 0)  -->
<svg version="1.1" id="图层_1" xmlns="http://www.w3.org/2000/svg" xmlns:xlink="http://www.w3.org/1999/xlink" x="0px" y="0px"
	 viewBox="0 0 1000 1000" enable-background="new 0 0 1000 1000" xml:space="preserve">
<g>
	<polygon fill="#FFFFFF" points="741.4,658 302.5,658 302.5,298.1 285,298.1 285,315.7 258.6,315.7 258.6,333.2 285,333.2 
		285,403.5 258.6,403.5 258.6,421 285,421 285,491.2 258.6,491.2 258.6,508.8 285,508.8 285,570.2 258.6,570.2 258.6,587.8 
		285,587.8 285,658 258.6,658 258.6,675.5 285,675.5 285,701.9 302.5,701.9 302.5,675.5 364,675.5 364,701.9 381.5,701.9 
		381.5,675.5 451.7,675.5 451.7,701.9 469.3,701.9 469.3,675.5 530.7,675.5 530.7,701.9 548.3,701.9 548.3,675.5 618.5,675.5 
		618.5,701.9 636,701.9 636,675.5 697.5,675.5 697.5,701.9 715,701.9 715,675.5 741.4,675.5 	"/>
	<polygon fill="#FFFFFF" points="445.7,434.3 580.8,576.6 698.6,325.9 682.7,318.4 575.8,545.9 440.7,403.6 346.8,602.9 
		362.7,610.4 	"/>
</g>
</svg>
