<?xml version="1.0" encoding="utf-8"?>
<!-- Generator: Adobe Illustrator 18.1.1, SVG Export Plug-In . SVG Version: 6.00 Build 0)  -->
<svg version="1.1" id="图层_1" xmlns="http://www.w3.org/2000/svg" xmlns:xlink="http://www.w3.org/1999/xlink" x="0px" y="0px"
	 viewBox="0 0 1000 1000" enable-background="new 0 0 1000 1000" xml:space="preserve">
<g>
	<linearGradient id="SVGID_1_" gradientUnits="userSpaceOnUse" x1="500" y1="301.164" x2="500" y2="696.84">
		<stop  offset="0" style="stop-color:#5BCCFF"/>
		<stop  offset="1" style="stop-color:#0096DA"/>
	</linearGradient>
	<path fill="url(#SVGID_1_)" d="M412.8,421.5v-69.8H290.7v-52.3h-17.4v69.8h122.1v52.3H221v279H779v-279H412.8z M761.6,683.1H238.4
		V439h523.2V683.1z"/>
	<linearGradient id="SVGID_2_" gradientUnits="userSpaceOnUse" x1="273.2845" y1="301.164" x2="273.2845" y2="696.84">
		<stop  offset="0" style="stop-color:#5BCCFF"/>
		<stop  offset="1" style="stop-color:#0096DA"/>
	</linearGradient>
	<rect x="255.8" y="482.6" fill="url(#SVGID_2_)" width="34.9" height="17.4"/>
	<linearGradient id="SVGID_3_" gradientUnits="userSpaceOnUse" x1="325.6038" y1="301.164" x2="325.6038" y2="696.84">
		<stop  offset="0" style="stop-color:#5BCCFF"/>
		<stop  offset="1" style="stop-color:#0096DA"/>
	</linearGradient>
	<rect x="308.2" y="482.6" fill="url(#SVGID_3_)" width="34.9" height="17.4"/>
	<linearGradient id="SVGID_4_" gradientUnits="userSpaceOnUse" x1="377.9225" y1="301.164" x2="377.9225" y2="696.84">
		<stop  offset="0" style="stop-color:#5BCCFF"/>
		<stop  offset="1" style="stop-color:#0096DA"/>
	</linearGradient>
	<rect x="360.5" y="482.6" fill="url(#SVGID_4_)" width="34.9" height="17.4"/>
	<linearGradient id="SVGID_5_" gradientUnits="userSpaceOnUse" x1="430.2411" y1="301.164" x2="430.2411" y2="696.84">
		<stop  offset="0" style="stop-color:#5BCCFF"/>
		<stop  offset="1" style="stop-color:#0096DA"/>
	</linearGradient>
	<rect x="412.8" y="482.6" fill="url(#SVGID_5_)" width="34.9" height="17.4"/>
	<linearGradient id="SVGID_6_" gradientUnits="userSpaceOnUse" x1="482.5604" y1="301.164" x2="482.5604" y2="696.84">
		<stop  offset="0" style="stop-color:#5BCCFF"/>
		<stop  offset="1" style="stop-color:#0096DA"/>
	</linearGradient>
	<rect x="465.1" y="482.6" fill="url(#SVGID_6_)" width="34.9" height="17.4"/>
	<linearGradient id="SVGID_7_" gradientUnits="userSpaceOnUse" x1="534.8798" y1="301.164" x2="534.8798" y2="696.84">
		<stop  offset="0" style="stop-color:#5BCCFF"/>
		<stop  offset="1" style="stop-color:#0096DA"/>
	</linearGradient>
	<rect x="517.4" y="482.6" fill="url(#SVGID_7_)" width="34.9" height="17.4"/>
	<linearGradient id="SVGID_8_" gradientUnits="userSpaceOnUse" x1="587.1991" y1="301.164" x2="587.1991" y2="696.84">
		<stop  offset="0" style="stop-color:#5BCCFF"/>
		<stop  offset="1" style="stop-color:#0096DA"/>
	</linearGradient>
	<rect x="569.8" y="482.6" fill="url(#SVGID_8_)" width="34.9" height="17.4"/>
	<linearGradient id="SVGID_9_" gradientUnits="userSpaceOnUse" x1="639.5178" y1="301.164" x2="639.5178" y2="696.84">
		<stop  offset="0" style="stop-color:#5BCCFF"/>
		<stop  offset="1" style="stop-color:#0096DA"/>
	</linearGradient>
	<rect x="622.1" y="482.6" fill="url(#SVGID_9_)" width="34.9" height="17.4"/>
	<linearGradient id="SVGID_10_" gradientUnits="userSpaceOnUse" x1="691.8364" y1="301.164" x2="691.8364" y2="696.84">
		<stop  offset="0" style="stop-color:#5BCCFF"/>
		<stop  offset="1" style="stop-color:#0096DA"/>
	</linearGradient>
	<rect x="674.4" y="482.6" fill="url(#SVGID_10_)" width="34.9" height="17.4"/>
	<linearGradient id="SVGID_11_" gradientUnits="userSpaceOnUse" x1="273.2845" y1="301.164" x2="273.2845" y2="696.84">
		<stop  offset="0" style="stop-color:#5BCCFF"/>
		<stop  offset="1" style="stop-color:#0096DA"/>
	</linearGradient>
	<rect x="255.8" y="622.1" fill="url(#SVGID_11_)" width="34.9" height="17.4"/>
	<linearGradient id="SVGID_12_" gradientUnits="userSpaceOnUse" x1="325.6038" y1="301.164" x2="325.6038" y2="696.84">
		<stop  offset="0" style="stop-color:#5BCCFF"/>
		<stop  offset="1" style="stop-color:#0096DA"/>
	</linearGradient>
	<rect x="308.2" y="622.1" fill="url(#SVGID_12_)" width="34.9" height="17.4"/>
	<linearGradient id="SVGID_13_" gradientUnits="userSpaceOnUse" x1="473.8403" y1="301.164" x2="473.8403" y2="696.84">
		<stop  offset="0" style="stop-color:#5BCCFF"/>
		<stop  offset="1" style="stop-color:#0096DA"/>
	</linearGradient>
	<rect x="360.5" y="622.1" fill="url(#SVGID_13_)" width="226.7" height="17.4"/>
	<linearGradient id="SVGID_14_" gradientUnits="userSpaceOnUse" x1="674.3975" y1="301.164" x2="674.3975" y2="696.84">
		<stop  offset="0" style="stop-color:#5BCCFF"/>
		<stop  offset="1" style="stop-color:#0096DA"/>
	</linearGradient>
	<rect x="657" y="622.1" fill="url(#SVGID_14_)" width="34.9" height="17.4"/>
	<linearGradient id="SVGID_15_" gradientUnits="userSpaceOnUse" x1="726.7162" y1="301.164" x2="726.7162" y2="696.84">
		<stop  offset="0" style="stop-color:#5BCCFF"/>
		<stop  offset="1" style="stop-color:#0096DA"/>
	</linearGradient>
	<rect x="709.3" y="622.1" fill="url(#SVGID_15_)" width="34.9" height="17.4"/>
	<linearGradient id="SVGID_16_" gradientUnits="userSpaceOnUse" x1="622.0782" y1="301.164" x2="622.0782" y2="696.84">
		<stop  offset="0" style="stop-color:#5BCCFF"/>
		<stop  offset="1" style="stop-color:#0096DA"/>
	</linearGradient>
	<rect x="604.6" y="622.1" fill="url(#SVGID_16_)" width="34.9" height="17.4"/>
	<linearGradient id="SVGID_17_" gradientUnits="userSpaceOnUse" x1="308.1636" y1="301.164" x2="308.1636" y2="696.84">
		<stop  offset="0" style="stop-color:#5BCCFF"/>
		<stop  offset="1" style="stop-color:#0096DA"/>
	</linearGradient>
	<rect x="290.7" y="552.3" fill="url(#SVGID_17_)" width="34.9" height="17.4"/>
	<linearGradient id="SVGID_18_" gradientUnits="userSpaceOnUse" x1="360.4829" y1="301.164" x2="360.4829" y2="696.84">
		<stop  offset="0" style="stop-color:#5BCCFF"/>
		<stop  offset="1" style="stop-color:#0096DA"/>
	</linearGradient>
	<rect x="343" y="552.3" fill="url(#SVGID_18_)" width="34.9" height="17.4"/>
	<linearGradient id="SVGID_19_" gradientUnits="userSpaceOnUse" x1="412.8022" y1="301.164" x2="412.8022" y2="696.84">
		<stop  offset="0" style="stop-color:#5BCCFF"/>
		<stop  offset="1" style="stop-color:#0096DA"/>
	</linearGradient>
	<rect x="395.4" y="552.3" fill="url(#SVGID_19_)" width="34.9" height="17.4"/>
	<linearGradient id="SVGID_20_" gradientUnits="userSpaceOnUse" x1="465.1209" y1="301.164" x2="465.1209" y2="696.84">
		<stop  offset="0" style="stop-color:#5BCCFF"/>
		<stop  offset="1" style="stop-color:#0096DA"/>
	</linearGradient>
	<rect x="447.7" y="552.3" fill="url(#SVGID_20_)" width="34.9" height="17.4"/>
	<linearGradient id="SVGID_21_" gradientUnits="userSpaceOnUse" x1="517.4395" y1="301.164" x2="517.4395" y2="696.84">
		<stop  offset="0" style="stop-color:#5BCCFF"/>
		<stop  offset="1" style="stop-color:#0096DA"/>
	</linearGradient>
	<rect x="500" y="552.3" fill="url(#SVGID_21_)" width="34.9" height="17.4"/>
	<linearGradient id="SVGID_22_" gradientUnits="userSpaceOnUse" x1="569.7589" y1="301.164" x2="569.7589" y2="696.84">
		<stop  offset="0" style="stop-color:#5BCCFF"/>
		<stop  offset="1" style="stop-color:#0096DA"/>
	</linearGradient>
	<rect x="552.3" y="552.3" fill="url(#SVGID_22_)" width="34.9" height="17.4"/>
	<linearGradient id="SVGID_23_" gradientUnits="userSpaceOnUse" x1="622.0782" y1="301.164" x2="622.0782" y2="696.84">
		<stop  offset="0" style="stop-color:#5BCCFF"/>
		<stop  offset="1" style="stop-color:#0096DA"/>
	</linearGradient>
	<rect x="604.6" y="552.3" fill="url(#SVGID_23_)" width="34.9" height="17.4"/>
	<linearGradient id="SVGID_24_" gradientUnits="userSpaceOnUse" x1="674.3975" y1="301.164" x2="674.3975" y2="696.84">
		<stop  offset="0" style="stop-color:#5BCCFF"/>
		<stop  offset="1" style="stop-color:#0096DA"/>
	</linearGradient>
	<rect x="657" y="552.3" fill="url(#SVGID_24_)" width="34.9" height="17.4"/>
	<linearGradient id="SVGID_25_" gradientUnits="userSpaceOnUse" x1="726.7162" y1="301.164" x2="726.7162" y2="696.84">
		<stop  offset="0" style="stop-color:#5BCCFF"/>
		<stop  offset="1" style="stop-color:#0096DA"/>
	</linearGradient>
	<rect x="709.3" y="552.3" fill="url(#SVGID_25_)" width="34.9" height="17.4"/>
</g>
</svg>
