<?xml version="1.0" encoding="utf-8"?>
<!-- Generator: Adobe Illustrator 19.0.0, SVG Export Plug-In . SVG Version: 6.00 Build 0)  -->
<svg version="1.1" id="图层_1" xmlns="http://www.w3.org/2000/svg" xmlns:xlink="http://www.w3.org/1999/xlink" x="0px" y="0px"
	 viewBox="0 0 1000 1000" style="enable-background:new 0 0 1000 1000;" xml:space="preserve">
<style type="text/css">
	.st0{fill:url(#XMLID_2_);}
	.st1{fill:url(#XMLID_5_);}
	.st2{fill:url(#XMLID_6_);}
</style>
<g id="XMLID_3_">
	<linearGradient id="XMLID_2_" gradientUnits="userSpaceOnUse" x1="500" y1="287.457" x2="500" y2="714.017">
		<stop  offset="0" style="stop-color:#FF9E41"/>
		<stop  offset="1" style="stop-color:#FF850F"/>
	</linearGradient>
	<path id="XMLID_16_" class="st0" d="M718,548.3c-1-114.8-8.1-200.5-21.1-254.6l-1.5-6.2H585.6l-85.6,113l-85.6-113H304.8l-1.5,6.2
		c-31,128.7-19.3,399.6-18.7,411.1l0.3,7.8h121l-2.9-10.4c-23.6-84.1-27.3-161.5-26.2-211.7c0.7-30.6,3.1-55,5.2-70.7
		c49.6,74.2,77.6,192,77.9,193.2l1.5,6.3l77.5,0l1.5-6.3c0.3-1.3,28.2-119,77.9-193.2c2,15.6,4.5,40.1,5.2,70.7
		c1.1,50.2-2.5,127.7-26.2,211.7l-2.9,10.4h121l0.3-7.8C715.6,704.1,718.7,633.6,718,548.3z M699.6,696.2h-83.9
		c21.7-82.2,25.1-157.2,24-206.6c-1.3-55.8-8.2-90.8-8.5-92.3l-3.5-17.3l-10.9,13.8c-52.5,66.5-83.7,180.8-90.8,209.1h-51.8
		c-3.1-12-10.6-40-22.1-72.8c-20.7-58.9-43.8-104.8-68.7-136.2l-10.9-13.8l-3.5,17.3c-0.3,1.5-7.2,36.5-8.5,92.3
		c-1.1,49.3,2.3,124.4,24,206.6h-83.9c-1.7-45.2-8.7-275.8,17.2-392.5h88.7L500,427.4l93.7-123.7h88.7
		C708.3,420.5,701.3,651,699.6,696.2z"/>
	<linearGradient id="XMLID_5_" gradientUnits="userSpaceOnUse" x1="456.1171" y1="287.3506" x2="456.1171" y2="713.9106">
		<stop  offset="0" style="stop-color:#FF9E41"/>
		<stop  offset="1" style="stop-color:#FF850F"/>
	</linearGradient>
	<circle id="XMLID_22_" class="st1" cx="456.1" cy="669.4" r="22.1"/>
	<linearGradient id="XMLID_6_" gradientUnits="userSpaceOnUse" x1="549.3486" y1="287.3506" x2="549.3486" y2="713.9106">
		<stop  offset="0" style="stop-color:#FF9E41"/>
		<stop  offset="1" style="stop-color:#FF850F"/>
	</linearGradient>
	<circle id="XMLID_23_" class="st2" cx="549.3" cy="669.4" r="22.1"/>
</g>
</svg>
