<?xml version="1.0" encoding="utf-8"?>
<!-- Generator: Adobe Illustrator 19.0.0, SVG Export Plug-In . SVG Version: 6.00 Build 0)  -->
<svg version="1.1" id="图层_1" xmlns="http://www.w3.org/2000/svg" xmlns:xlink="http://www.w3.org/1999/xlink" x="0px" y="0px"
	 viewBox="0 0 1000 1000" style="enable-background:new 0 0 1000 1000;" xml:space="preserve">
<style type="text/css">
	.st0{fill:url(#XMLID_2_);}
</style>
<linearGradient id="XMLID_2_" gradientUnits="userSpaceOnUse" x1="500" y1="235.4317" x2="500" y2="755.5318">
	<stop  offset="0" style="stop-color:#FF9E41"/>
	<stop  offset="1" style="stop-color:#FF850F"/>
</linearGradient>
<path id="XMLID_25_" class="st0" d="M558.4,337.6c-6.5-9.8-14.1-18.8-21.5-27.4c-10.5-12.3-20.4-24-27.1-37.7
	c-1.1-2.3-1.8-4-2.9-6.6c-0.4-1-0.9-2.1-1.4-3.3l-8.7-20.3l-6.6,21.1c-1.5,4.9-4.9,10.3-6.7,13.3c-1.2,2-6.7,8.3-12,14.5
	c-8.2,9.5-18.4,21.3-25.4,31.2c-29.4,41.2-48,86.8-54,131.8c-5.5,41.8-1.2,85.1,12.6,125.2c13,38,36.7,74.1,68.6,104.4
	c11.8,11.2,13.6,16.5,15.3,32.4c0.2,1.8,0,5.7-0.1,9.5c-0.5,12.1-0.6,19.7,2.8,24.6c1.9,2.8,4.9,3.7,6.1,4.1l0.1,0
	c1.1,0.4,2.2,0.7,3.3,1l1,0.3c1.3,0.4,2.3,0.7,3.2,1.1c1.6,0.6,3.6,1.2,5.6,1.2c1.9,0,3.8-0.5,5.5-1.9l3.7-3.1l-0.9-4.7
	c-3.5-19.1-1-51.1,4.4-57c4.8-5.2,10.1-10,15.6-15c7.8-7,15.9-14.3,22.8-23.2c10.8-14.1,20.3-30.9,28.2-49.8
	c13.6-32.6,20.6-68.9,20.2-104.9C609.5,443.2,591.6,387.7,558.4,337.6z M420.1,573.9c-12.9-37.8-17-78.5-11.8-117.8
	c5.6-42.3,23.2-85.4,51.1-124.4c6.6-9.3,16.5-20.8,24.5-30c3.3-3.8,6-6.9,8.1-9.4c3.3,44.1,9.5,136.8,9.5,215.4
	c0,70.4-5.9,114-10.9,138.1c-2.3,11.4-4.7,19.7-6.6,25.4C454.2,642.8,432.2,609.2,420.1,573.9z M502.9,701.8
	c-1.4-6.4-3.4-11.6-6.8-16.7c1.5-3.6,3.7-9.2,6-17.5c2.8,5.8,5.9,10.1,8.7,13.1C507,685.4,504.5,693,502.9,701.8z M574.9,596.9
	c-7.4,17.6-16.2,33.1-26.1,46.2c-5.9,7.7-13.1,14.2-20.7,21c-1.9,1.7-3.8,3.4-5.7,5.2c-4.5-5.3-11.1-16.6-12.6-38.2
	c5.3-33.4,7.9-74.8,7.9-123.3c0-73.3-5.3-158.6-8.8-206c5,6.6,10.3,12.9,15.5,19.1c7,8.3,14.3,16.9,20.3,25.9
	c31.5,47.4,48.4,99.9,49,151.8C594.3,532.3,587.7,566.3,574.9,596.9z"/>
</svg>
