<?xml version="1.0" encoding="utf-8"?>
<!-- Generator: Adobe Illustrator 19.0.0, SVG Export Plug-In . SVG Version: 6.00 Build 0)  -->
<svg version="1.1" id="图层_1" xmlns="http://www.w3.org/2000/svg" xmlns:xlink="http://www.w3.org/1999/xlink" x="0px" y="0px"
	 viewBox="0 0 1000 1000" style="enable-background:new 0 0 1000 1000;" xml:space="preserve">
<style type="text/css">
	.st0{fill-rule:evenodd;clip-rule:evenodd;fill:url(#XMLID_4_);}
	.st1{fill:url(#XMLID_5_);}
</style>
<g id="XMLID_1_">
	<linearGradient id="XMLID_4_" gradientUnits="userSpaceOnUse" x1="500" y1="247.2917" x2="500" y2="743.0771">
		<stop  offset="0" style="stop-color:#FF9E41"/>
		<stop  offset="1" style="stop-color:#FF850F"/>
	</linearGradient>
	<path id="XMLID_21_" class="st0" d="M654.6,651.8c14.3-5.3,39-9.6,59.9-12.1c4.2-0.5,7.8-3.3,9.2-7.3c1.5-4,0.6-8.4-2.4-11.6
		c-46.7-49.7-105.1-69-118.9-73c-4.5-6.6-19.6-30.9-43.5-89.3c-29.8-73.1-91.3-122.3-95.7-125.8c-45.1-38.9-99.5-44.8-113.6-45.6
		c-20.5-19.6-56.3-30.5-77.1-28.2c-11,1.3-16,6-18.2,9.8c-9,15.3,7.1,35.3,19.9,51.4c3.2,4,6.3,7.8,7.9,10.4
		c6.3,9.8,8.1,16.8,8.3,17.7c4.4,28.1,31.7,80.8,42.1,89c3.3,2.6,2.3,6.7,1.9,7.8l-0.1,0.3c-14,42.7-15.7,81.1-5.2,114.2
		c8.6,27.1,23.3,43.3,31.3,50.6c3.1,2.9,7.5,3.7,11.5,2.2c4-1.5,6.7-5.1,7.1-9.3c2.6-25.9,6.4-42.8,9.7-53.2
		c28.9,60.4,77.6,100,79.8,101.8l10.2-12.7c-0.6-0.5-56.9-46.3-82.3-112.4l-4.9-12.8l-8.9,10.4c-1.3,1.5-12.3,15.8-18.6,66.2
		c-6.5-7.7-14.1-19.4-19.3-35.7c-9.5-29.7-7.8-64.7,5.1-104c2.1-6,2.9-18-7.2-26c-6.3-5.2-32.3-53.9-36.1-78.9l-0.1-0.4
		c-0.2-1-2.2-10.3-10.6-23.4c-2.1-3.3-5.3-7.2-8.9-11.8c-5.3-6.6-11.3-14.2-15.2-21.1c-3.7-6.6-4.2-10.5-3.4-11.8
		c0.4-0.5,2.7-1.8,8.5-2c18.1-0.7,47.8,9.5,63.2,25.8l2.4,2.5l3.4,0.1c0.6,0,60,1.4,106.8,41.9l0.3,0.3c0.6,0.5,62.1,49,90.8,119.3
		c30,73.4,46.5,94.5,47.2,95.4l1.7,2.1l2.6,0.7c0.6,0.2,59.2,15.7,106.9,62c-21.5,3-51,8.4-64.4,17l-6.8,4.4l4.4,6.8
		c1.7,2.6,41.4,64.1,106.9,88.4l5.7-15.3C700.8,708.6,667.1,668.5,654.6,651.8z"/>
	<linearGradient id="XMLID_5_" gradientUnits="userSpaceOnUse" x1="362.3145" y1="247.2917" x2="362.3145" y2="743.0771">
		<stop  offset="0" style="stop-color:#FF9E41"/>
		<stop  offset="1" style="stop-color:#FF850F"/>
	</linearGradient>
	<circle id="XMLID_2_" class="st1" cx="362.3" cy="353" r="11.6"/>
</g>
</svg>
