<?xml version="1.0" encoding="utf-8"?>
<!-- Generator: Adobe Illustrator 19.0.0, SVG Export Plug-In . SVG Version: 6.00 Build 0)  -->
<svg version="1.1" id="图层_1" xmlns="http://www.w3.org/2000/svg" xmlns:xlink="http://www.w3.org/1999/xlink" x="0px" y="0px"
	 viewBox="-117 116.4 724.3 328.6" style="enable-background:new -117 116.4 724.3 328.6;" xml:space="preserve">
<style type="text/css">
	.st0{opacity:0.6;}
	.st1{fill:#FFFFFF;}
</style>
<g>
	<g class="st0">
		<path class="st1" d="M-59,163.3v-14.1c0-23.1-12.2-32.7-29-32.7s-29,9.6-29,32.7v14.1c0,23.1,12.2,32.7,29,32.7
			S-59,186.4-59,163.3z M-73.2,163.3c0,13.8-4.8,20-14.8,20s-14.8-6.2-14.8-20v-14.1c0-13.8,4.8-20,14.8-20s14.8,6.2,14.8,20V163.3z
			"/>
		<path class="st1" d="M6.3,191.9l0.1-73.5c0-1.2-0.8-2-1.9-2h-8.8c-1.1,0-1.9,0.8-1.9,2l-0.1,56.9c0,0.6-0.3,0.9-0.5,0.9
			c-0.3,0-0.6-0.3-0.8-0.8l-23.6-55.6c-1.2-2.7-2.3-3.4-4.5-3.4h-11c-2.2,0-4.1,1.9-4.1,4.2l-0.1,73.4c0,1.2,0.9,2.1,2,2.1h8.7
			c1.1,0,1.9-0.9,1.9-2.1l0.1-54.5c0-0.6,0.2-0.8,0.5-0.8s0.6,0.2,0.9,0.8l22.5,52.8c1.6,3.8,3.8,3.8,6.2,3.8H2.2
			C4.5,196.1,6.3,194.2,6.3,191.9z"/>
		<path class="st1" d="M61.5,192.4v-6.7c0-1.2-0.9-2.1-2-2.1H38.7c-5.9,0-8-2.1-8-9v-13.5h27.6c1.1,0,2-0.9,2-2.1v-7.5
			c0-1.2-0.9-2.1-2-2.1H30.7v-11.3c0-6.9,2.1-9,8-9h20.8c1.1,0,2-0.9,2-2.1v-6.7c0-1.5-0.5-2-2-2.2c-3.3-0.5-7.2-1.5-19.3-1.5
			c-13.2,0-23.5,3.7-23.5,21.5v36.4c0,17.8,10.3,21.5,23.5,21.5c12.1,0,16.1-0.9,19.3-1.5C61,194.4,61.5,193.8,61.5,192.4z"/>
		<path class="st1" d="M126.4,194.4c0-0.1-0.1-0.3-0.1-0.5l-16.7-66.7c-2.4-9.7-9.8-10.7-14.2-10.7c-4.4,0-11.7,0.9-14.2,10.7
			l-16.6,66.7c0,0.2-0.1,0.4-0.1,0.5c0,1,0.8,1.8,1.8,1.8h10.8c0.9,0,1.7-0.8,1.9-1.8l4.7-19.9h23.4l4.7,19.9c0.2,0.9,1,1.8,1.9,1.8
			h10.8C125.6,196.2,126.4,195.4,126.4,194.4z M104.4,162.5H86.5l7.3-32.1c0.3-1.3,0.6-1.7,1.6-1.7s1.3,0.4,1.6,1.7L104.4,162.5z"/>
		<path class="st1" d="M183.3,141.5v-0.9c0-18.5-13.6-24.2-29.3-24.2c-7.4,0-14.7,0.5-20,1.4c-2,0.3-3.3,1-3.3,3.1l0.1,73.2
			c0,1.2,0.9,2.1,2,2.1H143c1.1,0,1.9-0.9,1.9-2.1l-0.1-28.4c2.3,0.1,6.4,0.4,9.1,0.4C169.7,166.1,183.3,160.1,183.3,141.5z
			 M169.3,141.5c0,8.4-4.3,12.6-15.3,12.6c-1.7,0-7.4-0.2-9.1-0.3v-24.9c1.8-0.2,6.9-0.4,9.1-0.4c10.2,0,15.3,3.4,15.3,12.2V141.5z"
			/>
		<path class="st1" d="M254.9,194.6v-74c0-2.3-1.8-4.2-4.1-4.2h-8.3c-1.6,0-3.1,1-3.8,2.5L223.3,151c-0.5,0.9-0.7,1.5-1.1,1.5
			c-0.4,0-0.6-0.5-1.1-1.5l-15.4-32.1c-0.7-1.5-2.1-2.5-3.8-2.5h-8.3c-2.2,0-4.1,1.9-4.1,4.2v74c0,1,0.8,1.6,1.7,1.6h10.3
			c0.9,0,1.6-1,1.6-2.1v-50.6c0-0.7,0.1-1,0.3-1c0.1,0,0.3,0.3,0.5,0.6l9.9,20c0.6,1.2,1.9,1.8,3.3,1.8h10.3c1.3,0,2.6-0.6,3.3-1.8
			l9.8-20c0.2-0.3,0.4-0.6,0.5-0.6c0.2,0,0.3,0.3,0.3,1v50.6c0,1,0.7,2.1,1.6,2.1h10.3C254.1,196.2,254.9,195.6,254.9,194.6z"/>
	</g>
	<g>
		<path class="st1" d="M-63,335c-6,0-15.1-0.7-20.4-0.9v59.8c0,2.5-1.8,4.6-4.4,4.6h-22.9c-2.5,0-4.6-2.1-4.6-4.6V236.2
			c0-4.6,2.8-6.2,7.3-6.9c11.9-1.8,28.2-3,44.9-3c35.3,0,66,12.4,66,52.9v2.1C3,321.9-27.7,335-63,335z M-28.6,279.3
			c0-19.3-11.5-26.6-34.4-26.6c-4.8,0-16.3,0.5-20.4,0.9v54.6c3.7,0.2,16.5,0.7,20.4,0.7c24.8,0,34.4-9.2,34.4-27.5
			C-28.6,281.4-28.6,279.3-28.6,279.3z"/>
		<path class="st1" d="M47.3,398.4H26c-2.5,0-4.6-2.3-4.6-4.8v-165c0-2.5,2.1-4.6,4.6-4.6h21.3c2.5,0,4.4,2.1,4.4,4.6v165
			C51.6,396.2,49.8,398.4,47.3,398.4z"/>
		<path class="st1" d="M178.1,398.4H157c-2.5,0-4.6-2.1-4.6-4.6v-5.3c-11.9,7.8-21.3,11.5-36,11.5c-11.5,0-21.5-3-28.2-9.6
			c-8.5-8.5-11.5-22.7-11.5-41.7V274c0-2.5,2.1-4.8,4.6-4.8h21.1c2.5,0,4.6,2.3,4.6,4.8v74.7c0,11.5,0.9,18.1,5.3,22
			c3.2,2.7,7.1,4.1,14.2,4.1c8.5,0,19.5-5.7,25.9-9.2V274c0-2.5,2.1-4.8,4.6-4.8h21.1c2.5,0,4.6,2.3,4.6,4.8v119.9
			C182.7,396.4,180.6,398.4,178.1,398.4z"/>
		<path class="st1" d="M315.6,290l-7.6,3c3.7,5.3,5.7,10.3,5.7,18.3v1.6c0,28.6-19.7,41.7-54.3,41.7c-12.1,0-20.4-2.1-25-3.9
			c-2.7,1.8-3.9,3.9-3.9,6c0,4.6,2.5,6.4,7.8,7.6l27,6.4c31.2,7.3,51.3,12.1,51.3,36.7v1.6c0,23.4-17.2,36-56.2,36
			c-37.1,0-56.8-14-56.8-38v-2.1c0-9.4,4.4-18.6,11.7-25.2c-6.4-4.8-10.3-12.8-10.3-21.1v-0.2c0-7.1,3-14.2,9.2-18.6
			c-6.9-7.1-9.4-15.4-9.4-26.8v-1.6c0-22.9,14.9-42.2,54.5-42.2h53.6c3.4,0,6.2,2.7,6.2,6.2v9.6C319.3,288.4,318.4,288.9,315.6,290z
			 M286.5,407.4c0-5-3-8-27-13.7l-20.4-4.8c-3.4,4.8-5.7,7.8-5.7,16v2.1c0,9.4,5.7,15.1,27.3,15.1c22,0,25.9-4.8,25.9-13.1
			L286.5,407.4L286.5,407.4z M284,311.8c0-11-4.8-19.5-24.5-19.5c-19.5,0-24.7,8.7-24.7,19.5v1.8c0,8.5,3.4,18.1,24.7,18.1
			c19,0,24.5-6.6,24.5-18.1V311.8z"/>
		<path class="st1" d="M361.9,252h-22.2c-2.5,0-4.8-2.1-4.8-4.6v-20.2c0-2.5,2.3-4.6,4.8-4.6h22.2c2.5,0,4.6,2.1,4.6,4.6v20.2
			C366.5,249.9,364.4,252,361.9,252z M361.2,398.4h-21.1c-2.5,0-4.6-2.3-4.6-4.8V273.8c0-2.5,2.1-4.6,4.6-4.6h21.1
			c2.5,0,4.6,2.1,4.6,4.6v119.9C365.8,396.2,363.7,398.4,361.2,398.4z"/>
		<path class="st1" d="M491.9,398.4h-21.1c-2.5,0-4.6-2.3-4.6-4.8v-74.7c0-19.9-1.8-25.7-19.5-25.7c-7.8,0-16.3,3.2-25.9,8.3v92.1
			c0,2.5-2.1,4.8-4.6,4.8h-21.1c-2.5,0-4.6-2.3-4.6-4.8V273.8c0-2.5,2.1-4.6,4.6-4.6H415c2.5,0,4.6,2.1,4.6,4.6v4.8
			c13.3-8.5,22-11,37.1-11c33,0,39.6,22.2,39.6,51.3v74.7C496.4,396.2,494.4,398.4,491.9,398.4z"/>
		<path class="st1" d="M562.4,400.3c-8.9,0-28.2-1.1-41-4.6c-2.8-0.7-4.4-2.5-4.4-5.3v-13.8c0-1.8,1.6-3.7,3.9-3.7
			c0.5,0,0.7,0,0.9,0c11,1.4,31.6,2.5,38.5,2.5c14.2,0,16.3-4.8,16.3-11c0-4.4-2.8-7.1-10.1-11.7l-31.4-19.3
			c-11.2-6.9-19.3-18.3-19.3-31.6c0-22.9,14.4-34.4,43.5-34.4c18.6,0,29.1,2.1,40.8,4.6c2.7,0.7,4.1,2.5,4.1,5.3v13.3
			c0,2.8-1.4,4.4-3.7,4.4c-0.5,0-0.7,0-0.9,0c-6.4-0.9-24.8-2.7-37.8-2.7c-11,0-15.8,2.5-15.8,9.6c0,3.7,3.4,6,9.2,9.4l30,18.3
			c19.3,11.7,22,23.1,22,34.8C607.3,384.5,592.5,400.3,562.4,400.3z"/>
	</g>
</g>
</svg>
