<?xml version="1.0" encoding="utf-8"?>
<!-- Generator: Adobe Illustrator 19.0.0, SVG Export Plug-In . SVG Version: 6.00 Build 0)  -->
<svg version="1.1" id="图层_1" xmlns="http://www.w3.org/2000/svg" xmlns:xlink="http://www.w3.org/1999/xlink" x="0px" y="0px"
	 viewBox="0 0 1000 1000" style="enable-background:new 0 0 1000 1000;" xml:space="preserve">
<style type="text/css">
	.st0{fill:url(#XMLID_2_);}
	.st1{fill:url(#XMLID_3_);}
	.st2{fill:url(#XMLID_4_);}
	.st3{fill:url(#XMLID_8_);}
	.st4{fill:url(#XMLID_9_);}
</style>
<g id="XMLID_5_">
	<linearGradient id="XMLID_2_" gradientUnits="userSpaceOnUse" x1="500" y1="290.351" x2="500" y2="720.6613">
		<stop  offset="0" style="stop-color:#FF9E41"/>
		<stop  offset="1" style="stop-color:#FF850F"/>
	</linearGradient>
	<path id="XMLID_17_" class="st0" d="M680.1,287.5H319.9c-17.9,0-32.4,14.6-32.4,32.4v360.2c0,17.9,14.5,32.4,32.4,32.4h360.2
		c17.9,0,32.4-14.6,32.4-32.4V319.9C712.5,302,698,287.5,680.1,287.5z M696.2,680.1c0,8.9-7.2,16.1-16.1,16.1H319.9
		c-8.9,0-16.1-7.2-16.1-16.1V319.9c0-8.9,7.2-16.1,16.1-16.1h360.2c8.9,0,16.1,7.2,16.1,16.1V680.1z"/>
	<linearGradient id="XMLID_3_" gradientUnits="userSpaceOnUse" x1="400.9961" y1="290.351" x2="400.9961" y2="720.6613">
		<stop  offset="0" style="stop-color:#FF9E41"/>
		<stop  offset="1" style="stop-color:#FF850F"/>
	</linearGradient>
	<path id="XMLID_42_" class="st1" d="M401,522.9c-36.7,0-66.5,29.8-66.5,66.5s29.8,66.5,66.5,66.5s66.5-29.8,66.5-66.5
		S437.6,522.9,401,522.9z M401,639.5c-27.7,0-50.2-22.5-50.2-50.2s22.5-50.2,50.2-50.2s50.2,22.5,50.2,50.2S428.7,639.5,401,639.5z"
		/>
	<linearGradient id="XMLID_4_" gradientUnits="userSpaceOnUse" x1="596.5847" y1="290.351" x2="596.5847" y2="720.6613">
		<stop  offset="0" style="stop-color:#FF9E41"/>
		<stop  offset="1" style="stop-color:#FF850F"/>
	</linearGradient>
	<path id="XMLID_45_" class="st2" d="M520.1,651.5h153L596.6,519L520.1,651.5z M548.3,635.2l48.3-83.6l48.3,83.6H548.3z"/>
	<linearGradient id="XMLID_8_" gradientUnits="userSpaceOnUse" x1="400.9961" y1="290.351" x2="400.9961" y2="720.6613">
		<stop  offset="0" style="stop-color:#FF9E41"/>
		<stop  offset="1" style="stop-color:#FF850F"/>
	</linearGradient>
	<path id="XMLID_48_" class="st3" d="M401,333.9l-23.9,48.5l-53.5,7.8l38.7,37.8l-9.1,53.3l47.9-25.2l47.9,25.2l-9.1-53.3l38.7-37.8
		l-53.5-7.8L401,333.9z M422.2,422.3l5,29.2L401,437.7l-26.2,13.8l5-29.2l-21.2-20.7l29.3-4.3l13.1-26.6l13.1,26.6l29.3,4.3
		L422.2,422.3z"/>
	<linearGradient id="XMLID_9_" gradientUnits="userSpaceOnUse" x1="596.5842" y1="290.351" x2="596.5842" y2="720.6613">
		<stop  offset="0" style="stop-color:#FF9E41"/>
		<stop  offset="1" style="stop-color:#FF850F"/>
	</linearGradient>
	<path id="XMLID_51_" class="st4" d="M659.2,346.8H534v125.2h125.2V346.8z M642.9,455.6h-92.6v-92.6h92.6V455.6z"/>
</g>
</svg>
