<?xml version="1.0" encoding="utf-8"?>
<!-- Generator: Adobe Illustrator 19.0.0, SVG Export Plug-In . SVG Version: 6.00 Build 0)  -->
<svg version="1.1" id="图层_1" xmlns="http://www.w3.org/2000/svg" xmlns:xlink="http://www.w3.org/1999/xlink" x="0px" y="0px"
	 viewBox="0 0 256.5 59.1" style="enable-background:new 0 0 256.5 59.1;" xml:space="preserve">
<style type="text/css">
	.st0{fill:url(#XMLID_76_);}
	.st1{fill:url(#XMLID_77_);}
	.st2{fill:url(#XMLID_78_);}
	.st3{fill:url(#XMLID_79_);}
	.st4{fill:url(#XMLID_80_);}
	.st5{fill:url(#XMLID_81_);}
	.st6{fill:url(#XMLID_82_);}
	.st7{fill:url(#XMLID_83_);}
</style>
<g id="XMLID_1_">
	<linearGradient id="XMLID_76_" gradientUnits="userSpaceOnUse" x1="8.8174" y1="-0.45" x2="8.8174" y2="59.625">
		<stop  offset="0" style="stop-color:#5DB8FF"/>
		<stop  offset="6.766313e-02" style="stop-color:#53B1FA"/>
		<stop  offset="0.3382" style="stop-color:#2F97E8"/>
		<stop  offset="0.5919" style="stop-color:#1585DB"/>
		<stop  offset="0.8199" style="stop-color:#057AD4"/>
		<stop  offset="1" style="stop-color:#0076D1"/>
	</linearGradient>
	<path id="XMLID_26_" class="st0" d="M14.1,6.9C11.7,10.6,7,14,0,17.2c0-1.1,0-2.2,0-3.3C8.1,9.9,13.1,5.2,15,0h2.6v48.1h-3.6V6.9z"
		/>
	<linearGradient id="XMLID_77_" gradientUnits="userSpaceOnUse" x1="44.7065" y1="-0.45" x2="44.7065" y2="59.625">
		<stop  offset="0" style="stop-color:#5DB8FF"/>
		<stop  offset="6.766313e-02" style="stop-color:#53B1FA"/>
		<stop  offset="0.3382" style="stop-color:#2F97E8"/>
		<stop  offset="0.5919" style="stop-color:#1585DB"/>
		<stop  offset="0.8199" style="stop-color:#057AD4"/>
		<stop  offset="1" style="stop-color:#0076D1"/>
	</linearGradient>
	<path id="XMLID_28_" class="st1" d="M44.7,0c10.5,0,15.7,8.3,15.7,24.8c-0.2,15.7-5.3,23.7-15.5,24.1c-10.5-0.3-15.8-8.3-16-24.1
		C29.3,8.7,34.5,0.5,44.7,0z M44.7,46c8.1,0.2,12.1-6.9,11.9-21.2c0.2-14.6-3.9-21.8-12.2-21.7c-7.6,0.3-11.5,7.5-11.7,21.7
		C32.8,38.9,36.8,46,44.7,46z"/>
	<linearGradient id="XMLID_78_" gradientUnits="userSpaceOnUse" x1="80.3569" y1="-0.45" x2="80.3569" y2="59.625">
		<stop  offset="0" style="stop-color:#5DB8FF"/>
		<stop  offset="6.766313e-02" style="stop-color:#53B1FA"/>
		<stop  offset="0.3382" style="stop-color:#2F97E8"/>
		<stop  offset="0.5919" style="stop-color:#1585DB"/>
		<stop  offset="0.8199" style="stop-color:#057AD4"/>
		<stop  offset="1" style="stop-color:#0076D1"/>
	</linearGradient>
	<path id="XMLID_31_" class="st2" d="M80.4,0c10.5,0,15.7,8.3,15.7,24.8c-0.2,15.7-5.3,23.7-15.5,24.1c-10.5-0.3-15.8-8.3-16-24.1
		C64.9,8.7,70.2,0.5,80.4,0z M80.4,46c8.1,0.2,12.1-6.9,11.9-21.2c0.2-14.6-3.9-21.8-12.2-21.7c-7.6,0.3-11.5,7.5-11.7,21.7
		C68.4,38.9,72.4,46,80.4,46z"/>
	<linearGradient id="XMLID_79_" gradientUnits="userSpaceOnUse" x1="105.646" y1="-0.45" x2="105.646" y2="59.625">
		<stop  offset="0" style="stop-color:#5DB8FF"/>
		<stop  offset="6.766313e-02" style="stop-color:#53B1FA"/>
		<stop  offset="0.3382" style="stop-color:#2F97E8"/>
		<stop  offset="0.5919" style="stop-color:#1585DB"/>
		<stop  offset="0.8199" style="stop-color:#057AD4"/>
		<stop  offset="1" style="stop-color:#0076D1"/>
	</linearGradient>
	<path id="XMLID_34_" class="st3" d="M109.3,42.2v4.8c0.2,5.2-1.8,9.3-5.7,12.2l-1.7-1.4c3.3-2.5,4.9-5.8,4.8-9.8h-3.3v-5.7H109.3z"
		/>
	<linearGradient id="XMLID_80_" gradientUnits="userSpaceOnUse" x1="132.1177" y1="-0.45" x2="132.1177" y2="59.625">
		<stop  offset="0" style="stop-color:#5DB8FF"/>
		<stop  offset="6.766313e-02" style="stop-color:#53B1FA"/>
		<stop  offset="0.3382" style="stop-color:#2F97E8"/>
		<stop  offset="0.5919" style="stop-color:#1585DB"/>
		<stop  offset="0.8199" style="stop-color:#057AD4"/>
		<stop  offset="1" style="stop-color:#0076D1"/>
	</linearGradient>
	<path id="XMLID_36_" class="st4" d="M132.1,0c10.5,0,15.7,8.3,15.7,24.8c-0.2,15.7-5.3,23.7-15.5,24.1c-10.5-0.3-15.8-8.3-16-24.1
		C116.7,8.7,121.9,0.5,132.1,0z M132.1,46c8.1,0.2,12.1-6.9,11.9-21.2c0.2-14.6-3.9-21.8-12.2-21.7c-7.6,0.3-11.5,7.5-11.7,21.7
		C120.2,38.9,124.2,46,132.1,46z"/>
	<linearGradient id="XMLID_81_" gradientUnits="userSpaceOnUse" x1="167.7681" y1="-0.45" x2="167.7681" y2="59.625">
		<stop  offset="0" style="stop-color:#5DB8FF"/>
		<stop  offset="6.766313e-02" style="stop-color:#53B1FA"/>
		<stop  offset="0.3382" style="stop-color:#2F97E8"/>
		<stop  offset="0.5919" style="stop-color:#1585DB"/>
		<stop  offset="0.8199" style="stop-color:#057AD4"/>
		<stop  offset="1" style="stop-color:#0076D1"/>
	</linearGradient>
	<path id="XMLID_39_" class="st5" d="M167.8,0c10.5,0,15.7,8.3,15.7,24.8c-0.2,15.7-5.3,23.7-15.5,24.1c-10.5-0.3-15.8-8.3-16-24.1
		C152.4,8.7,157.6,0.5,167.8,0z M167.8,46c8.1,0.2,12.1-6.9,11.9-21.2c0.2-14.6-3.9-21.8-12.2-21.7c-7.6,0.3-11.5,7.5-11.7,21.7
		C155.9,38.9,159.8,46,167.8,46z"/>
	<linearGradient id="XMLID_82_" gradientUnits="userSpaceOnUse" x1="203.4194" y1="-0.45" x2="203.4194" y2="59.625">
		<stop  offset="0" style="stop-color:#5DB8FF"/>
		<stop  offset="6.766313e-02" style="stop-color:#53B1FA"/>
		<stop  offset="0.3382" style="stop-color:#2F97E8"/>
		<stop  offset="0.5919" style="stop-color:#1585DB"/>
		<stop  offset="0.8199" style="stop-color:#057AD4"/>
		<stop  offset="1" style="stop-color:#0076D1"/>
	</linearGradient>
	<path id="XMLID_42_" class="st6" d="M203.4,0c10.5,0,15.7,8.3,15.7,24.8c-0.2,15.7-5.3,23.7-15.5,24.1c-10.5-0.3-15.8-8.3-16-24.1
		C188,8.7,193.3,0.5,203.4,0z M203.4,46c8.1,0.2,12.1-6.9,11.9-21.2c0.2-14.6-3.9-21.8-12.2-21.7c-7.6,0.3-11.5,7.5-11.7,21.7
		C191.5,38.9,195.5,46,203.4,46z"/>
	<linearGradient id="XMLID_83_" gradientUnits="userSpaceOnUse" x1="240.4995" y1="-0.45" x2="240.4995" y2="59.625">
		<stop  offset="0" style="stop-color:#5DB8FF"/>
		<stop  offset="6.766313e-02" style="stop-color:#53B1FA"/>
		<stop  offset="0.3382" style="stop-color:#2F97E8"/>
		<stop  offset="0.5919" style="stop-color:#1585DB"/>
		<stop  offset="0.8199" style="stop-color:#057AD4"/>
		<stop  offset="1" style="stop-color:#0076D1"/>
	</linearGradient>
	<path id="XMLID_45_" class="st7" d="M242.2,26.5v14.3h-3.1V26.5h-14.5v-3.3h14.5V8.8h3.1v14.3h14.3v3.3H242.2z"/>
</g>
</svg>
