<?xml version="1.0" encoding="utf-8"?>
<!-- Generator: Adobe Illustrator 19.0.0, SVG Export Plug-In . SVG Version: 6.00 Build 0)  -->
<svg version="1.1" id="图层_1" xmlns="http://www.w3.org/2000/svg" xmlns:xlink="http://www.w3.org/1999/xlink" x="0px" y="0px"
	 viewBox="172 -207.3 628.8 510.7" style="enable-background:new 172 -207.3 628.8 510.7;" xml:space="preserve">
<style type="text/css">
	.st0{fill:#E5E5EA;}
	.st1{fill:#3E3A39;}
	.st2{fill:url(#XMLID_2_);}
</style>
<path id="XMLID_425_" class="st0" d="M594.3,166.5h-247c-12.6,0-23,10.3-23,23v3c0,0.4,0,0.8,0,1.2l0,0c0,0,1.2,16.7-11.2,23.5
	c0,0,12.8-0.2,19.6-7c4,3.3,9.1,5.3,14.6,5.3h247c12.6,0,23-10.3,23-23v-3C617.3,176.9,606.9,166.5,594.3,166.5z"/>
<g id="XMLID_826_">
	<g id="XMLID_1265_">
		<path id="XMLID_1315_" class="st1" d="M349.6,193.5c-0.1,1.6-0.3,3.2-0.6,4.4c-0.3,1.5-0.7,2.5-1.5,3.8c-0.4-0.5-0.7-0.8-1.2-1.2
			c0.7-1.2,1.1-2.1,1.4-3.6c0.5-2.4,0.6-5.9,0.6-13c0-1.7,0-2.5-0.1-3.2c0.7,0.1,1.2,0.1,2.1,0.1h2.6c0.8,0,1.4,0,1.9-0.1
			c-0.1,0.6-0.1,1.2-0.1,2.4v16.1c0,1.5-0.5,1.9-2.1,1.9c-0.7,0-1.4,0-2.2-0.1c0-0.6-0.1-0.9-0.3-1.5c0.9,0.2,1.6,0.2,2.4,0.2
			c0.6,0,0.7-0.1,0.7-0.7v-5.6h-3.6V193.5z M349.7,187.9c0,0.8,0,1.4,0,1.8c0,1.5,0,1.5,0,2.5h3.6v-4.3H349.7z M353.3,186.5v-4.3
			h-3.6v4.3H353.3z M367.1,189.6c-0.1,0.3-0.2,0.6-0.3,1c-0.7,2.3-1.5,4.1-2.8,6.1c1.4,1.6,2.5,2.4,4.1,3.3c-0.5,0.6-0.7,0.8-1,1.5
			c-1.7-1.2-2.8-2.1-4.1-3.6c-1.1,1.4-2.1,2.4-3.6,3.6c-0.3-0.5-0.6-0.9-1.1-1.2c1.5-1,2.6-2,3.8-3.5c-1.5-2.1-2.2-3.7-3-6.6h-1v9
			c0,1.3,0,1.9,0.1,2.5h-1.7c0.1-0.8,0.1-1.5,0.1-2.6v-15.9c0-0.9,0-1.5-0.1-2.1c0.6,0.1,1.2,0.1,2.2,0.1h6c1,0,1.5,0,2.1-0.1
			c0,0.4,0,0.4-0.1,0.9c-0.2,2.6-0.4,3.9-0.8,4.4s-1,0.7-2.3,0.7c-0.6,0-1.3,0-1.9-0.1c-0.1-0.6-0.1-0.9-0.3-1.4
			c0.9,0.2,1.6,0.2,2.3,0.2c0.6,0,0.9-0.1,1.1-0.3c0.2-0.2,0.4-1.2,0.5-2.2v-0.7h-7.2v6.4h6.3c0.9,0,1.4,0,1.8-0.1L367.1,189.6z
			 M360.6,190.2c0.4,1.5,0.5,1.9,1.1,3c0.4,0.9,0.8,1.6,1.4,2.4c1.2-1.8,1.8-3.3,2.3-5.3h-4.8V190.2z"/>
		<path id="XMLID_1311_" class="st1" d="M374.4,194.4c-1.2,0-1.8,0-2.4,0.1v-1.7c0.6,0.1,1.3,0.1,2.5,0.1h5.4
			c0.2-0.7,0.3-1.4,0.3-1.9c0-0.1,0-0.2,0-0.4l1.8,0.1c-0.1,0.3-0.1,0.3-0.3,1.6c0,0.2-0.1,0.4-0.1,0.6h5.9c1.2,0,1.8,0,2.5-0.1
			c0,0.2,0,0.2-0.1,0.9c-0.2,2.4-0.6,4.5-1.1,5.8c-0.2,0.6-0.6,1-1.1,1.2c-0.4,0.1-1.1,0.2-2.1,0.2c-0.8,0-1.5,0-2.8-0.2
			c-0.1-0.7-0.2-1.1-0.5-1.6c1.3,0.2,2.3,0.3,3.3,0.3c1.2,0,1.6-0.2,1.9-1.2c0.4-1,0.6-2.2,0.7-4H381c-1.4,3.9-4.2,5.9-9.6,7.2
			c-0.2-0.6-0.5-1-0.8-1.4c5.1-0.9,7.6-2.4,8.9-5.7h-5.1V194.4z M388.8,183.1c-0.2,0.2-0.3,0.3-1.4,1.5c-1.2,1.3-2.5,2.4-4,3.2
			c2.4,0.9,4.7,1.4,8.5,1.9c-0.4,0.6-0.5,0.8-0.7,1.5c-3.4-0.5-5.5-1-7.8-1.8c-0.6-0.2-0.7-0.3-1.6-0.7c-2.6,1.1-5.8,1.9-10,2.6
			c-0.2-0.6-0.3-0.9-0.7-1.4c3.5-0.4,6.4-1,9.1-2.1c-1.8-1.2-2.5-1.8-3.9-3.4c-1.5,1.3-2.4,1.9-4.2,2.8c-0.5-0.6-0.5-0.6-1-1.1
			c2.4-1.2,4.1-2.4,5.6-4.1c0.8-0.9,1.4-1.7,1.6-2.3l1.7,0.4c-0.4,0.5-0.6,0.8-0.8,1.1c-0.4,0.5-0.4,0.6-0.7,0.9h7.2
			c1,0,1.6,0,2.2-0.1L388.8,183.1z M377.2,183.6c1.5,1.7,2.9,2.7,4.7,3.6c1.7-0.8,3-1.9,4.6-3.6H377.2L377.2,183.6z"/>
		<path id="XMLID_1304_" class="st1" d="M413.4,189.1c1,0,1.7,0,2.4-0.1v1.6c-0.7-0.1-1.4-0.1-2.4-0.1h-4.8c1.1,1,1.7,1.4,2.9,2.1
			c1.6,0.9,2.9,1.5,5,2c-0.5,0.6-0.5,0.6-0.8,1.3c-0.9-0.3-1.7-0.6-2.2-0.9v4.6c0,0.8,0,1.6,0.1,2.1H412v-1.2h-4.7v1.2h-1.5
			c0.1-0.6,0.1-1.1,0.1-1.8v-4.5c0-0.8,0-1.3-0.1-1.9c0.6,0.1,1.2,0.1,2,0.1h2.9c-1.4-0.8-2.7-1.8-3.9-3.2h-3.6
			c-1.2,1.2-2.4,2.3-3.8,3.2h2.7c0.8,0,1.4,0,2-0.1c-0.1,0.6-0.1,1.1-0.1,1.9v4.2c0,0.7,0,1.3,0.1,1.8h-1.5v-1h-4.3v1.2h-1.6
			c0.1-0.6,0.1-1.3,0.1-2.1v-4.6c-1,0.5-1.1,0.5-2,0.9c-0.1-0.3-0.3-0.8-0.7-1.3c1.7-0.6,2.3-0.8,3.5-1.5c1.5-0.8,2.5-1.6,3.7-2.7
			H397c-1,0-1.8,0-2.4,0.1v-1.6c0.7,0.1,1.3,0.1,2.4,0.1h5.5c0.7-0.9,1.1-1.4,1.3-2c-0.3,0-0.9,0-1.9,0h-3.7c-0.7,0-1.4,0-2,0.1
			c0.1-0.6,0.1-1.2,0.1-1.9v-2.6c0-0.7,0-1.3-0.1-2c0.6,0.1,1.2,0.1,2.1,0.1h3.7c0.9,0,1.5,0,2-0.1c-0.1,0.6-0.1,1.2-0.1,1.9v2.8
			c0,0.9,0,1.1,0,1.6c0.1-0.2,0.1-0.3,0.2-0.5l1.6,0.4c-0.2,0.3-0.3,0.5-0.4,0.7c-0.6,1-0.7,1.1-1,1.5h5.8c0,0,0,0-0.4-0.6
			c-0.3-0.4-0.3-0.4-0.6-0.7l1.2-0.6c0.4,0.5,0.4,0.5,1.5,2h1.6V189.1z M397.6,185.8h4.8V182h-4.8V185.8z M398.2,199.2h4.3v-4.5
			h-4.3V199.2z M414,185.2c0,0.8,0,1.3,0.1,1.9c-0.7-0.1-1.3-0.1-2.1-0.1h-3.9c-0.8,0-1.5,0-2.1,0.1c0.1-0.6,0.1-1.1,0.1-1.7v-2.8
			c0-0.7,0-1.3-0.1-1.9c0.6,0.1,1.2,0.1,2,0.1h3.9c0.9,0,1.4,0,2.1-0.1c-0.1,0.6-0.1,1.1-0.1,2v2.5H414z M407.3,199.2h4.7v-4.5h-4.7
			V199.2z M407.5,185.8h5V182h-5V185.8z"/>
		<path id="XMLID_1299_" class="st1" d="M435.5,183c-0.2,0.3-0.4,0.4-0.7,0.9c-1.3,1.8-2.6,3.1-4.3,4.5c1.2,0.8,2,1.3,3.2,1.8
			c2.1,1,3.6,1.6,6.3,2.3c-0.3,0.5-0.6,1-0.7,1.6c-1.7-0.6-2.3-0.8-3.2-1.2c-0.1,0.5-0.1,1-0.1,1.7v4.9c0,0.8,0,1.4,0.1,2.1h-1.7
			v-1.4h-10.3v1.4h-1.7c0.1-0.8,0.1-1.4,0.1-2.1v-4.9c0-0.4,0-0.9-0.1-1.5c-1.4,0.6-1.8,0.8-3.4,1.3c-0.2-0.7-0.3-0.9-0.8-1.5
			c3.9-1.2,7-2.6,9.8-4.6c-1.4-1.1-2.4-2.3-3.4-3.7c-1.4,1.6-2.8,2.8-4.8,4c-0.3-0.5-0.6-0.8-1-1.2c2.6-1.5,4.3-3,6.1-5.4
			c0.7-1,1.2-1.7,1.5-2.4l1.7,0.5l-1.4,2h5.6c1,0,1.6,0,2.3-0.1L435.5,183z M434.4,192.7c0.6,0,1,0,1.3,0c-2.4-1-4.6-2.2-6.3-3.4
			c-1.8,1.3-3.5,2.3-5.7,3.3c-0.2,0.1-0.2,0.1-0.3,0.1c0.4,0,0.6,0,0.9,0H434.4z M424.1,198.9h10.3v-4.8h-10.3L424.1,198.9
			L424.1,198.9z M425.8,183.4c0,0.1,0,0.1-0.1,0.1l-0.1,0.1c1.2,1.7,2.3,2.7,3.7,3.8c1.5-1.2,2.5-2.2,4-4.1h-7.5V183.4z"/>
		<path id="XMLID_1294_" class="st1" d="M444.4,183.8c-0.7,0-1.3,0-1.8,0.1v-1.6c0.6,0.1,1.1,0.1,1.9,0.1h3.1c0.8,0,1.4,0,1.9-0.1
			v1.6c-0.6-0.1-1.1-0.1-1.8-0.1H447v10.6c1.2-0.5,1.7-0.7,3-1.5v1.5c-1.4,0.7-2.8,1.3-4.7,2c-0.7,0.3-1.2,0.4-1.4,0.5
			c-0.2,0.1-0.2,0.1-0.6,0.2c-0.1,0-0.4,0.2-0.7,0.3l-0.5-1.8c0.6,0,2.1-0.4,3.3-0.7v-11.2h-1V183.8z M457.7,187.7
			c-0.1,0.5-0.1,1.2-0.1,2.2v2.6c0,2.1-0.1,2.9-0.3,3.7c-0.4,1.3-1.5,2.6-2.9,3.5c-1.1,0.7-2,1.1-4.6,1.9c-0.4-0.7-0.6-1-1.2-1.4
			c2.7-0.6,4.1-1.2,5.4-2.2c0.8-0.6,1.4-1.4,1.7-2.4c0.2-0.6,0.2-1.5,0.2-3.2v-2.6c0-0.9,0-1.6-0.1-2.2h1.9V187.7z M452.2,182.2
			c-1.2,0-1.7,0-2.3,0.1v-1.6c0.7,0.1,1.2,0.1,2.3,0.1h9.6c1.1,0,1.8,0,2.3-0.1v1.6c-0.7-0.1-1.2-0.1-2.2-0.1h-4.2
			c-0.2,0.6-0.5,1.5-1,2.7h3.6c1.3,0,1.7,0,2.4-0.1c-0.1,0.6-0.1,1-0.1,1.7v7.3c0,1.1,0,1.7,0.1,2.4H461c0.1-0.7,0.1-1.4,0.1-2.4
			v-7.7h-8.7v7.7c0,1,0,1.7,0.1,2.4h-1.8c0.1-0.7,0.1-1.4,0.1-2.4v-7.2c0-0.7,0-1.3-0.1-1.8c0.7,0,1.2,0.1,2.1,0.1h2.2
			c0.5-1,0.8-1.8,1-2.7H452.2z M458.5,196.5c2.5,1.6,4.4,2.9,6,4l-1,1.2c-1.8-1.5-3.5-2.7-5.8-4.1L458.5,196.5z"/>
		<path id="XMLID_1288_" class="st1" d="M472.4,184.6c0.7,0,1.3,0,1.9-0.1v1.6c-0.7-0.1-1.2-0.1-2-0.1h-0.8v4.9
			c0.8-0.2,1.5-0.5,2.8-1v1.4c-1.1,0.5-1.1,0.5-2.9,1.1v7.3c0,1.3-0.6,1.7-2.6,1.7c-0.6,0-1,0-1.8-0.1c0-0.7-0.1-1-0.3-1.6
			c0.9,0.2,1.6,0.2,2.4,0.2c0.6,0,0.8-0.1,0.8-0.6v-6.4c-0.1,0-0.1,0-0.4,0.1c-0.4,0.1-0.9,0.3-1.3,0.4c-0.7,0.2-1.1,0.3-1.5,0.5
			l-0.4-1.7c0.9-0.1,1.2-0.2,3.6-0.9v-5.4h-1.4c-0.7,0-1.3,0-2,0.1v-1.6c0.6,0.1,1.2,0.1,1.9,0.1h1.5v-2.3c0-0.9,0-1.7-0.2-2.4h1.8
			c-0.1,0.7-0.2,1.5-0.2,2.4v2.4H472.4z M477,186.1c0,1,0.4,1.1,4.3,1.1c4.6,0,4.7,0,4.9-3.1c0.5,0.3,1,0.5,1.5,0.6
			c-0.2,1.9-0.6,2.8-1.3,3.2c-0.7,0.5-1.7,0.6-5.5,0.6c-4.6,0-5.4-0.3-5.4-2.1v-4.1c0-1.1,0-1.6-0.1-2.4h1.8
			c-0.1,0.6-0.1,1.3-0.1,2.3v0.9c4-0.6,7.3-1.5,8.7-2.4l1.2,1.3c-1.5,0.6-2.8,1-4.2,1.3c-2.1,0.6-2.8,0.7-5.7,1.1L477,186.1
			L477,186.1z M475.5,192.4c0-0.8,0-1.4-0.1-1.9c0.6,0.1,1.1,0.1,2.1,0.1h6.8c1,0,1.5,0,2.1-0.1c-0.1,0.5-0.1,1.1-0.1,1.9v6.8
			c0,1.3,0,1.8,0.1,2.4h-1.6v-1.3H477v1.3h-1.6c0.1-0.6,0.1-1.2,0.1-2.4V192.4z M477,194.6h7.8v-2.7H477V194.6z M477,198.9h7.8v-3
			H477V198.9z"/>
		<path id="XMLID_1282_" class="st1" d="M495.4,198.9c0,1.3,0,2.1,0.1,2.8h-1.7c0.1-0.7,0.1-1.5,0.1-2.8v-6.7c0-1.1,0-2.4,0.1-3.9
			c-0.8,3.3-1.6,5.4-3.2,7.7c-0.3-0.6-0.6-0.9-1-1.4c1.1-1.4,2.1-3.2,2.8-5.3c0.3-0.8,0.8-2.6,0.9-3.4h-1.2c-0.8,0-1.4,0-2,0.1v-1.6
			c0.6,0.1,1.1,0.1,2,0.1h1.5v-2.2c0-1.1,0-1.8-0.1-2.5h1.7c-0.1,0.7-0.1,1.4-0.1,2.4v2.2h1.3c0.6,0,1.1,0,1.6-0.1v1.5
			c-0.5-0.1-1-0.1-1.6-0.1h-1.3v1.2c1.4,1.7,2.1,2.5,3.1,3.9l-1.1,1c-0.6-1.1-1.1-2-2-3.2v10.3H495.4z M502.2,191
			c-0.9,3.4-1.8,5.3-3.7,8c-0.3-0.5-0.6-0.7-1.2-1.2c1.9-2.1,2.7-3.7,3.5-7.3L502.2,191z M500.7,188.3c-0.9,0-1.5,0-2.2,0.1v-1.7
			c0.7,0.1,1.2,0.1,2.2,0.1h9.2c1,0,1.6,0,2.3-0.1v1.8c-0.7-0.1-1.4-0.2-2.3-0.2H506V199c0,1.1,0,1.1-0.1,1.4
			c-0.3,0.6-0.9,0.8-2.2,0.8c-0.6,0-1,0-2-0.1c-0.1-0.6-0.2-1-0.5-1.6c1.2,0.2,1.8,0.2,2.6,0.2c0.6,0,0.7-0.1,0.7-0.6v-10.9h-3.8
			V188.3z M499.7,181.1c0.6,0.1,1,0.1,1.9,0.1h7.2c0.8,0,1.3,0,1.8-0.1v1.7c-0.6-0.1-1.1-0.1-1.8-0.1h-7.3c-0.7,0-1.3,0-1.8,0.1
			L499.7,181.1L499.7,181.1z M511,198.8c-1.2-3.9-1.8-5.5-3.2-7.7l1.4-0.5c0.9,1.5,2.4,4.9,3.2,7.4L511,198.8z"/>
		<path id="XMLID_1280_" class="st1" d="M532.9,198.9c1.2,0,1.9,0,2.8-0.2v1.8c-0.8-0.1-1.6-0.2-2.8-0.2h-15.6c-1.1,0-1.9,0-2.8,0.2
			v-1.8c0.7,0.1,1.5,0.2,2.8,0.2h1.2v-8.4c0-1.2,0-1.9-0.2-2.8h2c-0.1,0.8-0.2,1.6-0.2,2.8v8.4h4.8v-16.2h-6.8c-1.1,0-1.9,0-2.7,0.1
			V181c0.7,0.1,1.5,0.1,2.7,0.1h14.1c1.1,0,1.9,0,2.7-0.1v1.8c-0.8-0.1-1.6-0.1-2.7-0.1h-5.6v6.8h4.8c1.2,0,1.9,0,2.5-0.1v1.7
			c-0.6-0.1-1.4-0.1-2.5-0.1h-4.8v7.9L532.9,198.9L532.9,198.9z"/>
		<path id="XMLID_1276_" class="st1" d="M552.1,183.5c0.9-1.1,1.4-1.8,2-3.1l1.4,0.6c-0.8,1.2-1.2,1.8-1.8,2.5h2.7
			c1.3,0,1.9,0,2.7-0.1c-0.1,0.6-0.1,1.2-0.1,2.2v1.2c0,0.5,0,1,0.1,1.4h-1.6v-3.4h-16.8v3.3h-1.6c0.1-0.6,0.1-1.1,0.1-1.5v-1.3
			c0-0.8,0-1.3-0.1-2c0.6,0.1,1.3,0.1,2.5,0.1h2.5c-0.5-0.9-1.1-1.7-2-2.7l1.4-0.5c1,1.2,1.5,2,2.2,3.2h2.4v-1.7
			c0-0.6,0-1.2-0.1-1.8h1.8c-0.1,0.5-0.1,1.1-0.1,1.8v1.8H552.1z M549.7,193.5h5.5c1.2,0,1.8,0,2.3-0.1c-0.1,0.5-0.1,1.2-0.1,2.1
			v3.2c0,1.3-0.5,1.7-2.3,1.7c-0.7,0-1.4,0-2.4-0.1c-0.1-0.6-0.1-1-0.3-1.4c1,0.1,1.9,0.2,2.5,0.2c0.9,0,1.1-0.1,1.1-0.6v-3.6h-6.2
			v4.4c0,1,0,1.8,0.1,2.4H548c0.1-0.8,0.1-1.5,0.1-2.4v-4.4h-5.7v3.4c0,1.2,0,1.8,0.1,2.4h-1.8c0.1-0.7,0.1-1.4,0.1-2.4v-2.7
			c0-0.8,0-1.5-0.1-2.1c0.6,0.1,1.4,0.1,2.3,0.1h5.1v-2H545c-1,0-1.6,0-2.2,0.1c0-0.5,0.1-0.8,0.1-2v-1.4c0-0.8,0-1.4-0.1-1.9
			c0.6,0.1,1.4,0.1,2.3,0.1h8.2c1,0,1.7,0,2.2-0.1c0,0.6-0.1,1-0.1,1.9v1.4c0,1.2,0,1.5,0.1,2c-0.6-0.1-1.5-0.1-2.4-0.1h-3.5v1.9
			H549.7z M544.4,187.7v2.5h9.6v-2.5H544.4z"/>
		<path id="XMLID_1269_" class="st1" d="M562.9,196.9c0.1-0.8,0.1-1.4,0.1-2.8v-9.8c0-1.2,0-1.9-0.1-2.7c0.5,0,0.8,0.1,1.9,0.1h1.4
			c1,0,1.3,0,1.8-0.1c-0.1,0.7-0.1,1.1-0.1,2.6v9.5c0,1.4,0,1.8,0.1,2.5h-1.4v-1.4h-2.2v2.1L562.9,196.9L562.9,196.9z M564.4,193.5
			h2.2V183h-2.2V193.5z M575.1,181.3c-0.1,0.3-0.1,0.4-0.3,0.8c-0.6,2.4-1.2,3.8-2,5.8c0.7,1.1,0.9,1.7,1.2,2.7
			c0.3,1.1,0.5,2.2,0.5,3.3c0,2-0.6,2.7-2.3,2.7c-0.2,0-0.4,0-0.7,0c0-0.6-0.1-1-0.4-1.5c0.4,0.1,0.7,0.1,1,0.1
			c0.7,0,0.9-0.3,0.9-1.4c0-2.1-0.5-3.7-1.8-5.6c1.1-2.5,1.5-3.9,2.1-6.3h-2.7V199c0,1.3,0,1.9,0.1,2.4h-1.6
			c0.1-0.6,0.1-1.4,0.1-2.5v-16.3c0-0.7,0-1.7-0.1-2.2c0.5,0,0.8,0.1,1.7,0.1h1.8c0.8,0,1.1,0,1.4-0.1L575.1,181.3z M582.9,199.2
			c0,1.4-0.6,1.8-2.6,1.8c-0.5,0-0.9,0-1.7-0.1c0-0.6-0.1-1-0.3-1.6c0.9,0.2,1.5,0.3,2.2,0.3c0.8,0,1.1-0.1,1.1-0.7v-16.8h-4
			c-0.9,0-1.6,0-2.2,0.1v-1.6c0.5,0.1,1.1,0.1,2.2,0.1h4.4c1,0,1.6,0,2.2-0.1v1.6c-0.4,0-0.6-0.1-1.1-0.1v17.1H582.9z M578.4,185.1
			c1.1,0,1.3,0,1.8-0.1c-0.1,0.6-0.1,1.1-0.1,1.9v6.3c0,0.7,0,1.2,0.1,1.7c-0.4,0-0.8-0.1-1.7-0.1h-1.7v2h-1.4
			c0.1-0.5,0.1-1,0.1-1.7v-8.3c0-0.8,0-1.3-0.1-1.9c0.4,0.1,0.7,0.1,1.8,0.1h1.2V185.1z M576.8,193.6h2v-7.2h-2V193.6z"/>
		<path id="XMLID_1266_" class="st1" d="M590.7,195.4c0-0.6,0.1-1.1,0.1-1.4c0-0.1,0-0.5,0-1.2l-0.2-8.5c0-1,0-1.7-0.1-2.6h2.4
			c-0.1,0.9-0.1,1.6-0.1,2.6l-0.2,8.5v1.1c0,0.4,0,0.9,0.1,1.5H590.7z M590.4,199.9v-2.3h2.3v2.3H590.4z"/>
	</g>
</g>
<path id="XMLID_421_" class="st0" d="M391.7,81.3h-78c-12.6,0-23,10.3-23,23v3c0,0.4,0,0.8,0,1.2l0,0c0,0,1.2,16.7-11.2,23.5
	c0,0,12.8-0.2,19.6-7c4,3.3,9.1,5.3,14.6,5.3h78c12.6,0,23-10.3,23-23v-3C414.7,91.7,404.4,81.3,391.7,81.3z"/>
<path id="XMLID_423_" class="st0" d="M526.3-207.3h133c12.6,0,23,10.3,23,23v3c0,0.4,0,0.8,0,1.2l0,0c0,0-1.2,16.7,11.2,23.5
	c0,0-12.8-0.2-19.6-7c-4,3.3-9.1,5.3-14.6,5.3h-133c-12.6,0-23-10.3-23-23v-3C503.3-197,513.6-207.3,526.3-207.3z"/>
<path id="XMLID_424_" class="st0" d="M447.9-207.3h-140c-12.6,0-23,10.3-23,23v3c0,0.4,0,0.8,0,1.2l0,0c0,0,1.2,16.7-11.2,23.5
	c0,0,12.8-0.2,19.6-7c4,3.3,9.1,5.3,14.6,5.3h140c12.6,0,23-10.3,23-23v-3C470.9-197,460.6-207.3,447.9-207.3z"/>
<path id="XMLID_430_" class="st0" d="M469.7,43.3h213c12.6,0,23,10.3,23,23v41c0,0.4,0,0.8,0,1.2l0,0c0,0-1.2,16.7,11.2,23.5
	c0,0-12.8-0.2-19.6-7c-4,3.3-9.1,5.3-14.6,5.3h-213c-12.6,0-23-10.3-23-23v-41C446.7,53.7,457,43.3,469.7,43.3z"/>
<g id="XMLID_791_">
	<path id="XMLID_792_" class="st1" d="M529-190.3c0-1.1,0-1.8-0.1-2.6c0.9,0.1,1.5,0.1,2.9,0.1h14c1.3,0,2,0,2.8-0.1
		c-0.1,0.7-0.1,1.5-0.1,2.6v15.8c0,1.5-0.5,1.8-2.9,1.8c-1,0-1.6,0-3.1-0.1c-0.1-0.7-0.1-1-0.4-1.6c1.5,0.2,2.5,0.3,3.7,0.3
		c1,0,1.2-0.1,1.2-0.6v-16.7h-16.5v16.3c0,1.4,0,2.1,0.1,2.8h-1.8c0.1-0.9,0.1-1.7,0.1-2.8L529-190.3L529-190.3z M538.3-178.3
		c-0.8-1.4-1-1.7-2.1-3.2c-0.9,2.5-2,4.3-4,6.4c-0.4-0.5-0.7-0.7-1.2-1.1c2.2-1.9,3.3-3.7,4.2-6.7c-1.7-2-2.1-2.5-3.5-3.9l1-0.9
		c1.2,1.2,1.2,1.2,2.9,3.2c0.4-1.8,0.6-3.1,0.7-5.4l1.5,0.1c-0.4,3.4-0.6,4.5-1.1,6.6c1.5,1.9,1.7,2.1,2.7,3.8L538.3-178.3z
		 M545.1-178.1c-0.7-1.3-1.2-2.1-2-3.2c-0.4,1.1-0.8,2.1-1.5,3.1c-0.6,1.1-1.2,1.8-2.3,3.2c-0.6-0.6-0.7-0.7-1.3-1
		c0.9-0.8,1.2-1.2,1.8-2.1c1-1.5,1.6-2.7,2.2-4.6c-1-1.3-2.2-2.7-3.8-4.2l1.1-0.9c1.4,1.4,1.8,1.9,3.1,3.4c0.4-1.6,0.5-2.8,0.7-5.4
		l1.6,0.2c-0.4,3.3-0.7,4.9-1.2,6.6c0.1,0.1,0.1,0.2,0.3,0.4c0.8,1,1.4,1.8,2.4,3.4L545.1-178.1z"/>
	<path id="XMLID_796_" class="st1" d="M559.9-175.9c-3.2,1.1-3.8,1.3-6.8,2.1c-0.5,0.1-0.6,0.2-0.8,0.2l-0.4-1.7h0.1
		c0.2,0,1.3-0.2,2-0.3c2.2-0.5,4.1-1,5.9-1.7V-175.9L559.9-175.9z M552.2-180.6c0.1,0,0.1,0,0.5-0.1c0.4-0.1,0.8-0.5,1.8-1.9
		c1.6-2.1,1.6-2.1,2.1-2.9c-0.1,0-0.1,0-0.2,0c-1.7,0.1-3.2,0.3-3.8,0.6l-0.4-1.5c0.6-0.1,0.8-0.4,1.8-2.3c0.7-1.5,1.5-3.4,2.2-5.3
		l1.6,0.6c-0.6,1.4-0.6,1.4-0.8,1.8c-0.8,1.9-1.8,3.6-2.6,5.1c1.6-0.1,1.6-0.1,3.1-0.2c0.5-0.8,0.7-1.2,1.3-2.3l1.4,0.8
		c-1.7,2.7-3.5,5.1-5.5,7.5c3.2-0.6,3.9-0.7,5.4-1.1l-0.2,1.5c-0.8,0.1-0.8,0.1-2.8,0.5c-1.9,0.3-3.6,0.6-4.3,0.9L552.2-180.6z
		 M572.4-190.9c-0.1,0.1-0.1,0.1-0.3,0.4c-0.1,0.1-0.3,0.4-0.5,0.7c-1.5,2.3-2.1,3.1-3.4,4.3c0.5,0.4,1.2,1,2,1.4
		c1.3,0.8,2.2,1.2,3.9,1.8c-0.4,0.6-0.6,0.9-0.8,1.5c-2.7-1.2-4.4-2.2-6.1-3.7c-2.1,1.7-3.5,2.5-6.1,3.7c-0.1-0.5-0.4-0.9-0.7-1.4
		c2.2-0.9,4.1-1.9,5.8-3.3c-1.1-1.1-1.6-1.8-2.4-3.3c-0.8,1-1.2,1.4-2.6,2.6c-0.3-0.4-0.7-0.8-1.1-1.1c2.1-1.7,3.3-3,4.3-5.1
		c0.3-0.7,0.5-1.2,0.6-1.8l1.6,0.4c-0.1,0.2-0.1,0.2-0.5,1.1c-0.1,0.3-0.2,0.5-0.4,0.9h3.7c1.2,0,1.8,0,2.2-0.1L572.4-190.9z
		 M563.7-172.3h-1.6c0.1-0.6,0.1-1.2,0.1-2.4v-4.4c0-1.1,0-1.5-0.1-2.1c0.6,0,0.9,0,1.9,0h5.9c1,0,1.4,0,1.9,0
		c-0.1,0.6-0.1,0.9-0.1,2.1v4.4c0,1.2,0,1.9,0.1,2.4h-1.6v-1.2h-6.7v1.2H563.7z M563.7-174.8h6.7v-5h-6.7V-174.8z M564.9-190.4
		c0,0.1,0,0.1-0.1,0.2c-0.1,0.1-0.1,0.1-0.2,0.2c0.7,1.5,1.3,2.2,2.6,3.6c1.1-1,2-2.2,3.2-4C570.4-190.4,564.9-190.4,564.9-190.4z"
		/>
	<path id="XMLID_803_" class="st1" d="M582.4-190.2c1.2,0,1.9,0,2.1-0.1c0,0.6-0.1,1.2-0.1,2.1v12.2c0,1.1,0,1.9,0.1,2.5H583v-1.5
		h-4.7v2.1h-1.6c0.1-0.6,0.1-1.5,0.1-2.9V-188c0-1.1,0-1.7-0.1-2.3c0.5,0,0.9,0.1,2.1,0.1h0.5c0.5-1.2,0.8-2.4,1-3.6l1.7,0.3
		c-0.4,1.3-0.9,2.5-1.2,3.3H582.4z M578.3-183.5h4.7v-5.4h-4.7V-183.5z M578.3-176.4h4.7v-5.9h-4.7V-176.4z M594.9-190.2
		c1,0,1.6,0,2.1-0.1c-0.1,0.4-0.1,0.6-0.1,1.5c-0.2,9.5-0.5,12.7-1.4,14.6c-0.5,1.1-1.2,1.5-2.7,1.5c-0.9,0-1.6,0-3-0.2
		c0-0.7-0.1-1.1-0.4-1.7c1.5,0.3,2.5,0.4,3.4,0.4s1.2-0.2,1.5-1c0.4-1.1,0.7-3.4,0.9-6.6c0.1-1.9,0.1-3.6,0.2-7.1h-6.9
		c-0.8,1.7-1.5,2.8-2.8,4.4c-0.3-0.4-0.7-0.8-1.2-1.1c1.5-1.6,2.6-3.6,3.5-6c0.3-0.9,0.6-1.8,0.6-2.3l1.7,0.3
		c-0.1,0.1-0.2,0.5-0.3,0.9c-0.3,0.8-0.5,1.5-0.9,2.4h5.8V-190.2z M591.1-178.9c-1.3-2.9-2.3-4.4-3.6-6.1l1.2-0.7
		c1.5,1.8,2.5,3.4,3.8,6L591.1-178.9z"/>
	<path id="XMLID_809_" class="st1" d="M602.5-189c-0.1,0.8-0.1,1.3-0.1,2.7v11.4c0,1.4,0,2.1,0.1,2.8h-1.8c0.1-0.9,0.1-1.6,0.1-2.8
		v-11.4c0-1.3,0-1.8-0.1-2.7H602.5z M602.8-194.1c1.5,1.7,2,2.2,3.7,4.6l-1.3,0.9c-1.3-2.1-1.5-2.3-3.6-4.7L602.8-194.1z M614-185.7
		c0.7,0,1.3,0,1.8-0.1c0,0.6-0.1,0.9-0.1,1.5v5.4c0,0.6,0,1,0.1,1.5c-0.6,0-0.9-0.1-1.5-0.1h-6.5c-0.5,0-1.7,0-1.9,0.1
		c0-0.7,0.1-1,0.1-1.9v-5c0-0.6,0-1-0.1-1.5c0.6,0,1,0.1,1.7,0.1H614z M609.5-191.4c-1.1,0-1.5,0-2.2,0.1v-1.7
		c0.7,0.1,1.1,0.1,2.1,0.1h9.1c1,0,1.5,0,2-0.1c-0.1,0.6-0.1,1.2-0.1,2.1v16.7c0,0.8-0.3,1.3-0.9,1.6c-0.3,0.1-1.2,0.2-2.3,0.2
		c-0.2,0-0.9,0-2.3-0.1c-0.1-0.9-0.2-1.2-0.4-1.8c1.3,0.2,1.9,0.3,2.9,0.3c1.2,0,1.5-0.1,1.5-0.6v-16.8H609.5z M607.3-178.8h6.8
		v-5.6h-6.8V-178.8z"/>
	<path id="XMLID_815_" class="st1" d="M629.1-182.5h-2.9c-1.3,0-1.8,0-2.4,0.1v-1.6c0.7,0.1,1.3,0.1,2.4,0.1h6.3
		c0.9,0,1.4,0,2.2-0.1v1.6c-0.7-0.1-1.2-0.1-2.2-0.1h-2v2.6h1.7c0.9,0,1.3,0,1.9-0.1v1.5c-0.6-0.1-1.1-0.1-1.9-0.1h-1.6v3.5
		c1.5,0.7,3.9,1,8.6,1c3,0,5-0.1,7.2-0.4c-0.3,0.6-0.4,0.9-0.5,1.7c-1.5,0.1-3.5,0.1-5.9,0.1c-4.8,0-7.5-0.2-9.2-0.8
		c-1.7-0.6-3-1.5-4.2-3.2c-0.5,1.8-0.9,2.8-1.9,4.2c-0.4-0.4-0.7-0.6-1.2-0.9c1-1.3,1.5-2.4,1.9-3.6c0.3-0.9,0.5-2.6,0.5-3.6
		c0-0.3,0-0.4,0-0.6l1.5,0.2c0,0.3,0,0.4-0.1,0.8c-0.1,0.7-0.1,1.1-0.3,2.1c0.6,0.9,1.2,1.6,2.3,2.5v-6.9H629.1z M627.6-185.3
		c-1.1,0-1.6,0-2.2,0.1c0.1-0.6,0.1-1.1,0.1-2.1v-3.6c0-1,0-1.5-0.1-2.2c0.6,0.1,1.1,0.1,2.2,0.1h3.8c1.1,0,1.5,0,2.2-0.1
		c-0.1,0.7-0.1,1.1-0.1,2.2v3.6c0,1,0,1.4,0.1,2.1c-0.7-0.1-1.2-0.1-2.2-0.1H627.6z M626.8-189.8h5.4v-2h-5.4V-189.8z M626.8-186.5
		h5.4v-2.1h-5.4V-186.5z M640.8-187.4c-0.1,0.5-0.1,0.5-0.1,3.2c0,3.2-0.3,4.8-1.2,6c-1.1,1.5-2.5,2.6-4.9,3.6
		c-0.4-0.6-0.6-0.9-1-1.2c1.4-0.5,2.1-0.9,3-1.5c1.4-1,2.1-2,2.4-3.3c0.2-0.7,0.3-2.5,0.3-3.9s0-2.5-0.1-2.9
		C639.2-187.4,640.8-187.4,640.8-187.4z M637.2-178.7h-1.4c0.1-0.6,0.1-1.1,0.1-2.1v-6.5c0-0.9,0-1.4-0.1-2.1c0.7,0,1.1,0.1,2.1,0.1
		h0.7c0.4-1,0.6-1.5,0.7-2.2h-2.1c-1,0-1.7,0-2.4,0.1v-1.5c0.8,0.1,1.5,0.1,2.4,0.1h6c1,0,1.7,0,2.3-0.1v1.5
		c-0.7-0.1-1.5-0.1-2.3-0.1h-2.6c-0.2,0.8-0.4,1.4-0.8,2.2h2.4c1,0,1.3,0,2.1-0.1c-0.1,0.6-0.1,1.1-0.1,2.2v6.3c0,1.1,0,1.7,0.1,2.3
		H643v-9.5h-5.8V-178.7z M641.1-178.9c1.9,1.1,3.4,2.1,4.6,3l-0.8,1.2c-1.7-1.4-2.3-1.8-4.5-3.2L641.1-178.9z"/>
	<path id="XMLID_823_" class="st1" d="M652.4-178.4c0.1-0.6,0.1-0.8,0.1-1.6c0-1.2,0.3-2,0.9-2.9c0.5-0.6,0.7-0.8,2.1-1.8
		c0.9-0.6,1.3-0.9,1.7-1.3c0.5-0.6,0.8-1.2,0.8-2c0-1.8-1.6-3-3.9-3c-1.6,0-2.8,0.5-3.6,1.5c-0.4,0.5-0.6,1-0.9,2l-2-0.3
		c0.5-1.7,1-2.6,2-3.4c1.1-0.9,2.7-1.4,4.6-1.4c3.4,0,5.7,1.9,5.7,4.6c0,1-0.3,1.9-0.9,2.7c-0.4,0.5-0.8,0.8-1.8,1.6
		c-1.4,1-1.8,1.3-2.1,1.8c-0.4,0.6-0.6,1.3-0.6,2.2c0,0.4,0,0.8,0.1,1.3C654.6-178.4,652.4-178.4,652.4-178.4z M654.6-176.2v2.3
		h-2.3v-2.3C652.3-176.2,654.6-176.2,654.6-176.2z"/>
</g>
<path id="XMLID_428_" class="st0" d="M330.7-123.5h362c12.6,0,23,10.3,23,23v3c0,0.4,0,0.8,0,1.2l0,0c0,0-1.2,16.7,11.2,23.5
	c0,0-12.8-0.2-19.6-7c-4,3.3-9.1,5.3-14.6,5.3h-362c-12.6,0-23-10.3-23-23v-3C307.7-113.1,318-123.5,330.7-123.5z"/>
<g id="XMLID_720_">
	<path id="XMLID_721_" class="st1" d="M346.6-103.5c-0.2,0.2-0.2,0.2-0.4,0.5c-1.3,1.4-2.9,2.8-4.4,3.8c3,1.7,5.7,2.6,9.6,3.3
		c-0.4,0.6-0.5,0.9-0.7,1.6c-1.7-0.4-2.3-0.6-3.4-0.9c0,0.1,0,0.1,0,0.3c0,0.2,0,0.7,0,1.2v3.3c0,0.8,0,1.4,0.1,2.1h-1.7v-0.9h-10.5
		v0.9h-1.6c0.1-0.7,0.1-1.4,0.1-2.1v-3.3c0-0.5,0-0.9,0-1.4c-1,0.3-1.6,0.5-3.5,1c-0.2-0.6-0.4-1-0.8-1.4c2.5-0.4,4.4-1,6.4-1.8
		c1.1-0.5,2.5-1.2,3.5-1.8c-1.4-1-2-1.5-3.2-2.8c-1.5,1.4-2.3,2-4.6,3.3c-0.4-0.6-0.5-0.7-1-1.2c2.1-1,3.2-1.8,4.7-3
		c1.2-1.1,2.3-2.4,2.7-3.3l1.6,0.6c-0.1,0.1-0.2,0.1-0.3,0.3c0,0-0.3,0.3-0.8,1h5.2c1,0,1.6,0,2.2-0.1L346.6-103.5z M347.6-107.8
		c1.1,0,1.8,0,2.7-0.1c-0.1,0.5-0.1,0.9-0.1,1.7v1.4c0,0.7,0,1.2,0.1,1.7h-1.6v-3.3h-16.9v3.2h-1.5c0.1-0.6,0.1-1,0.1-1.7v-1.3
		c0-0.7,0-1.1-0.1-1.7c0.9,0.1,1.6,0.1,2.5,0.1h6.8c-0.3-0.6-0.6-1.1-1.2-2l1.3-0.7c0.7,0.8,1.1,1.5,1.6,2.7
		C341.3-107.8,347.6-107.8,347.6-107.8z M345.1-95.6c0.6,0,0.6,0,1.1,0c-2.6-0.9-3.4-1.3-5.7-2.7c-1.8,1.1-3.2,1.8-5.7,2.8
		c0.3,0,0.4,0,0.9,0h9.4V-95.6z M335.2-90.7h10.5v-3.6h-10.5V-90.7z M337.2-103.1c0,0.1-0.1,0.1-0.2,0.2c1,1.1,2,1.9,3.5,2.9
		c1.2-0.8,2.1-1.6,3.7-3.1H337.2z"/>
	<path id="XMLID_727_" class="st1" d="M370.6-106.7c1.1,0,1.6,0,2.3-0.1c-0.1,0.7-0.1,1.2-0.1,2.2v5.4c0,1.2,0,1.8,0.1,2.4h-1.7
		v-1.7h-13c-0.3,2.4-0.6,3.9-1.1,5.6c-0.6,2-1.2,3.2-2.4,4.8c-0.8-0.7-0.8-0.8-1.4-1.1c1.3-1.7,1.8-2.7,2.4-4.7c0.7-2.4,1-5.5,1-10
		c0-1.3,0-1.9-0.1-2.8c0.8,0.1,1.3,0.1,2.4,0.1h6c-0.6-1-1.4-1.8-2.3-2.7l1.1-0.9c1.6,1.5,2,1.9,2.6,2.9l-0.9,0.7h5.1V-106.7z
		 M371.2-100v-5.3h-12.8v2c0,0.8,0,2.4-0.1,3.3H371.2z"/>
	<path id="XMLID_730_" class="st1" d="M383.8-105.5c0.6,0,0.9,0,1.4-0.1v1.6c-0.4-0.1-0.9-0.1-1.5-0.1h-1.3v4.8
		c0.8-0.3,1.2-0.5,2.4-1.1v1.4c-1,0.5-1,0.5-2.4,1.1v7.6c0,1.3-0.6,1.7-2.8,1.7c-0.4,0-0.6,0-1.2,0c0-0.6-0.1-0.9-0.3-1.5
		c0.9,0.1,1.4,0.2,2.1,0.2c0.6,0,0.8-0.1,0.8-0.6v-6.8c-0.1,0-0.2,0.1-0.4,0.1c-1.1,0.4-1.1,0.4-2.6,1.1l-0.5-1.6
		c1-0.2,1.3-0.3,3.4-1.1v-5.4h-1.5c-0.6,0-1.2,0-1.7,0.1v-1.6c0.5,0.1,1,0.1,1.7,0.1h1.5v-2.2c0-1,0-1.7-0.2-2.4h1.9
		c-0.1,0.7-0.2,1.4-0.2,2.4v2.3H383.8z M397.1-99.1c-0.2,0.2-0.2,0.2-0.7,1.1c-1.2,2-2.3,3.4-3.7,4.7c2.1,1.5,4.1,2.5,6.6,3.1
		c-0.4,0.5-0.7,1-0.9,1.5c-2.8-0.9-4.9-2-6.8-3.6c-2.3,1.8-4.4,2.8-7.2,3.7c-0.2-0.6-0.5-1-0.9-1.4c2.8-0.7,4.7-1.7,7-3.3
		c-0.8-0.8-1.4-1.6-2-2.5c-0.6-1-0.8-1.4-1.4-2.8c-0.6,0-1.1,0-1.6,0.1v-1.6c0.5,0.1,1.2,0.1,1.9,0.1h7.3c0.7,0,1.2,0,1.4-0.1
		L397.1-99.1z M399.1-102.1c-1,0.1-1.9,0.2-2.8,0.2c-1.2,0-2.2-0.1-2.6-0.3c-0.3-0.2-0.4-0.5-0.4-1v-4.6H389
		c-0.1,2.2-0.4,3.2-1.1,4.5c-0.6,0.9-1.1,1.5-2.2,2.3c-0.4-0.5-0.6-0.8-1.1-1.2c2.3-1.5,3-3,3-6.2c0-0.3,0-0.5,0-0.9
		c0.5,0,0.8,0.1,1.7,0.1h4c1,0,1.2,0,1.7-0.1c-0.1,0.5-0.1,0.7-0.1,1.8v3.7c0,0.4,0.1,0.5,1.3,0.5c1.3,0,1.4,0,3-0.3L399.1-102.1
		L399.1-102.1z M388.4-98.6c0.9,1.9,1.7,3.1,3.1,4.4c1.6-1.4,2.4-2.4,3.5-4.4H388.4z"/>
	<path id="XMLID_735_" class="st1" d="M405-101.2h-1.7c-0.8,0-1.2,0-1.8,0.1v-1.7c0.6,0.1,1,0.1,1.8,0.1h1.2c0.9,0,1.4,0,2-0.1
		c-0.1,0.8-0.1,1.3-0.1,2.5v7.4c0.3-0.2,0.6-0.4,0.7-0.5c1.2-0.8,1.3-0.9,2.2-1.6l0.1,1.7c-0.8,0.5-3.3,2.2-4.5,3.1l-0.7-1.6
		c0.4-0.2,0.6-0.4,0.6-0.9v-8.5H405z M404.6-109.9c1.6,1.2,2.5,2,3.9,3.4l-1.2,1.2c-1.3-1.5-2.3-2.5-3.9-3.6L404.6-109.9z
		 M412.8-102c0,4.5-0.1,5.6-0.4,7.4c-0.4,2.6-1.3,4.5-2.7,6.2c-0.4-0.4-0.8-0.7-1.4-1.1c2.5-3.2,3-5.2,3-13c0-3,0-4.2-0.3-5.6
		c0.3,0,0.4,0,0.6,0c1.8,0,4.2-0.3,6.1-0.9c1.4-0.4,2.5-0.8,3.1-1.2l1.2,1.3c-0.1,0.1-0.1,0.1-0.4,0.1c-0.1,0-0.3,0.1-0.6,0.2
		c-2.7,0.9-5,1.4-8.3,1.7v3.3h8.6c0.9,0,1.4,0,2-0.1v1.7c-0.7-0.1-1.3-0.1-2-0.1H419v5.1c1.6,0.9,2.4,1.3,4.2,2.5l-0.7,1.4
		c-1.3-1-1.4-1.1-3.5-2.3v4.5c0,0.9,0,1.7,0.2,2.4h-1.8c0.1-0.7,0.1-1.4,0.1-2.3v-5.3c-1.1-0.6-1.7-0.9-3.6-1.7l0.7-1.2
		c1.6,0.7,2,0.9,2.9,1.3v-4.3H412.8z"/>
	<path id="XMLID_739_" class="st1" d="M430.1-90.8c0,1,0,1.8,0.1,2.4h-1.7c0.1-0.6,0.1-1.5,0.1-2.5v-7.3c-0.7,0.9-1.6,1.7-2.9,2.9
		c-0.2-0.6-0.4-0.9-0.7-1.4c2.8-2.1,4.9-4.9,6.2-8.1h-3.6c-0.7,0-1.3,0-1.8,0.1v-1.6c0.6,0.1,1.1,0.1,1.9,0.1h3.1
		c0.8,0,1.3,0,1.7-0.1l0.7,0.8c-0.1,0.2-0.1,0.2-0.3,0.7c-0.8,1.8-1.4,2.8-2.7,4.6c0.3,0.3,0.7,0.6,1.2,1c0.6-0.7,1-1.3,1.4-2.4
		l1,0.7c-0.1,0.2-0.2,0.4-0.3,0.5c-0.6,1-0.8,1.3-1.4,1.9c0.6,0.6,0.9,0.9,1.6,1.8l-0.9,1.1c-1.3-1.8-1.8-2.3-2.6-3.1v7.9H430.1z
		 M428.9-110.4c0.7,0.8,1.3,1.7,2.1,2.9l-1.2,0.8c-1.1-1.8-1.2-1.9-2-3.1L428.9-110.4z M435.9-99.2c-0.4,5-1.4,8.1-3.6,10.8
		c-0.5-0.5-0.7-0.6-1.2-0.9c1.3-1.6,2.1-3,2.6-5.2c0.6-2.2,0.9-5.3,0.9-9.2c0-1.3,0-2.1-0.1-2.9c0.7,0.1,1.2,0.1,2.4,0.1h2.8v-1.3
		c0-1.1,0-1.6-0.1-2.2h1.7c-0.1,0.5-0.1,1.1-0.1,2.2v1.3h2.7c1.4,0,1.9,0,2.4-0.1l0.9,0.7c0,0.1,0,0.1-0.8,1.9
		c-0.2,0.5-0.6,1.4-1,2.1c-0.5-0.3-0.8-0.5-1.3-0.6c0.7-1,1-1.7,1.3-2.7h-4.1v4.6h2c1.1,0,1.7,0,2.1-0.1l0.7,0.8
		c-0.2,0.4-0.2,0.4-0.5,1c-0.8,1.9-2.1,3.9-3.4,5.3c1.6,1.5,3.2,2.5,5.4,3.4c-0.4,0.5-0.6,0.9-0.8,1.5c-2.1-1-4.1-2.4-5.5-3.9
		c-1.8,1.7-3.5,2.8-6.2,4c-0.4-0.6-0.5-0.8-1-1.2c2.7-1.1,4.4-2.1,6.2-3.7c-0.6-0.6-1.1-1.4-1.6-2.2c-0.8-1.3-1.1-2-1.6-3.6
		L435.9-99.2L435.9-99.2z M439.7-100.5v-4.6h-3.6v1.9c0,0.6,0,1.2-0.1,2.7H439.7z M438.4-99.2c0.7,1.9,1.4,3.2,2.8,4.8
		c1.3-1.5,2.2-3,2.9-4.8H438.4z"/>
	<path id="XMLID_745_" class="st1" d="M454.6-99.3c1-0.4,1.5-0.6,2.8-1.2v1.5c-1.2,0.6-1.7,0.8-2.8,1.2v7.4c0,0.6-0.2,1.1-0.5,1.3
		c-0.4,0.3-0.9,0.4-2.1,0.4c-0.6,0-1,0-1.7,0c0-0.6-0.1-0.9-0.4-1.5c0.9,0.1,1.6,0.1,2.2,0.1c0.8,0,1-0.1,1-0.6v-6.4
		c-1,0.4-1,0.4-1.9,0.7c-0.6,0.2-0.7,0.3-1.2,0.5l-0.5-1.7c0.9-0.1,1-0.2,3.6-1.1v-5.3h-1.4c-0.6,0-1.2,0-2,0.1v-1.7
		c0.6,0.1,1.2,0.1,2,0.1h1.4v-2.3c0-1,0-1.7-0.1-2.4h1.8c-0.1,0.7-0.1,1.4-0.1,2.4v2.3h0.8c0.8,0,1.4,0,2-0.1v1.6
		c-0.7-0.1-1.2-0.1-2-0.1h-0.8L454.6-99.3L454.6-99.3z M460.1-89h-1.6c0.1-0.7,0.1-1.5,0.1-2.8v-14.7c0-1.1,0-1.7-0.1-2.5
		c0.7,0.1,1.2,0.1,2.3,0.1h6.9c1.3,0,1.8,0,2.4-0.1c-0.1,0.7-0.1,1.4-0.1,2.5v14.7c0,1.2,0,2.1,0.1,2.7h-1.7v-1.8h-8.3L460.1-89
		L460.1-89z M460.1-92.1h8.3v-15.3h-8.3V-92.1z"/>
	<path id="XMLID_749_" class="st1" d="M477.5-95.4c-0.8,2.4-1.5,3.8-2.7,5.4c-0.5-0.5-0.8-0.7-1.2-0.9c1.2-1.5,1.9-2.7,2.5-4.9
		L477.5-95.4z M480.5-90.3c0,1.3-0.5,1.7-2.3,1.7c-0.3,0-0.8,0-1.5,0c-0.1-0.7-0.1-1-0.3-1.6c0.7,0.1,1.3,0.2,1.9,0.2
		s0.8-0.1,0.8-0.5v-6.3H476c-1,0-1.6,0-2.1,0.1v-1.6c0.5,0.1,1.1,0.1,2.1,0.1h6.9c1,0,1.6,0,2.2-0.1v1.6c-0.6-0.1-1.2-0.1-2.2-0.1
		h-2.4V-90.3z M482.6-107.7c1.2,0,1.8,0,2.4-0.1v1.5c-0.6-0.1-1.2-0.1-2.4-0.1h-2.3v2.1h1.8c1.3,0,1.7,0,2.2-0.1v1.4
		c-0.7-0.1-1.2-0.1-2.2-0.1h-5.4c-1.1,0-1.7,0-2.2,0.1v-1.4c0.5,0.1,0.9,0.1,2.2,0.1h2.1v-2.1h-2.5c-1.2,0-1.8,0-2.4,0.1v-1.5
		c0.6,0.1,1.3,0.1,2.4,0.1h2.5v-0.6c0-0.7,0-1.2-0.1-1.8h1.7c-0.1,0.5-0.1,1.1-0.1,1.9v0.6L482.6-107.7L482.6-107.7z M484.1-99.9
		c-0.3-0.1-0.9-0.1-1.5-0.1h-6.2c-0.6,0-1.2,0-1.6,0.1v-1.5c0.4,0.1,1,0.1,1.6,0.1h6.1c0.7,0,1.2,0,1.6-0.1V-99.9z M482.8-96
		c0.8,1.2,1.2,1.9,1.8,3.3l-1.2,0.7c-0.6-1.5-0.9-2.2-1.7-3.4L482.8-96z M490-103.2c-0.1,0.4-0.1,0.6-0.1,1c0,3.5,0.9,6.8,2.4,9.1
		c0.9,1.4,1.9,2.4,3.5,3.4c-0.5,0.5-0.6,0.6-1,1.5c-1.4-1.1-2.4-2.2-3.3-3.5c-1.2-1.8-1.8-3.4-2.3-6.2c-0.6,4.3-2.3,7-5.8,9.5
		c-0.4-0.5-0.7-0.8-1.1-1.2c1.1-0.7,1.6-1.1,2.4-1.9c1.4-1.4,2.3-2.8,2.9-4.9c0.6-1.8,0.8-3.6,0.8-5.9c0-0.4,0-0.6-0.1-1L490-103.2
		L490-103.2z M492.8-106.3c1,0,1.5,0,1.9-0.1l0.8,0.9c-0.2,0.4-0.3,0.6-0.5,1.5c-0.4,1.2-1.2,3-2.1,4.4c-0.4-0.4-0.7-0.6-1.2-0.8
		c0.8-1.2,1.4-2.4,2.2-4.5h-6.1c-0.7,1.9-1.3,3.2-2.3,4.6c-0.4-0.5-0.6-0.7-1.2-1.1c1.7-2.1,3.1-6.1,3.1-8.8l1.7,0.2
		c-0.1,0.4-0.2,0.6-0.3,1.3c-0.2,1.1-0.3,1.2-0.6,2.4H492.8z"/>
	<path id="XMLID_757_" class="st1" d="M502-107.3c-1.1,0-1.9,0-2.9,0.2v-1.8c0.9,0.1,1.8,0.2,2.9,0.2h12.5c1.2,0,1.8,0,2.3-0.1
		l0.9,1.1c-0.9,0.9-1.4,1.4-2,1.9c-2,1.8-3.7,2.9-6.5,4.4v10.8c0,0.8-0.2,1.3-0.7,1.6c-0.3,0.2-1,0.2-2.2,0.2c-0.9,0-1.6,0-3.2-0.2
		c0-0.7-0.1-1-0.3-1.7c1.5,0.3,2.6,0.4,3.8,0.4c0.8,0,1-0.1,1-0.5v-9.7c0-1,0-1.7-0.1-2.4h1.4c2.3-1.2,4-2.4,6.1-4.4H502z"/>
	<path id="XMLID_759_" class="st1" d="M525.5-90.4c0,1.8-0.3,2.4-1.5,3.1l-0.6-0.8c1-0.4,1.2-0.8,1.2-2.3h-1.4v-2.4h2.4L525.5-90.4
		L525.5-90.4z"/>
	<path id="XMLID_761_" class="st1" d="M549.8-91.3c0,1.1,0,2,0.2,2.8h-1.8c0.1-0.9,0.2-1.6,0.2-2.9v-7.8c0-1,0-1.6,0.1-3
		c-0.7,1.3-1.3,2.1-2.5,3.5c-0.4-0.7-0.5-0.9-1-1.4c2-2,3.4-4.2,4.6-7.1c0.5-1.2,0.9-2.4,1-3.1l1.6,0.6c-0.9,2.4-1.5,3.8-2.3,5.4v13
		H549.8z M551.2-91.3c0.8,0.1,1.6,0.1,2.6,0.1h11c1.1,0,1.9,0,2.6-0.1v1.7c-0.8-0.1-1.4-0.1-2.6-0.1h-10.9c-1.2,0-1.9,0-2.7,0.1
		V-91.3z M555.7-94.4c-0.7,0-1.5,0-2.3,0.1c0-0.6,0.1-1.4,0.1-2.4v-9.4c0-1.1,0-1.9-0.1-2.5c0.6,0.1,1.2,0.1,2.3,0.1h7.4
		c1.2,0,1.8,0,2.3-0.1c0,0.6-0.1,1.3-0.1,2.7v8.9c0,1.3,0,2,0.1,2.7c-0.7-0.1-1.5-0.1-2.3-0.1C563.1-94.4,555.7-94.4,555.7-94.4z
		 M555-102.3h8.8v-4.8H555V-102.3z M555-95.8h8.8v-5.2H555V-95.8z"/>
	<path id="XMLID_767_" class="st1" d="M571.2-101.2c-0.8,0-1.2,0-1.8,0.1v-1.7c0.6,0.1,1,0.1,1.8,0.1h2.5c0.7,0,1.3,0,1.8-0.1
		c-0.1,0.8-0.1,1.3-0.1,2.5v7.9c1.1-0.6,1.1-0.6,3.5-2l0.2,1.7c-0.7,0.4-1.5,0.8-2.6,1.4c-1,0.6-1,0.6-1.6,0.9
		c-0.5,0.2-0.5,0.3-1,0.6l-0.7-1.6c0.5-0.2,0.7-0.5,0.7-1.1v-8.8L571.2-101.2L571.2-101.2z M573.2-109.9c1.4,1,2.4,1.9,3.7,3.2
		l-1.2,1.2c-1.2-1.3-2.1-2.2-3.6-3.3L573.2-109.9z M580.7-106.7c-1.1,0-1.7,0-2.3,0.1v-1.7c0.6,0.1,1.3,0.1,2.3,0.1h7.8
		c1,0,1.9,0,2.6-0.2v1.8c-0.8-0.1-1.7-0.2-2.6-0.2h-1.7v15.9c0,1.6-0.5,1.9-2.9,1.9c-0.7,0-1.3,0-2.6-0.1c0-0.6-0.2-1.2-0.4-1.7
		c1.1,0.2,2.1,0.3,3.2,0.3c1,0,1.1-0.1,1.1-0.6v-15.6L580.7-106.7L580.7-106.7z"/>
	<path id="XMLID_771_" class="st1" d="M605.5-105.6c1.1-1.4,2-3.1,2.7-4.5l1.6,0.5c-0.8,1.4-1.8,2.8-2.6,3.9h3c1.2,0,1.9,0,2.4-0.1
		c-0.1,0.6-0.1,1.2-0.1,2.4v4.5c0,1.2,0,1.8,0.1,2.4c-0.8-0.1-1.5-0.1-2.4-0.1h-5.3v2.3h7.6c1.1,0,1.8,0,2.4-0.1v1.7
		c-0.7-0.1-1.5-0.1-2.5-0.1h-7.5v2.2c0,1.1,0,1.6,0.2,2.3h-1.8c0.1-0.6,0.1-1.1,0.1-2.3v-2.2h-7.2c-1,0-1.8,0-2.5,0.1v-1.6
		c0.6,0.1,1.4,0.1,2.4,0.1h7.2v-2.3h-4.9c-1,0-1.6,0-2.4,0.1c0.1-0.8,0.1-1.2,0.1-2.3v-4.6c0-1.1,0-1.8-0.1-2.4
		c0.5,0.1,1.2,0.1,2.4,0.1H605.5z M597.7-104.3v2.6h5.7v-2.6H597.7z M597.7-100.5v2.7h5.7v-2.7H597.7z M600.2-110
		c0.8,1,1.3,1.8,2.3,3.4l-1.4,0.7c-0.7-1.4-1.4-2.5-2.3-3.5L600.2-110z M604.9-101.7h6.1v-2.6h-6.1V-101.7z M604.9-97.8h6.1v-2.7
		h-6.1V-97.8z"/>
	<path id="XMLID_778_" class="st1" d="M618.4-103.7c1.7,1,2.6,1.6,4.1,2.8l-0.9,1.3c-1.3-1.3-2.4-2-4.1-3L618.4-103.7z M622.6-96.2
		c-0.9,2.6-1.6,4.3-2.6,6c-0.4,0.7-0.5,0.9-0.6,1.1l-0.2,0.4l-1.4-1.2c0.4-0.4,0.6-0.8,1.1-1.5c1-1.7,1.7-3.3,2.5-5.8L622.6-96.2z
		 M620-109.9c1.7,1.1,2.7,1.9,4,3.3l-1,1.3c-1.3-1.4-2.4-2.4-4.1-3.6L620-109.9z M636.7-99.1c-0.2,0.3-0.3,0.4-0.7,1
		c-1.1,1.8-2.1,3-4.1,4.8c1.8,1.3,4.4,2.5,7.3,3.3c-0.4,0.5-0.6,0.8-0.9,1.5c-3.2-1-5.6-2.2-7.6-3.8c-2.3,1.7-4.5,2.8-7.6,3.7
		c-0.3-0.6-0.4-0.9-0.8-1.4c3-0.7,5.1-1.7,7.3-3.2c-1.5-1.5-2.6-3.1-3.6-5.3h-0.1c-0.7,0-1.3,0-1.8,0.1v-1.6
		c0.6,0.1,1.3,0.1,2.1,0.1h7.6c1,0,1.5,0,2.1-0.1L636.7-99.1z M639.3-102c-1.4,0.1-2,0.2-2.8,0.2c-2.4,0-3.2-0.3-3.2-1.3v-4.6h-4.5
		c0,2-0.4,3.3-1.1,4.5c-0.6,1-1.4,1.7-3,2.5c-0.4-0.6-0.6-0.8-1.1-1.2c2.9-1.5,3.7-2.8,3.7-6.3c0-0.5,0-0.6-0.1-1.1
		c0.4,0,0.8,0.1,1.7,0.1h4.2c0.9,0,1.3,0,1.7-0.1c-0.1,0.5-0.1,0.7-0.1,1.8v3.8c0,0.4,0.2,0.5,1.2,0.5c0.7,0,1.7-0.1,3.3-0.3
		L639.3-102z M627.5-98.5c0.9,2,1.6,2.9,3.3,4.4c1.7-1.4,2.6-2.5,3.7-4.4H627.5z"/>
	<path id="XMLID_785_" class="st1" d="M655.1-104.9c0,1.2,0.2,2.9,0.4,4.2c0.3,1.7,0.6,2.9,1.2,4.4c1.4-1.9,2.7-4.8,3-6.6l1.6,0.6
		c0,0.1-0.4,0.8-0.9,2.1c-1.1,2.7-1.7,3.6-3,5.4c0.7,1.4,1.2,2.1,2.1,2.9c0.6,0.6,1.1,0.9,1.4,0.9c0.4,0,0.8-1.2,1.1-3.5
		c0.5,0.5,0.9,0.8,1.3,1.1c-0.3,1.6-0.5,2.2-0.9,2.9c-0.4,0.8-0.9,1.2-1.5,1.2s-1.6-0.6-2.5-1.5c-0.7-0.7-1.3-1.6-2-2.7
		c-2.1,2.2-3.9,3.5-6.6,4.8c-0.4-0.6-0.6-0.8-1.2-1.2c3-1.2,5.2-2.7,7.1-5c-1.1-2.6-1.8-5.9-2-10h-8.4c0,1.9,0,2.1,0,3.9h4.6
		c0.9,0,1.3,0,1.8-0.1c-0.1,0.5-0.1,0.5-0.2,2.7c-0.1,2.7-0.4,4.5-0.7,5.2c-0.4,0.7-0.9,1-2.3,1c-0.8,0-1.5,0-2.5-0.2
		c0-0.6-0.1-1-0.3-1.6c1.3,0.3,2,0.4,2.8,0.4s1-0.2,1.2-1.1c0.2-1,0.3-2.9,0.3-4.9h-4.8c-0.2,3.6-0.3,4.8-0.8,6.6
		c-0.4,1.7-0.8,2.7-1.8,4.2c-0.4-0.5-0.8-0.8-1.3-1.1c0.9-1.2,1.3-2.3,1.7-3.6c0.5-2.2,0.8-5.4,0.8-10.3c0-1.3,0-1.8-0.1-2.6
		c0.8,0.1,1.7,0.1,2.9,0.1h7.1c0-0.2,0-0.6,0-1c-0.1-2-0.1-2.4-0.2-2.9h1.8c-0.1,0.5-0.1,1-0.1,1.9c0,0.4,0,1.5,0,2h5.2
		c1.3,0,2,0,2.6-0.1v1.6c-0.7-0.1-1.4-0.1-2.7-0.1C660.3-104.9,655.1-104.9,655.1-104.9z M660-106.6c-1.3-1.2-1.8-1.6-3.5-2.5l1-0.8
		c1.6,0.9,1.9,1.1,3.4,2.4L660-106.6z"/>
	<path id="XMLID_788_" class="st1" d="M670.7-96c1.6-0.5,2.2-0.8,3.8-1.5v1.5c-2.4,1.1-3.9,1.6-7.5,2.8c-0.4,0.1-0.8,0.3-1.1,0.5
		l-0.5-1.8c0.8-0.1,1.3-0.2,3.8-1v-10.6h-1.8c-0.7,0-1.2,0-1.8,0.1v-1.6c0.6,0.1,1.1,0.1,1.9,0.1h4.9c0.8,0,1.4,0,1.9-0.1v1.6
		c-0.6-0.1-1.1-0.1-1.8-0.1h-2V-96H670.7z M676.1-103c-1.2,0-1.8,0-2.3,0.1v-1.6c0.6,0.1,1.1,0.1,2.2,0.1h2.4
		c0.1-1.3,0.1-2.2,0.1-3.4c0-0.9,0-1.4-0.1-2.2h1.8c-0.1,0.7-0.1,1.1-0.1,1.9c0,1.9,0,2.5-0.1,3.6h4.5c1.1,0,1.7,0,2.1-0.1
		c-0.1,0.6-0.1,0.6-0.2,4.1c-0.1,3.6-0.5,7.8-0.9,9.4s-0.9,2-3.1,2c-0.7,0-1.6,0-2.7-0.2c0-0.6-0.1-1.1-0.4-1.7
		c1.4,0.3,2.4,0.4,3.3,0.4c1.1,0,1.2-0.2,1.5-1.6c0.5-2.4,0.7-5.4,0.8-10.9h-5c-0.1,0.8-0.3,2.3-0.5,3.3c-0.9,5-3,8.4-7,11.2
		c-0.4-0.6-0.6-0.8-1.2-1.2c2.2-1.4,3.5-2.7,4.6-4.5c1.4-2.3,2.1-4.7,2.5-8.8L676.1-103L676.1-103z"/>
</g>
<linearGradient id="XMLID_2_" gradientUnits="userSpaceOnUse" x1="486.4" y1="-207.6563" x2="486.4" y2="-157.0133" gradientTransform="matrix(1 0 0 -1 0 95.74)">
	<stop  offset="0" style="stop-color:#006EC3"/>
	<stop  offset="1" style="stop-color:#007CDB"/>
</linearGradient>
<path id="XMLID_426_" class="st2" d="M334.3,252.8h293c12.6,0,23,10.3,23,23v3c0,0.4,0,0.8,0,1.2l0,0c0,0-1.2,16.7,11.2,23.5
	c0,0-12.8-0.2-19.6-7c-4,3.3-9.1,5.3-14.6,5.3h-293c-12.6,0-23-10.3-23-23v-3C311.3,263.1,321.7,252.8,334.3,252.8z"/>
<g id="XMLID_660_">
	<path id="XMLID_661_" class="st0" d="M342.1,268.8c1.4,1.1,2.3,1.8,3.4,3c1.1-1.1,1.8-2.1,2.7-3.6h-4.1c-0.7,0-1.1,0-1.6,0.1v-1.5
		c0.4,0.1,0.9,0.1,1.7,0.1h2.5c1.2,0,1.7,0,2.1-0.1l1,1c-0.9,1.8-1.4,2.7-2.7,4.2c-2,2.4-4.2,4-7.3,5.4c-0.3-0.7-0.5-1-0.9-1.4
		c2.4-0.9,3.8-1.8,5.4-3.2c-1-1-2-1.8-3.5-3L342.1,268.8z M352.2,285.8c0.6-1,1.1-2,1.6-3.3l1.4,0.6c-0.6,1.2-1,1.9-1.5,2.6h4.7
		c1,0,1.7,0,2.3-0.1v1.7c-0.6-0.1-1.4-0.1-2.4-0.1h-16.4c-1,0-1.7,0-2.4,0.1v-1.7c0.7,0.1,1.3,0.1,2.3,0.1h4.6
		c-0.4-1-0.8-1.7-1.4-2.6l1.4-0.5c0.7,1.2,1,1.9,1.5,3.1L352.2,285.8L352.2,285.8z M345.1,282.3c-0.8,0-1.3,0-1.9,0.1
		c0.1-0.6,0.1-1,0.1-1.6v-2.6c0-0.6,0-1-0.1-1.6c0.6,0.1,1.1,0.1,1.9,0.1h10c0.8,0,1.3,0,1.9-0.1c-0.1,0.5-0.1,0.9-0.1,1.6v2.6
		c0,0.7,0,1,0.1,1.6c-0.6,0-1.1-0.1-1.9-0.1H345.1z M344.8,281h10.7v-3h-10.7V281z M346.2,273.4c0.5,0.1,1,0.1,1.9,0.1h4.6
		c0.9,0,1.4,0,1.9-0.1v1.5c-0.6-0.1-1-0.1-1.9-0.1h-4.5c-0.9,0-1.4,0-1.9,0.1L346.2,273.4L346.2,273.4z M356.6,267.8
		c-0.2,0.3-0.2,0.3-1,1.1c-0.4,0.5-1,1.1-1.6,1.7c0.8,0.9,1.2,1.4,1.9,2c1.1-1.1,2.1-2.3,2.6-3.1l1.3,0.9c-0.3,0.3-0.3,0.3-1.1,1.2
		c-0.5,0.5-1.2,1.3-1.9,1.8c1.4,1.1,2.6,1.8,4.3,2.5c-0.5,0.5-0.6,0.7-0.9,1.4c-2.9-1.6-4.4-2.6-6.3-4.6c-1.5-1.5-2.6-3.2-3.5-5.1
		c-0.1-0.3-0.2-0.4-0.3-0.6l1.2-0.7c0.2,0.7,1,2.1,1.8,3.3c1-1.1,1.7-1.9,2.1-2.7L356.6,267.8z"/>
	<path id="XMLID_668_" class="st0" d="M365.9,276c-1,0-1.7,0-2.4,0.1v-1.7c0.7,0.1,1.4,0.1,2.4,0.1h12.5l0.4-2.6h-9.4
		c-1.1,0-1.7,0-2.3,0.1v-1.6c0.6,0.1,1.2,0.1,2.3,0.1h9.6l0.4-2.2H369c-1.1,0-1.7,0-2.4,0.1v-1.6c0.7,0.1,1.4,0.1,2.4,0.1h10.2
		c0.9,0,1.3,0,2.2-0.1c0,0.2,0,0.2-0.1,0.4c-0.1,0.6-0.3,1.2-0.3,1.3l-1,6.2h2.5c1.1,0,1.7,0,2.4-0.1v1.7c-0.7-0.1-1.4-0.1-2.4-0.1
		h-7.6v1.8c0.3,0.7,1.1,1.8,2.1,2.8c1.9-1.2,3.6-2.7,4.2-3.6l1.4,1.2c-0.4,0.2-0.4,0.2-0.9,0.7c-0.9,0.8-2.4,1.8-3.7,2.7
		c0.8,0.7,1.4,1.2,2.4,1.8c1.5,0.9,2.5,1.3,4.4,1.9c-0.5,0.6-0.5,0.7-0.9,1.5c-3.1-1.4-4.9-2.5-6.6-4.1c-1.2-1.1-2.1-2.3-2.5-3.2
		c0,0.5,0,0.5,0.1,1.3c0,0.3,0,0.9,0,1.2v3.6c0,1.7-0.5,2.1-2.4,2.1c-0.6,0-1.3,0-2.3-0.1c-0.1-0.6-0.2-1-0.5-1.6
		c1.4,0.2,1.9,0.2,2.7,0.2s0.9-0.1,0.9-0.7v-9.6L365.9,276L365.9,276z M371.8,282.6c-2,1.2-3.5,1.9-6.4,3.1c0,0-0.1,0-0.3,0.1
		c-0.1,0.1-0.2,0.1-0.3,0.1c-0.2,0.1-0.3,0.1-0.5,0.2l-0.8-1.6c0.2,0,0.2,0,0.4-0.1c0.6-0.1,1.6-0.5,2.6-0.9
		c2.1-0.9,3.3-1.5,5.1-2.7L371.8,282.6z M369.6,281.2c-2-1.5-2.8-2-4.5-2.8l1-1.2c1.8,1,2.6,1.4,4.5,2.7L369.6,281.2z"/>
	<path id="XMLID_672_" class="st0" d="M404,276.9c0,5.8-3.2,9.5-8.3,9.5c-5.1,0-8.3-3.7-8.3-9.5s3.3-9.5,8.3-9.5
		S404,271.1,404,276.9z M399.8,283c1.4-1.3,2.1-3.6,2.1-6.1c0-2.6-0.7-4.8-2.1-6.1c-1.1-1.1-2.5-1.7-4.2-1.7c-3.8,0-6.4,3.1-6.4,7.8
		c0,4.7,2.5,7.8,6.4,7.8C397.4,284.6,398.8,284.1,399.8,283z"/>
	<path id="XMLID_675_" class="st0" d="M406.9,286c0.1-0.9,0.2-1.6,0.2-2.7v-7.5c0-1.1,0-1.8-0.2-2.7h2v1.6c0,0.3,0,0.5-0.1,1
		c1.1-2,2.7-2.9,4.8-2.9c1.7,0,3.1,0.6,3.8,1.8c0.5,0.7,0.7,1.6,0.7,2.8v5.9c0,1.2,0,1.9,0.2,2.7h-2.2c0.1-0.9,0.2-1.7,0.2-2.7v-5.6
		c0-2.2-1-3.3-2.9-3.3c-1.3,0-2.4,0.6-3.4,1.9c-0.6,0.8-0.9,1.4-1.1,2.4v4.6c0,1.1,0,1.8,0.2,2.7L406.9,286L406.9,286z"/>
	<path id="XMLID_677_" class="st0" d="M423,279.8c0.1,1.6,0.3,2.5,1,3.4c0.8,1.1,1.9,1.6,3.4,1.6c1.9,0,3.3-1,4-2.8l1.7,0.7
		c-0.5,1-0.8,1.4-1.3,2c-1.1,1.1-2.6,1.7-4.3,1.7c-3.8,0-6.1-2.6-6.1-6.8c0-4.1,2.4-6.8,6-6.8c3.1,0,5.3,2,5.8,5.2
		c0,0.3,0.1,1.2,0.2,1.8L423,279.8L423,279.8z M431.1,278.3c-0.1-1.3-0.5-2.2-1.3-3c-0.7-0.7-1.7-1.1-2.8-1.1
		c-1.5,0-2.7,0.7-3.4,2.1c-0.3,0.6-0.5,1-0.6,1.9h8.1V278.3z"/>
	<path id="XMLID_680_" class="st0" d="M449.3,286c-0.2-0.9-0.5-1.7-0.7-2.4l-1.2-3.1H439l-1.2,3.1c-0.4,0.9-0.6,1.6-0.7,2.4h-2.5
		c0.5-0.8,0.6-1.2,1.3-2.8l5.4-13.2c0.5-1.1,0.6-1.7,0.8-2.2h2.4c0.1,0.5,0.2,0.8,0.8,2.2l5.4,13.2c0.6,1.4,0.9,2.1,1.3,2.8H449.3z
		 M443.7,270.9c-0.1-0.2-0.1-0.2-0.5-1.5c-0.1,0.4-0.2,0.6-0.3,0.8c-0.1,0.4-0.2,0.6-0.3,0.7l-3.1,7.9h7.2L443.7,270.9z"/>
	<path id="XMLID_683_" class="st0" d="M454,286c0.1-0.9,0.2-1.6,0.2-2.7v-12.9c0-1,0-1.7-0.2-2.7c0.9,0,1.5,0.1,2.6,0.1h4.9
		c3.7,0,5.8,1.9,5.8,5.2c0,3.5-2.2,5.6-5.9,5.6H456v4.7c0,1.2,0,1.9,0.2,2.7L454,286L454,286z M461.4,276.9c2.5,0,4-1.4,4-3.8
		s-1.4-3.7-4-3.7H456v7.5H461.4z"/>
	<path id="XMLID_686_" class="st0" d="M472.8,272.8c-0.4-0.8-0.6-1.5-1.1-3c0.1,1,0.2,2.5,0.2,3.1v10.3c0,1.3,0,2,0.2,2.8h-2.2
		c0.1-0.9,0.2-1.6,0.2-2.8v-12.6c0-1.2,0-2-0.2-2.9h2.8c0.1,0.7,0.4,1.6,0.8,2.4l5.9,13.2l5.9-13.2c0.4-0.9,0.7-1.7,0.8-2.4h2.8
		c-0.1,0.9-0.2,1.6-0.2,2.9v12.6c0,1.3,0,2,0.2,2.8h-2.2c0.1-0.8,0.2-1.7,0.2-2.8v-10.5c0-0.7,0.1-2,0.2-3c-0.2,1-0.6,1.9-1,2.9
		l-4.9,10.8c-0.5,1.1-0.7,1.7-0.9,2.5h-1.7c-0.1-0.6-0.4-1.4-0.9-2.5L472.8,272.8z"/>
	<path id="XMLID_688_" class="st0" d="M511.3,267.2c-0.4,0.1-0.4,0.1-1.7,0.3c-1.9,0.4-4.8,0.8-7.2,1c-0.2,0.9-0.4,1.5-0.5,2h7.6
		c1,0,1.7,0,2.4-0.1v1.6c-0.6-0.1-1.4-0.1-2.4-0.1h-8.1c-0.2,0.6-0.4,1.1-0.8,1.9h10.2c1,0,1.7,0,2.4-0.1v1.6
		c-0.7-0.1-1.4-0.1-2.4-0.1H500c-0.5,0.9-0.6,1-1,1.8h9.6c1.1,0,1.5,0,2.2-0.1c-0.1,0.6-0.1,1.1-0.1,2.1v7c0,1,0,1.6,0.1,2.2h-1.6
		V287h-10.3v1.2h-1.6c0.1-0.7,0.1-1.2,0.1-2.2v-6.7c-1.3,1.7-2.7,3.1-4.3,4.5c-0.4-0.5-0.7-0.9-1.2-1.2c2.8-1.9,4.9-4.3,6.6-7.3
		h-3.8c-1,0-1.8,0-2.4,0.1v-1.6c0.7,0.1,1.4,0.1,2.4,0.1h4.5c0.3-0.6,0.6-1.4,0.8-1.9h-3.9c-1,0-1.6,0-2.4,0.1v-1.6
		c0.6,0.1,1.3,0.1,2.4,0.1h4.3c0.2-0.9,0.2-0.9,0.5-1.8c-4.2,0.3-4.2,0.3-6.5,0.3c-0.2-0.6-0.3-0.9-0.6-1.3c0.6,0,1,0,1.3,0
		c5.9,0,12.8-0.8,15.1-1.8L511.3,267.2z M498.9,278v1.7h10.3V278H498.9z M498.9,280.8v1.7h10.3v-1.7H498.9z M498.9,283.7v1.9h10.3
		v-1.9H498.9z"/>
	<path id="XMLID_693_" class="st0" d="M535.3,267.2c-0.4,0.1-0.4,0.1-1.7,0.3c-1.9,0.4-4.8,0.8-7.2,1c-0.2,0.9-0.4,1.5-0.5,2h7.6
		c1,0,1.7,0,2.4-0.1v1.6c-0.6-0.1-1.4-0.1-2.4-0.1h-8.1c-0.2,0.6-0.4,1.1-0.8,1.9h10.2c1,0,1.7,0,2.4-0.1v1.6
		c-0.7-0.1-1.4-0.1-2.4-0.1H524c-0.5,0.9-0.6,1-1,1.8h9.6c1.1,0,1.5,0,2.2-0.1c-0.1,0.6-0.1,1.1-0.1,2.1v7c0,1,0,1.6,0.1,2.2h-1.6
		V287h-10.3v1.2h-1.6c0.1-0.7,0.1-1.2,0.1-2.2v-6.7c-1.3,1.7-2.7,3.1-4.3,4.5c-0.4-0.5-0.7-0.9-1.2-1.2c2.8-1.9,4.9-4.3,6.6-7.3
		h-3.8c-1,0-1.8,0-2.4,0.1v-1.6c0.7,0.1,1.4,0.1,2.4,0.1h4.5c0.3-0.6,0.6-1.4,0.8-1.9h-3.9c-1,0-1.6,0-2.4,0.1v-1.6
		c0.6,0.1,1.3,0.1,2.4,0.1h4.3c0.2-0.9,0.2-0.9,0.5-1.8c-4.2,0.3-4.2,0.3-6.5,0.3c-0.2-0.6-0.3-0.9-0.6-1.3c0.6,0,1,0,1.3,0
		c5.9,0,12.8-0.8,15.1-1.8L535.3,267.2z M522.9,278v1.7h10.3V278H522.9z M522.9,280.8v1.7h10.3v-1.7H522.9z M522.9,283.7v1.9h10.3
		v-1.9H522.9z"/>
	<path id="XMLID_698_" class="st0" d="M543.6,279.8c-0.6,2.7-1,3.7-2.3,5.9c-0.4-0.4-0.8-0.6-1.3-0.8c1.2-1.8,1.8-3.1,2.2-5.4
		L543.6,279.8z M545.8,269.2c-0.6-1.4-0.8-1.7-1.6-2.8l1.3-0.6c0.7,1,0.9,1.4,1.7,2.8l-1.3,0.6h3.4c0.9,0,1.5,0,2.1-0.1v1.6
		c-0.6-0.1-1.1-0.1-2.1-0.1h-6.9c-1.1,0-1.7,0-2.3,0.1v-1.6c0.6,0.1,1.1,0.1,2.2,0.1H545.8z M546.6,286c0,0.7-0.2,1.2-0.6,1.4
		c-0.4,0.2-0.8,0.3-1.8,0.3c-0.6,0-0.9,0-1.5,0c0-0.6-0.1-0.8-0.3-1.5c0.7,0.1,1.3,0.1,2,0.1c0.6,0,0.7-0.1,0.7-0.6v-7.6h-1.3
		c-1,0-1.7,0-2.3,0.1c0.1-0.6,0.1-1.2,0.1-2.2v-1.4c0-1,0-1.6-0.1-2.2c0.6,0.1,1.2,0.1,2.3,0.1h4.4c1,0,1.6,0,2.2-0.1
		c-0.1,0.6-0.1,1.2-0.1,2.2v1.4c0,1,0,1.6,0.1,2.2c-0.6-0.1-1.2-0.1-2.3-0.1h-1.4v7.9H546.6z M543,276.8h5.7v-3H543V276.8z
		 M548.7,279.2c0.8,1.5,1.1,2.3,1.7,3.9l-1.3,0.7c-0.4-1.6-0.8-2.6-1.5-4.1L548.7,279.2z M554.5,272.3c0.1-1.1,0.2-2.5,0.2-3.8
		c0-0.9,0-1.6-0.1-2.1h1.7c-0.1,0.3-0.1,1.1-0.1,1.9c0,1.3-0.1,2.4-0.2,3.9h3.2c1.1,0,1.7,0,2.3-0.1v1.7c-0.6-0.1-1.2-0.1-2.3-0.1
		h-3.4c-0.6,4.5-1.4,7.3-3.1,10.2c-1.1,1.9-1.9,2.8-3.4,4.1c-0.4-0.5-0.6-0.7-1.2-1.2c1.5-1.1,2.3-2.1,3.3-3.7
		c1.5-2.4,2.5-5.5,3-9.4h-1.1c-1,0-1.6,0-2.1,0.1v-1.7c0.5,0.1,1.1,0.1,2.2,0.1h1.1V272.3z M557.5,275.7c-0.1,0.6-0.1,1.1-0.1,2.1
		v7.5c0,0.6,0.2,0.7,1.2,0.7c1.1,0,1.4-0.1,1.5-0.8c0.2-0.7,0.2-1.7,0.2-3.4c0.5,0.3,0.9,0.5,1.4,0.6c-0.1,2.3-0.3,3.6-0.7,4.2
		c-0.3,0.6-1,0.8-2.7,0.8c-0.7,0-1.2,0-1.6-0.2c-0.6-0.2-0.8-0.6-0.8-1.5v-7.9v-0.3c0-0.8,0-1.3,0-1.8L557.5,275.7L557.5,275.7z
		 M558.4,266.9c1.2,1.4,1.8,2.1,2.7,3.5l-1.2,0.9c-0.9-1.6-1.4-2.4-2.6-3.7L558.4,266.9z"/>
	<path id="XMLID_707_" class="st0" d="M567.3,270.9c-0.7,1.5-1.1,2.1-2.2,3.5c-0.4-0.5-0.6-0.7-1.2-1.1c1.7-1.8,2.6-3.5,3.2-6
		c0.1-0.6,0.2-1,0.2-1.3l1.6,0.3c-0.1,0.4-0.2,0.6-0.4,1.3c-0.2,0.7-0.4,1.3-0.6,1.9h4.3c1.2,0,1.8,0,2.4-0.1v1.7
		c-0.7-0.1-1.5-0.1-2.4-0.1h-1.5c0,1.7-0.1,3.2-0.2,4.5h2c1,0,1.7,0,2.3-0.1v1.7c-0.6-0.1-1.3-0.1-2.3-0.1h-2.2
		c0,0.6-0.2,1.3-0.3,1.9c2.3,2.5,3.5,3.8,4.7,5.6l-1.3,1c-1.2-2-2.1-3.3-3.6-4.8c-0.1-0.1-0.1-0.1-0.2-0.2c-0.9,2.9-2.2,4.7-4.8,6.7
		c-0.4-0.6-0.6-0.8-1.2-1.2c3.3-2.3,4.7-4.7,5.2-8.9h-2.2c-1.2,0-1.8,0-2.5,0.1v-1.7c0.7,0.1,1.3,0.1,2.6,0.1h2.3
		c0.1-1.2,0.1-1.7,0.1-4.5h-1.8V270.9z M577.2,287h-1.7c0.1-0.7,0.1-1.7,0.1-2.7V271c0-0.9,0-1.7-0.1-2.5c0.7,0.1,1.1,0.1,2.2,0.1
		h4.8c1,0,1.5,0,2.2-0.1c-0.1,0.7-0.1,1.4-0.1,2.5v13.2c0,1.1,0,2.2,0.1,2.9H583v-1.7h-5.8V287z M577.2,283.9h5.8v-14h-5.8V283.9z"
		/>
	<path id="XMLID_711_" class="st0" d="M592.8,283c0.1,0.1,0.3,0.3,0.5,0.5c0.9,1,1.4,1.4,2.4,1.7c0.9,0.3,2.9,0.4,5.9,0.4
		c3.5,0,6.2-0.1,8.3-0.4c-0.4,0.9-0.4,1-0.6,1.8c-2.3,0.1-4.9,0.2-8.3,0.2c-1.5,0-3.5-0.1-4.5-0.3c-1.1-0.1-2-0.5-2.8-1
		c-0.4-0.3-0.4-0.3-1.3-1.3c-0.2-0.2-0.5-0.4-0.7-0.4c-0.6,0-1.9,1.3-3.1,3l-1.1-1.2c1.1-1.1,2-2,2.5-2.4c0.6-0.4,1-0.7,1.3-0.8
		v-6.1h-1.6c-0.8,0-1.2,0-1.8,0.1v-1.6c0.5,0.1,0.9,0.1,1.8,0.1h1.3c0.8,0,1.2,0,1.8-0.1c-0.1,0.7-0.1,1.3-0.1,2.4v5.4H592.8z
		 M589.3,266.8c1.6,1.5,2.4,2.4,3.8,4.2l-1.2,1.1c-1.2-1.8-1.8-2.4-3.7-4.3L589.3,266.8z M598.7,268.9c-0.3-0.6-0.9-1.4-1.7-2.3
		l1.3-0.6c0.8,0.9,1.1,1.5,2,2.9h2.6c0.7-0.8,1.4-1.9,1.8-2.9l1.4,0.5c-0.6,1-1.2,1.8-1.7,2.4h2.2c1.2,0,1.8,0,2.4-0.1v1.6
		c-0.8-0.1-1.5-0.1-2.4-0.1h-4.4c-0.2,0.6-0.6,1.3-0.9,2h3.9c1.1,0,1.8,0,2.3-0.1c-0.1,0.7-0.1,1.5-0.1,2.4v6.5c0,1,0,1.8,0.1,2.5
		c-0.5,0-1.1-0.1-1.8-0.1H598c-0.8,0-1.7,0-2.4,0.1c0-0.7,0.1-1.5,0.1-2.3v-6.7c0-0.8,0-1.8-0.1-2.4c0.6,0.1,1.3,0.1,2.5,0.1h1.6
		c0.4-0.7,0.7-1.4,0.9-2h-4c-1.2,0-1.7,0-2.4,0.1v-1.5c0.5,0.1,1.2,0.1,2.5,0.1h2V268.9z M597.1,282.2h8.8V280h-8.8V282.2z
		 M597.1,275.5h8.7v-2h-8.7V275.5z M597.1,278.8h8.7v-2.1h-8.7V278.8z"/>
	<path id="XMLID_718_" class="st0" d="M616.4,268.9c-1.1,0-1.9,0-2.9,0.2v-1.8c0.9,0.1,1.8,0.2,2.9,0.2h12.5c1.2,0,1.8,0,2.3-0.1
		l0.9,1.1c-0.9,0.9-1.4,1.4-2,1.9c-2,1.8-3.7,2.9-6.5,4.4v10.8c0,0.8-0.2,1.3-0.7,1.6c-0.3,0.2-1,0.2-2.2,0.2c-0.9,0-1.6,0-3.2-0.2
		c0-0.7-0.1-1-0.3-1.7c1.5,0.3,2.6,0.4,3.8,0.4c0.8,0,1-0.1,1-0.5v-9.7c0-1,0-1.7-0.1-2.4h1.4c2.3-1.2,4-2.4,6.1-4.4H616.4z"/>
</g>
<g id="XMLID_644_">
	<path id="XMLID_645_" class="st1" d="M324.8,114.5c-0.1-0.5-0.3-1.1-0.5-1.8l-2.4-7c0-0.1-0.2-0.6-0.4-1.5
		c-0.2,0.7-0.4,1.3-0.5,1.6l-2.3,6.9c-0.2,0.7-0.4,1.4-0.5,1.8h-1.7c-0.1-0.6-0.1-0.6-0.5-1.8l-2.6-8.3c-0.3-0.9-0.7-2-1-2.8h2.2
		c0,0.7,0.2,1.6,0.6,2.6l1.8,6c0.1,0.4,0.3,0.9,0.4,1.8c0.1-0.6,0.4-1.5,0.5-1.7l2.3-6.8c0.3-0.7,0.4-1.4,0.5-1.8h1.6
		c0.1,0.4,0.2,1.1,0.5,1.8l2.3,6.9c0.1,0.2,0.2,0.7,0.3,1.1s0.1,0.4,0.1,0.5c0.2-0.9,0.3-1.5,0.4-1.6l1.8-6.1c0.3-1,0.5-1.9,0.5-2.6
		h2.2c-0.2,0.5-0.5,1.5-0.9,2.8l-2.5,8.2c-0.3,1-0.4,1.3-0.5,1.8H324.8z"/>
	<path id="XMLID_647_" class="st1" d="M332.5,114.5c0.1-0.9,0.2-1.5,0.2-2.7V99c0-1.2,0-1.8-0.2-2.7h2.1c-0.1,0.9-0.2,1.5-0.2,2.7
		v4.1c0,0.4,0,0.6-0.1,1.2c0.5-0.8,0.7-1.2,1.3-1.6c1-0.9,2.1-1.3,3.6-1.3c2.8,0,4.5,1.7,4.5,4.5v6c0,1.1,0,1.8,0.2,2.7h-2.2
		c0.1-0.8,0.2-1.5,0.2-2.7v-5.7c0-2.1-1-3.2-2.9-3.2c-1.3,0-2.4,0.6-3.4,1.8c-0.7,0.9-1,1.5-1.2,2.5v4.6c0,1.1,0,1.8,0.2,2.7h-2.1
		V114.5z"/>
	<path id="XMLID_649_" class="st1" d="M355.8,112.8c-0.9,0.8-1.4,1.2-2.2,1.5s-1.7,0.5-2.5,0.5c-2.6,0-4.2-1.4-4.2-3.6
		c0-1.9,1.2-3.3,3.4-3.9c1.4-0.4,2.6-0.6,5.5-0.6v-1.4c0-1.6-1-2.5-3-2.5c-1.3,0-2.3,0.3-3,1c-0.3,0.3-0.5,0.7-0.7,1.4l-1.9-0.4
		c0.4-1.1,0.7-1.6,1.3-2.1c1-0.9,2.4-1.4,4.2-1.4c3.2,0,4.8,1.3,4.8,3.9v6.7c0,1.1,0,1.7,0.2,2.6h-1.9L355.8,112.8L355.8,112.8z
		 M355.8,108c-2.9,0.1-4.2,0.2-5.3,0.7c-1.2,0.5-1.8,1.3-1.8,2.5c0,1.3,1,2.2,2.5,2.2c1.4,0,2.9-0.7,3.8-1.7
		c0.6-0.6,0.7-1.1,0.7-2.1L355.8,108L355.8,108z"/>
	<path id="XMLID_652_" class="st1" d="M364.8,98c-0.1,0.8-0.2,1.6-0.2,2.7v0.9h1.2c1.1,0,1.6,0,2.4-0.1v1.8
		c-0.8-0.1-1.4-0.1-2.4-0.1h-1.2v8.4c0,0.7,0.1,1.1,0.3,1.3c0.3,0.3,0.7,0.4,1.2,0.4c0.6,0,1.1-0.1,1.9-0.6l0.5,1.7
		c-1,0.4-1.7,0.6-2.7,0.6c-1.1,0-1.9-0.3-2.4-0.7c-0.5-0.5-0.7-1.2-0.7-2.3v-8.6h-1c-0.8,0-1.4,0-2.2,0.1v-1.8
		c0.7,0.1,1.2,0.1,2.2,0.1h1v-1.1c0-1,0-1.9-0.2-2.7H364.8z"/>
	<path id="XMLID_654_" class="st1" d="M374.1,110c0.1-0.6,0.1-0.8,0.1-1.6c0-1.2,0.3-2,0.9-2.9c0.5-0.6,0.7-0.8,2.1-1.8
		c0.9-0.6,1.3-0.9,1.6-1.3c0.6-0.6,0.8-1.3,0.8-2c0-1.8-1.6-3-3.9-3c-1.6,0-2.8,0.5-3.6,1.5c-0.4,0.5-0.6,1-0.9,2l-2-0.3
		c0.5-1.8,1-2.6,2-3.4c1.1-0.9,2.7-1.4,4.6-1.4c3.3,0,5.7,1.9,5.7,4.4c0,0.9-0.2,1.7-0.6,2.3c-0.4,0.7-0.9,1.2-2.2,2.1
		c-1.4,1-1.8,1.3-2.2,1.8c-0.4,0.6-0.6,1.3-0.6,2.2c0,0.4,0,0.8,0.1,1.3L374.1,110L374.1,110z M376.3,112.3v2.3H374v-2.3H376.3z"/>
	<path id="XMLID_657_" class="st1" d="M385.3,110c0-0.7,0-0.9,0-1.7v-0.9l-0.2-8.5c0-1,0-1.7-0.1-2.6h2.4c-0.1,0.9-0.1,1.6-0.1,2.6
		l-0.2,8.5c0,1,0,1,0,1.1c0,0.4,0,0.9,0.1,1.5H385.3z M385.1,114.5v-2.3h2.3v2.3H385.1z"/>
</g>
<g id="XMLID_626_">
	<path id="XMLID_627_" class="st1" d="M328.2-183.9c-0.2,0.2-0.3,0.5-0.7,1.3c-1,2.1-2.3,3.9-3.8,5.4c2.3,1.6,4.5,2.6,7.7,3.5
		c-0.5,0.6-0.7,0.8-1,1.5c-3-1-5.6-2.3-7.8-4c-1.8,1.5-3.9,2.5-8.1,4c-0.3-0.6-0.5-0.9-1-1.5c2.1-0.6,4.2-1.3,5.7-2.1
		c0.7-0.4,1.3-0.7,2.1-1.4c-1.7-1.5-3-3.2-4-5.1c-0.5,1.4-1.2,2.8-2.2,4.2c-1.3,2.1-2.7,3.6-4.7,5.2c-0.3-0.6-0.6-0.9-1.2-1.4
		c1.5-1,2.2-1.7,3.4-3c2.3-2.7,3.6-5.8,4.4-10.2h-3.6c-1.3,0.1-2.1,0.1-2.4,0.1c1.1-2.6,1.5-3.9,1.9-6.3l1.7,0.2
		c-0.4,1.5-0.8,2.8-1.5,4.5h4.1c0.2-1.3,0.4-3.6,0.4-4.3c0-0.2,0-0.4,0-0.7l1.8,0.1c-0.1,0.4-0.1,0.4-0.2,1.4
		c-0.1,1.4-0.2,2.1-0.4,3.5h9.5c1.1,0,1.8,0,2.5-0.1v1.8c-0.6-0.1-1.3-0.1-2.5-0.1h-9.7c-0.2,1.1-0.3,1.6-0.6,2.7h7.1
		c1.1,0,1.6,0,2.1-0.1L328.2-183.9z M318.4-183.4c0.9,2,2.2,3.7,4.1,5.3c1.5-1.4,2.6-3,3.6-5.3C326.1-183.4,318.4-183.4,318.4-183.4
		z M327.7-189.5c-1.2-1.5-2.1-2.3-3.6-3.3l1.1-0.9c1.5,1,2.2,1.7,3.6,3.2L327.7-189.5z"/>
	<path id="XMLID_631_" class="st1" d="M343.9-188.8v-2.5c0-1,0-1.7-0.2-2.5h1.9c-0.1,0.8-0.2,1.5-0.2,2.5v2.5h5.9
		c1.1,0,1.9,0,2.7-0.1v1.7c-0.9-0.1-1.7-0.1-2.7-0.1h-5.9v5.2h4.8c1.2,0,1.9,0,2.6-0.1v1.7c-0.7-0.1-1.4-0.1-2.6-0.1h-4.8v6.3h6.7
		c1.2,0,2,0,2.8-0.2v1.8c-0.9-0.1-1.6-0.2-2.8-0.2h-15.4c-1.2,0-2,0-2.8,0.2v-1.8c0.8,0.1,1.6,0.2,2.8,0.2h7.1v-6.3h-4.4
		c-1.1,0-1.9,0-2.5,0.1v-1.7c0.6,0.1,1.3,0.1,2.5,0.1h4.4v-5.2h-5.7c-1,2.1-1.9,3.6-3.3,5.1c-0.5-0.5-0.8-0.7-1.4-1
		c1.9-2.1,3.3-4.4,4.3-7.4c0.4-1,0.5-1.6,0.5-2.3l1.8,0.5c-0.2,0.3-0.3,0.7-0.5,1.3c-0.1,0.4-0.1,0.4-0.9,2.3H343.9z"/>
	<path id="XMLID_633_" class="st1" d="M362-191.1c-1.1,0-1.9,0-2.9,0.2v-1.8c0.9,0.1,1.8,0.2,2.9,0.2h12.5c1.2,0,1.8,0,2.3-0.1
		l0.9,1.1c-0.9,0.9-1.4,1.4-2,1.9c-2,1.8-3.7,2.9-6.5,4.4v10.8c0,0.8-0.2,1.3-0.7,1.6c-0.3,0.2-1,0.2-2.2,0.2c-0.9,0-1.6,0-3.2-0.2
		c0-0.7-0.1-1-0.3-1.7c1.5,0.3,2.6,0.4,3.8,0.4c0.8,0,1-0.1,1-0.5v-9.7c0-1,0-1.7-0.1-2.4h1.4c2.3-1.2,4-2.4,6.1-4.4H362z"/>
	<path id="XMLID_635_" class="st1" d="M385-183c0-1.1,0-1.7,0.1-2.9c-0.9,1.6-1.7,2.6-2.9,3.9c-0.2-0.5-0.3-0.6-0.4-0.7
		c-0.1-0.1-0.2-0.2-0.4-0.4c0,0-0.1-0.1-0.2-0.3c2.1-2.2,3.6-4.4,4.9-7.2c0.6-1.4,0.9-2.4,1.1-3.3l1.7,0.6c-1.3,3.2-1.7,4.1-2.4,5.4
		v12.6c0,1.2,0,2.1,0.1,2.9h-1.8c0.1-0.9,0.1-1.7,0.1-2.9L385-183L385-183z M400.5-185.8c1.2,0,2.1,0,2.8-0.1v1.8
		c-0.8-0.1-1.7-0.1-2.8-0.1h-4.3v9.4c0,1,0,1.7,0.2,2.6h-1.9c0.1-0.8,0.2-1.6,0.2-2.6v-9.5h-3.9c-1.1,0-2,0-2.8,0.1v-1.8
		c0.7,0.1,1.6,0.1,2.8,0.1h3.8v-5.4c0-1,0-1.7-0.2-2.5h1.9c-0.1,0.8-0.2,1.5-0.2,2.5v5.5H400.5z"/>
	<path id="XMLID_638_" class="st1" d="M417.4-193.1c-0.2,0.4-0.3,0.5-0.7,1.2c-1.5,2.5-3,4.4-5.1,6.2c-1.7,1.5-2.3,1.9-5.1,3.7
		c-0.3-0.6-0.6-0.9-1.1-1.4c4.1-2.3,6.9-4.7,8.9-7.6c0.8-1.2,1.3-2,1.5-2.9L417.4-193.1z M419.4-186.1c-0.4,0.5-0.4,0.5-1.7,2.4
		c-0.9,1.3-2.6,3.7-4.1,5.4c-1.6,1.8-2.4,2.7-3.3,3.5c5.2-0.2,10.2-0.7,13-1.2c-2.1-3.3-2.9-4.3-4-5.7l1.3-0.8
		c0.7,0.8,2.7,3.5,3.5,4.9c0.9,1.5,1.6,2.6,2.6,4.4l-1.5,0.9c-0.7-1.5-0.8-1.8-1.2-2.4c-1,0.2-1.3,0.2-2.5,0.4
		c-4.4,0.5-6.6,0.7-9.6,0.9c-2.7,0.2-3.6,0.3-4.6,0.4l-0.4-1.8c0.7,0,1.1-0.1,1.4-0.3c1.9-1.8,3.9-4,5.9-6.7
		c1.6-2.2,2.5-3.6,3.2-5.2L419.4-186.1z"/>
	<path id="XMLID_641_" class="st1" d="M434-178.4c0.1-0.6,0.1-0.8,0.1-1.6c0-1.2,0.3-2,0.9-2.9c0.5-0.6,0.7-0.8,2.1-1.8
		c0.9-0.6,1.3-0.9,1.7-1.3c0.5-0.6,0.8-1.2,0.8-2c0-1.8-1.6-3-3.9-3c-1.6,0-2.8,0.5-3.6,1.5c-0.4,0.5-0.6,1-0.9,2l-2-0.3
		c0.5-1.7,1-2.6,2-3.4c1.1-0.9,2.7-1.4,4.6-1.4c3.4,0,5.7,1.9,5.7,4.6c0,1-0.3,1.9-0.9,2.7c-0.4,0.5-0.8,0.8-1.8,1.6
		c-1.4,1-1.8,1.3-2.1,1.8c-0.4,0.6-0.6,1.3-0.6,2.2c0,0.4,0,0.8,0.1,1.3C436.2-178.4,434-178.4,434-178.4z M436.3-176.2v2.3H434
		v-2.3C434-176.2,436.3-176.2,436.3-176.2z"/>
</g>
<path id="XMLID_427_" class="st0" d="M468.2-40.9h-262c-12.6,0-23,10.3-23,23v3c0,0.4,0,0.8,0,1.2l0,0c0,0,1.2,16.7-11.2,23.5
	c0,0,12.8-0.2,19.6-7c4,3.3,9.1,5.3,14.6,5.3h262c12.6,0,23-10.3,23-23v-3C491.2-30.6,480.8-40.9,468.2-40.9z"/>
<path id="XMLID_429_" class="st0" d="M545.7-40.9h221c12.6,0,23,10.3,23,23v3c0,0.4,0,0.8,0,1.2l0,0c0,0-1.2,16.7,11.2,23.5
	c0,0-12.8-0.2-19.6-7c-4,3.3-9.1,5.3-14.6,5.3h-221c-12.6,0-23-10.3-23-23v-3C522.7-30.6,533-40.9,545.7-40.9z"/>
<g id="XMLID_582_">
	<path id="XMLID_583_" class="st1" d="M560.6-25.7c1,0,1.7,0,2.3-0.1v1.6c-0.6-0.1-1.2-0.1-2.3-0.1h-5.3v2.2h7.2
		c1.1,0,1.8,0,2.4-0.1v1.6c-0.7-0.1-1.4-0.1-2.4-0.1h-16.2c-1.2,0-1.8,0-2.5,0.1v-1.7c0.7,0.1,1.4,0.1,2.6,0.1h1.7v-2.3
		c0-0.8,0-1.5-0.1-2.2h1.8c-0.1,0.7-0.1,1.3-0.1,2.2v2.3h4.4v-3.5c0-0.8,0-1.4-0.1-2h1.8c-0.1,0.6-0.1,1.2-0.1,2H560.6z M548.5-8.2
		c0,1,0,1.8,0.1,2.4h-1.8c0.1-0.7,0.1-1.4,0.1-2.5V-17c0-0.9,0-1.5-0.1-2.1c0.6,0.1,1.1,0.1,2,0.1h10.7c0.9,0,1.5,0,2.1-0.1
		c-0.1,0.6-0.1,1.2-0.1,2.1v9c0,1.5-0.5,1.8-3,1.8c-0.7,0-2,0-2.8-0.1c0-0.5-0.1-1-0.3-1.5c1.3,0.2,2.4,0.3,3.4,0.3
		c0.9,0,1.2-0.2,1.2-0.7v-2.5h-11.6L548.5-8.2L548.5-8.2z M560.1-15.6v-2.1h-11.6v2.1H560.1z M548.5-12.1h11.6v-2.2h-11.6V-12.1z"/>
	<path id="XMLID_588_" class="st1" d="M573.5-19.1c-1,0-1.7,0-2.4,0.1v-1.7c0.6,0.1,1.3,0.1,2.4,0.1h9.9c1.1,0,1.7,0,2.4-0.1v1.7
		c-0.7-0.1-1.3-0.1-2.4-0.1h-4.2v3.9h4.6c1,0,1.7,0,2.3-0.1v1.6c-0.7-0.1-1.3-0.1-2.3-0.1h-4.6v5.3c0.9,0.2,2.2,0.2,3.9,0.2
		c2.1,0,3.6-0.1,5.6-0.2c-0.3,0.6-0.4,1-0.5,1.7c-1.6,0-2.4,0-3.1,0c-3.4,0-3.8,0-5.1-0.2c-3.7-0.5-6.1-2-7.4-4.5
		c-1,2.3-1.8,3.6-3.6,5.4c-0.4-0.5-0.6-0.7-1.2-1.1c1.7-1.6,2.4-2.6,3.2-4.3c0.9-1.8,1.5-4.1,1.5-5.5c0,0,0-0.1,0-0.2l1.7,0.3
		c-0.1,0.3-0.1,0.3-0.3,1.2c-0.1,0.6-0.5,2-0.6,2.5c0.7,1.4,1,1.8,1.9,2.6c0.7,0.6,1.5,1,2.6,1.5v-10.2h-4.3V-19.1z M585.9-24.7
		c0.9,0,1.6,0,2.4-0.1c-0.1,0.5-0.1,1-0.1,1.6v1.5c0,0.7,0,1.2,0.1,1.7h-1.6v-3.4H570v3.4h-1.6c0.1-0.5,0.1-1,0.1-1.7v-1.5
		c0-0.6,0-1.2-0.1-1.6c0.8,0.1,1.5,0.1,2.4,0.1h7.1c-0.4-0.8-0.8-1.6-1.4-2.4l1.3-0.7c0.7,0.9,1.3,2,1.7,3.1L585.9-24.7L585.9-24.7z
		"/>
	<path id="XMLID_591_" class="st1" d="M603.3-8.1c1.3,0.2,2.6,0.3,4.4,0.3c1.6,0,2.8,0,5.3-0.2c-0.3,0.6-0.4,1-0.5,1.7
		c-1.8,0.1-2.7,0.1-3.9,0.1c-3.9,0-6.6-0.4-8.4-1.2c-1.3-0.6-2.5-1.5-3.6-2.9c-1,1.8-2,3.1-3.8,4.6c-0.4-0.5-0.8-0.8-1.3-1.1
		c2.7-1.8,4.4-4.5,4.9-7.7l1.7,0.4c-0.6,1.7-0.6,1.9-0.9,2.5c1.3,1.8,2.8,2.8,4.6,3.3v-7.3h-7.6c-0.8,0-1.6,0-2.4,0.1v-1.6
		c0.7,0.1,1.4,0.1,2.4,0.1h16.2c1.1,0,1.8,0,2.4-0.1v1.6c-0.9-0.1-1.6-0.1-2.4-0.1h-7.1v2.7h5.2c1.2,0,1.7,0,2.3-0.1v1.5
		c-0.6-0.1-1.3-0.1-2.3-0.1h-5.2L603.3-8.1L603.3-8.1z M597.5-18.7c-1.1,0-1.8,0-2.6,0.1c0.1-0.6,0.1-1.2,0.1-2v-4
		c0-0.9,0-1.4-0.1-2c0.8,0.1,1.6,0.1,2.7,0.1h9.7c1.1,0,1.9,0,2.7-0.1c-0.1,0.6-0.1,1.1-0.1,2v4c0,0.8,0,1.3,0.1,2
		c-0.8-0.1-1.5-0.1-2.6-0.1H597.5z M596.4-23.3h12v-1.9h-12V-23.3z M596.4-20h12v-2h-12V-20z"/>
	<path id="XMLID_596_" class="st1" d="M617.2-18.6c-0.8,0-1.2,0-1.8,0.1v-1.7c0.6,0.1,1,0.1,1.8,0.1h2.5c0.7,0,1.3,0,1.8-0.1
		c-0.1,0.8-0.1,1.3-0.1,2.5v7.9c1.1-0.6,1.1-0.6,3.5-2l0.2,1.7c-0.7,0.4-1.5,0.8-2.6,1.4c-1,0.6-1,0.6-1.6,0.9
		c-0.5,0.2-0.5,0.3-1,0.6l-0.7-1.6c0.5-0.2,0.7-0.5,0.7-1.1v-8.8h-2.7V-18.6z M619.2-27.3c1.4,1,2.4,1.9,3.7,3.2l-1.2,1.2
		c-1.2-1.3-2.1-2.2-3.6-3.3L619.2-27.3z M626.7-24.1c-1.1,0-1.7,0-2.3,0.1v-1.7c0.6,0.1,1.3,0.1,2.3,0.1h7.8c1,0,1.9,0,2.6-0.2v1.8
		c-0.8-0.1-1.7-0.2-2.6-0.2h-1.7v15.9c0,1.6-0.5,1.9-2.9,1.9c-0.7,0-1.3,0-2.6-0.1c0-0.6-0.2-1.2-0.4-1.7c1.1,0.2,2.1,0.3,3.2,0.3
		c1,0,1.1-0.1,1.1-0.6v-15.6H626.7z"/>
	<path id="XMLID_600_" class="st1" d="M651.5-23c1.1-1.4,2-3.1,2.7-4.5l1.6,0.5c-0.8,1.4-1.8,2.8-2.6,3.9h3c1.2,0,1.9,0,2.4-0.1
		c-0.1,0.6-0.1,1.2-0.1,2.4v4.5c0,1.2,0,1.8,0.1,2.4c-0.8-0.1-1.5-0.1-2.4-0.1h-5.3v2.3h7.6c1.1,0,1.8,0,2.4-0.1v1.7
		c-0.7-0.1-1.5-0.1-2.5-0.1h-7.5V-8c0,1.1,0,1.6,0.2,2.3h-1.8c0.1-0.6,0.1-1.1,0.1-2.3v-2.2h-7.2c-1,0-1.8,0-2.5,0.1v-1.7
		c0.6,0.1,1.4,0.1,2.4,0.1h7.2V-14h-4.9c-1,0-1.6,0-2.4,0.1c0.1-0.8,0.1-1.2,0.1-2.3v-4.6c0-1.1,0-1.8-0.1-2.4
		c0.5,0.1,1.2,0.1,2.4,0.1h7.1V-23z M643.7-21.7v2.6h5.7v-2.6H643.7z M643.7-17.9v2.7h5.7v-2.7H643.7z M646.2-27.5
		c0.8,1,1.3,1.8,2.3,3.4l-1.4,0.7c-0.7-1.4-1.4-2.5-2.3-3.5L646.2-27.5z M650.9-19.2h6.1v-2.6h-6.1V-19.2z M650.9-15.2h6.1v-2.7
		h-6.1V-15.2z"/>
	<path id="XMLID_607_" class="st1" d="M670.6-12.5c-1.7,2.4-3.3,4.1-5.7,5.7c-0.4-0.6-0.7-0.9-1.2-1.3c2.3-1.3,4.2-3.1,5.5-5.2
		L670.6-12.5z M682.6-26.4c-0.4,0.1-0.4,0.1-1.6,0.4c-1.6,0.4-5.3,1-7,1.2c-2.4,2.6-2.5,2.7-4.8,4.6c0.9,0,1.6-0.1,2-0.1
		c0.9,0,2.2-0.1,3.8-0.2c0.1-0.1,0.1-0.1,0.3-0.2c1.1-0.8,1.7-1.4,2.9-2.6l1.3,0.9c-2.1,1.7-3,2.4-4.6,3.5c-2.4,1.6-3.7,2.4-6.2,3.5
		c1.8-0.1,1.8-0.1,5.2-0.3c2.2-0.1,2.2-0.1,7.1-0.6c-0.6-0.7-0.9-1.1-2.1-2.3l1.2-0.8c2.1,2.1,2.9,3,4.8,5.5l-1.2,1
		c-0.6-0.9-0.6-0.9-1.6-2.2c-1.2,0.1-4.5,0.4-6.7,0.5v6.8c0,0.8-0.1,1.3-0.5,1.5c-0.4,0.3-1.1,0.4-2,0.4c-0.4,0-0.7,0-1.8-0.1
		c-0.1-0.7-0.1-0.9-0.3-1.5c0.9,0.1,1.3,0.2,1.8,0.2s0.9,0,1.1-0.1c0.1-0.1,0.2-0.4,0.2-0.7v-6.3l-2,0.1c-3.5,0.1-5.6,0.3-6.6,0.4
		l-0.2-1.4c1.3-0.2,2.4-0.6,3.6-1.2c0.9-0.5,3.6-2,4.6-2.6c-0.5,0-0.6,0-1.2,0.1c-0.6,0-1.3,0.1-2.3,0.1c-1.6,0.1-2,0.1-3,0.3
		l-0.3-1.4c0.8-0.2,1.2-0.4,2.2-1.2c1.1-0.9,2.2-2,3.4-3.3c-3.5,0.3-3.5,0.3-6.4,0.4c-0.1-0.6-0.3-0.9-0.6-1.4h0.2
		c4,0,8.8-0.4,12.3-1c2-0.4,2.6-0.5,4.1-1.1L682.6-26.4z M683.3-6.9c-1.2-1.4-1.6-1.9-2.6-2.8c-1.3-1.2-1.9-1.7-3.1-2.5l1.1-1
		c0.7,0.6,0.7,0.6,2.4,1.9c1.4,1.1,2.2,1.9,3.4,3.3L683.3-6.9z"/>
	<path id="XMLID_611_" class="st1" d="M695.6-9.4c-2.2,0.7-4.1,1.2-6.6,1.7c-0.8,0.2-0.9,0.2-1.1,0.3l-0.4-1.7c0.1,0,0.1,0,0.2,0
		c0.4,0,1.4-0.1,2.4-0.3c2-0.4,4-0.9,5.5-1.4L695.6-9.4z M687.7-14.1c0.1,0,0.1,0,0.5-0.1s0.8-0.5,1.8-1.9c1.5-2.1,1.5-2.1,2-2.8
		c-0.1,0-0.1,0-0.3,0c-1.6,0.1-3,0.3-3.6,0.6l-0.4-1.5c0.6-0.1,0.8-0.4,1.8-2.3c0.7-1.5,1.5-3.4,2.2-5.4l1.6,0.6
		c-0.6,1.4-0.6,1.4-0.8,1.8c-0.9,1.9-1.8,3.7-2.6,5.1c0.5,0,1.5-0.1,3-0.2c0.7-1.1,0.8-1.3,1.4-2.4l1.4,0.8
		c-1.7,2.7-3.4,5.2-5.4,7.7c2.8-0.5,3.8-0.7,5.3-1.1l-0.2,1.5c-0.6,0.1-0.6,0.1-1.5,0.3c-1.2,0.2-1.2,0.2-2.7,0.5
		c-0.4,0-0.4,0-1.2,0.2c-0.6,0.1-1,0.2-1.7,0.4L687.7-14.1z M700.4-16.2c-0.1,0.3-0.1,0.3-0.1,1.4c-0.1,2.6-0.4,3.9-1.2,5.4
		s-1.8,2.4-3.9,3.6c-0.5-0.7-0.6-0.9-1.1-1.3c1.9-1,2.9-1.8,3.6-3c0.7-1.2,1.1-2.9,1.1-4.8c0-0.5,0-0.9-0.1-1.4h1.7V-16.2z
		 M696.1-18.7c0.6-0.1,0.8-0.2,1.3-0.8c1.2-1.6,1.7-2.4,2.4-3.8h-2c-1,0-1.6,0-2.2,0.1v-1.6c0.6,0.1,1.3,0.1,2.2,0.1h3.6
		c-0.9-1.5-1-1.7-1.6-2.4l1.3-0.7c0.8,1.2,0.9,1.3,1.9,3.1h3.6c1,0,1.6,0,2.2-0.1v1.6c-0.7-0.1-1.4-0.1-2.2-0.1h-5.3
		c-1.3,2.3-1.9,3.2-3.1,4.7c0.7-0.1,2.1-0.2,4.3-0.4c1-0.1,1-0.1,3.3-0.4c-0.8-0.9-1.1-1.3-2-2.2l1.1-0.8c1.7,1.6,2.8,2.9,4.2,4.9
		l-1.2,1c-0.6-0.9-0.7-1.2-1.1-1.7c-2.9,0.4-5.1,0.6-7.3,0.7c-1.5,0.1-1.6,0.1-2.4,0.2c-0.5,0-0.5,0-0.8,0.1L696.1-18.7z
		 M704.7-16.2c-0.1,0.5-0.1,1.2-0.1,2.1v5.8c0,0.6,0.1,0.7,1.1,0.7c1.2,0,1.6-0.1,1.8-0.5c0.2-0.6,0.4-2,0.4-4
		c0.5,0.3,0.8,0.5,1.5,0.6c-0.1,2.5-0.4,4-0.8,4.6c-0.4,0.5-1.1,0.7-2.7,0.7c-2.2,0-2.6-0.3-2.6-1.6V-14c0-0.9,0-1.6-0.1-2.1h1.5
		V-16.2z"/>
	<path id="XMLID_617_" class="st1" d="M714.7-18.7c-1.3,0-2,0-2.7,0.1v-1.6c0.6,0.1,1.2,0.1,2.7,0.1h15.4c1.4,0,2,0,2.6-0.1v1.6
		c-0.7-0.1-1.4-0.1-2.6-0.1h-9c-1.1,1.8-1.5,2.4-2.7,3.8h9.9c1.1,0,1.8,0,2.3-0.1c-0.1,0.7-0.1,1.4-0.1,2.2v4.9c0,0.7,0,1.3,0.1,2.2
		h-1.7v-1.2H718v1.2h-1.7c0.1-0.6,0.1-1.2,0.1-2.2v-5c-1.5,1.3-2.3,1.9-4.1,3.1c-0.4-0.6-0.5-0.7-1-1.2c2.2-1.2,3.8-2.4,5.4-3.9
		c1.1-1.1,1.8-2.1,2.6-3.6h-4.6V-18.7z M730-25.1c0.9,0,1.6,0,2.4-0.1c-0.1,0.5-0.1,0.9-0.1,1.6v1.3c0,0.6,0,0.9,0.1,1.4h-1.6v-2.8
		h-16.9v2.8h-1.6c0.1-0.5,0.1-1,0.1-1.7v-1c0-0.7,0-1.1-0.1-1.6c0.8,0.1,1.5,0.1,2.4,0.1h7c-0.4-0.6-0.6-0.9-1.3-1.9l1.3-0.6
		c0.7,0.9,1,1.5,1.7,2.6h6.6V-25.1z M718-8.4h10.9v-5.2H718V-8.4z"/>
	<path id="XMLID_621_" class="st1" d="M740-24.8c-1.1,0-1.9,0-2.9,0.2v-1.8c0.9,0.1,1.8,0.2,2.9,0.2h12.5c1.2,0,1.8,0,2.3-0.1
		l0.9,1.1c-0.9,0.9-1.4,1.4-2,1.9c-2,1.8-3.7,2.9-6.5,4.4v10.8c0,0.8-0.2,1.3-0.7,1.6c-0.3,0.2-1,0.2-2.2,0.2c-0.9,0-1.6,0-3.2-0.2
		c0-0.7-0.1-1-0.3-1.7c1.5,0.3,2.6,0.4,3.8,0.4c0.8,0,1-0.1,1-0.5V-18c0-1,0-1.7-0.1-2.4h1.4c2.3-1.2,4-2.4,6.1-4.4H740z"/>
	<path id="XMLID_623_" class="st1" d="M763.8-12.1c0-0.6,0.1-1.1,0.1-1.4c0-0.1,0-0.5,0-1.2l-0.2-8.5c0-1,0-1.7-0.1-2.6h2.4
		c-0.1,0.9-0.1,1.6-0.1,2.6l-0.2,8.5v1.1c0,0.4,0,0.9,0.1,1.5L763.8-12.1L763.8-12.1z M763.6-7.6v-2.3h2.3v2.3H763.6z"/>
</g>
<g id="XMLID_534_">
	<path id="XMLID_535_" class="st1" d="M213.4-16.3c-1.2,0.6-1.6,0.8-2.4,1.1v7.5c0,1.4-0.6,1.7-2.9,1.7c-0.3,0-0.5,0-0.8,0
		c-0.1-0.6-0.2-1-0.4-1.5c0.6,0.1,1.2,0.1,1.7,0.1c0.7,0,1-0.1,1-0.6v-6.7c-0.2,0.1-0.2,0.1-0.4,0.2c-0.3,0.1-0.7,0.3-1.2,0.5
		c-0.6,0.2-1,0.4-1.3,0.5l-0.4-1.7c0.8-0.1,1.5-0.3,3.3-1v-5.3h-1.2c-0.7,0-1.2,0-1.8,0.1V-23c0.6,0.1,1.1,0.1,1.8,0.1h1.2v-2.3
		c0-1,0-1.7-0.2-2.4h1.8c-0.1,0.7-0.2,1.4-0.2,2.4v2.3h0.8c0.8,0,1.1,0,1.7-0.1v1.5c-0.5-0.1-0.9-0.1-1.6-0.1h-0.8v4.7
		c0.8-0.3,1.3-0.6,2.3-1.1v-1.5c0.5,0.1,1.1,0.1,2.1,0.1h6.3c0.8-1.3,1.4-2.3,1.9-4.1l1.4,0.4c-0.6,1.6-1.1,2.5-1.9,3.6h2.6
		c1.2,0,1.8,0,2.4-0.1v1.6c-0.5-0.1-1.2-0.1-2.3-0.1h-10.4c-1,0-1.4,0-2.1,0.1V-16.3z M224.8-13.8c-0.6,1.7-1.5,3-2.8,4.2
		c1.9,0.8,2.9,1.3,5.5,2.8l-1.1,1.3c-2.3-1.5-3.5-2.1-5.6-3c-2,1.3-4.5,2.3-7.9,2.8c-0.2-0.6-0.4-0.9-0.8-1.4
		c1.9-0.2,3.2-0.4,4.6-0.9c0.9-0.3,2-0.8,2.6-1.2c-1.7-0.7-2.5-0.9-4.8-1.6c1.1-1.1,1.4-1.5,2.4-2.9h-1.4c-1.1,0-1.7,0-2.3,0.1v-1.6
		c0.6,0.1,1.2,0.1,2.3,0.1h2.3c0.6-0.9,1-1.8,1.2-2.4l1.6,0.4c-0.2,0.3-0.5,0.9-1.2,2h6.5c1.2,0,1.8,0,2.3-0.1v1.6
		c-0.6-0.1-1.2-0.1-2.3-0.1h-1.1V-13.8z M225.2-24.8c1.2,0,1.8,0,2.4-0.1v1.6c-0.5-0.1-1.2-0.1-2.3-0.1h-9c-1.1,0-1.8,0-2.3,0.1
		v-1.6c0.6,0.1,1.2,0.1,2.4,0.1h3.5c-0.7-1.2-0.7-1.3-1.4-2.2l1.2-0.6c1,1.3,1,1.4,1.8,2.8H225.2z M217.3-23.1
		c0.7,1.2,1,1.9,1.5,3.2l-1.3,0.5c-0.4-1.3-0.7-1.9-1.4-3.2L217.3-23.1z M218.5-13.8c-0.8,1.2-1,1.5-1.8,2.3
		c1.9,0.6,2.5,0.8,3.8,1.3c0.6-0.5,1.2-1.1,1.7-1.7c0.5-0.6,0.6-0.9,0.9-1.9L218.5-13.8L218.5-13.8z"/>
	<path id="XMLID_541_" class="st1" d="M240.9-15.1c1,0,1.6,0,2.2-0.1v1.6c-0.6-0.1-1.2-0.1-2.1-0.1h-3v4.1c2.3-0.5,3.4-0.7,5.4-1.3
		v1.4c-3.7,0.9-5.9,1.4-9,2c-2.1,0.4-2.1,0.4-3.2,0.7l-0.4-1.7c0.9,0,1.5-0.1,3.4-0.4c0.5-0.1,1-0.2,1.4-0.2
		c0.5-0.1,0.6-0.1,0.9-0.2v-4.4h-2.6c-0.8,0-1.6,0-2.2,0.1v-1.7c0.6,0.1,1.3,0.1,2.2,0.1h2.6v-1c0-0.8,0-1.4-0.1-1.9h1.7
		c-0.1,0.6-0.1,1.1-0.1,2v0.9L240.9-15.1L240.9-15.1z M231.4-19.7c0.6,0,0.7-0.1,1-0.5c1-1.2,1.9-2.7,2.9-4.7h-2c-1,0-1.7,0-2.4,0.1
		v-1.7c0.6,0.1,1.3,0.1,2.4,0.1h7.7c1.1,0,1.8,0,2.5-0.1v1.7c-0.7-0.1-1.3-0.1-2.4-0.1H237c-0.1,0.3-0.1,0.3-0.4,0.7
		c-0.8,1.5-1.9,3.2-2.8,4.3c3.3-0.2,5.8-0.5,7-0.7c-0.6-0.9-1.1-1.5-2.1-2.5l1.2-0.7c1.7,2,2.4,2.9,3.8,5.2l-1.2,0.9
		c-0.5-1-0.7-1.3-1-1.7c-1.3,0.2-1.5,0.2-3.3,0.4c-0.7,0.1-1.6,0.1-2.6,0.3c-1.2,0.1-2.1,0.2-2.7,0.3c-0.8,0.1-1,0.1-1.4,0.1
		L231.4-19.7z M246.4-25.8c-0.1,0.6-0.1,1.3-0.1,2.6v9.5c0,1.6,0,2,0.1,2.7h-1.7c0.1-0.7,0.1-1.2,0.1-2.7v-9.5c0-1.4,0-2-0.1-2.6
		H246.4z M251.5-27.1c-0.1,0.6-0.1,1.6-0.1,2.9v15.9c0,1.8-0.5,2.2-2.7,2.2c-0.9,0-1.7,0-2.5-0.1c-0.1-0.6-0.2-1-0.5-1.6
		c1.2,0.2,2,0.3,3.1,0.3c0.9,0,1.1-0.1,1.1-0.7v-16c0-1.3,0-2.1-0.2-2.8L251.5-27.1L251.5-27.1z"/>
	<path id="XMLID_546_" class="st1" d="M257.4-14c0-0.9,0-1.6,0.1-2.7c-0.7,0.9-1.2,1.4-2.3,2.4c-0.3-0.6-0.5-0.9-0.9-1.3
		c1.7-1.2,3.2-2.9,4.4-4.6c0.5-0.8,0.8-1.4,1-1.9l1.4,0.9c-0.2,0.2-0.2,0.3-0.6,0.8c-0.6,0.9-0.8,1.3-1.6,2.3v9.5
		c0,1.2,0,2.2,0.1,2.9h-1.8c0.1-0.6,0.1-1.7,0.1-2.9V-14H257.4z M261-26.8c-0.2,0.2-0.2,0.2-1,1.1c-1.3,1.6-2.7,2.8-4.6,4.2
		c-0.2-0.4-0.5-0.8-1-1.2c2.4-1.5,4.4-3.5,5.2-5L261-26.8z M264.3-16.6v8.8c0.9-0.2,2.2-0.6,4.8-1.5l0.1,1.5c-1,0.3-1,0.3-3.2,1
		c-0.6,0.2-0.8,0.2-2,0.6c-0.6,0.2-0.6,0.2-1.3,0.4l-0.5-1.4c0.5-0.4,0.6-0.8,0.6-1.9v-15c0-0.9,0-1.8-0.1-2.5
		c0.7,0.1,1.3,0.1,2.4,0.1h6.9c1.2,0,1.9,0,2.4-0.1c-0.1,0.6-0.1,1.1-0.1,2.6v5c0,1.5,0,1.9,0.1,2.5c-0.8,0-1.4-0.1-2.4-0.1h-3.6
		c0.5,1.6,0.8,2.5,1.6,3.8c2.1-1.3,3.6-2.4,4.5-3.4l1.1,1.2c-0.1,0.1-0.1,0.1-0.2,0.2c-0.1,0.1-0.1,0.1-0.7,0.5
		c-0.8,0.6-2,1.4-3.9,2.6c1.4,1.8,3.1,3,5.8,4.2c-0.5,0.5-0.6,0.7-1.1,1.4c-3.3-1.8-5.2-3.5-6.7-6c-0.9-1.4-1.3-2.4-1.8-4.5
		L264.3-16.6L264.3-16.6z M272.8-22.2v-2.9h-8.6v2.9H272.8z M264.3-17.9h8.6v-3h-8.6V-17.9z"/>
	<path id="XMLID_552_" class="st1" d="M296.1-25c-1.5,1.8-1.7,2-2.2,2.6c-1.9,2.1-4.3,4-6.8,5.5c-2.2,1.3-4.1,2.2-6.9,3.1
		c-0.2-0.5-0.4-0.9-0.8-1.4c3.1-0.8,5.9-2.1,8.6-4c-0.8-0.7-1.8-1.4-3.1-2.2l1.1-0.9c1.3,0.8,2.4,1.5,3.2,2.2c2.1-1.6,3-2.5,4.6-4.4
		h-6.5c-2.1,2.1-4.1,3.4-6.9,4.8c-0.3-0.5-0.5-0.8-0.9-1.2c2.8-1.2,5.1-2.8,7.1-4.9c0.9-0.9,1.3-1.5,1.7-2.2l1.7,0.4
		c-0.2,0.3-0.3,0.3-0.8,0.9c-0.3,0.3-0.4,0.5-0.8,0.9h4.6c1,0,1.7,0,2.2-0.1L296.1-25z M296.4-17.1c1,0,1.7,0,2.3-0.1l0.9,0.9
		c-0.3,0.4-0.3,0.4-0.7,0.9c-2.2,2.9-4.2,4.7-7,6.3c-2.7,1.6-5.2,2.5-9.7,3.6c-0.3-0.7-0.4-0.9-0.9-1.5c3.7-0.6,7.3-1.8,10.2-3.6
		c0,0,0,0-0.2-0.2c-0.7-0.6-1.7-1.3-3-2.1l1.2-0.9c1.3,0.8,2.1,1.4,3.3,2.3c1.7-1.2,3-2.5,4.6-4.5h-6.5c-1.4,1.2-1.8,1.5-2.9,2.2
		c-1.4,0.9-3,1.7-4.9,2.4c-0.3-0.6-0.5-0.9-0.9-1.3c3.2-1.1,5.6-2.4,7.5-4c1.2-1.1,2.1-2,2.6-2.9l1.6,0.6c-0.9,1-1.1,1.2-1.6,1.8
		h4.1V-17.1z"/>
	<path id="XMLID_555_" class="st1" d="M308.8-22.9c0.6,0,0.9,0,1.4-0.1v1.6c-0.4-0.1-0.9-0.1-1.5-0.1h-1.3v4.8
		c0.8-0.3,1.2-0.5,2.4-1.1v1.4c-1,0.5-1,0.5-2.4,1.1v7.6c0,1.3-0.6,1.7-2.8,1.7c-0.4,0-0.6,0-1.2,0c0-0.6-0.1-0.9-0.3-1.5
		c0.9,0.1,1.4,0.2,2.1,0.2c0.6,0,0.8-0.1,0.8-0.6v-6.7c-0.1,0-0.2,0.1-0.4,0.1c-1.1,0.4-1.1,0.4-2.6,1.1l-0.5-1.6
		c1-0.2,1.3-0.3,3.4-1.1v-5.4h-1.5c-0.6,0-1.2,0-1.7,0.1V-23c0.5,0.1,1,0.1,1.7,0.1h1.5v-2.2c0-1,0-1.7-0.2-2.4h1.9
		c-0.1,0.7-0.2,1.4-0.2,2.4v2.3h1.4V-22.9z M322.1-16.5c-0.2,0.2-0.2,0.2-0.7,1.1c-1.2,2-2.3,3.4-3.7,4.7c2.1,1.5,4.1,2.5,6.6,3.1
		c-0.4,0.5-0.7,1-0.9,1.5c-2.8-0.9-4.9-2-6.8-3.6c-2.3,1.8-4.4,2.8-7.2,3.7c-0.2-0.6-0.5-1-0.9-1.4c2.8-0.7,4.7-1.7,7-3.3
		c-0.8-0.8-1.4-1.6-2-2.5c-0.6-1-0.8-1.4-1.4-2.8c-0.6,0-1.1,0-1.6,0.1v-1.6c0.5,0.1,1.2,0.1,1.9,0.1h7.3c0.7,0,1.2,0,1.4-0.1
		L322.1-16.5z M324.1-19.6c-1,0.1-1.9,0.2-2.8,0.2c-1.2,0-2.2-0.1-2.6-0.3c-0.3-0.2-0.4-0.5-0.4-1v-4.6H314
		c-0.1,2.2-0.4,3.2-1.1,4.5c-0.6,0.9-1.1,1.5-2.2,2.3c-0.4-0.5-0.6-0.8-1.1-1.2c2.3-1.5,3-3,3-6.2c0-0.3,0-0.5,0-0.9
		c0.5,0,0.8,0.1,1.7,0.1h4c1,0,1.2,0,1.7-0.1c-0.1,0.5-0.1,0.7-0.1,1.8v3.7c0,0.4,0.1,0.5,1.3,0.5c1.3,0,1.4,0,3-0.3L324.1-19.6
		L324.1-19.6z M313.4-16.1c0.9,1.9,1.7,3.1,3.1,4.4c1.6-1.4,2.4-2.4,3.5-4.4H313.4z"/>
	<path id="XMLID_560_" class="st1" d="M330-18.7h-1.7c-0.8,0-1.2,0-1.8,0.1v-1.7c0.6,0.1,1,0.1,1.8,0.1h1.2c0.9,0,1.4,0,2-0.1
		c-0.1,0.8-0.1,1.3-0.1,2.5v7.4c0.3-0.2,0.6-0.4,0.7-0.5c1.2-0.8,1.3-0.9,2.2-1.6l0.1,1.7c-0.8,0.5-3.3,2.2-4.5,3.1l-0.7-1.6
		c0.4-0.2,0.6-0.4,0.6-0.9v-8.5H330z M329.6-27.4c1.6,1.2,2.5,2,3.9,3.4l-1.2,1.2c-1.3-1.5-2.3-2.5-3.9-3.6L329.6-27.4z M337.8-19.5
		c0,4.5-0.1,5.6-0.4,7.4c-0.4,2.6-1.3,4.5-2.7,6.2c-0.4-0.4-0.8-0.7-1.4-1.1c2.5-3.2,3-5.2,3-13c0-3,0-4.2-0.3-5.6
		c0.3,0,0.4,0,0.6,0c1.8,0,4.2-0.3,6.1-0.9c1.4-0.4,2.5-0.8,3.1-1.2l1.2,1.3c-0.1,0.1-0.1,0.1-0.4,0.1c-0.1,0-0.3,0.1-0.6,0.2
		c-2.7,0.9-5,1.4-8.3,1.7v3.3h8.6c0.9,0,1.4,0,2-0.1v1.7c-0.7-0.1-1.3-0.1-2-0.1H344v5.1c1.6,0.9,2.4,1.3,4.2,2.5l-0.7,1.4
		c-1.3-1-1.4-1.1-3.5-2.3v4.5c0,0.9,0,1.7,0.2,2.4h-1.8c0.1-0.7,0.1-1.4,0.1-2.3v-5.3c-1.1-0.6-1.7-0.9-3.6-1.7l0.7-1.2
		c1.6,0.7,2,0.9,2.9,1.3v-4.3L337.8-19.5L337.8-19.5z"/>
	<path id="XMLID_564_" class="st1" d="M354.5-7.8c0,1.8-0.3,2.4-1.5,3.1l-0.6-0.8c1-0.4,1.2-0.8,1.2-2.3h-1.4v-2.4h2.4L354.5-7.8
		L354.5-7.8z"/>
	<path id="XMLID_566_" class="st1" d="M377.3-24.4c-0.9,0-1.8,0-2.6,0.1v-1.8c0.7,0.1,1.5,0.1,2.6,0.1h16c1.2,0,1.9,0,2.6-0.1v1.8
		c-0.7-0.1-1.6-0.1-2.6-0.1h-6c-0.6,1.2-0.9,1.7-1.5,2.7v13.3c0,1,0,1.8,0.2,2.6h-2c0.1-0.8,0.2-1.7,0.2-2.6V-17c0-1,0-1.8,0-2.7
		c-0.9,1.2-2.1,2.5-3.7,3.9c-1.5,1.3-3,2.4-5.2,3.8c-0.3-0.5-0.5-0.8-1.1-1.4c3.1-1.7,5.2-3.3,7.4-5.6c1.7-1.8,2.9-3.5,3.8-5.4
		H377.3z M387.7-20.4c2.4,1.6,6,4.5,8.7,6.9l-1.1,1.3c-1.3-1.3-1.8-1.8-4.2-3.7c-1.6-1.4-2.5-2.1-4.3-3.4L387.7-20.4z"/>
	<path id="XMLID_569_" class="st1" d="M410.3-8.1c1.3,0.2,2.6,0.3,4.4,0.3c1.6,0,2.8,0,5.3-0.2c-0.3,0.6-0.4,1-0.5,1.7
		c-1.8,0.1-2.7,0.1-3.9,0.1c-3.9,0-6.6-0.4-8.4-1.2c-1.3-0.6-2.5-1.5-3.6-2.9c-1,1.8-2,3.1-3.8,4.6c-0.4-0.5-0.8-0.8-1.3-1.1
		c2.7-1.8,4.4-4.5,4.9-7.7l1.7,0.4c-0.6,1.7-0.6,1.9-0.9,2.5c1.3,1.8,2.8,2.8,4.6,3.3v-7.3h-7.6c-0.8,0-1.6,0-2.4,0.1v-1.6
		c0.7,0.1,1.4,0.1,2.4,0.1h16.2c1.1,0,1.8,0,2.4-0.1v1.6c-0.9-0.1-1.6-0.1-2.4-0.1h-7.1v2.7h5.2c1.2,0,1.7,0,2.3-0.1v1.5
		c-0.6-0.1-1.3-0.1-2.3-0.1h-5.2V-8.1L410.3-8.1z M404.5-18.7c-1.1,0-1.8,0-2.6,0.1c0.1-0.6,0.1-1.2,0.1-2v-4c0-0.9,0-1.4-0.1-2
		c0.8,0.1,1.6,0.1,2.7,0.1h9.7c1.1,0,1.9,0,2.7-0.1c-0.1,0.6-0.1,1.1-0.1,2v4c0,0.8,0,1.3,0.1,2c-0.8-0.1-1.5-0.1-2.6-0.1H404.5z
		 M403.4-23.3h12v-1.9h-12V-23.3z M403.4-20h12v-2h-12V-20z"/>
	<path id="XMLID_574_" class="st1" d="M434-27c1.3,2.3,2.5,3.6,4.5,5.3c1.9,1.6,3.5,2.6,5.4,3.6c-0.5,0.6-0.7,0.9-1,1.5
		c-2.2-1.2-3.7-2.4-5.3-3.8c-1.8-1.6-2.8-2.8-4.4-5.2c-2,3.5-5.1,6.5-9.3,9c-0.4-0.6-0.5-0.8-1.1-1.4c3-1.6,5.5-3.6,7.5-6.1
		c1.2-1.5,1.9-2.8,2.3-4l1.7,0.6L434-27z M432.3-6c0.1-0.8,0.2-1.6,0.2-2.5v-10.3c0-0.9,0-1.7-0.2-2.5h1.9c-0.1,0.7-0.2,1.5-0.2,2.5
		v10.3c0,0.9,0,1.7,0.2,2.5H432.3z"/>
	<path id="XMLID_577_" class="st1" d="M450-9c0,1.4,0,2.1,0.1,3h-1.7c0.1-0.9,0.1-1.6,0.1-3v-7c0-1.3,0-2.3,0.1-3.5
		c-0.6,1.3-1.1,2.1-2.1,3.4c-0.5-0.8-0.6-0.9-1-1.3c1.2-1.4,2.3-3,3.1-4.8c0.9-1.9,1.5-3.7,1.8-5.3L452-27c-0.1,0.3-0.2,0.6-0.4,1.1
		c-0.4,1.4-0.8,2.4-1.7,4.2V-9H450z M458.2-21.3c1,0,1.5,0,1.9-0.1c0,0.2,0,0.2,0,0.5c0,0.2,0,0.2-0.1,0.9c-0.5,3.5-1.2,5.7-2.5,8.1
		c-1.3,2.4-3,4.2-5.3,6c-0.4-0.5-0.6-0.8-1.1-1.2c1.8-1.2,2.9-2.3,4.1-3.8c0.6-0.8,1-1.4,1.6-2.6c-0.8-1-1.4-1.6-2.6-2.6l0.8-1.2
		c1.2,1.1,1.8,1.6,2.5,2.4c0.6-1.3,0.9-2.8,1.2-5h-3.4c-0.7,2.2-1.8,4-3.4,6c-0.4-0.6-0.6-0.9-1-1.2c2.3-2.6,3.5-5.2,4-9.3h-0.5
		c-0.9,0-1.4,0-2,0.1v-1.6c0.6,0.1,1.2,0.1,2.2,0.1h4.1c1,0,1.7,0,2.3-0.1v1.6c-0.7-0.1-1.2-0.1-2.2-0.1h-2.4
		c-0.2,1.5-0.3,2.1-0.7,3.3h2.5V-21.3z M467.2-8.1c0,1.5-0.5,1.8-2.7,1.8c-0.7,0-1.4,0-2.6-0.1c-0.1-0.7-0.2-1-0.4-1.5
		c1.4,0.2,2.4,0.2,3.1,0.2c1,0,1.2-0.1,1.2-0.6v-16.2c0-1.3,0-1.9-0.1-2.7h1.8c-0.1,0.7-0.1,1.4-0.1,2.7v16.4H467.2z M461.5-11.7
		c0.1-0.6,0.1-1.3,0.1-2.5v-9.3c0-1.1,0-1.8-0.1-2.4h1.7c-0.1,0.7-0.1,1.3-0.1,2.4v9.3c0,1.2,0,1.8,0.1,2.5H461.5z"/>
</g>
<g id="XMLID_422_">
	<path id="XMLID_441_" class="st1" d="M484.1,70.3c0.3,2.4,0.7,4.2,1.4,6c1.4-1.7,2.5-3.4,2.9-4.8l1.5,0.8c-0.3,0.4-0.5,0.7-0.8,1.2
		c-0.8,1.6-1.8,3-2.9,4.2c1.1,2.1,2.5,3.8,3.2,3.8c0.5,0,0.8-1.2,1.2-3.8c0.5,0.5,0.8,0.7,1.3,1c-0.6,3.4-1.2,4.4-2.4,4.4
		c-1.2,0-2.9-1.6-4.4-4.4c-1.8,1.7-3.5,2.8-6.1,4c-0.3-0.5-0.5-0.8-1.1-1.3c2.8-1.1,4.7-2.3,6.6-4.1c-0.9-2.1-1.5-4.5-1.8-7.1h-5.8
		v3.9c1.8-0.5,2.4-0.6,4.3-1.3l0.1,1.4c-2.3,0.7-3.1,1-4.4,1.3v5.8c0,1.2-0.5,1.7-2.1,1.7c-0.8,0-1.7,0-2.7-0.1
		c0-0.6-0.1-1.1-0.4-1.7c1.3,0.2,2.2,0.3,3,0.3c0.5,0,0.6-0.1,0.6-0.5v-5c-2.4,0.6-2.6,0.6-3.4,0.8c-0.6,0.1-0.8,0.2-1.2,0.3
		l-0.4-1.7c0.8,0,1.9-0.2,5-0.9v-4.2h-2.5c-1,0-1.8,0-2.5,0.1v-1.7c0.6,0.1,1.4,0.1,2.5,0.1h2.5v-3.7c-1.8,0.5-2.4,0.6-4,0.9
		c-0.2-0.5-0.4-0.9-0.7-1.3c3.7-0.4,7.9-1.7,9.3-2.7l0.9,1.3c-0.1,0-0.1,0-0.4,0.1c-0.1,0-0.1,0-0.6,0.2c-1.1,0.4-2.1,0.8-3,1v4.2
		h5.7c-0.1-1.8-0.2-2.1-0.2-4.9c0-0.9,0-1.2-0.1-1.8h1.8c-0.1,0.6-0.1,1-0.1,2.3c0,1.4,0,2.8,0.2,4.4h5.3c1,0,1.7,0,2.4-0.1v1.7
		c-0.7-0.1-1.5-0.1-2.5-0.1L484.1,70.3L484.1,70.3z M486.5,62.8c1.5,1.3,2.5,2.3,3.6,3.9l-1.2,1c-1.2-1.6-1.9-2.4-3.6-4.1
		L486.5,62.8z"/>
	<path id="XMLID_445_" class="st1" d="M497.5,72.8H496c-0.8,0-1.2,0-1.8,0.1v-1.6c0.5,0.1,0.9,0.1,1.9,0.1h1.3c0.8,0,1.2,0,1.8-0.1
		c-0.1,0.7-0.1,1.3-0.1,2.4v5.1c0.1,0.1,0.3,0.3,0.6,0.6c1.6,1.8,2.6,2,7.6,2c3.8,0,6.2-0.1,9-0.4c-0.4,0.6-0.5,0.9-0.6,1.7
		c-1,0-4.9,0.1-6.3,0.1c-0.3,0-4.8-0.1-5-0.1c-2.6-0.1-4.2-0.7-5.4-2.2c-0.3-0.3-0.6-0.6-0.7-0.6c-0.5,0-1.8,1.2-3.2,3l-1.1-1.2
		c2.1-2.1,2.9-2.8,3.7-3.1v-5.8H497.5z M495.9,62.4c1.9,1.9,2.8,3,3.8,4.3l-1.2,1.1c-1.4-2-2.5-3.2-3.7-4.4L495.9,62.4z M503,68.9
		c0.7,0.5,2.4,1.8,5.4,3.9c1.5-2,2.1-3.5,2.4-6.2H502c-0.8,0-1.3,0-1.6,0.1v-1.6c0.6,0.1,1.8,0.1,2.6,0.1h4.2
		c-0.5-1.2-0.9-1.9-1.4-2.8l1.3-0.6c0.8,1.5,0.8,1.5,1.5,3.1c0,0.1,0,0.1,0.1,0.4h4c1.2,0,1.8,0,2.4-0.1v1.6
		c-0.6-0.1-1.3-0.1-2.3-0.1h-0.6c-0.5,2.7-0.6,3.2-1.1,4.3c-0.4,1-1,2.1-1.7,2.9c3.2,2.6,3.2,2.6,5.3,4.5l-1.1,1.3c-2-2-2-2-5.2-4.7
		c-2,1.9-4,3.2-7.4,4.8c-0.2-0.6-0.5-0.9-0.9-1.4c3.1-1.2,5.4-2.6,7.2-4.3c-3.3-2.6-3.3-2.6-5.3-3.9L503,68.9z"/>
	<path id="XMLID_449_" class="st1" d="M521.5,72.9h-1.6c-0.8,0-1.2,0-1.8,0.1v-1.6c0.5,0.1,0.9,0.1,1.9,0.1h1.3c0.8,0,1.2,0,1.8-0.1
		c-0.1,0.7-0.1,1.3-0.1,2.4v4.8c0.2,0.1,0.4,0.3,0.6,0.6c1.6,1.8,2.7,2.2,8.4,2.2c3.6,0,6.3-0.1,8.4-0.4c-0.4,0.9-0.4,1-0.6,1.8
		c-2.4,0.1-4.9,0.2-8.4,0.2c-1.6,0-3.6-0.1-4.6-0.3c-1.1-0.1-1.9-0.5-2.8-1c-0.4-0.3-0.4-0.3-1.3-1.3c-0.2-0.2-0.5-0.4-0.7-0.4
		c-0.6,0-1.9,1.3-3.1,3l-1.1-1.2c1.7-1.8,2.7-2.7,3.7-3.1V72.9L521.5,72.9z M520.2,62.5c1.8,1.7,2.4,2.4,3.8,4.2l-1.2,1.1
		c-1.4-2-2-2.7-3.7-4.4L520.2,62.5z M536.7,66.2c1.3,0,1.8,0,2.4-0.1c-0.1,0.6-0.1,1.3-0.2,2.5c-0.1,3.8-0.4,6.6-0.7,8.1
		c-0.4,1.9-1,2.5-2.6,2.5c-0.9,0-2.1-0.1-3.8-0.3c-0.1-0.8-0.2-1.2-0.4-1.7c1.6,0.3,3,0.5,3.9,0.5c1.1,0,1.3-0.5,1.6-3.4
		c0.1-1.6,0.2-3.4,0.4-6.7h-5.6c-0.4,3.3-0.8,5-1.8,6.9c-1,1.8-2.1,3.1-4.4,4.7c-0.3-0.5-0.6-0.9-1.1-1.3c2.1-1.4,3.1-2.4,4.1-4.1
		s1.5-3.3,1.7-6.2h-2.6c-1.1,0-1.9,0-2.5,0.1V66c0.7,0.1,1.4,0.1,2.6,0.1h2.6c0.1-0.7,0.1-1.2,0.1-2.4c0-0.9,0-1.2-0.1-1.7h1.8
		c-0.1,0.6-0.1,1.1-0.2,2.7c0,0.3,0,0.7-0.1,1.3h4.9V66.2z"/>
	<path id="XMLID_454_" class="st1" d="M543,68.3c1.7,1,2.6,1.6,4.1,2.8l-0.9,1.3c-1.3-1.3-2.4-2-4.1-3L543,68.3z M547.1,75.8
		c-0.9,2.6-1.6,4.3-2.6,6c-0.4,0.7-0.5,0.9-0.6,1.1l-0.2,0.4l-1.4-1.2c0.4-0.4,0.6-0.8,1.1-1.5c1-1.7,1.7-3.3,2.5-5.8L547.1,75.8z
		 M544.6,62.1c1.7,1.1,2.7,1.9,4,3.3l-1,1.3c-1.3-1.4-2.4-2.4-4.1-3.6L544.6,62.1z M561.3,72.9c-0.2,0.3-0.3,0.4-0.7,1
		c-1.1,1.8-2.1,3-4.1,4.8c1.8,1.3,4.4,2.5,7.3,3.3c-0.4,0.5-0.6,0.8-0.9,1.5c-3.2-1-5.6-2.2-7.6-3.8c-2.3,1.7-4.5,2.8-7.6,3.7
		c-0.3-0.6-0.4-0.9-0.8-1.4c3-0.7,5.1-1.7,7.3-3.2c-1.5-1.5-2.6-3.1-3.6-5.3h-0.1c-0.7,0-1.3,0-1.8,0.1V72c0.6,0.1,1.3,0.1,2.1,0.1
		h7.6c1,0,1.5,0,2.1-0.1L561.3,72.9z M563.9,70c-1.4,0.1-2,0.2-2.8,0.2c-2.4,0-3.2-0.3-3.2-1.3v-4.6h-4.5c0,2-0.4,3.3-1.1,4.5
		c-0.6,1-1.4,1.7-3,2.5c-0.4-0.6-0.6-0.8-1.1-1.2c2.9-1.5,3.7-2.8,3.7-6.3c0-0.5,0-0.6-0.1-1.1c0.4,0,0.8,0.1,1.7,0.1h4.2
		c0.9,0,1.3,0,1.7-0.1c-0.1,0.5-0.1,0.7-0.1,1.8v3.8c0,0.4,0.2,0.5,1.2,0.5c0.7,0,1.7-0.1,3.3-0.3L563.9,70z M552.1,73.4
		c0.9,2,1.6,2.9,3.3,4.4c1.7-1.4,2.6-2.5,3.7-4.4H552.1z"/>
	<path id="XMLID_464_" class="st1" d="M568.7,66.7c-0.1,0.8-0.1,1.3-0.1,2.7v11.4c0,1.4,0,2.1,0.1,2.8h-1.8c0.1-0.9,0.1-1.6,0.1-2.8
		V69.4c0-1.3,0-1.8-0.1-2.7H568.7z M569,61.7c1.5,1.7,2,2.2,3.7,4.6l-1.3,0.9c-1.3-2.1-1.5-2.3-3.6-4.7L569,61.7z M580.2,70.1
		c0.7,0,1.3,0,1.8-0.1c0,0.6-0.1,0.9-0.1,1.5v5.4c0,0.6,0,1,0.1,1.5c-0.6,0-0.9-0.1-1.5-0.1H574c-0.5,0-1.7,0-1.9,0.1
		c0-0.7,0.1-1,0.1-1.9v-5c0-0.6,0-1-0.1-1.5c0.6,0,1,0.1,1.7,0.1H580.2z M575.8,64.3c-1.1,0-1.5,0-2.2,0.1v-1.7
		c0.7,0.1,1.1,0.1,2.1,0.1h9.1c1,0,1.5,0,2-0.1c-0.1,0.6-0.1,1.2-0.1,2.1v16.9c0,0.8-0.3,1.3-0.9,1.6c-0.3,0.1-1.2,0.2-2.3,0.2
		c-0.2,0-0.9,0-2.3-0.1c-0.1-0.9-0.2-1.2-0.4-1.8c1.3,0.2,1.9,0.3,2.9,0.3c1.2,0,1.5-0.1,1.5-0.6V64.4h-9.4V64.3z M573.6,77h6.8
		v-5.6h-6.8V77z"/>
	<path id="XMLID_470_" class="st1" d="M595.4,73.3h-2.9c-1.3,0-1.8,0-2.4,0.1v-1.6c0.7,0.1,1.3,0.1,2.4,0.1h6.3c0.9,0,1.4,0,2.2-0.1
		v1.6c-0.7-0.1-1.2-0.1-2.2-0.1h-2v2.6h1.7c0.9,0,1.3,0,1.9-0.1v1.5c-0.6-0.1-1.1-0.1-1.9-0.1h-1.6v3.5c1.5,0.7,3.9,1,8.6,1
		c3,0,5-0.1,7.2-0.4c-0.3,0.6-0.4,0.9-0.5,1.7c-1.5,0.1-3.5,0.1-5.9,0.1c-4.8,0-7.5-0.2-9.2-0.8c-1.7-0.6-3-1.5-4.2-3.2
		c-0.5,1.8-0.9,2.8-1.9,4.2c-0.4-0.4-0.7-0.6-1.2-0.9c1-1.3,1.5-2.4,1.9-3.6c0.3-0.9,0.5-2.6,0.5-3.6c0-0.3,0-0.4,0-0.6l1.5,0.2
		c0,0.3,0,0.4-0.1,0.8c-0.1,0.7-0.1,1.1-0.3,2.1c0.6,0.9,1.2,1.6,2.3,2.5v-6.9H595.4z M593.8,70.5c-1.1,0-1.6,0-2.2,0.1
		c0.1-0.6,0.1-1.1,0.1-2.1v-3.6c0-1,0-1.5-0.1-2.2c0.6,0.1,1.1,0.1,2.2,0.1h3.8c1.1,0,1.5,0,2.2-0.1c-0.1,0.7-0.1,1.1-0.1,2.2v3.6
		c0,1,0,1.4,0.1,2.1c-0.7-0.1-1.2-0.1-2.2-0.1H593.8z M593,66h5.4v-2H593V66z M593,69.3h5.4v-2.1H593V69.3z M607.1,68.3
		c-0.1,0.5-0.1,0.5-0.1,3.2c0,3.2-0.3,4.8-1.2,6c-1.1,1.5-2.5,2.6-4.9,3.6c-0.4-0.6-0.6-0.9-1-1.2c1.4-0.5,2.1-0.9,3-1.5
		c1.4-1,2.1-2,2.4-3.3c0.2-0.7,0.3-2.5,0.3-3.9s0-2.5-0.1-2.9L607.1,68.3L607.1,68.3z M603.4,77.1H602c0.1-0.6,0.1-1.1,0.1-2.1v-6.5
		c0-0.9,0-1.4-0.1-2.1c0.7,0,1.1,0.1,2.1,0.1h0.7c0.4-1,0.6-1.5,0.7-2.2h-2.1c-1,0-1.7,0-2.4,0.1v-1.5c0.8,0.1,1.5,0.1,2.4,0.1h6
		c1,0,1.7,0,2.3-0.1v1.5c-0.7-0.1-1.5-0.1-2.3-0.1H607c-0.2,0.8-0.4,1.4-0.8,2.2h2.4c1,0,1.3,0,2.1-0.1c-0.1,0.6-0.1,1.1-0.1,2.2
		v6.3c0,1.1,0,1.7,0.1,2.3h-1.5v-9.5h-5.8V77.1L603.4,77.1z M607.4,76.9c1.9,1.1,3.4,2.1,4.6,3l-0.8,1.2c-1.7-1.4-2.3-1.8-4.5-3.2
		L607.4,76.9z"/>
	<path id="XMLID_496_" class="st1" d="M614.6,78.8c0.1-0.8,0.1-1.4,0.1-2.8v-9.8c0-1.2,0-1.9-0.1-2.7c0.5,0,0.8,0.1,1.9,0.1h1.4
		c1,0,1.3,0,1.8-0.1c-0.1,0.7-0.1,1.1-0.1,2.6v9.5c0,1.4,0,1.8,0.1,2.5h-1.4v-1.4h-2.2v2.1H614.6z M616.1,75.4h2.2V64.9h-2.2V75.4z
		 M626.8,63.2c-0.1,0.3-0.1,0.4-0.3,0.8c-0.6,2.4-1.2,3.8-2,5.8c0.7,1.1,0.9,1.7,1.2,2.7c0.3,1.1,0.5,2.2,0.5,3.3
		c0,2-0.6,2.7-2.3,2.7c-0.2,0-0.4,0-0.7,0c0-0.6-0.1-1-0.4-1.5c0.4,0.1,0.7,0.1,1,0.1c0.7,0,0.9-0.3,0.9-1.4c0-2.1-0.5-3.7-1.8-5.6
		c1.1-2.5,1.5-3.9,2.1-6.3h-2.7v17.1c0,1.3,0,1.9,0.1,2.4H621c0.1-0.6,0.1-1.4,0.1-2.5V64.5c0-0.7,0-1.7-0.1-2.2
		c0.5,0,0.8,0.1,1.7,0.1h1.8c0.8,0,1.1,0,1.4-0.1L626.8,63.2z M634.7,81.1c0,1.4-0.6,1.8-2.6,1.8c-0.5,0-0.9,0-1.7-0.1
		c0-0.6-0.1-1-0.3-1.6c0.9,0.2,1.5,0.3,2.2,0.3c0.8,0,1.1-0.1,1.1-0.7V64h-4c-0.9,0-1.6,0-2.2,0.1v-1.6c0.5,0.1,1.1,0.1,2.2,0.1h4.4
		c1,0,1.6,0,2.2-0.1v1.6c-0.4,0-0.6-0.1-1.1-0.1v17.1H634.7z M630.1,67c1.1,0,1.3,0,1.8-0.1c-0.1,0.6-0.1,1.1-0.1,1.9v6.3
		c0,0.7,0,1.2,0.1,1.7c-0.4,0-0.8-0.1-1.7-0.1h-1.7v2h-1.4c0.1-0.5,0.1-1,0.1-1.7v-8.3c0-0.8,0-1.3-0.1-1.9c0.4,0.1,0.7,0.1,1.8,0.1
		h1.2V67z M628.5,75.5h2v-7.2h-2V75.5z"/>
	<path id="XMLID_503_" class="st1" d="M642.1,81.6c0,1.8-0.3,2.4-1.5,3.1l-0.6-0.8c1-0.4,1.2-0.8,1.2-2.3h-1.4v-2.4h2.4v2.4H642.1z"
		/>
	<path id="XMLID_505_" class="st1" d="M681.5,62.9c-0.4,0.1-0.4,0.1-1.7,0.3c-1.9,0.4-4.8,0.8-7.2,1c-0.2,0.9-0.4,1.5-0.5,2h7.6
		c1,0,1.7,0,2.4-0.1v1.6c-0.6-0.1-1.4-0.1-2.4-0.1h-8.1c-0.2,0.6-0.4,1.1-0.8,1.9H681c1,0,1.7,0,2.4-0.1V71
		c-0.7-0.1-1.4-0.1-2.4-0.1h-10.9c-0.5,0.9-0.6,1-1,1.8h9.6c1.1,0,1.5,0,2.2-0.1c-0.1,0.6-0.1,1.1-0.1,2.1v7c0,1,0,1.6,0.1,2.2h-1.6
		v-1.2H669v1.2h-1.6c0.1-0.7,0.1-1.2,0.1-2.2V75c-1.3,1.7-2.7,3.1-4.3,4.5c-0.4-0.5-0.7-0.9-1.2-1.2c2.8-1.9,4.9-4.3,6.6-7.3h-3.8
		c-1,0-1.8,0-2.4,0.1v-1.6c0.7,0.1,1.4,0.1,2.4,0.1h4.5c0.3-0.6,0.6-1.4,0.8-1.9h-3.9c-1,0-1.6,0-2.4,0.1v-1.6
		c0.6,0.1,1.3,0.1,2.4,0.1h4.3c0.2-0.9,0.2-0.9,0.5-1.8c-4.2,0.3-4.2,0.3-6.5,0.3c-0.2-0.6-0.3-0.9-0.6-1.3c0.6,0,1,0,1.3,0
		c5.9,0,12.8-0.8,15.1-1.8L681.5,62.9z M669.1,73.7v1.7h10.3v-1.7H669.1z M669.1,76.5v1.7h10.3v-1.7H669.1z M669.1,79.3v1.9h10.3
		v-1.9H669.1z"/>
	<path id="XMLID_510_" class="st1" d="M489.5,91.7c-0.4,0.1-0.4,0.1-1.7,0.3c-1.9,0.4-4.8,0.8-7.2,1c-0.2,0.9-0.4,1.5-0.5,2h7.6
		c1,0,1.7,0,2.4-0.1v1.6c-0.6-0.1-1.4-0.1-2.4-0.1h-8.1c-0.2,0.6-0.4,1.1-0.8,1.9H489c1,0,1.7,0,2.4-0.1v1.6
		c-0.7-0.1-1.4-0.1-2.4-0.1h-10.9c-0.5,0.9-0.6,1-1,1.8h9.6c1.1,0,1.5,0,2.2-0.1c-0.1,0.6-0.1,1.1-0.1,2.1v7c0,1,0,1.6,0.1,2.2h-1.6
		v-1.2H477v1.2h-1.6c0.1-0.7,0.1-1.2,0.1-2.2v-6.7c-1.3,1.7-2.7,3.1-4.3,4.5c-0.4-0.5-0.7-0.9-1.2-1.2c2.8-1.9,4.9-4.3,6.6-7.3h-3.8
		c-1,0-1.8,0-2.4,0.1v-1.6c0.7,0.1,1.4,0.1,2.4,0.1h4.5c0.3-0.6,0.6-1.4,0.8-1.9h-3.9c-1,0-1.6,0-2.4,0.1V95
		c0.6,0.1,1.3,0.1,2.4,0.1h4.3c0.2-0.9,0.2-0.9,0.5-1.8c-4.2,0.3-4.2,0.3-6.5,0.3c-0.2-0.6-0.3-0.9-0.6-1.3c0.6,0,1,0,1.3,0
		c5.9,0,12.8-0.8,15.1-1.8L489.5,91.7z M477.1,102.5v1.7h10.3v-1.7H477.1z M477.1,105.3v1.7h10.3v-1.7H477.1z M477.1,108.1v1.9h10.3
		v-1.9H477.1z"/>
	<path id="XMLID_515_" class="st1" d="M512.8,94.2c1,0,1.8,0,2.5-0.2v1.7c-0.7-0.1-1.5-0.1-2.5-0.1h-7.2v3.9h3.2
		c1.1,0,1.6,0,2.1-0.1l1,1c-0.3,0.3-0.5,0.6-0.8,1.2c-1.2,1.9-2.8,3.7-4.8,5.3c2.6,1.8,5.4,2.8,9.4,3.6c-0.5,0.6-0.6,0.9-0.9,1.6
		c-4.1-1-6.9-2.3-9.7-4.3c-3,2.1-6,3.4-9.8,4.2c-0.2-0.6-0.5-1-0.9-1.5c3.7-0.6,6.8-1.9,9.4-3.7c-1.1-0.9-2-1.8-2.8-2.9
		c-0.8-1-1.1-1.6-1.8-3.1H499c-1.1,0-1.8,0-2.5,0.1v-1.6c0.6,0.1,1.4,0.1,2.6,0.1h5v-3.9h-6.8c-1,0-1.8,0-2.5,0.1v-1.7
		c0.7,0.1,1.5,0.2,2.5,0.2h6.8v-1.4c0-1,0-1.4-0.2-2.1h1.9c-0.1,0.6-0.2,1.1-0.2,2.1v1.5H512.8z M501,100.8c1,2.2,2.1,3.5,4.1,5.2
		c2.1-1.7,3.3-3,4.7-5.2H501z"/>
	<path id="XMLID_518_" class="st1" d="M523.2,109.5c0,1.1,0,2,0.1,2.9h-1.8c0.1-0.9,0.1-1.7,0.1-2.9v-8c0-1.1,0-1.8,0.1-2.9
		c-1,1.7-1.5,2.4-2.7,3.7c-0.1-0.1-0.1-0.2-0.2-0.3c-0.3-0.5-0.3-0.5-0.9-1.1c2.1-2.3,3.5-4.3,4.8-7.3c0.6-1.4,0.9-2.3,1.1-3.1
		l1.7,0.6c-0.2,0.3-0.3,0.6-0.6,1.4c-0.3,0.8-1.1,2.5-1.8,3.9L523.2,109.5L523.2,109.5z M527.1,97.8c-1,0-1.9,0-2.6,0.1v-1.7
		c0.6,0.1,1.5,0.1,2.5,0.1h7.6v-2.8c0-1.1,0-2.1-0.2-2.8h1.8c-0.1,0.8-0.1,1.6-0.1,2.8v2.8h1.2c1,0,1.7,0,2.3-0.1v1.6
		c-0.7-0.1-1.5-0.1-2.3-0.1h-1.2v12c0,1.6-0.5,2-2.6,2c-1,0-1.8,0-2.9-0.1c-0.1-0.7-0.2-1-0.5-1.6c1.5,0.2,2.2,0.3,3.3,0.3
		c1,0,1.2-0.1,1.2-0.6V97.8L527.1,97.8L527.1,97.8z M527.4,99.9c1.8,1.9,2.7,3.1,4.1,5.4l-1.3,1c-1.2-2.3-2.4-3.9-4-5.6L527.4,99.9z
		"/>
	<path id="XMLID_522_" class="st1" d="M549,101.9c-1.2,0.6-1.6,0.8-2.4,1.1v7.5c0,1.4-0.6,1.7-2.9,1.7c-0.3,0-0.5,0-0.8,0
		c-0.1-0.6-0.2-1-0.4-1.5c0.6,0.1,1.2,0.1,1.7,0.1c0.7,0,1-0.1,1-0.6v-6.7c-0.2,0.1-0.2,0.1-0.4,0.2c-0.3,0.1-0.7,0.3-1.2,0.5
		c-0.6,0.2-1,0.4-1.3,0.5l-0.4-1.7c0.8-0.1,1.5-0.3,3.3-1v-5.3H544c-0.7,0-1.2,0-1.8,0.1v-1.6c0.6,0.1,1.1,0.1,1.8,0.1h1.2V93
		c0-1,0-1.7-0.2-2.4h1.8c-0.1,0.7-0.2,1.4-0.2,2.4v2.3h0.8c0.8,0,1.1,0,1.7-0.1v1.5c-0.5-0.1-0.9-0.1-1.6-0.1h-0.8v4.7
		c0.8-0.3,1.3-0.6,2.3-1.1v-1.5c0.5,0.1,1.1,0.1,2.1,0.1h6.3c0.8-1.3,1.4-2.3,1.9-4.1l1.4,0.4c-0.6,1.6-1.1,2.5-1.9,3.6h2.6
		c1.2,0,1.8,0,2.4-0.1v1.6c-0.5-0.1-1.2-0.1-2.3-0.1h-10.4c-1,0-1.4,0-2.1,0.1V101.9z M560.3,104.4c-0.6,1.7-1.5,3-2.8,4.2
		c1.9,0.8,2.9,1.3,5.5,2.8l-1.1,1.3c-2.3-1.5-3.5-2.1-5.6-3c-2,1.3-4.5,2.3-7.9,2.8c-0.2-0.6-0.4-0.9-0.8-1.4
		c1.9-0.2,3.2-0.4,4.6-0.9c0.9-0.3,2-0.8,2.6-1.2c-1.7-0.7-2.5-0.9-4.8-1.6c1.1-1.1,1.4-1.5,2.4-2.9H551c-1.1,0-1.7,0-2.3,0.1V103
		c0.6,0.1,1.2,0.1,2.3,0.1h2.3c0.6-0.9,1-1.8,1.2-2.4l1.6,0.4c-0.2,0.3-0.5,0.9-1.2,2h6.5c1.2,0,1.8,0,2.3-0.1v1.6
		c-0.6-0.1-1.2-0.1-2.3-0.1L560.3,104.4L560.3,104.4z M560.8,93.4c1.2,0,1.8,0,2.4-0.1v1.6c-0.5-0.1-1.2-0.1-2.3-0.1h-9
		c-1.1,0-1.8,0-2.3,0.1v-1.6c0.6,0.1,1.2,0.1,2.4,0.1h3.5c-0.7-1.2-0.7-1.3-1.4-2.2l1.2-0.6c1,1.3,1,1.4,1.8,2.8L560.8,93.4
		L560.8,93.4z M552.9,95.1c0.7,1.2,1,1.9,1.5,3.2l-1.3,0.5c-0.4-1.3-0.7-1.9-1.4-3.2L552.9,95.1z M554.1,104.4
		c-0.8,1.2-1,1.5-1.8,2.3c1.9,0.6,2.5,0.8,3.8,1.3c0.6-0.5,1.2-1.1,1.7-1.7s0.6-0.9,0.9-1.9L554.1,104.4L554.1,104.4z"/>
	<path id="XMLID_528_" class="st1" d="M568,111.4c0.1-0.9,0.2-1.7,0.2-2.8V95.3c0-1.1,0-1.7-0.1-2.5c0.8,0.1,1.4,0.1,2.6,0.1h12.6
		c1.1,0,1.8,0,2.6-0.1c-0.1,0.7-0.1,1.4-0.1,2.5v13.3c0,1.1,0,1.9,0.2,2.8h-1.8v-1.9h-14.3v1.9H568z M569.8,108h14.3V94.4h-14.3V108
		z"/>
	<path id="XMLID_531_" class="st1" d="M594.6,106.1c0.1-0.6,0.1-0.8,0.1-1.6c0-1.2,0.3-2,0.9-2.9c0.5-0.6,0.7-0.8,2.1-1.8
		c0.9-0.6,1.3-0.9,1.7-1.3c0.5-0.6,0.8-1.2,0.8-2c0-1.8-1.6-3-3.9-3c-1.6,0-2.8,0.5-3.6,1.5c-0.4,0.5-0.6,1-0.9,2l-2-0.3
		c0.5-1.7,1-2.6,2-3.4c1.1-0.9,2.7-1.4,4.6-1.4c3.4,0,5.7,1.9,5.7,4.6c0,1-0.3,1.9-0.9,2.7c-0.4,0.5-0.8,0.8-1.8,1.6
		c-1.4,1-1.8,1.3-2.1,1.8c-0.4,0.6-0.6,1.3-0.6,2.2c0,0.4,0,0.8,0.1,1.3L594.6,106.1L594.6,106.1z M596.8,108.4v2.3h-2.3v-2.3H596.8
		z"/>
</g>
</svg>
