<?xml version="1.0" encoding="utf-8"?>
<!-- Generator: Adobe Illustrator 18.1.1, SVG Export Plug-In . SVG Version: 6.00 Build 0)  -->
<svg version="1.1" id="图层_1" xmlns="http://www.w3.org/2000/svg" xmlns:xlink="http://www.w3.org/1999/xlink" x="0px" y="0px"
	 viewBox="0 0 170 170" enable-background="new 0 0 170 170" xml:space="preserve">
<g>
	<path fill="none" stroke="#10AAE2" stroke-width="6" stroke-linecap="round" stroke-miterlimit="10" d="M45.3,117.4h-4.2
		c-11.5,0-20.9-9.4-20.9-20.9s9.4-20.9,20.9-20.9h4.2"/>
	<path fill="none" stroke="#10AAE2" stroke-width="6" stroke-linecap="round" stroke-miterlimit="10" d="M128.9,75.6
		c11.5,0,20.9,9.4,20.9,20.9s-9.4,20.9-20.9,20.9h-4.2V75.6H128.9z"/>
	<path fill="none" stroke="#006EC3" stroke-width="6" stroke-linecap="round" stroke-linejoin="round" stroke-miterlimit="10" d="
		M45.3,117.4V63.1c0,0,0-33.4,39.7-33.4s39.7,33.4,39.7,33.4v51.2v3.1v10.4l-31.3,12.5H80.8c-2.3,0-4.2-1.9-4.2-4.2v0
		c0-2.3,1.9-4.2,4.2-4.2h8.4c2.3,0,4.2,1.9,4.2,4.2v2.1"/>
</g>
</svg>
