<?xml version="1.0" encoding="utf-8"?>
<!-- Generator: Adobe Illustrator 19.0.0, SVG Export Plug-In . SVG Version: 6.00 Build 0)  -->
<svg version="1.1" id="图层_1" xmlns="http://www.w3.org/2000/svg" xmlns:xlink="http://www.w3.org/1999/xlink" x="0px" y="0px"
	 viewBox="0 0 300 220" style="enable-background:new 0 0 300 220;" xml:space="preserve">
<style type="text/css">
	.st0{fill:url(#SVGID_1_);}
	.st1{fill:url(#SVGID_2_);}
	.st2{fill:url(#SVGID_3_);}
	.st3{opacity:0.5;}
	.st4{fill:#FFFFFF;}
	.st5{opacity:0.66;fill:#FFFFFF;enable-background:new    ;}
	.st6{opacity:0.33;fill:#FFFFFF;enable-background:new    ;}
	.st7{opacity:0.5;fill:#FFFFFF;enable-background:new    ;}
</style>
<linearGradient id="SVGID_1_" gradientUnits="userSpaceOnUse" x1="190.8713" y1="189.8266" x2="247.8287" y2="91.1734" gradientTransform="matrix(1 0 0 -1 0 220)">
	<stop  offset="0" style="stop-color:#5DB8FF"/>
	<stop  offset="1" style="stop-color:#0076D1"/>
</linearGradient>
<path class="st0" d="M254.5,124h-70.3c-3.5,0-6.4-2.9-6.4-6.4V41.4c0-3.5,2.9-6.4,6.4-6.4h70.3c3.5,0,6.4,2.9,6.4,6.4v76.2
	C260.9,121.1,258,124,254.5,124z"/>
<g>
	<linearGradient id="SVGID_2_" gradientUnits="userSpaceOnUse" x1="45.9587" y1="11.1858" x2="124.8507" y2="147.8306">
		<stop  offset="0" style="stop-color:#5DB8FF"/>
		<stop  offset="1" style="stop-color:#0076D1"/>
	</linearGradient>
	<path class="st1" d="M164.4,124H6.4c-3.5,0-6.4-2.9-6.4-6.4V41.4C0,37.9,2.9,35,6.4,35h158c3.5,0,6.4,2.9,6.4,6.4v76.2
		C170.8,121.2,167.9,124,164.4,124z"/>
	<linearGradient id="SVGID_3_" gradientUnits="userSpaceOnUse" x1="87.4627" y1="83.6804" x2="173.3444" y2="232.4318">
		<stop  offset="0" style="stop-color:#5DB8FF"/>
		<stop  offset="1" style="stop-color:#0076D1"/>
	</linearGradient>
	<path class="st2" d="M253.5,185H7.3c-4.1,0-7.3-3.3-7.3-7.3v-39.3c0-4.1,3.3-7.3,7.3-7.3h246.2c4.1,0,7.3,3.3,7.3,7.3v39.3
		C260.9,181.7,257.6,185,253.5,185z"/>
	<g>
		<polygon id="XMLID_3_" class="st3 st4" points="138.7,99.8 122.6,75.1 111.9,90.1 105.6,84.4 100.9,90.6 80.7,90.6 73.4,78.5 
			63.7,97.1 48.2,64.9 32.7,91.8 27.3,77.4 23.9,82.3 0,82.3 0,79.6 22.5,79.6 28,71.7 33.2,85.5 48.4,59.2 63.8,91.2 73.3,73 
			82.2,88 99.6,88 105.3,80.4 111.5,86.1 122.7,70.4 138.1,94.1 146.2,73.6 150.1,79.6 170.8,79.6 170.8,82.3 148.7,82.3 
			146.8,79.4 		"/>
	</g>
	<g>
		<path class="st5" d="M219.3,59.3c-11.2,0-20.3,9.1-20.3,20.3s9.1,20.3,20.3,20.3c5.6,0,10.7-2.3,14.4-6l-14.4-14.3V59.3z"/>
		<path class="st6" d="M233.4,64.9c-3.6-3.5-8.6-5.7-14-5.7v20.3l14.4,14.3c3.6-3.7,5.9-8.7,5.9-14.3
			C239.6,73.8,237.2,68.6,233.4,64.9z"/>
	</g>
	<g>
		<rect x="33.7" y="171.2" class="st7" width="8.8" height="13.8"/>
		<rect x="64.5" y="161.6" class="st7" width="8.8" height="23.4"/>
		<rect x="95.2" y="178.1" class="st7" width="8.8" height="6.9"/>
		<rect x="126" y="143.3" class="st7" width="8.8" height="41.7"/>
		<rect x="156.8" y="154.2" class="st7" width="8.8" height="30.8"/>
		<rect x="187.6" y="172" class="st7" width="8.8" height="13"/>
		<rect x="218.4" y="166.7" class="st7" width="8.8" height="18.3"/>
	</g>
</g>
</svg>
