<?xml version="1.0" encoding="utf-8"?>
<!-- Generator: Adobe Illustrator 19.0.0, SVG Export Plug-In . SVG Version: 6.00 Build 0)  -->
<svg version="1.1" id="图层_1" xmlns="http://www.w3.org/2000/svg" xmlns:xlink="http://www.w3.org/1999/xlink" x="0px" y="0px"
	 viewBox="0 0 1000 1000" style="enable-background:new 0 0 1000 1000;" xml:space="preserve">
<style type="text/css">
	.st0{fill:url(#SVGID_1_);}
</style>
<linearGradient id="SVGID_1_" gradientUnits="userSpaceOnUse" x1="499.9" y1="747.3" x2="499.9" y2="252.6" gradientTransform="matrix(1 0 0 -1 0 1000)">
	<stop  offset="0" style="stop-color:#5DB8FF"/>
	<stop  offset="1" style="stop-color:#0076D1"/>
</linearGradient>
<path class="st0" d="M689.3,450.9h-9.5v-45.6c0-1.6-0.3-38.8-22.6-76.4c-13.2-22.2-31.4-39.9-54-52.6
	c-27.9-15.7-62.6-23.6-103.2-23.6s-75.2,7.9-103.2,23.6c-22.6,12.7-40.8,30.4-54,52.6c-22.3,37.6-22.6,74.9-22.6,76.4v45.6h-9.5
	c-54.4,0-98.6,44.2-98.6,98.6s44.2,98.6,98.6,98.6h26.5V486.5V451v-45.6c0-0.3,0.4-34.7,20.6-68.4c11.7-19.5,27.8-35,47.7-46.1
	c25.3-14.1,57.1-21.2,94.4-21.2s69.2,7.1,94.4,21.2c20,11.1,36,26.6,47.7,46.1c20.2,33.7,20.6,68,20.6,68.4V451v8.5v180.3v8.5V679
	l-118.2,47.3v-32h-89.1v53.1h82.2l142.1-56.8v-42.3h9.5c54.4,0,98.6-44.2,98.6-98.6S743.7,450.9,689.3,450.9z M320.2,631.2h-9.5
	c-45,0-81.6-36.6-81.6-81.6s36.6-81.6,81.6-81.6h9.5v18.5V631.2z M534.4,730.4h-62v-19.1h55.1v18.5h8.1L534.4,730.4z M689.3,631.2
	h-9.5V467.9h9.5c45,0,81.6,36.6,81.6,81.6S734.3,631.2,689.3,631.2z"/>
</svg>
