<?xml version="1.0" encoding="utf-8"?>
<!-- Generator: Adobe Illustrator 18.1.1, SVG Export Plug-In . SVG Version: 6.00 Build 0)  -->
<svg version="1.1" id="图层_1" xmlns="http://www.w3.org/2000/svg" xmlns:xlink="http://www.w3.org/1999/xlink" x="0px" y="0px"
	 viewBox="0 0 1000 1000" enable-background="new 0 0 1000 1000" xml:space="preserve">
<path d="M609.9,333c-1.4-9-4.7-23.9-13-38.5c-12.8-22.8-40.1-49.9-97.1-49.9c-57,0-84.3,27-97.1,49.9c-8.2,14.6-11.6,29.5-13,38.5
	H145v422h710V333H609.9z M422.1,305.4c14.5-25.7,40.6-38.6,77.8-38.6c36.8,0,62.8,12.6,77.4,37.8c6,10.4,8.8,21.4,10.2,28.4H412.3
	C413.6,326,416.4,315.6,422.1,305.4z M833,356v111H167V356H833z M455,489h89v44h-89V489z M167,733V489h266v67h133v-67h267v244H167z"
	/>
</svg>
