<?xml version="1.0" encoding="utf-8"?>
<!-- Generator: Adobe Illustrator 18.1.1, SVG Export Plug-In . SVG Version: 6.00 Build 0)  -->
<svg version="1.1" id="图层_1" xmlns="http://www.w3.org/2000/svg" xmlns:xlink="http://www.w3.org/1999/xlink" x="0px" y="0px"
	 viewBox="0 0 1000 1000" enable-background="new 0 0 1000 1000" xml:space="preserve">
<path d="M627.5,522.3l-33.3,33.3l-46.1-46.1l83.9-82.5h39.9c35.3,0,63.6-10.5,84.2-31c25.2-25.2,37.9-65.2,37.9-118.9v-17.5
	l-97.4,45.7l-33.7-34.9l42.7-98.4h-16.9c-53.7,0-93.6,12.8-118.7,37.7c-20.6,20.4-30.9,48.8-30.9,84v39.9l-82.8,83.9L321.3,282.6
	l35.5-35.5l-130.7-78.4l-34.5,34.5L270,333.8l35.5-35.5l135,135L169.9,707.9l-2,2l-22.1,75.8l33,31l76.1-18.8l277.4-272.8l46.2,46.2
	l-33.3,33.3l226.7,226.7l82.3-82.3L627.5,522.3z M219.5,206.6l9.9-9.9l91.4,54.8L274.4,298L219.5,206.6z M243.7,777.9l-58.5,14.4
	l-14.2-13.4l16.7-57.4l370.1-375.6l3.2-3.2v-49c0-29.1,8.2-52,24.4-68.1c18.2-18.1,47.1-28.4,86.1-30.7l-34.9,80.3l55.1,56.8
	l79.7-37.3c-2.4,38.6-12.7,67.4-30.9,85.6c-16.3,16.3-39.3,24.6-68.5,24.6h-49L243.7,777.9z M576.6,604.6l50.9-50.9L822.8,749
	l-50.9,50.9L576.6,604.6z"/>
</svg>
