<?xml version="1.0" encoding="utf-8"?>
<!-- Generator: Adobe Illustrator 18.1.1, SVG Export Plug-In . SVG Version: 6.00 Build 0)  -->
<svg version="1.1" id="图层_1" xmlns="http://www.w3.org/2000/svg" xmlns:xlink="http://www.w3.org/1999/xlink" x="0px" y="0px"
	 viewBox="0 0 1000 1000" enable-background="new 0 0 1000 1000" xml:space="preserve">
<path d="M827.4,361.7c-17.9-42.3-43.5-80.3-76.1-112.9c-32.6-32.6-70.6-58.2-112.9-76.1c-43.8-18.5-90.4-27.9-138.3-27.9
	c-48,0-94.5,9.4-138.3,27.9c-42.3,17.9-80.3,43.5-112.9,76.1c-32.6,32.6-58.2,70.6-76.1,112.9c-18.5,43.8-27.9,90.3-27.9,138.3
	c0,48,9.4,94.5,27.9,138.3c17.9,42.3,43.5,80.3,76.1,112.9c32.6,32.6,70.6,58.2,112.9,76.1c43.8,18.5,90.3,27.9,138.3,27.9
	c48,0,94.5-9.4,138.3-27.9c42.3-17.9,80.3-43.5,112.9-76.1s58.2-70.6,76.1-112.9c18.5-43.8,27.9-90.4,27.9-138.3
	C855.3,452,845.9,405.5,827.4,361.7z M735.7,264.3C779.9,308.5,809.9,363,824,422H659.7c-17.4-36-46.7-64.3-81.7-81.7V176
	C637,190.1,691.5,220.1,735.7,264.3z M833.1,499.5c0,18.8-1.6,37.5-4.6,55.5H668.8c5.8-17,8.9-36.1,8.9-55.5
	c0-19.4-3.1-37.5-8.9-55.5h159.8C831.6,462,833.1,480.7,833.1,499.5z M500,655.5c-85.7,0-155.5-69.7-155.5-155.5
	c0-85.7,69.7-155.5,155.5-155.5c85.7,0,155.5,69.7,155.5,155.5C655.5,585.7,585.7,655.5,500,655.5z M331.2,555H171.5
	c-3-18-4.6-36.7-4.6-55.5c0-18.8,1.6-37.5,4.6-55.5h159.8c-5.8,18-8.9,36.1-8.9,55.5C322.3,518.9,325.5,538,331.2,555z M556,171.5
	v159.8c-18-5.8-36.6-8.9-56-8.9c-19.4,0-38,3.1-56,8.9V171.5c19-3,37.2-4.6,56-4.6C518.8,166.9,537,168.4,556,171.5z M264.3,264.3
	C308.5,220.1,363,190.1,422,176v164.3c-35,17.4-64.3,45.7-81.7,81.7H176C190.1,363,220.1,308.5,264.3,264.3z M264.3,735.2
	C220.1,691,190.1,637,176,577h164.3c17.4,36,46.7,65.3,81.7,82.7V824C363,809.9,308.5,779.4,264.3,735.2z M444,828.5V668.8
	c18,5.8,36.6,8.9,56,8.9c19.4,0,38-3.1,56-8.9v159.8c-19,3-37.2,4.6-56,4.6C481.2,833.1,463,831.6,444,828.5z M735.7,735.2
	C691.5,779.4,637,809.9,578,824V659.7c35-17.4,64.3-46.7,81.7-82.7H824C809.9,637,779.9,691,735.7,735.2z"/>
</svg>
