<?xml version="1.0" encoding="utf-8"?>
<!-- Generator: Adobe Illustrator 19.0.0, SVG Export Plug-In . SVG Version: 6.00 Build 0)  -->
<svg version="1.1" id="图层_1" xmlns="http://www.w3.org/2000/svg" xmlns:xlink="http://www.w3.org/1999/xlink" x="0px" y="0px"
	 viewBox="0 0 1000 1000" style="enable-background:new 0 0 1000 1000;" xml:space="preserve">
<style type="text/css">
	.st0{fill:url(#XMLID_12_);}
	.st1{fill:url(#XMLID_13_);}
	.st2{fill:url(#XMLID_14_);}
	.st3{fill:url(#XMLID_15_);}
	.st4{fill:url(#XMLID_16_);}
	.st5{fill:url(#XMLID_17_);}
	.st6{fill:url(#XMLID_18_);}
</style>
<g>
	<linearGradient id="XMLID_12_" gradientUnits="userSpaceOnUse" x1="500" y1="290.7207" x2="500" y2="709.2793">
		<stop  offset="0" style="stop-color:#1EBF5E"/>
		<stop  offset="1" style="stop-color:#00903A"/>
	</linearGradient>
	<path id="XMLID_10_" class="st0" d="M242.6,709.3V290.7h514.8v418.6H242.6z M740,691.8V372.2H259.9v319.6H740z M740,354.8V308
		H259.9v46.8H740z"/>
	<linearGradient id="XMLID_13_" gradientUnits="userSpaceOnUse" x1="307.4019" y1="290.5258" x2="307.4019" y2="709.4492">
		<stop  offset="0" style="stop-color:#1EBF5E"/>
		<stop  offset="1" style="stop-color:#00903A"/>
	</linearGradient>
	<rect id="XMLID_6_" x="290.7" y="322.8" class="st1" width="33.4" height="17.4"/>
	<linearGradient id="XMLID_14_" gradientUnits="userSpaceOnUse" x1="371.6011" y1="290.5258" x2="371.6011" y2="709.4492">
		<stop  offset="0" style="stop-color:#1EBF5E"/>
		<stop  offset="1" style="stop-color:#00903A"/>
	</linearGradient>
	<rect id="XMLID_5_" x="354.9" y="322.8" class="st2" width="33.4" height="17.4"/>
	<linearGradient id="XMLID_15_" gradientUnits="userSpaceOnUse" x1="435.728" y1="290.5258" x2="435.728" y2="709.4492">
		<stop  offset="0" style="stop-color:#1EBF5E"/>
		<stop  offset="1" style="stop-color:#00903A"/>
	</linearGradient>
	<rect id="XMLID_4_" x="419" y="322.8" class="st3" width="33.4" height="17.4"/>
	<linearGradient id="XMLID_16_" gradientUnits="userSpaceOnUse" x1="636.9395" y1="290.5258" x2="636.9395" y2="709.4492">
		<stop  offset="0" style="stop-color:#1EBF5E"/>
		<stop  offset="1" style="stop-color:#00903A"/>
	</linearGradient>
	<polygon id="XMLID_3_" class="st4" points="588.9,605.9 660.4,534.4 588.9,462.9 601.1,450.6 684.9,534.4 601.1,618.2 	"/>
	<linearGradient id="XMLID_17_" gradientUnits="userSpaceOnUse" x1="362.9878" y1="290.5258" x2="362.9878" y2="709.4492">
		<stop  offset="0" style="stop-color:#1EBF5E"/>
		<stop  offset="1" style="stop-color:#00903A"/>
	</linearGradient>
	<polygon id="XMLID_2_" class="st5" points="315,534.4 398.8,450.6 411,462.9 339.5,534.4 411,605.9 398.8,618.2 	"/>
	<linearGradient id="XMLID_18_" gradientUnits="userSpaceOnUse" x1="499.9634" y1="290.5258" x2="499.9634" y2="709.4492">
		<stop  offset="0" style="stop-color:#1EBF5E"/>
		<stop  offset="1" style="stop-color:#00903A"/>
	</linearGradient>
	<polygon id="XMLID_1_" class="st6" points="448.4,614.7 536.3,452.5 551.5,460.8 463.7,623 	"/>
</g>
</svg>
