<?xml version="1.0" encoding="utf-8"?>
<!-- Generator: Adobe Illustrator 19.0.0, SVG Export Plug-In . SVG Version: 6.00 Build 0)  -->
<svg version="1.1" id="图层_1" xmlns="http://www.w3.org/2000/svg" xmlns:xlink="http://www.w3.org/1999/xlink" x="0px" y="0px"
	 viewBox="0 0 790 170" style="enable-background:new 0 0 790 170;" xml:space="preserve">
<style type="text/css">
	.st0{fill:#FFFFFF;}
</style>
<g id="XMLID_2_">
	<path id="XMLID_5_" class="st0" d="M36.9,129.4H20v38.1H-0.2v-103h42.1c5.2,0,9.9,0.7,14.1,2c4.3,1.3,7.9,3.3,10.9,6s5.4,6,7,9.8
		c1.6,3.9,2.5,8.3,2.5,13.4c0,4.4-0.5,8.2-1.6,11.6c-1,3.4-2.5,6.3-4.2,8.8c-1.8,2.5-3.9,4.5-6.3,6.1s-4.9,2.8-7.4,3.7l23.4,41.5
		H56.5L36.9,129.4z M20,110.4h22.5c4.5,0,8.1-1,10.8-3.1c2.7-2,4.1-5.4,4.1-10.2c0-4.6-1.4-7.8-4.1-9.8c-2.7-2-6.3-3-10.8-3H20
		V110.4z"/>
	<path id="XMLID_18_" class="st0" d="M136.3,161.9c-5.6,5.1-12.4,7.6-20.5,7.6c-3.5,0-6.9-0.5-10.3-1.6c-3.4-1-6.5-2.7-9.2-5
		s-4.8-5.2-6.5-8.9c-1.6-3.6-2.5-8-2.5-13c0-4.6,0.9-8.5,2.8-11.7c1.8-3.2,4.3-5.9,7.3-8s6.5-3.6,10.3-4.6s7.8-1.5,11.8-1.5
		c3.3,0,6.2,0.4,8.8,1.3s4.9,2.1,6.8,3.7c0-5.7-0.9-9.9-2.8-12.7c-1.8-2.8-5-4.2-9.5-4.2c-4.6,0-8.6,0.6-12.1,1.9s-6.4,2.8-8.6,4.5
		l-8.3-16.1c2.9-2.5,6.7-4.6,11.6-6.3c4.9-1.7,10.6-2.5,17.3-2.5c9.9,0,17.6,2.8,23.1,8.3s8.2,14.5,8.2,27v47.2h-17.7L136.3,161.9
		L136.3,161.9z M135.1,134.3c-1.4-1.1-3.5-2-6.4-2.8c-2.9-0.7-5.8-1.1-8.6-1.1c-4.5,0-7.9,0.8-10.2,2.5c-2.3,1.6-3.5,4.3-3.5,8.1
		c0,3.7,1.1,6.3,3.3,8c2.2,1.6,5.6,2.5,10,2.5c1.5,0,3-0.2,4.6-0.5s3.1-0.8,4.5-1.4c1.4-0.6,2.6-1.2,3.7-1.9
		c1.1-0.7,1.9-1.4,2.5-2.1L135.1,134.3L135.1,134.3z"/>
	<path id="XMLID_21_" class="st0" d="M164.2,69.1c0-2.9,0.9-5.4,2.8-7.4c1.9-2.1,4.3-3.1,7.2-3.1c2.8,0,5.1,1,7.2,3.1
		c2,2.1,3,4.6,3,7.4s-1,5.1-3,7.1c-2,1.9-4.4,2.9-7.2,2.9c-3,0-5.4-1-7.2-2.9C165.1,74.3,164.2,71.9,164.2,69.1z M184.4,87v80.5
		h-20.2V87H184.4z"/>
	<path id="XMLID_24_" class="st0" d="M195.1,65.8l20.2-6.8v108.5h-20.2V65.8z"/>
	<path id="XMLID_26_" class="st0" d="M254.4,84.6c6.3,0,11.6,0.6,15.9,1.9c4.4,1.3,8.4,3.5,12.2,6.6l-7,17c-1.2-1.4-2.8-2.6-4.8-3.5
		s-4.1-1.7-6.3-2.3c-2.1-0.6-4.2-1-6.2-1.3c-2-0.2-3.5-0.4-4.6-0.4c-3,0-5.2,0.5-6.6,1.5c-1.4,1-2.2,2.2-2.2,3.7c0,0.5,0.3,1,1,1.6
		c0.6,0.6,1.4,1.2,2.4,1.9c0.9,0.6,2,1.2,3.2,1.8c1.2,0.5,2.4,1,3.6,1.4c3.6,1.4,7.2,2.8,10.9,4.2c3.7,1.4,7.1,3.1,10,5.2
		c3,2.1,5.4,4.7,7.4,7.8s2.9,7.1,2.9,12c0,5.1-0.9,9.2-2.8,12.5c-1.8,3.3-4.2,5.9-7.2,7.8c-3,1.9-6.3,3.3-10,4s-7.4,1.1-11.1,1.1
		c-7.2,0-13.7-0.9-19.4-2.8c-5.7-1.9-10.2-4.1-13.5-6.7l7.3-16.7c3.1,2.1,6.9,3.9,11.4,5.4s9.2,2.3,13.9,2.3c1.3,0,2.6-0.1,4-0.2
		c1.4-0.1,2.6-0.4,3.7-0.8c1.1-0.4,2-1,2.8-1.7c0.7-0.7,1.1-1.7,1.1-2.8c0-2.1-1.2-3.8-3.5-5.1s-5-2.7-8.1-3.9
		c-3.3-1.4-6.7-2.7-10.3-4s-6.8-2.9-9.7-4.8c-2.9-1.9-5.3-4.4-7.1-7.3c-1.9-2.9-2.8-6.7-2.8-11.4c0-5,1-9,2.9-12.1s4.4-5.6,7.3-7.3
		c2.9-1.7,6.1-2.9,9.6-3.6C248.2,84.9,251.4,84.6,254.4,84.6z"/>
	<path id="XMLID_28_" class="st0" d="M361.7,111.8h37.4v16.1c0,5.9-0.9,11.3-2.7,16.4c-1.8,5.1-4.4,9.5-7.8,13.2s-7.7,6.7-12.7,8.8
		c-5.1,2.1-10.9,3.2-17.4,3.2c-6.4,0-12.3-1.1-17.7-3.4c-5.5-2.3-10.2-5.7-14.1-10.1c-4-4.5-7.1-10-9.4-16.7
		c-2.3-6.6-3.4-14.3-3.4-23.1c0-8.7,1.1-16.5,3.4-23.1c2.3-6.7,5.4-12.3,9.5-16.8c4-4.5,8.8-7.9,14.3-10.2
		c5.5-2.3,11.5-3.4,18.1-3.4c7.6,0,14.5,1.6,20.5,4.8c6.1,3.2,11.3,8.8,15.8,16.7L380.6,96c-3.3-4.3-6.8-7.5-10.6-9.8
		c-3.8-2.2-7.6-3.3-11.5-3.3c-7.4,0-13.4,2.8-17.8,8.3s-6.6,13.9-6.6,25s2.2,19.4,6.6,24.9s10.3,8.2,17.8,8.2c2.8,0,5.4-0.4,7.7-1.3
		c2.4-0.9,4.5-2.1,6.3-3.5c1.8-1.5,3.2-3.2,4.2-5.1c1-1.9,1.5-3.9,1.5-6v-2.7h-16.4L361.7,111.8L361.7,111.8z"/>
	<path id="XMLID_30_" class="st0" d="M407.8,69.1c0-2.9,0.9-5.4,2.8-7.4c1.9-2.1,4.3-3.1,7.2-3.1c2.8,0,5.1,1,7.2,3.1
		c2,2.1,3,4.6,3,7.4s-1,5.1-3,7.1c-2,1.9-4.4,2.9-7.2,2.9c-3,0-5.4-1-7.2-2.9C408.8,74.3,407.8,71.9,407.8,69.1z M428.1,87v80.5
		h-20.2V87H428.1z"/>
	<path id="XMLID_33_" class="st0" d="M457.9,87v5.5c1.4-2.3,3.7-4.1,6.8-5.4c3.2-1.3,6.5-2,10-2c2.3,0,4.5,0.3,6.6,1s3.8,1.8,5,3.4
		l-7.3,18c-2.5-2.2-5.2-3.3-8.2-3.3c-2.5,0-4.7,0.9-6.8,2.8c-2,1.8-3.7,4.7-5,8.6v52h-20.2V87H457.9z"/>
	<path id="XMLID_35_" class="st0" d="M490.8,65.8L511,59v108.5h-20.2V65.8z"/>
	<path id="XMLID_37_" class="st0" d="M550,84.6c6.3,0,11.6,0.6,15.9,1.9c4.4,1.3,8.4,3.5,12.2,6.6l-7,17c-1.2-1.4-2.8-2.6-4.8-3.5
		s-4.1-1.7-6.3-2.3c-2.1-0.6-4.2-1-6.2-1.3c-2-0.2-3.5-0.4-4.6-0.4c-3,0-5.2,0.5-6.6,1.5c-1.4,1-2.2,2.2-2.2,3.7c0,0.5,0.3,1,1,1.6
		c0.6,0.6,1.4,1.2,2.4,1.9c0.9,0.6,2,1.2,3.2,1.8c1.2,0.5,2.4,1,3.6,1.4c3.6,1.4,7.2,2.8,10.9,4.2c3.7,1.4,7.1,3.1,10,5.2
		c3,2.1,5.4,4.7,7.4,7.8c1.9,3.1,2.9,7.1,2.9,12c0,5.1-0.9,9.2-2.8,12.5c-1.8,3.3-4.2,5.9-7.2,7.8c-3,1.9-6.3,3.3-10,4
		s-7.4,1.1-11.1,1.1c-7.2,0-13.7-0.9-19.4-2.8c-5.7-1.9-10.2-4.1-13.5-6.7l7.3-16.7c3.1,2.1,6.9,3.9,11.4,5.4s9.2,2.3,13.9,2.3
		c1.3,0,2.6-0.1,4-0.2c1.4-0.1,2.6-0.4,3.7-0.8c1.1-0.4,2-1,2.8-1.7c0.7-0.7,1.1-1.7,1.1-2.8c0-2.1-1.2-3.8-3.5-5.1s-5-2.7-8.1-3.9
		c-3.3-1.4-6.7-2.7-10.3-4s-6.8-2.9-9.7-4.8c-2.9-1.9-5.3-4.4-7.1-7.3c-1.9-2.9-2.8-6.7-2.8-11.4c0-5,1-9,2.9-12.1s4.4-5.6,7.3-7.3
		c2.9-1.7,6.1-2.9,9.6-3.6C543.8,84.9,547,84.6,550,84.6z"/>
</g>
<g id="XMLID_4_">
	<path id="XMLID_7_" class="st0" d="M710.8,56.4h-2.7c-0.4,0-0.7,1.1-0.7,1.5v16.9c0,0.2-0.1,0.3-0.2,0.3c-0.1,0-0.2-0.1-0.3-0.3
		l-7.5-16.9c-0.4-0.8-0.8-1.5-1.4-1.5h-3.5c-0.8,0-1.3,1.4-1.3,2.2v22c0,0.4,0.3,0.4,0.7,0.4h2.7c0.4,0,0.4,0,0.4-0.4V64.3
		c0-0.2,0.2-0.3,0.3-0.3s0.3,0.1,0.4,0.3l7.1,15.5c0.5,1.1,1.2,1,2,1h3.3c0.8,0,2-0.3,2-0.9v-22C712.1,57.5,711.2,56.4,710.8,56.4z"
		/>
	<path id="XMLID_11_" class="st0" d="M694.8,84.7c-2.3,0-4.5,0.2-6.2,0.4c-0.7,0.1-0.9,0.3-0.9,0.9v21.9c0,0.4,0.4,0.2,0.8,0.2h3.2
		c0.4,0-0.2,0.2-0.2-0.2v-8.3c1.9,0,2.1,0.1,2.9,0.1c5,0,9.3-1.8,9.3-7.4V92C703.7,86.3,699.7,84.7,694.8,84.7z M699,92.3
		c0,2.5-1.3,3.8-4.7,3.8c-0.6,0-0.9-0.1-2.8-0.1v-7.6c1.9-0.1,2.1-0.1,2.8-0.1c3.2,0,4.7,1,4.7,3.7V92.3z"/>
	<path id="XMLID_41_" class="st0" d="M763.7,35.8V10.4h-52.5v25.3h-24.4l0,0V10.4h-52.5v25.3h-25.3v52.5h25.3v27.2h13.7h11.6v27.2
		h24h2.3V169h26.3v-26.3h2.3h23.1v-27.2h14.7h11.5V88.3H790V35.8H763.7z M677.4,67.3c0-4.2,1.5-6.1,4.7-6.1c3.2,0,4.7,1.9,4.7,6.1
		v3.8c0,4.2-1.5,6.1-4.7,6.1c-3.2,0-4.7-1.9-4.7-6.1V67.3z M731.9,97.4c-1.6,2.3-3.8,4.2-5.7,6V86c0-0.8-0.8-1.4-1.5-1.4h-2.6
		c-0.5,0-0.9,0.4-1.2,0.8l-4.9,9.9c-0.2,0.3-0.2,0.5-0.4,0.5c-0.1,0-0.2-0.2-0.4-0.5l-4.9-9.9c-0.2-0.5-0.7-0.8-1.2-0.8h-2.6
		c-0.8,0-1.1,0.7-1.1,1.4v22c0,0.3,0.1,0,0.4,0h3.3c0.3,0,0.2,0.2,0.2-0.2V92.9c0-0.2,0-0.3,0-0.3c0.9,0,0.4,0.1,0.4,0.2l3.2,5.7
		c0.2,0.4,0.8,0.1,1.1,0.1h3.3c0.4,0,0.8,0.3,1-0.1l3.1-5.9c0.1-0.1,0-0.1,0.1-0.1c0.1,0,0,0.2,0,0.5v13.4
		c-3.8,2.3-8.4,4.1-13.6,5.5c-11.1,2.9-20.5,2.6-28.5-0.9c-2.7-1.2-5.1-2.5-7.1-4.5l1-4h7.4l1.5,5.5c0.1,0.3,0.3,0.1,0.7,0.1h3.4
		c0.3,0,0.6,0,0.6-0.3l0,0l-5.3-19.9c-0.8-2.9-3.1-3.2-4.5-3.2c-1.4,0-3.8,0.3-4.5,3.3l-3.8,14.4c-2.3-3.1-4-6.8-5.2-11.3
		c-2.4-8.9-1-16.7,4.1-23.2c1.7-2.2,3.8-4.1,6.2-5.9c-0.7,1.4-1,3.2-1,5.4v3.8c0,7,3.6,10,8.9,10s8.9-2.9,8.9-10v-3.8
		c0-7-3.6-10-8.9-10c-0.1,0,0,0-0.2,0c3.2-1.4,6.8-2.7,10.6-3.7c9.9-2.6,18.9-2.2,27,1.2c1.7,0.8,3.3,1.6,4.8,2.5
		c-0.7,0-1.9,0-2.8,0c-4.2,0-8.1,1.1-8.1,6.6v10.7c0,5.4,3.8,6.6,8.1,6.6c3.9,0,5.3-0.3,6.3-0.5c0.5-0.1,0.7-0.2,0.7-0.7v-2.1
		c0-0.4,0.1-1.8-0.3-1.8H721c-1.9,0-2.4,0.6-2.4-1.6v-4.3h8.7c0.4,0,0.7-0.1,0.7-0.5v-2.3c0-0.4-0.3-0.9-0.7-0.9h-8.6v-2.9
		c0-2.2,0.7-2.7,2.5-2.7h7.3c3,3.2,5.3,7.1,6.6,11.9C737.7,82.6,736.6,90.7,731.9,97.4z M674.1,97.7l2.3-9.1
		c0.1-0.4,0.2-0.4,0.6-0.4s0.4-0.1,0.5,0.3l2.3,9.2C679.8,97.7,674.1,97.7,674.1,97.7z"/>
</g>
</svg>
